<?xml version="1.0" encoding="utf-8"?>
<!-- Generator: Adobe Illustrator 21.1.0, SVG Export Plug-In . SVG Version: 6.00 Build 0)  -->
<!DOCTYPE svg PUBLIC "-//W3C//DTD SVG 1.1//EN" "http://www.w3.org/Graphics/SVG/1.1/DTD/svg11.dtd">
<svg version="1.1" id="Layer_1" xmlns="http://www.w3.org/2000/svg" xmlns:xlink="http://www.w3.org/1999/xlink" x="0px" y="0px"
	 viewBox="0 0 360 576" style="enable-background:new 0 0 360 576;" xml:space="preserve">
<style type="text/css">
	.st0{fill:#E9E0CD;}
	.st1{fill:#0C0C0E;}
	.st2{clip-path:url(#SVGID_2_);}
	.st3{fill:#C2251D;}
	.st4{fill:#B38C6E;}
	.st5{fill:#D6A85F;}
	.st6{fill:#1C1B1B;}
</style>
<g>
	<rect class="st0" width="360" height="576"/>
</g>
<g>
	<path class="st1" d="M133,381.5c-1.7,0-4.4,0-6.1,0c-0.2,0.4-0.3,0.8-0.3,1c-0.4,1.4-0.2,2.2,1.2,2.2h0.9c0,0.2,0,1.7,0,1.9
		c0,0-2.4,0-3.7,0c-1.3,0-3.7,0-3.7,0c0-0.2,0-1.7,0-1.9h0.8c1.3,0,1.9-0.5,2.5-2c0.4-1.1,3.9-10.5,4.7-12.6c0,0,1.1,0.1,1.8,0.1
		c0.6,0,1.8-0.1,1.8-0.1c1,2.8,4.2,10.9,4.9,12.6c0.7,1.5,1.2,2,2.1,2h0.9v1.9c0,0-2.9,0-4.6,0c-1.7,0-4.6,0-4.6,0
		c0-0.2,0-1.7,0-1.9h1c1.2,0,1.5-0.8,0.9-2.3L133,381.5z M129.9,373.1c-0.7,1.8-1.8,4.9-2.6,7.1c1.6,0,3.7,0,5.2,0
		C131.8,377.9,130.6,374.9,129.9,373.1z"/>
	<path class="st1" d="M155.8,386.5c-0.3,0-3.7,0-4.2,0c-0.6,0-4.3,0-4.3,0c0-0.2,0-1.7,0-1.8h1.1c1,0,1.4-0.2,1.4-1.1
		c0.1-1.6,0.1-9,0-10.3c0-0.9-0.4-1.3-1.2-1.3h-1.3c0-0.4,0-1.5,0-1.8c0.4,0,3.6,0,4.4,0c1.1,0,2.8,0,3.8,0c4.2,0,6.3,1.4,6.3,4.1
		c0,1.9-1.2,3.2-2.9,3.7c2.2,0.5,3.5,1.8,3.5,3.7C162.6,384.7,161.1,386.5,155.8,386.5z M153.5,377.5h1.3c2.5,0,3.3-0.7,3.3-2.9
		c0-1.7-0.9-2.7-3-2.7h-0.7c-0.7,0-0.9,0.4-0.9,0.9C153.5,373.5,153.5,375.4,153.5,377.5z M153.5,378.8c0,2.2,0,4.3,0,5
		c0,0.8,0.4,1,0.9,1h1c2.3,0,3.1-1,3.1-3.2c0-2-1.2-2.9-3.8-2.9H153.5z"/>
	<path class="st1" d="M171.1,378.3c0-5.7,3.4-8.6,8.2-8.6c5.4,0,8.1,2.9,8.1,8.6c0,5.7-3.5,8.6-8.1,8.6
		C173.9,386.9,171.1,384,171.1,378.3z M183.3,378.3c0-5-1.1-6.8-4.1-6.8c-2.8,0-4.1,2.1-4.1,6.8c0,4.9,1,6.8,4.1,6.8
		C182.3,385.1,183.3,383,183.3,378.3z"/>
	<path class="st1" d="M197.6,373.4c0-1-0.4-1.4-1.3-1.4h-0.9c0-0.2,0-1.6,0-1.8c0,0,2.6,0.1,4.1,0.1c1.5,0,3.8-0.1,4.2-0.1v1.8h-1
		c-0.9,0-1.4,0.3-1.4,1.4c0,1.6,0,6.2,0,6.6c0.1,3.5,1.3,4.7,3.8,4.7s3.8-1.1,3.8-4.7c0-1.9,0-4.3,0-6.6c0-1-0.5-1.4-1.4-1.4h-1
		v-1.8c0,0,2.2,0.1,3.5,0.1c1.3,0,3.1-0.1,3.5-0.1v1.8h-0.9c-0.9,0-1.3,0.5-1.3,1.4c0,2.5,0,4.7,0,6.6c0,4.8-2.3,7-6.7,7
		c-4.8,0-7.2-2.1-7.2-7C197.6,379.6,197.6,375,197.6,373.4z"/>
	<path class="st1" d="M231,372c0,2.9,0,10,0,11.2c0,0.9,0.3,1.5,1.4,1.5h1.2v1.9c0,0-2.8,0-4.4,0c-1.6,0-4.4,0-4.4,0v-1.9h1.1
		c1.1,0,1.4-0.5,1.5-1.5c0.1-1.2,0.1-8.2,0-11.2H226c-1.7,0-2.2,0.9-2.3,2.2l-0.1,2.2c-0.2,0-1.8,0-2,0c0.1-1.5,0-4.8-0.1-6.4
		c0.8,0.1,1.9,0.1,4,0.1h7.5c2.3,0,3.1,0,4-0.1c-0.1,1.5-0.2,4.8-0.1,6.4c-0.2,0-1.8,0-1.9,0l-0.1-2.2c-0.1-1.4-0.6-2.2-2.3-2.2H231
		z"/>
</g>
<g>
	<defs>
		<rect id="SVGID_1_" width="360" height="576"/>
	</defs>
	<clipPath id="SVGID_2_">
		<use xlink:href="#SVGID_1_"  style="overflow:visible;"/>
	</clipPath>
	<g class="st2">
		<path class="st1" d="M51.5,159c11.8-6,23.9-9.1,54.2-11.3c45.1-3.3,73.6-20.9,73.6-57.5c0-35.5-24.7-53.7-68.3-53.7
			c-25.2,0-45.9,7.1-59.7,20.9c30.2-4.8,61,2.3,61,30.7C112.2,134.8,53.8,121.7,51.5,159"/>
	</g>
	<g class="st2">
		<path class="st3" d="M35.9,197.5c0,14.1,5.5,22.2,17.6,22.2c8.6,0,14.4-5,14.4-12.6c0-5-3.3-10.1-9.6-11.8
			c7.1-1.8,14.6,2,27.2,9.8c10.6,6.6,26.7,14.4,48.9,14.4c50.9,0,52.2-47.1,41.6-69.6c-6,0-9.1,0.3-18.4,0
			c2.5,19.7-14.9,20.7-41.8,13.6C73.7,152.4,35.9,164,35.9,197.5"/>
	</g>
	<g class="st2">
		<path class="st3" d="M37.1,90.2c0,13.1,9.1,23.9,26.7,23.9c17.4,0,27.2-9.1,27.2-23.9c0-14.9-9.8-23.9-27.2-23.9
			C46.2,66.2,37.1,77.1,37.1,90.2"/>
	</g>
	<g class="st2">
		<path class="st1" d="M228,117.7c0,20.9,0,41.8-0.5,47.1c-0.8,9.3-4.3,16.6-18.6,16.6H197c0.3,8.1,0.3,26.7,0,34.8
			c0,0,43.3-0.8,64.8-0.8s62.2,0.8,62.2,0.8c-0.3-8.1-0.3-26.7,0-34.8h-13.6c-11.6,0-14.9-8.1-14.9-16.6V97.2
			C283.5,113.9,258.5,117.7,228,117.7"/>
	</g>
	<g class="st2">
		<path class="st3" d="M298.8,39c-8.8,0.5-30,0.5-38.8,0c0,19.7-15.1,32.8-39.3,32.8h-19.9c0.3,8.8,0.3,27.7,0,36.5h21.4
			C283.7,108.3,300.8,78.8,298.8,39"/>
	</g>
</g>
<g>
	<path class="st1" d="M56.4,241.4c-9.3,0-12.1,1.9-12.7,4.8c0.4-0.1,0.6-0.1,0.9-0.1c1.9,0,3,1.7,3,3.6c0,2.1-1.4,4.2-4.6,4.2
		c-2.4,0-4.9-1.5-4.9-5c0-7.1,6.5-10.7,17-10.7c7,0,17.2,0.9,21.5,0.9c6.3,0,7.7-0.9,7.7-3.1c0-0.4-0.1-0.9-0.4-1.4
		c0-2.6,1.7-3.8,3.6-3.8c2.4,0,3.9,1.3,3.9,4.2c0,5.4-5.1,7.2-12.5,7.2c-5.8,0-8.2-0.3-9.4-0.4L57.7,281c-0.3,0.9-0.4,1.7-0.4,2.4
		c0,2.2,1.6,3.5,6.5,3.5c0.4,0,0.6,0.6,0.6,1.3c0,0.9-0.2,1.4-0.7,1.4c-1.8,0-4.8-0.2-10.5-0.2c-5.6,0-8.9,0.2-10.6,0.2
		c-0.4,0-0.5-0.4-0.5-1.3c0-0.9,0.1-1.4,0.5-1.4c5.1,0,6.6-1.7,7.8-5.7l11.9-39.6C60.4,241.6,58.9,241.4,56.4,241.4z"/>
	<path class="st1" d="M117,261.2c3.5,0,10.5,0.2,12.4,0.4l4.5-15c1.1-3.6,0.1-5.6-6.2-5.6c-0.4,0-0.5-0.4-0.5-1.2
		c0-1.1,0.2-1.4,0.6-1.4c1.8,0,5.3,0.4,11,0.4c5.4,0,8.6-0.4,10.5-0.4c0.5,0,0.6,0.6,0.6,1.4c0,1-0.2,1.3-0.6,1.3
		c-5.5,0-7.3,2.7-8.2,5.9L130.9,281c-1.1,3.6-0.4,5.9,6,5.9c0.4,0,0.6,0.6,0.6,1.3c0,0.9-0.2,1.4-0.7,1.4c-1.8,0-4.8-0.2-10.5-0.2
		c-5.6,0-8.9,0.2-10.6,0.2c-0.4,0-0.5-0.4-0.5-1.3c0-0.9,0.1-1.4,0.5-1.4c5.1,0,6.6-1.7,7.8-5.7l5.1-17.2c-2.5,0.1-9.4,0.4-12.7,0.4
		c-3.6,0-8.3-0.3-11.9-0.5L98.9,281c-1.1,3.6-0.4,5.9,6,5.9c0.4,0,0.6,0.6,0.6,1.3c0,0.9-0.2,1.4-0.7,1.4c-1.8,0-4.8-0.2-10.5-0.2
		c-5.6,0-8.9,0.2-10.6,0.2c-0.4,0-0.5-0.4-0.5-1.3c0-0.9,0.1-1.4,0.5-1.4c5.1,0,6.6-1.7,7.8-5.7l10.4-34.7c1.1-3.6,0.1-5.6-6.2-5.6
		c-0.4,0-0.5-0.4-0.5-1.2c0-1.1,0.2-1.4,0.6-1.4c1.8,0,5.3,0.4,11,0.4c5.4,0,8.6-0.4,10.5-0.4c0.5,0,0.6,0.6,0.6,1.4
		c0,1-0.2,1.3-0.6,1.3c-5.5,0-7.3,2.7-8.2,5.9l-4.4,14.7C108.9,261.4,114.2,261.2,117,261.2z"/>
	<path class="st1" d="M167.5,286.9c0.4,0,0.6,0.6,0.6,1.3c0,0.9-0.2,1.4-0.7,1.4c-1.8,0-4.8-0.2-10.5-0.2c-5.6,0-8.9,0.2-10.6,0.2
		c-0.4,0-0.5-0.4-0.5-1.3c0-0.9,0.1-1.4,0.5-1.4c5.1,0,6.6-1.7,7.8-5.7l10.4-34.7c1.1-3.6,0.1-5.6-6.2-5.6c-0.4,0-0.5-0.4-0.5-1.2
		c0-1.1,0.2-1.4,0.6-1.4c1.8,0,5.3,0.4,11,0.4c5.4,0,8.6-0.4,10.5-0.4c0.5,0,0.6,0.6,0.6,1.4c0,1-0.2,1.3-0.6,1.3
		c-5.5,0-7.3,2.7-8.2,5.9L161.5,281C160.4,284.6,161,286.9,167.5,286.9z"/>
	<path class="st1" d="M224,246.6c2.1-6.2,4.7-9.4,9.6-9.4c4.3,0,6,2.5,6,5c0,2.2-1.4,4.3-4,4.3c-1.6,0-2.2-0.8-2.4-1.7
		c0-1.8-0.4-2.6-1.8-2.6c-1.5,0-2.8,1.8-3.9,5c-2.1,6-8.7,28.8-11.7,41.8c-0.2,0.9-0.9,1.2-1.7,1.2c-1.2,0-1.7-0.4-1.9-1.4
		c-1.4-6.3-10.8-35.1-12.7-39.6c-2.2,10.1-4.5,18.5-7,26.4c-3.6,11.5-6.5,15-12.8,15c-3.7,0-5.3-2.4-5.3-4.8c0-2.2,1.5-4.5,4.3-4.5
		c1.7,0,3.6,1.3,3.6,3.5c0,0.8-0.1,1.5-0.6,2.2c2.7,0,4-1.7,7.8-13.2c2.3-7.1,5-15.8,8-28.7c0-1.8-1.8-4.3-6.3-4.3
		c-0.8,0-0.9-0.4-0.9-1.2c0-0.9,0.1-1.4,0.7-1.4c0.9,0,7.5,0.4,11.4,0.4c1,0,1.3,0.1,1.8,1.4c3.4,9.4,10.2,30.9,11.7,36.6
		C218.6,265.2,222,252.5,224,246.6z"/>
	<path class="st1" d="M282.9,271.4c-4.3,0-5.3,1.3-6.2,4.2l-1.2,3.7c-0.7,2.2-0.9,3.9-0.9,6.1c0,0.5-0.4,0.9-0.8,0.9
		c-0.2,0-0.4-0.1-0.6-0.3c-0.4-0.5-1.2-0.8-2.3-0.8c-1.2,0-2.1,0.3-3.5,1.3c-2.7,1.9-7.1,4.1-12.7,4.1c-12.7,0-18.1-8.9-18.1-19.2
		c0-14.5,12-34.6,30.7-34.6c4.8,0,7.8,1.9,9.5,4c0.4,0.5,0.9,0.6,1.2,0.6c0.7,0,1.4-0.9,1.6-1.9c0.1-0.4,0.5-0.5,1.1-0.5
		c0.6,0,1.6,0.2,1.6,0.9c-0.9,2.6-1.6,4.8-2.2,7.4c-0.4,2.1-0.8,4.4-1.2,7c-0.1,0.4-0.4,0.6-1.1,0.6c-0.8,0-1.6-0.1-1.6-0.7
		c0-0.4,0.1-2.2,0.1-3.2c0-7.9-3.1-11-9.6-11c-11.2,0-22.3,16.7-22.3,33.8c0,9.4,3.9,13.5,10.3,13.5c8.8,0,14.4-4.1,14.4-12.7
		c0-2.6-1.7-3.4-6-3.4c-0.5,0-0.7-0.4-0.7-1.1c0-0.9,0.1-1.7,0.8-1.7c1.5,0,6.3,0.4,10.4,0.4c3.4,0,7.3-0.4,9.2-0.4
		c0.5,0,0.6,0.4,0.6,1.2C283.4,270.5,283.2,271.4,282.9,271.4z"/>
	<path class="st1" d="M323.6,252c0,0.6-0.8,0.9-1.4,0.9c-0.6,0-1.4-0.3-1.4-0.9c0-7.1-2.7-12-9-12c-5,0-8.3,3.4-8.3,8.6
		c0,5.4,3.2,8,7.5,11.3c6.6,5.1,8.9,8.7,8.9,14.9c0,9.5-7.3,15.8-16.8,15.8c-3.7,0-7.2-0.9-10.4-3.6c-0.4-0.4-1-0.5-1.4-0.5
		c-0.9,0-1.3,0.9-1.4,1.9c-0.1,0.4-0.3,0.6-0.7,0.6c-0.8,0-2.2-0.1-2.2-0.7c0.8-3.2,2.1-11.5,2.1-14.5c0-0.6,0.7-0.9,1.7-0.9
		c0.9,0,1.2,0.3,1.2,0.6c0,9.7,5.3,13.7,11.4,13.7c6.1,0,9.9-3.6,9.9-9.6c0-3.7-1.5-7-7.9-12c-4.4-3.5-8.3-7.5-8.3-14.5
		c0-9.1,7-14.5,14.7-14.5c3.5,0,7.1,1.5,8.6,3.3c0.4,0.4,0.6,0.6,1.1,0.6c0.6,0,1.1-0.6,1.2-1.4c0.1-0.4,0.5-0.5,0.9-0.5
		c0.9,0,1.8,0.3,1.7,0.6C324.7,241.5,323.6,248.1,323.6,252z"/>
</g>
<g>
	<polygon class="st4" points="285.5,312.1 281.1,306.8 276.7,312.1 272.3,306.8 267.9,312.1 263.5,306.8 259.1,312.1 254.7,306.8 
		250.3,312.1 245.9,306.8 241.5,312.1 237.1,306.8 232.7,312.1 228.3,306.8 223.8,312.1 219.4,306.8 215,312.1 210.6,306.8 
		206.2,312.1 201.8,306.8 197.4,312.1 193,306.8 188.6,312.1 184.2,306.8 179.8,312.1 175.4,306.8 171,312.1 166.6,306.8 
		162.1,312.1 157.7,306.8 153.3,312.1 148.9,306.8 144.5,312.1 140.1,306.8 135.7,312.1 131.3,306.8 126.9,312.1 122.5,306.8 
		118.1,312.1 113.7,306.8 109.3,312.1 104.9,306.8 100.4,312.1 96,306.8 91.6,312.1 87.2,306.8 82.8,312.1 78.4,306.8 74,312.1 
		69.6,306.8 65.2,312.1 60.8,306.8 56.4,312.1 52,306.8 47.6,312.1 43.2,306.8 39.3,311.4 38.2,310.4 43.2,304.4 47.6,309.7 
		52,304.4 56.4,309.7 60.8,304.4 65.2,309.7 69.6,304.4 74,309.7 78.4,304.4 82.8,309.7 87.2,304.4 91.6,309.7 96,304.4 
		100.4,309.7 104.9,304.4 109.3,309.7 113.7,304.4 118.1,309.7 122.5,304.4 126.9,309.7 131.3,304.4 135.7,309.7 140.1,304.4 
		144.5,309.7 148.9,304.4 153.3,309.7 157.7,304.4 162.1,309.7 166.6,304.4 171,309.7 175.4,304.4 179.8,309.7 184.2,304.4 
		188.6,309.7 193,304.4 197.4,309.7 201.8,304.4 206.2,309.7 210.6,304.4 215,309.7 219.4,304.4 223.8,309.7 228.3,304.4 
		232.7,309.7 237.1,304.4 241.5,309.7 245.9,304.4 250.3,309.7 254.7,304.4 259.1,309.7 263.5,304.4 267.9,309.7 272.3,304.4 
		276.7,309.7 281.1,304.4 285.5,309.7 290,304.4 294.4,309.7 298.8,304.4 303.2,309.7 307.6,304.4 312,309.7 316.4,304.4 
		321.4,310.4 320.2,311.4 316.4,306.8 312,312.1 307.6,306.8 303.2,312.1 298.8,306.8 294.4,312.1 290,306.8 	"/>
</g>
<g>
	<rect x="251" y="370.4" class="st5" width="70" height="0.5"/>
</g>
<g>
	<rect x="251" y="373.5" class="st5" width="70" height="0.5"/>
</g>
<g>
	<rect x="251" y="376.6" class="st5" width="70" height="0.5"/>
</g>
<g>
	<rect x="251" y="379.7" class="st5" width="70" height="0.5"/>
</g>
<g>
	<rect x="251" y="382.8" class="st5" width="70" height="0.5"/>
</g>
<g>
	<rect x="251" y="385.9" class="st5" width="70" height="0.5"/>
</g>
<g>
	<path class="st3" d="M48.8,343.6v11.7h-6.5v-11.7l-5.7-16.5h6.6L46,337l2.4-9.9h6.4L48.8,343.6z"/>
	<path class="st3" d="M63.1,355.9c-4.6,0-8.2-3-8.2-7.4v-14.7c0-4.4,3.5-7.3,8.2-7.3c4.6,0,8.1,3,8.1,7.3v14.7
		C71.2,352.9,67.7,355.9,63.1,355.9z M64.6,333.5c0-0.9-0.7-1.4-1.5-1.4s-1.5,0.5-1.5,1.4v15.5c0,0.9,0.7,1.4,1.5,1.4
		s1.5-0.5,1.5-1.4V333.5z"/>
	<path class="st3" d="M83.3,355.9c-4.5,0-8-3.1-8-7v-21.8h6.5v21.8c0,0.9,0.7,1.4,1.4,1.4c0.8,0,1.5-0.5,1.5-1.4v-21.8h6.3v21.8
		C91.1,352.8,87.9,355.9,83.3,355.9z"/>
	<path class="st3" d="M118.2,355.3v-18.9l-1.1,6.9l-2.1,12h-4.1l-1.9-12l-1-6.9v18.9h-5.8v-28.1h8.5l2,11l0.7,4.9l0.7-4.9l1.9-11
		h8.5v28.1H118.2z"/>
	<path class="st3" d="M138,355.3l-0.4-4.2h-3.8l-0.6,4.2h-5.9l4.9-28.1h7.5l4.8,28.1H138z M135.9,336l-1.4,10.2h2.5L135.9,336z"/>
	<path class="st3" d="M156.7,343.6v11.7h-6.5v-11.7l-5.7-16.5h6.6l2.7,9.9l2.4-9.9h6.4L156.7,343.6z"/>
	<path class="st3" d="M182.6,355.3l-4-10.4l-1.6-4v14.3h-5.7v-28.1h5.7l3.7,10.5l1.5,4v-14.5h5.7v28.1H182.6z"/>
	<path class="st3" d="M200.3,355.9c-4.6,0-8.2-3-8.2-7.4v-14.7c0-4.4,3.5-7.3,8.2-7.3c4.6,0,8.1,3,8.1,7.3v14.7
		C208.4,352.9,204.8,355.9,200.3,355.9z M201.7,333.5c0-0.9-0.7-1.4-1.5-1.4s-1.5,0.5-1.5,1.4v15.5c0,0.9,0.7,1.4,1.5,1.4
		s1.5-0.5,1.5-1.4V333.5z"/>
	<path class="st3" d="M221.3,332.7v22.6h-6.5v-22.6h-4.6v-5.6h15.7v5.6H221.3z"/>
	<path class="st3" d="M247.4,355.3l-2.5-10.7l-1.4,3.6v7.1H237v-28.1h6.5v12.2l3.7-12.2h6.3l-4.1,11.7l4.5,16.4H247.4z"/>
	<path class="st3" d="M268.2,355.3l-4-10.4l-1.6-4v14.3h-5.7v-28.1h5.7l3.7,10.5l1.5,4v-14.5h5.7v28.1H268.2z"/>
	<path class="st3" d="M285.9,355.9c-4.6,0-8.2-3-8.2-7.4v-14.7c0-4.4,3.5-7.3,8.2-7.3c4.6,0,8.1,3,8.1,7.3v14.7
		C294,352.9,290.4,355.9,285.9,355.9z M287.3,333.5c0-0.9-0.7-1.4-1.5-1.4s-1.5,0.5-1.5,1.4v15.5c0,0.9,0.7,1.4,1.5,1.4
		s1.5-0.5,1.5-1.4V333.5z"/>
	<path class="st3" d="M316.5,355.3H311l-2.2-13.8l-2.2,13.8h-5.4l-5-28.1h6.3l2.2,16.4l2.2-16.4h4.6l2.1,16.4l2.3-16.4h5.7
		L316.5,355.3z"/>
</g>
<g>
	<path class="st1" d="M47.5,406.4v17.1h-5.9v-17.1h-4.1v-4.9h14.2v4.9H47.5z"/>
	<path class="st1" d="M64.6,423.5v-8.1h-3.5v8.1h-5.9v-22h5.9v8.9h3.5v-8.9h5.9v22H64.6z"/>
	<path class="st1" d="M75.6,423.5v-22h12.6v4.8h-6.7v3.9h4.3v4.2h-4.3v4.1h6.7v5.1H75.6z"/>
</g>
<g>
</g>
<g>
	<path class="st1" d="M101.5,436.4v-35h7.5v35H101.5z"/>
	<path class="st1" d="M132.2,436.4l-7.7-14l-3-5.7v19.7h-6.9v-35h6.2l7.5,14.3l2.8,5.7v-20.1h6.8v35H132.2z"/>
	<path class="st1" d="M155.3,436.4h-11.7v-35h11.7c7.2,0,11.1,4.7,11.1,10.5v14.4C166.4,432.2,162.5,436.4,155.3,436.4z
		 M158.9,412.1c0-2.8-1.3-4.4-4.2-4.4h-3.6v22.5h3.6c2.9,0,4.2-1.6,4.2-4.4V412.1z"/>
	<path class="st1" d="M171.7,436.4v-35h7.5v35H171.7z"/>
	<path class="st1" d="M200.1,436.4l-1.5-6.9h-7.2l-1.5,6.9h-7l8.2-35h8.4l8.1,35H200.1z M195.2,411.2l-2.7,12.8h5.1L195.2,411.2z"/>
	<path class="st1" d="M228.9,436.4l-7.7-14l-3-5.7v19.7h-6.9v-35h6.2l7.5,14.3l2.8,5.7v-20.1h6.8v35H228.9z"/>
	<path class="st1" d="M264,436.4l-1.5-6.9h-7.2l-1.5,6.9h-7l8.2-35h8.4l8.1,35H264z M259.1,411.2l-2.7,12.8h5.1L259.1,411.2z"/>
	<path class="st1" d="M285.6,437.3c-7.4,0-11.7-4.8-11.7-10.8v-15.1c0-6,4.3-10.8,11.7-10.8c7.3,0,11,4.4,11,10.2v3.4h-6.7v-3.3
		c0-2.4-1.4-4-4.2-4c-2.8,0-4.2,1.6-4.2,3.9v16.3c0,2.2,1.4,3.8,4.2,3.8c2.8,0,4.2-1.6,4.2-4v-3.3h6.7v3.4
		C296.6,433,292.9,437.3,285.6,437.3z"/>
	<path class="st1" d="M314.7,407.9v28.6h-7.5v-28.6h-7.6v-6.4h22.6v6.4H314.7z"/>
</g>
<g>
	<rect x="39" y="432" class="st1" width="49.2" height="4.5"/>
</g>
<g>
	<path class="st6" d="M46.8,482.4v-0.6l0.8-0.1c0.5,0,0.6-0.3,0.6-0.7v-4.3h-6.4v4.3c0,0.4,0.1,0.7,0.6,0.7l0.8,0.1v0.6h-4.4v-0.6
		l0.8-0.1c0.5,0,0.6-0.3,0.6-0.7v-8.7c0-0.4-0.1-0.7-0.6-0.7l-0.8-0.1v-0.6h4.4v0.6l-0.8,0.1c-0.5,0-0.6,0.3-0.6,0.7v3.6h6.4v-3.6
		c0-0.4-0.1-0.7-0.6-0.7l-0.8-0.1v-0.6h4.4v0.6l-0.8,0.1c-0.5,0-0.6,0.3-0.6,0.7v8.7c0,0.4,0.1,0.7,0.6,0.7l0.8,0.1v0.6H46.8z"/>
	<path class="st6" d="M52.2,478.7c0-2.1,1.4-4.1,3.7-4.1c1.9,0,3.1,1.3,3,3c-0.4,0.1-1.1,0.2-2.1,0.1l-3.3-0.1c0,0.2,0,0.4,0,0.6
		c0,1.9,1.2,3.2,2.7,3.2c1.1,0,2-0.8,2.4-1.5l0.3,0.2c-0.4,1.4-1.7,2.4-3.2,2.4C53.5,482.6,52.2,480.7,52.2,478.7z M57.4,477
		c0-0.9-0.4-1.8-1.6-1.8c-1.2,0-1.9,0.9-2.1,1.9L57.4,477z"/>
	<path class="st6" d="M59.9,482.4v-0.5l0.6-0.1c0.4,0,0.6-0.3,0.6-0.7v-9.4l-1.2-0.3v-0.3c0.4-0.2,1.8-0.5,2.6-0.7V481
		c0,0.4,0.1,0.7,0.6,0.7l0.6,0.1v0.5H59.9z"/>
	<path class="st6" d="M64.3,486.2v-0.5l0.6-0.1c0.4,0,0.6-0.3,0.6-0.7v-8.9l-1.2-0.3v-0.3c0.5-0.2,1.8-0.5,2.6-0.7v1.1
		c0.6-0.7,1.6-1.1,2.4-1.1c1.8,0,3.2,1.5,3.2,3.8c0,2.1-1.4,4.2-3.9,4.2c-0.5,0-1.2-0.1-1.7-0.2v2.5c0,0.4,0.1,0.6,0.6,0.7l0.7,0.1
		v0.5H64.3z M66.9,480.3c0,1.1,0.9,1.7,1.8,1.7c1.6,0,2.5-1.3,2.5-3c0-2.2-1.1-3.4-2.5-3.4c-0.7,0-1.3,0.2-1.8,0.5V480.3z"/>
	<path class="st6" d="M73.6,482.4v-0.5l0.6-0.1c0.4,0,0.6-0.3,0.6-0.7v-5.1l-1.2-0.3v-0.3c0.5-0.2,1.8-0.5,2.6-0.7v6.5
		c0,0.4,0.1,0.7,0.6,0.7l0.6,0.1v0.5H73.6z M75.3,470.6c0.6,0,1,0.4,1,1c0,0.5-0.4,1-1,1s-1-0.4-1-1
		C74.4,471.1,74.8,470.6,75.3,470.6z"/>
	<path class="st6" d="M84.3,477.7c0-1.4-0.6-2.1-1.8-2.1c-0.6,0-1.3,0.3-1.8,0.8v4.6c0,0.4,0.1,0.7,0.6,0.7l0.7,0.1v0.5h-3.9v-0.5
		l0.6-0.1c0.4,0,0.6-0.3,0.6-0.7v-5.1l-1.2-0.3v-0.3c0.5-0.2,1.8-0.5,2.6-0.7l0,1.4c0.6-0.9,1.6-1.4,2.6-1.4c1.2,0,2.5,0.7,2.5,2.7
		v3.8c0,0.4,0.1,0.7,0.6,0.7l0.6,0.1v0.5h-3.7v-0.5l0.6-0.1c0.4,0,0.6-0.3,0.6-0.7V477.7z"/>
	<path class="st6" d="M90.6,486.4c-1.7,0-3-0.7-3-1.9c0-1,0.8-1.7,2-2.1l-0.1,0c-1.2-0.1-1.7-0.7-1.7-1.5c0-0.7,0.5-1.4,1.2-1.7
		c-0.6-0.5-0.9-1.2-0.9-1.9c0-1.3,1.1-2.7,3.1-2.7c0.7,0,1.3,0.2,1.8,0.5l2.3-0.4v1l-1.7,0c0.4,0.5,0.6,1.1,0.6,1.6
		c0,1.3-1.1,2.6-3,2.6c-0.7,0-1.4-0.2-1.8-0.5c-0.2,0.2-0.4,0.6-0.4,0.9c0,0.3,0.1,0.8,1.1,0.8h2.9c2,0,2.5,0.8,2.5,1.9
		C95.4,484.5,93.8,486.4,90.6,486.4z M91.3,485.8c1.7,0,2.9-0.9,2.9-2.1c0-0.6-0.3-1.2-1.8-1.2l-2.2,0c-1,0.5-1.3,1.2-1.3,1.7
		C89,485.2,89.9,485.8,91.3,485.8z M91.2,479.3c0.7,0,1.6-0.6,1.6-2.1c0-1.5-0.8-2.1-1.6-2.1c-0.7,0-1.6,0.6-1.6,2.1
		C89.6,478.7,90.4,479.3,91.2,479.3z"/>
	<path class="st6" d="M102.1,476.4c0,3.4,2.7,5.4,5.2,5.4h0.1c2,0,2.7-1.2,3.1-2.5l0.2-0.8h0.6l-0.3,3.3c-0.2,0.1-2.1,0.9-4.5,0.9
		c-3.3,0-6.2-2.3-6.2-6c0-3.2,2.4-6.1,6.7-6.1c1.3,0,2.8,0.2,3.7,0.2c0.2,0,0.3,0,0.4-0.1l0.1,0c0,1,0,2.6,0,3h-0.6l-0.1-0.6
		c-0.3-1.1-1-1.9-3.3-1.9C103.9,471.3,102.1,473.3,102.1,476.4z"/>
	<path class="st6" d="M116.6,481.7c-0.5,0.4-1.2,0.9-1.9,0.9c-1.2,0-2-0.8-2-1.8c0-0.8,0.5-1.3,1.3-1.6l2.6-1v-0.9
		c0-1.5-0.9-1.9-1.9-1.9c-0.2,0-0.5,0-0.7,0.1l0.1,1.1c0,0.3-0.2,0.5-0.7,0.5c-0.3,0-0.5-0.1-0.5-0.4c0-0.8,1-2.1,2.8-2.1
		c1.5,0,2.4,0.8,2.4,2.5v3.9c0,0.6,0.2,0.8,0.5,0.8c0.2,0,0.5-0.1,0.6-0.2l0.1,0.3c-0.3,0.4-0.8,0.8-1.5,0.8
		C117.2,482.6,116.7,482.3,116.6,481.7z M115.5,481.7c0.3,0,0.7-0.1,1-0.3v-2.7l-1.6,0.7c-0.6,0.2-0.8,0.4-0.8,1
		C114.2,481.1,114.8,481.7,115.5,481.7z"/>
	<path class="st6" d="M126.1,477.7c0-1.4-0.6-2.1-1.8-2.1c-0.6,0-1.3,0.3-1.8,0.8v4.6c0,0.4,0.1,0.7,0.6,0.7l0.7,0.1v0.5h-3.9v-0.5
		l0.6-0.1c0.4,0,0.6-0.3,0.6-0.7v-5.1l-1.2-0.3v-0.3c0.5-0.2,1.8-0.5,2.6-0.7l0,1.4c0.6-0.9,1.6-1.4,2.6-1.4c1.2,0,2.5,0.7,2.5,2.7
		v3.8c0,0.4,0.1,0.7,0.6,0.7l0.6,0.1v0.5h-3.7v-0.5l0.6-0.1c0.4,0,0.6-0.3,0.6-0.7V477.7z"/>
	<path class="st6" d="M133.3,481.7c-0.5,0.4-1.2,0.9-1.9,0.9c-1.2,0-2-0.8-2-1.8c0-0.8,0.5-1.3,1.3-1.6l2.6-1v-0.9
		c0-1.5-0.9-1.9-1.9-1.9c-0.2,0-0.5,0-0.7,0.1l0.1,1.1c0,0.3-0.2,0.5-0.7,0.5c-0.3,0-0.5-0.1-0.5-0.4c0-0.8,1-2.1,2.8-2.1
		c1.5,0,2.4,0.8,2.4,2.5v3.9c0,0.6,0.2,0.8,0.5,0.8c0.2,0,0.5-0.1,0.6-0.2l0.1,0.3c-0.3,0.4-0.8,0.8-1.5,0.8
		C133.9,482.6,133.4,482.3,133.3,481.7z M132.2,481.7c0.3,0,0.7-0.1,1-0.3v-2.7l-1.6,0.7c-0.6,0.2-0.8,0.4-0.8,1
		C130.9,481.1,131.5,481.7,132.2,481.7z"/>
	<path class="st6" d="M142.3,481.5c-0.6,0.7-1.6,1.1-2.4,1.1c-1.8,0-3.2-1.5-3.2-3.8c0-2.1,1.4-4.2,3.9-4.2c0.6,0,1.2,0.1,1.7,0.2
		v-3.2l-1.2-0.3v-0.3c0.4-0.2,1.8-0.5,2.6-0.7v11l1.2,0.2v0.3c-0.3,0.2-1.8,0.7-2.6,0.8V481.5z M142.3,476.8c0-1.1-0.9-1.7-1.8-1.7
		c-1.6,0-2.5,1.3-2.5,3c0,2.2,1.1,3.4,2.5,3.4c0.7,0,1.3-0.2,1.8-0.5V476.8z"/>
	<path class="st6" d="M145.7,482.4v-0.5l0.6-0.1c0.4,0,0.6-0.3,0.6-0.7v-5.1l-1.2-0.3v-0.3c0.5-0.2,1.8-0.5,2.6-0.7v6.5
		c0,0.4,0.1,0.7,0.6,0.7l0.6,0.1v0.5H145.7z M147.5,470.6c0.6,0,1,0.4,1,1c0,0.5-0.4,1-1,1s-1-0.4-1-1
		C146.5,471.1,146.9,470.6,147.5,470.6z"/>
	<path class="st6" d="M154.2,481.7c-0.5,0.4-1.2,0.9-1.9,0.9c-1.2,0-2-0.8-2-1.8c0-0.8,0.5-1.3,1.3-1.6l2.6-1v-0.9
		c0-1.5-0.9-1.9-1.9-1.9c-0.2,0-0.5,0-0.7,0.1l0.1,1.1c0,0.3-0.2,0.5-0.7,0.5c-0.3,0-0.5-0.1-0.5-0.4c0-0.8,1-2.1,2.8-2.1
		c1.5,0,2.4,0.8,2.4,2.5v3.9c0,0.6,0.2,0.8,0.5,0.8c0.2,0,0.5-0.1,0.6-0.2l0.1,0.3c-0.3,0.4-0.8,0.8-1.5,0.8
		C154.8,482.6,154.3,482.3,154.2,481.7z M153.2,481.7c0.3,0,0.7-0.1,1-0.3v-2.7l-1.6,0.7c-0.6,0.2-0.8,0.4-0.8,1
		C151.8,481.1,152.4,481.7,153.2,481.7z"/>
	<path class="st6" d="M163.7,477.7c0-1.4-0.6-2.1-1.8-2.1c-0.6,0-1.3,0.3-1.8,0.8v4.6c0,0.4,0.1,0.7,0.6,0.7l0.7,0.1v0.5h-3.9v-0.5
		l0.6-0.1c0.4,0,0.6-0.3,0.6-0.7v-5.1l-1.2-0.3v-0.3c0.5-0.2,1.8-0.5,2.6-0.7l0,1.4c0.6-0.9,1.6-1.4,2.6-1.4c1.2,0,2.5,0.7,2.5,2.7
		v3.8c0,0.4,0.1,0.7,0.6,0.7l0.6,0.1v0.5h-3.7v-0.5l0.6-0.1c0.4,0,0.6-0.3,0.6-0.7V477.7z"/>
	<path class="st6" d="M171.6,476.8l-0.1-0.4c-0.1-0.6-0.5-1.2-1.5-1.2c-0.7,0-1.4,0.4-1.4,1.2c0,0.7,0.4,1,1.3,1.4l0.8,0.4
		c1.2,0.5,1.9,1.1,1.9,2.2c0,1.4-1.2,2.3-2.7,2.3c-1,0-1.8-0.4-2.2-0.4c-0.2,0-0.3,0.1-0.4,0.2l-0.1,0c0-0.8,0-1.8,0-2.6h0.5
		l0.1,0.4c0.4,1.2,1.1,1.9,2,1.9c0.9,0,1.4-0.6,1.4-1.4c0-0.8-0.5-1.1-1.6-1.6l-0.4-0.2c-1.2-0.6-1.9-1.2-1.9-2.3
		c0-1.1,1-2.1,2.6-2.1c0.6,0,1.5,0.2,1.7,0.2c0.3,0,0.4-0.1,0.5-0.2h0.1c0,0-0.1,1.6-0.1,2.2H171.6z"/>
	<path class="st6" d="M180.5,471.8l-0.3,9.1c0,0.4,0.1,0.7,0.6,0.7l0.8,0.1v0.6h-3.8v-0.6l0.8-0.1c0.4,0,0.6-0.3,0.6-0.7l0.6-8.7
		c0-0.4-0.1-0.7-0.6-0.8l-0.8,0v-0.6h3.5l3.4,9.4l3.7-9.4h3.4v0.6l-0.9,0.1c-0.5,0-0.6,0.3-0.6,0.7l0.5,8.7c0,0.4,0.1,0.7,0.6,0.7
		l0.8,0.1v0.6h-4.4v-0.6l0.8-0.1c0.4,0,0.6-0.3,0.6-0.7l-0.4-9.1l-4.2,10.6h-0.7L180.5,471.8z"/>
	<path class="st6" d="M197.7,481.7c-0.5,0.4-1.2,0.9-1.9,0.9c-1.2,0-2-0.8-2-1.8c0-0.8,0.5-1.3,1.3-1.6l2.6-1v-0.9
		c0-1.5-0.9-1.9-1.9-1.9c-0.2,0-0.5,0-0.7,0.1l0.1,1.1c0,0.3-0.2,0.5-0.7,0.5c-0.3,0-0.5-0.1-0.5-0.4c0-0.8,1-2.1,2.8-2.1
		c1.5,0,2.4,0.8,2.4,2.5v3.9c0,0.6,0.2,0.8,0.5,0.8c0.2,0,0.5-0.1,0.6-0.2l0.1,0.3c-0.3,0.4-0.8,0.8-1.5,0.8
		C198.2,482.6,197.8,482.3,197.7,481.7z M196.6,481.7c0.3,0,0.7-0.1,1-0.3v-2.7l-1.6,0.7c-0.6,0.2-0.8,0.4-0.8,1
		C195.3,481.1,195.8,481.7,196.6,481.7z"/>
	<path class="st6" d="M200.7,482.4v-0.5l0.6-0.1c0.4,0,0.6-0.3,0.6-0.7v-9.4l-1.2-0.3v-0.3c0.4-0.2,1.8-0.5,2.6-0.7V481
		c0,0.4,0.1,0.7,0.6,0.7l0.6,0.1v0.5H200.7z M206,476c0.2-0.2,0.2-0.5-0.3-0.6l-0.6-0.1v-0.5h3.3v0.5l-0.3,0
		c-0.5,0.1-0.9,0.3-1.2,0.7l-2.1,1.9c0.3,0.1,0.8,0.4,1.4,1.3l0.8,1.2c0.6,0.9,1,1.1,1.5,1.3l0.3,0.1v0.5h-1.2c-0.7,0-1.2-0.2-2-1.3
		l-1.1-1.7c-0.5-0.8-0.9-1-0.9-1.1L206,476z"/>
	<path class="st6" d="M209.1,478.7c0-2.1,1.4-4.1,3.7-4.1c1.9,0,3.1,1.3,3,3c-0.4,0.1-1.1,0.2-2.1,0.1l-3.3-0.1c0,0.2,0,0.4,0,0.6
		c0,1.9,1.2,3.2,2.7,3.2c1.1,0,2-0.8,2.4-1.5l0.3,0.2c-0.4,1.4-1.7,2.4-3.2,2.4C210.3,482.6,209.1,480.7,209.1,478.7z M214.3,477
		c0-0.9-0.4-1.8-1.6-1.8c-1.2,0-1.9,0.9-2.1,1.9L214.3,477z"/>
	<path class="st6" d="M221.2,482.4v-0.6l0.8-0.1c0.4,0,0.6-0.3,0.6-0.7v-8.7c0-0.4-0.1-0.7-0.6-0.7l-0.8-0.1v-0.6h4.4
		c2.7,0,4.5,1.1,4.5,3c0,1.1-0.9,2.4-2.8,2.9l2.2,2.8c1.3,1.7,1.8,2,2.3,2.1l0.4,0.1v0.6H231c-1.3,0-1.8-0.6-2.8-1.9l-2.5-3.4
		c-0.3,0-0.4,0-0.7,0v-0.6l0.5,0c1.7-0.1,2.8-1,2.8-2.5c0-1.7-1.4-2.4-3.1-2.5l-1,0v9.5c0,0.4,0.1,0.7,0.6,0.7l1,0.1v0.6H221.2z"/>
	<path class="st6" d="M232.2,478.7c0-2.1,1.4-4.1,3.7-4.1c1.9,0,3.1,1.3,3,3c-0.4,0.1-1.1,0.2-2.1,0.1l-3.3-0.1c0,0.2,0,0.4,0,0.6
		c0,1.9,1.2,3.2,2.7,3.2c1.1,0,2-0.8,2.4-1.5l0.3,0.2c-0.4,1.4-1.7,2.4-3.2,2.4C233.5,482.6,232.2,480.7,232.2,478.7z M237.4,477
		c0-0.9-0.4-1.8-1.6-1.8c-1.2,0-1.9,0.9-2.1,1.9L237.4,477z"/>
	<path class="st6" d="M240.2,478.7c0-2.2,1.5-4.2,3.8-4.2c1.5,0,2.6,0.7,2.6,1.5c0,0.4-0.3,0.7-0.7,0.7c-1.1,0-0.6-1.6-2-1.6
		c-1.5,0-2.4,1.6-2.4,3.1c0,1.9,1.1,3.2,2.7,3.2c1.1,0,2-0.8,2.4-1.5l0.3,0.2c-0.4,1.4-1.7,2.4-3.2,2.4
		C241.4,482.6,240.2,480.7,240.2,478.7z"/>
	<path class="st6" d="M248,478.6c0-2.2,1.6-4,3.8-4c2.2,0,3.8,1.8,3.8,4c0,2.2-1.6,4-3.8,4C249.6,482.6,248,480.8,248,478.6z
		 M254,478.6c0-2.2-1-3.4-2.2-3.4c-1.3,0-2.2,1.2-2.2,3.4c0,2.2,0.9,3.4,2.2,3.4C253,482,254,480.8,254,478.6z"/>
	<path class="st6" d="M262.8,477.7c0-1.4-0.6-2.1-1.8-2.1c-0.6,0-1.3,0.3-1.8,0.8v4.6c0,0.4,0.1,0.7,0.6,0.7l0.7,0.1v0.5h-3.9v-0.5
		l0.6-0.1c0.4,0,0.6-0.3,0.6-0.7v-5.1l-1.2-0.3v-0.3c0.5-0.2,1.8-0.5,2.6-0.7l0,1.4c0.6-0.9,1.6-1.4,2.6-1.4c1.2,0,2.5,0.7,2.5,2.7
		v3.8c0,0.4,0.1,0.7,0.6,0.7l0.6,0.1v0.5h-3.7v-0.5l0.6-0.1c0.4,0,0.6-0.3,0.6-0.7V477.7z"/>
	<path class="st6" d="M266.2,478.7c0-2.2,1.5-4.2,3.8-4.2c1.5,0,2.6,0.7,2.6,1.5c0,0.4-0.3,0.7-0.7,0.7c-1.1,0-0.6-1.6-2-1.6
		c-1.5,0-2.4,1.6-2.4,3.1c0,1.9,1.1,3.2,2.7,3.2c1.1,0,2-0.8,2.4-1.5l0.3,0.2c-0.4,1.4-1.7,2.4-3.2,2.4
		C267.4,482.6,266.2,480.7,266.2,478.7z"/>
	<path class="st6" d="M273.9,482.4v-0.5l0.6-0.1c0.4,0,0.6-0.3,0.6-0.7v-5.1l-1.2-0.3v-0.3c0.5-0.2,1.8-0.5,2.6-0.7v6.5
		c0,0.4,0.1,0.7,0.6,0.7l0.6,0.1v0.5H273.9z M275.6,470.6c0.6,0,1,0.4,1,1c0,0.5-0.4,1-1,1c-0.6,0-1-0.4-1-1
		C274.6,471.1,275.1,470.6,275.6,470.6z"/>
	<path class="st6" d="M278.3,482.4v-0.5l0.6-0.1c0.4,0,0.6-0.3,0.6-0.7v-9.4l-1.2-0.3v-0.3c0.4-0.2,1.8-0.5,2.6-0.7V481
		c0,0.4,0.1,0.7,0.6,0.7l0.6,0.1v0.5H278.3z"/>
	<path class="st6" d="M282.8,482.4v-0.5l0.6-0.1c0.4,0,0.6-0.3,0.6-0.7v-5.1l-1.2-0.3v-0.3c0.5-0.2,1.8-0.5,2.6-0.7v6.5
		c0,0.4,0.1,0.7,0.6,0.7l0.6,0.1v0.5H282.8z M284.6,470.6c0.6,0,1,0.4,1,1c0,0.5-0.4,1-1,1c-0.6,0-1-0.4-1-1
		C283.6,471.1,284,470.6,284.6,470.6z"/>
	<path class="st6" d="M291.3,481.7c-0.5,0.4-1.2,0.9-1.9,0.9c-1.2,0-2-0.8-2-1.8c0-0.8,0.5-1.3,1.3-1.6l2.6-1v-0.9
		c0-1.5-0.9-1.9-1.9-1.9c-0.2,0-0.5,0-0.7,0.1l0.1,1.1c0,0.3-0.2,0.5-0.7,0.5c-0.3,0-0.5-0.1-0.5-0.4c0-0.8,1-2.1,2.8-2.1
		c1.5,0,2.4,0.8,2.4,2.5v3.9c0,0.6,0.2,0.8,0.5,0.8c0.2,0,0.5-0.1,0.6-0.2l0.1,0.3c-0.3,0.4-0.8,0.8-1.5,0.8
		C291.9,482.6,291.5,482.3,291.3,481.7z M290.3,481.7c0.3,0,0.7-0.1,1-0.3v-2.7l-1.6,0.7c-0.6,0.2-0.8,0.4-0.8,1
		C288.9,481.1,289.5,481.7,290.3,481.7z"/>
	<path class="st6" d="M295.5,480.6l0.1-5.1h-1.2V475c1.3-0.3,1.8-1.4,2.1-2.5h0.5v2.3h2.5v0.7H297v4.5c0,1.1,0.2,1.8,1.4,1.8
		c0.3,0,0.8-0.1,1.1-0.2l0.2,0.5c-0.4,0.3-1.4,0.6-2.2,0.6C296.3,482.6,295.5,482,295.5,480.6z"/>
	<path class="st6" d="M300.3,482.4v-0.5l0.6-0.1c0.4,0,0.6-0.3,0.6-0.7v-5.1l-1.2-0.3v-0.3c0.5-0.2,1.8-0.5,2.6-0.7v6.5
		c0,0.4,0.1,0.7,0.6,0.7l0.6,0.1v0.5H300.3z M302,470.6c0.6,0,1,0.4,1,1c0,0.5-0.4,1-1,1c-0.6,0-1-0.4-1-1
		C301,471.1,301.4,470.6,302,470.6z"/>
	<path class="st6" d="M304.9,478.6c0-2.2,1.6-4,3.8-4c2.2,0,3.8,1.8,3.8,4c0,2.2-1.6,4-3.8,4C306.5,482.6,304.9,480.8,304.9,478.6z
		 M310.9,478.6c0-2.2-1-3.4-2.2-3.4c-1.3,0-2.2,1.2-2.2,3.4c0,2.2,0.9,3.4,2.2,3.4C309.9,482,310.9,480.8,310.9,478.6z"/>
	<path class="st6" d="M319.7,477.7c0-1.4-0.6-2.1-1.8-2.1c-0.6,0-1.3,0.3-1.8,0.8v4.6c0,0.4,0.1,0.7,0.6,0.7l0.7,0.1v0.5h-3.9v-0.5
		l0.6-0.1c0.4,0,0.6-0.3,0.6-0.7v-5.1l-1.2-0.3v-0.3c0.5-0.2,1.8-0.5,2.6-0.7l0,1.4c0.6-0.9,1.6-1.4,2.6-1.4c1.2,0,2.5,0.7,2.5,2.7
		v3.8c0,0.4,0.1,0.7,0.6,0.7l0.6,0.1v0.5h-3.7v-0.5l0.6-0.1c0.4,0,0.6-0.3,0.6-0.7V477.7z"/>
</g>
<g>
</g>
<g>
	<path class="st6" d="M67.7,496.4l-2,5h-0.8l-2.5-6.1c-0.2-0.5-0.5-0.8-0.9-0.9l-0.2,0v-0.5H65v0.5l-0.4,0c-0.7,0-0.7,0.5-0.4,1.3
		l1.5,4.1l1.6-4.1l-0.1-0.4c-0.2-0.5-0.5-0.8-0.9-0.9l-0.2,0v-0.5h3.6v0.5l-0.4,0c-0.7,0.1-0.7,0.5-0.4,1.3l1.5,4.1l1.4-4.1
		c0.3-0.8,0.3-1.2-0.4-1.3l-0.4,0v-0.5H74v0.5l-0.2,0c-0.4,0-0.7,0.3-0.9,0.9l-2.5,6.1h-0.8L67.7,496.4z"/>
	<path class="st6" d="M74.6,501.4v-0.5l0.6-0.1c0.4,0,0.6-0.3,0.6-0.7v-5.1l-1.2-0.3v-0.3c0.5-0.2,1.8-0.5,2.6-0.7v6.5
		c0,0.4,0.1,0.7,0.6,0.7l0.6,0.1v0.5H74.6z M76.3,489.6c0.6,0,1,0.4,1,1c0,0.5-0.4,1-1,1s-1-0.4-1-1
		C75.3,490.1,75.8,489.6,76.3,489.6z"/>
	<path class="st6" d="M80,499.6l0.1-5.1h-1.2V494c1.3-0.3,1.8-1.4,2.1-2.5h0.5v2.3H84v0.7h-2.5v4.5c0,1.1,0.2,1.8,1.4,1.8
		c0.3,0,0.8-0.1,1.1-0.2l0.2,0.5c-0.4,0.3-1.4,0.6-2.2,0.6C80.8,501.6,80,501,80,499.6z"/>
	<path class="st6" d="M89.7,493.6c1.2,0,2.5,0.7,2.5,2.7v3.8c0,0.4,0.1,0.7,0.6,0.7l0.6,0.1v0.5h-3.7v-0.5l0.6-0.1
		c0.4,0,0.6-0.3,0.6-0.7v-3.3c0-1.4-0.6-2.1-1.8-2.1c-0.6,0-1.3,0.3-1.8,0.8v4.6c0,0.4,0.1,0.7,0.6,0.7l0.7,0.1v0.5h-3.8v-0.5
		l0.5-0.1c0.4,0,0.6-0.3,0.6-0.7v-9.4l-1.2-0.3v-0.3c0.5-0.2,1.8-0.5,2.6-0.7v5.7C87.8,494.1,88.8,493.6,89.7,493.6z"/>
	<path class="st6" d="M101.3,499.9c0,0.4,0.1,0.7,0.6,0.7l0.8,0.1v0.6h-4.5v-0.6l0.8-0.1c0.5,0,0.6-0.3,0.6-0.7v-8.7
		c0-0.4-0.1-0.7-0.6-0.7l-0.8-0.1v-0.6h4.5v0.6l-0.8,0.1c-0.4,0-0.6,0.3-0.6,0.7V499.9z"/>
	<path class="st6" d="M110.2,496.7c0-1.4-0.6-2.1-1.8-2.1c-0.6,0-1.3,0.3-1.8,0.8v4.6c0,0.4,0.1,0.7,0.6,0.7l0.7,0.1v0.5H104v-0.5
		l0.6-0.1c0.4,0,0.6-0.3,0.6-0.7v-5.1l-1.2-0.3v-0.3c0.5-0.2,1.8-0.5,2.6-0.7l0,1.4c0.6-0.9,1.6-1.4,2.6-1.4c1.2,0,2.5,0.7,2.5,2.7
		v3.8c0,0.4,0.1,0.7,0.6,0.7l0.6,0.1v0.5H109v-0.5l0.6-0.1c0.4,0,0.6-0.3,0.6-0.7V496.7z"/>
	<path class="st6" d="M119.2,500.5c-0.6,0.7-1.6,1.1-2.4,1.1c-1.8,0-3.2-1.5-3.2-3.8c0-2.1,1.4-4.2,3.9-4.2c0.6,0,1.2,0.1,1.7,0.2
		v-3.2l-1.2-0.3v-0.3c0.4-0.2,1.8-0.5,2.6-0.7v11l1.2,0.2v0.3c-0.3,0.2-1.8,0.7-2.6,0.8V500.5z M119.2,495.8c0-1.1-0.9-1.7-1.8-1.7
		c-1.6,0-2.5,1.3-2.5,3c0,2.2,1.1,3.4,2.5,3.4c0.7,0,1.3-0.2,1.8-0.5V495.8z"/>
	<path class="st6" d="M122.6,501.4v-0.5l0.6-0.1c0.4,0,0.6-0.3,0.6-0.7v-5.1l-1.2-0.3v-0.3c0.5-0.2,1.8-0.5,2.6-0.7v6.5
		c0,0.4,0.1,0.7,0.6,0.7l0.6,0.1v0.5H122.6z M124.3,489.6c0.6,0,1,0.4,1,1c0,0.5-0.4,1-1,1s-1-0.4-1-1
		C123.4,490.1,123.8,489.6,124.3,489.6z"/>
	<path class="st6" d="M130.2,505.4c-1.7,0-3-0.7-3-1.9c0-1,0.8-1.7,2-2.1l-0.1,0c-1.2-0.1-1.7-0.7-1.7-1.5c0-0.7,0.5-1.4,1.2-1.7
		c-0.6-0.5-0.9-1.2-0.9-1.9c0-1.3,1.1-2.7,3.1-2.7c0.7,0,1.3,0.2,1.8,0.5l2.3-0.4v1l-1.7,0c0.4,0.5,0.6,1.1,0.6,1.6
		c0,1.3-1.1,2.6-3,2.6c-0.7,0-1.4-0.2-1.8-0.5c-0.2,0.2-0.4,0.6-0.4,0.9c0,0.3,0.1,0.8,1.1,0.8h2.9c2,0,2.5,0.8,2.5,1.9
		C135,503.5,133.3,505.4,130.2,505.4z M130.8,504.8c1.7,0,2.9-0.9,2.9-2.1c0-0.6-0.3-1.2-1.8-1.2l-2.2,0c-1,0.5-1.3,1.2-1.3,1.7
		C128.5,504.2,129.5,504.8,130.8,504.8z M130.7,498.3c0.7,0,1.6-0.6,1.6-2.1c0-1.5-0.8-2.1-1.6-2.1c-0.7,0-1.6,0.6-1.6,2.1
		C129.1,497.7,130,498.3,130.7,498.3z"/>
	<path class="st6" d="M135.6,497.7c0-2.1,1.4-4.1,3.7-4.1c1.9,0,3.1,1.3,3,3c-0.4,0.1-1.1,0.2-2.1,0.1l-3.3-0.1c0,0.2,0,0.4,0,0.6
		c0,1.9,1.2,3.2,2.7,3.2c1.1,0,2-0.8,2.4-1.5l0.3,0.2c-0.4,1.4-1.7,2.4-3.2,2.4C136.8,501.6,135.6,499.7,135.6,497.7z M140.8,496
		c0-0.9-0.4-1.8-1.6-1.8c-1.2,0-1.9,0.9-2.1,1.9L140.8,496z"/>
	<path class="st6" d="M149.7,496.7c0-1.4-0.6-2.1-1.8-2.1c-0.6,0-1.3,0.3-1.8,0.8v4.6c0,0.4,0.1,0.7,0.6,0.7l0.7,0.1v0.5h-3.9v-0.5
		l0.6-0.1c0.4,0,0.6-0.3,0.6-0.7v-5.1l-1.2-0.3v-0.3c0.5-0.2,1.8-0.5,2.6-0.7l0,1.4c0.6-0.9,1.6-1.4,2.6-1.4c1.2,0,2.5,0.7,2.5,2.7
		v3.8c0,0.4,0.1,0.7,0.6,0.7l0.6,0.1v0.5h-3.7v-0.5l0.6-0.1c0.4,0,0.6-0.3,0.6-0.7V496.7z"/>
	<path class="st6" d="M153,497.6c0-2.2,1.6-4,3.8-4c2.2,0,3.8,1.8,3.8,4c0,2.2-1.6,4-3.8,4C154.6,501.6,153,499.8,153,497.6z
		 M159,497.6c0-2.2-1-3.4-2.2-3.4c-1.3,0-2.2,1.2-2.2,3.4c0,2.2,0.9,3.4,2.2,3.4C158.1,501,159,499.8,159,497.6z"/>
	<path class="st6" d="M167.5,500.2c-0.6,0.8-1.6,1.4-2.5,1.4c-1.2,0-2.4-0.6-2.4-2.8v-3.9l-1.1-0.3v-0.3c0.5-0.2,1.7-0.5,2.6-0.7v5
		c0,1.6,0.7,2.1,1.6,2.1c0.8,0,1.3-0.4,1.8-0.8v-4.9l-1.2-0.3v-0.3c0.5-0.2,1.8-0.5,2.6-0.7v6.7l1.2,0.2v0.3
		c-0.3,0.2-1.8,0.7-2.6,0.8V500.2z"/>
	<path class="st6" d="M175.5,495.8l-0.1-0.4c-0.1-0.6-0.5-1.2-1.5-1.2c-0.7,0-1.4,0.4-1.4,1.2c0,0.7,0.4,1,1.3,1.4l0.8,0.4
		c1.2,0.5,1.9,1.1,1.9,2.2c0,1.4-1.2,2.3-2.7,2.3c-1,0-1.8-0.4-2.2-0.4c-0.2,0-0.3,0.1-0.4,0.2l-0.1,0c0-0.8,0-1.8,0-2.6h0.5
		l0.1,0.4c0.4,1.2,1.1,1.9,2,1.9c0.9,0,1.4-0.6,1.4-1.4c0-0.8-0.5-1.1-1.6-1.6l-0.4-0.2c-1.2-0.6-1.9-1.2-1.9-2.3
		c0-1.1,1-2.1,2.6-2.1c0.6,0,1.5,0.2,1.7,0.2c0.3,0,0.4-0.1,0.5-0.2h0.1c0,0-0.1,1.6-0.1,2.2H175.5z"/>
	<path class="st6" d="M181.9,501.4v-0.6l0.8-0.1c0.4,0,0.6-0.3,0.6-0.7v-8.7c0-0.4-0.1-0.7-0.6-0.7l-0.8-0.1v-0.6h4.1
		c2,0,4.4,0.9,4.4,3.3c0,1.2-1,3.5-4.6,3.5h-0.2v-0.6l0.3,0c1.9-0.1,2.9-1.2,2.9-2.8c0-1.8-1.5-2.7-3.5-2.7h-0.3v9.5
		c0,0.4,0.2,0.7,0.6,0.7l1,0.1v0.6H181.9z"/>
	<path class="st6" d="M190.8,497.7c0-2.1,1.4-4.1,3.7-4.1c1.9,0,3.1,1.3,3,3c-0.4,0.1-1.1,0.2-2.1,0.1l-3.3-0.1c0,0.2,0,0.4,0,0.6
		c0,1.9,1.2,3.2,2.7,3.2c1.1,0,2-0.8,2.4-1.5l0.3,0.2c-0.4,1.4-1.7,2.4-3.2,2.4C192,501.6,190.8,499.7,190.8,497.7z M196,496
		c0-0.9-0.4-1.8-1.6-1.8c-1.2,0-1.9,0.9-2.1,1.9L196,496z"/>
	<path class="st6" d="M198.8,497.6c0-2.2,1.6-4,3.8-4c2.2,0,3.8,1.8,3.8,4c0,2.2-1.6,4-3.8,4C200.4,501.6,198.8,499.8,198.8,497.6z
		 M204.8,497.6c0-2.2-1-3.4-2.2-3.4c-1.3,0-2.2,1.2-2.2,3.4c0,2.2,0.9,3.4,2.2,3.4C203.8,501,204.8,499.8,204.8,497.6z"/>
	<path class="st6" d="M207.2,505.2v-0.5l0.6-0.1c0.4,0,0.6-0.3,0.6-0.7v-8.9l-1.2-0.3v-0.3c0.5-0.2,1.8-0.5,2.6-0.7v1.1
		c0.6-0.7,1.6-1.1,2.4-1.1c1.8,0,3.2,1.5,3.2,3.8c0,2.1-1.4,4.2-3.9,4.2c-0.5,0-1.2-0.1-1.7-0.2v2.5c0,0.4,0.1,0.6,0.6,0.7l0.7,0.1
		v0.5H207.2z M209.8,499.3c0,1.1,0.9,1.7,1.8,1.7c1.6,0,2.5-1.3,2.5-3c0-2.2-1.1-3.4-2.5-3.4c-0.7,0-1.3,0.2-1.8,0.5V499.3z"/>
	<path class="st6" d="M216.4,501.4v-0.5l0.6-0.1c0.4,0,0.6-0.3,0.6-0.7v-9.4l-1.2-0.3v-0.3c0.4-0.2,1.8-0.5,2.6-0.7V500
		c0,0.4,0.1,0.7,0.6,0.7l0.6,0.1v0.5H216.4z"/>
	<path class="st6" d="M221,497.7c0-2.1,1.4-4.1,3.7-4.1c1.9,0,3.1,1.3,3,3c-0.4,0.1-1.1,0.2-2.1,0.1l-3.3-0.1c0,0.2,0,0.4,0,0.6
		c0,1.9,1.2,3.2,2.7,3.2c1.1,0,2-0.8,2.4-1.5l0.3,0.2c-0.4,1.4-1.7,2.4-3.2,2.4C222.3,501.6,221,499.7,221,497.7z M226.2,496
		c0-0.9-0.4-1.8-1.6-1.8c-1.2,0-1.9,0.9-2.1,1.9L226.2,496z"/>
	<path class="st6" d="M233.5,495.8l-0.1-0.4c-0.1-0.6-0.5-1.2-1.5-1.2c-0.7,0-1.4,0.4-1.4,1.2c0,0.7,0.4,1,1.3,1.4l0.8,0.4
		c1.2,0.5,1.9,1.1,1.9,2.2c0,1.4-1.2,2.3-2.7,2.3c-1,0-1.8-0.4-2.2-0.4c-0.2,0-0.3,0.1-0.4,0.2l-0.1,0c0-0.8,0-1.8,0-2.6h0.5
		l0.1,0.4c0.4,1.2,1.1,1.9,2,1.9c0.9,0,1.4-0.6,1.4-1.4c0-0.8-0.5-1.1-1.6-1.6l-0.4-0.2c-1.2-0.6-1.9-1.2-1.9-2.3
		c0-1.1,1-2.1,2.6-2.1c0.6,0,1.5,0.2,1.7,0.2c0.3,0,0.4-0.1,0.5-0.2h0.1c0,0-0.1,1.6-0.1,2.2H233.5z"/>
	<path class="st6" d="M243.6,500.7c-0.5,0.4-1.2,0.9-1.9,0.9c-1.2,0-2-0.8-2-1.8c0-0.8,0.5-1.3,1.3-1.6l2.6-1v-0.9
		c0-1.5-0.9-1.9-1.9-1.9c-0.2,0-0.5,0-0.7,0.1l0.1,1.1c0,0.3-0.2,0.5-0.7,0.5c-0.3,0-0.5-0.1-0.5-0.4c0-0.8,1-2.1,2.8-2.1
		c1.5,0,2.4,0.8,2.4,2.5v3.9c0,0.6,0.2,0.8,0.5,0.8c0.2,0,0.5-0.1,0.6-0.2l0.1,0.3c-0.3,0.4-0.8,0.8-1.5,0.8
		C244.2,501.6,243.7,501.3,243.6,500.7z M242.6,500.7c0.3,0,0.7-0.1,1-0.3v-2.7l-1.6,0.7c-0.6,0.2-0.8,0.4-0.8,1
		C241.2,500.1,241.8,500.7,242.6,500.7z"/>
	<path class="st6" d="M251.1,501.4v-0.6l0.8-0.1c0.4,0,0.6-0.3,0.6-0.7v-8.7c0-0.4-0.1-0.7-0.6-0.7l-0.8-0.1v-0.6h4.4
		c2.7,0,4.5,1.1,4.5,3c0,1.1-0.9,2.4-2.8,2.9l2.2,2.8c1.3,1.7,1.8,2,2.3,2.1l0.4,0.1v0.6h-1.1c-1.3,0-1.8-0.6-2.8-1.9l-2.5-3.4
		c-0.3,0-0.4,0-0.7,0v-0.6l0.5,0c1.7-0.1,2.8-1,2.8-2.5c0-1.7-1.4-2.4-3.1-2.5l-1,0v9.5c0,0.4,0.1,0.7,0.6,0.7l1,0.1v0.6H251.1z"/>
	<path class="st6" d="M262.1,497.7c0-2.1,1.4-4.1,3.7-4.1c1.9,0,3.1,1.3,3,3c-0.4,0.1-1.1,0.2-2.1,0.1l-3.3-0.1c0,0.2,0,0.4,0,0.6
		c0,1.9,1.2,3.2,2.7,3.2c1.1,0,2-0.8,2.4-1.5l0.3,0.2c-0.4,1.4-1.7,2.4-3.2,2.4C263.4,501.6,262.1,499.7,262.1,497.7z M267.3,496
		c0-0.9-0.4-1.8-1.6-1.8c-1.2,0-1.9,0.9-2.1,1.9L267.3,496z"/>
	<path class="st6" d="M274,500.7c-0.5,0.4-1.2,0.9-1.9,0.9c-1.2,0-2-0.8-2-1.8c0-0.8,0.5-1.3,1.3-1.6l2.6-1v-0.9
		c0-1.5-0.9-1.9-1.9-1.9c-0.2,0-0.5,0-0.7,0.1l0.1,1.1c0,0.3-0.2,0.5-0.7,0.5c-0.3,0-0.5-0.1-0.5-0.4c0-0.8,1-2.1,2.8-2.1
		c1.5,0,2.4,0.8,2.4,2.5v3.9c0,0.6,0.2,0.8,0.5,0.8c0.2,0,0.5-0.1,0.6-0.2l0.1,0.3c-0.3,0.4-0.8,0.8-1.5,0.8
		C274.5,501.6,274.1,501.3,274,500.7z M272.9,500.7c0.3,0,0.7-0.1,1-0.3v-2.7l-1.6,0.7c-0.6,0.2-0.8,0.4-0.8,1
		C271.5,500.1,272.1,500.7,272.9,500.7z"/>
	<path class="st6" d="M277.1,501.4v-0.5l0.6-0.1c0.4,0,0.6-0.3,0.6-0.7v-9.4l-1.2-0.3v-0.3c0.4-0.2,1.8-0.5,2.6-0.7V500
		c0,0.4,0.1,0.7,0.6,0.7l0.6,0.1v0.5H277.1z"/>
	<path class="st6" d="M281.6,501.4v-0.5l0.6-0.1c0.4,0,0.6-0.3,0.6-0.7v-5.1l-1.2-0.3v-0.3c0.5-0.2,1.8-0.5,2.6-0.7v6.5
		c0,0.4,0.1,0.7,0.6,0.7l0.6,0.1v0.5H281.6z M283.4,489.6c0.6,0,1,0.4,1,1c0,0.5-0.4,1-1,1c-0.6,0-1-0.4-1-1
		C282.4,490.1,282.8,489.6,283.4,489.6z"/>
	<path class="st6" d="M287.1,499.6l0.1-5.1H286V494c1.3-0.3,1.8-1.4,2.1-2.5h0.5v2.3h2.5v0.7h-2.5v4.5c0,1.1,0.2,1.8,1.4,1.8
		c0.3,0,0.8-0.1,1.1-0.2l0.2,0.5c-0.4,0.3-1.4,0.6-2.2,0.6C287.8,501.6,287.1,501,287.1,499.6z"/>
	<path class="st6" d="M295.4,502.3c-0.7,1.6-1.4,3.1-2.6,3.1c-0.5,0-0.9-0.3-0.9-0.8c0-0.3,0.2-0.7,0.5-0.7c0.3,0,0.4,0.1,0.7,0.1
		c0.7,0,1.1-0.7,1.6-1.8l0.3-0.8l-2.6-6.2c-0.2-0.5-0.5-0.8-0.9-0.9l-0.2,0v-0.5h3.6v0.5l-0.3,0c-0.7,0.1-0.8,0.4-0.4,1.2l1.6,4.1
		l1.6-4.1c0.3-0.8,0.3-1.2-0.4-1.2l-0.4,0v-0.5h2.9v0.5l-0.2,0c-0.4,0.1-0.6,0.3-0.9,0.9L295.4,502.3z"/>
</g>
<g>
	<rect x="39" y="370.4" class="st5" width="70" height="0.5"/>
</g>
<g>
	<rect x="39" y="373.5" class="st5" width="70" height="0.5"/>
</g>
<g>
	<rect x="39" y="376.6" class="st5" width="70" height="0.5"/>
</g>
<g>
	<rect x="39" y="379.7" class="st5" width="70" height="0.5"/>
</g>
<g>
	<rect x="39" y="382.8" class="st5" width="70" height="0.5"/>
</g>
<g>
	<rect x="39" y="385.9" class="st5" width="70" height="0.5"/>
</g>
<g>
	<polygon class="st5" points="98.2,537.1 93.3,529.9 88.4,537.1 83.5,529.9 78.6,537.1 73.7,529.9 68.8,537.1 63.8,529.9 
		58.9,537.1 54,529.9 49.1,537.1 44.2,529.9 39.6,536.6 39,536.2 44.2,528.5 49.1,535.7 54,528.5 58.9,535.7 63.8,528.5 68.8,535.7 
		73.7,528.5 78.6,535.7 83.5,528.5 88.4,535.7 93.3,528.5 98.2,535.7 103.2,528.5 108.1,535.7 112.6,529 113.3,529.5 108.1,537.1 
		103.2,529.9 	"/>
</g>
<g>
	<polygon class="st5" points="301.1,537.1 296.2,529.9 291.2,537.1 286.3,529.9 281.4,537.1 276.5,529.9 271.6,537.1 266.7,529.9 
		261.8,537.1 256.8,529.9 251.9,537.1 246.7,529.5 247.4,529 251.9,535.7 256.8,528.5 261.8,535.7 266.7,528.5 271.6,535.7 
		276.5,528.5 281.4,535.7 286.3,528.5 291.2,535.7 296.2,528.5 301.1,535.7 306,528.5 310.9,535.7 315.8,528.5 321,536.2 
		320.4,536.6 315.8,529.9 310.9,537.1 306,529.9 	"/>
</g>
<g>
	<rect x="39" y="451.5" class="st4" width="0.8" height="6"/>
</g>
<g>
	<rect x="41" y="451.5" class="st4" width="0.8" height="6"/>
</g>
<g>
	<rect x="43" y="451.5" class="st4" width="0.8" height="6"/>
</g>
<g>
	<rect x="45" y="451.5" class="st4" width="0.8" height="6"/>
</g>
<g>
	<rect x="47" y="451.5" class="st4" width="0.8" height="6"/>
</g>
<g>
	<rect x="49" y="451.5" class="st4" width="0.8" height="6"/>
</g>
<g>
	<rect x="51" y="451.5" class="st4" width="0.8" height="6"/>
</g>
<g>
	<rect x="53" y="451.5" class="st4" width="0.8" height="6"/>
</g>
<g>
	<rect x="55" y="451.5" class="st4" width="0.8" height="6"/>
</g>
<g>
	<rect x="56.9" y="451.5" class="st4" width="0.8" height="6"/>
</g>
<g>
	<rect x="58.9" y="451.5" class="st4" width="0.8" height="6"/>
</g>
<g>
	<rect x="60.9" y="451.5" class="st4" width="0.8" height="6"/>
</g>
<g>
	<rect x="62.9" y="451.5" class="st4" width="0.8" height="6"/>
</g>
<g>
	<rect x="64.9" y="451.5" class="st4" width="0.8" height="6"/>
</g>
<g>
	<rect x="66.9" y="451.5" class="st4" width="0.8" height="6"/>
</g>
<g>
	<rect x="68.9" y="451.5" class="st4" width="0.8" height="6"/>
</g>
<g>
	<rect x="70.9" y="451.5" class="st4" width="0.8" height="6"/>
</g>
<g>
	<rect x="72.9" y="451.5" class="st4" width="0.8" height="6"/>
</g>
<g>
	<rect x="74.9" y="451.5" class="st4" width="0.8" height="6"/>
</g>
<g>
	<rect x="76.9" y="451.5" class="st4" width="0.8" height="6"/>
</g>
<g>
	<rect x="78.9" y="451.5" class="st4" width="0.8" height="6"/>
</g>
<g>
	<rect x="80.9" y="451.5" class="st4" width="0.8" height="6"/>
</g>
<g>
	<rect x="82.9" y="451.5" class="st4" width="0.8" height="6"/>
</g>
<g>
	<rect x="84.9" y="451.5" class="st4" width="0.8" height="6"/>
</g>
<g>
	<rect x="86.9" y="451.5" class="st4" width="0.8" height="6"/>
</g>
<g>
	<rect x="88.8" y="451.5" class="st4" width="0.8" height="6"/>
</g>
<g>
	<rect x="90.8" y="451.5" class="st4" width="0.8" height="6"/>
</g>
<g>
	<rect x="92.8" y="451.5" class="st4" width="0.8" height="6"/>
</g>
<g>
	<rect x="94.8" y="451.5" class="st4" width="0.8" height="6"/>
</g>
<g>
	<rect x="96.8" y="451.5" class="st4" width="0.8" height="6"/>
</g>
<g>
	<rect x="98.8" y="451.5" class="st4" width="0.8" height="6"/>
</g>
<g>
	<rect x="100.8" y="451.5" class="st4" width="0.8" height="6"/>
</g>
<g>
	<rect x="102.8" y="451.5" class="st4" width="0.8" height="6"/>
</g>
<g>
	<rect x="104.8" y="451.5" class="st4" width="0.8" height="6"/>
</g>
<g>
	<rect x="106.8" y="451.5" class="st4" width="0.8" height="6"/>
</g>
<g>
	<rect x="108.8" y="451.5" class="st4" width="0.8" height="6"/>
</g>
<g>
	<rect x="110.8" y="451.5" class="st4" width="0.8" height="6"/>
</g>
<g>
	<rect x="112.8" y="451.5" class="st4" width="0.8" height="6"/>
</g>
<g>
	<rect x="114.8" y="451.5" class="st4" width="0.8" height="6"/>
</g>
<g>
	<rect x="116.8" y="451.5" class="st4" width="0.8" height="6"/>
</g>
<g>
	<rect x="118.8" y="451.5" class="st4" width="0.8" height="6"/>
</g>
<g>
	<rect x="120.8" y="451.5" class="st4" width="0.8" height="6"/>
</g>
<g>
	<rect x="122.7" y="451.5" class="st4" width="0.8" height="6"/>
</g>
<g>
	<rect x="124.7" y="451.5" class="st4" width="0.8" height="6"/>
</g>
<g>
	<rect x="126.7" y="451.5" class="st4" width="0.8" height="6"/>
</g>
<g>
	<rect x="128.7" y="451.5" class="st4" width="0.8" height="6"/>
</g>
<g>
	<rect x="130.7" y="451.5" class="st4" width="0.8" height="6"/>
</g>
<g>
	<rect x="132.7" y="451.5" class="st4" width="0.8" height="6"/>
</g>
<g>
	<rect x="134.7" y="451.5" class="st4" width="0.8" height="6"/>
</g>
<g>
	<rect x="136.7" y="451.5" class="st4" width="0.8" height="6"/>
</g>
<g>
	<rect x="138.7" y="451.5" class="st4" width="0.8" height="6"/>
</g>
<g>
	<rect x="140.7" y="451.5" class="st4" width="0.8" height="6"/>
</g>
<g>
	<rect x="142.7" y="451.5" class="st4" width="0.8" height="6"/>
</g>
<g>
	<rect x="144.7" y="451.5" class="st4" width="0.8" height="6"/>
</g>
<g>
	<rect x="146.7" y="451.5" class="st4" width="0.8" height="6"/>
</g>
<g>
	<rect x="148.7" y="451.5" class="st4" width="0.8" height="6"/>
</g>
<g>
	<rect x="150.7" y="451.5" class="st4" width="0.8" height="6"/>
</g>
<g>
	<rect x="152.7" y="451.5" class="st4" width="0.8" height="6"/>
</g>
<g>
	<rect x="154.7" y="451.5" class="st4" width="0.8" height="6"/>
</g>
<g>
	<rect x="156.6" y="451.5" class="st4" width="0.8" height="6"/>
</g>
<g>
	<rect x="158.6" y="451.5" class="st4" width="0.8" height="6"/>
</g>
<g>
	<rect x="160.6" y="451.5" class="st4" width="0.8" height="6"/>
</g>
<g>
	<rect x="162.6" y="451.5" class="st4" width="0.8" height="6"/>
</g>
<g>
	<rect x="164.6" y="451.5" class="st4" width="0.8" height="6"/>
</g>
<g>
	<rect x="166.6" y="451.5" class="st4" width="0.8" height="6"/>
</g>
<g>
	<rect x="168.6" y="451.5" class="st4" width="0.8" height="6"/>
</g>
<g>
	<rect x="170.6" y="451.5" class="st4" width="0.8" height="6"/>
</g>
<g>
	<rect x="172.6" y="451.5" class="st4" width="0.8" height="6"/>
</g>
<g>
	<rect x="174.6" y="451.5" class="st4" width="0.8" height="6"/>
</g>
<g>
	<rect x="176.6" y="451.5" class="st4" width="0.8" height="6"/>
</g>
<g>
	<rect x="178.6" y="451.5" class="st4" width="0.8" height="6"/>
</g>
<g>
	<rect x="180.6" y="451.5" class="st4" width="0.8" height="6"/>
</g>
<g>
	<rect x="182.6" y="451.5" class="st4" width="0.8" height="6"/>
</g>
<g>
	<rect x="184.6" y="451.5" class="st4" width="0.8" height="6"/>
</g>
<g>
	<rect x="186.6" y="451.5" class="st4" width="0.8" height="6"/>
</g>
<g>
	<rect x="188.5" y="451.5" class="st4" width="0.8" height="6"/>
</g>
<g>
	<rect x="190.5" y="451.5" class="st4" width="0.8" height="6"/>
</g>
<g>
	<rect x="192.5" y="451.5" class="st4" width="0.8" height="6"/>
</g>
<g>
	<rect x="194.5" y="451.5" class="st4" width="0.8" height="6"/>
</g>
<g>
	<rect x="196.5" y="451.5" class="st4" width="0.8" height="6"/>
</g>
<g>
	<rect x="198.5" y="451.5" class="st4" width="0.8" height="6"/>
</g>
<g>
	<rect x="200.5" y="451.5" class="st4" width="0.8" height="6"/>
</g>
<g>
	<rect x="202.5" y="451.5" class="st4" width="0.8" height="6"/>
</g>
<g>
	<rect x="204.5" y="451.5" class="st4" width="0.8" height="6"/>
</g>
<g>
	<rect x="206.5" y="451.5" class="st4" width="0.8" height="6"/>
</g>
<g>
	<rect x="208.5" y="451.5" class="st4" width="0.8" height="6"/>
</g>
<g>
	<rect x="210.5" y="451.5" class="st4" width="0.8" height="6"/>
</g>
<g>
	<rect x="212.5" y="451.5" class="st4" width="0.8" height="6"/>
</g>
<g>
	<rect x="214.5" y="451.5" class="st4" width="0.8" height="6"/>
</g>
<g>
	<rect x="216.5" y="451.5" class="st4" width="0.8" height="6"/>
</g>
<g>
	<rect x="218.5" y="451.5" class="st4" width="0.8" height="6"/>
</g>
<g>
	<rect x="220.5" y="451.5" class="st4" width="0.8" height="6"/>
</g>
<g>
	<rect x="222.4" y="451.5" class="st4" width="0.8" height="6"/>
</g>
<g>
	<rect x="224.4" y="451.5" class="st4" width="0.8" height="6"/>
</g>
<g>
	<rect x="226.4" y="451.5" class="st4" width="0.8" height="6"/>
</g>
<g>
	<rect x="228.4" y="451.5" class="st4" width="0.8" height="6"/>
</g>
<g>
	<rect x="230.4" y="451.5" class="st4" width="0.8" height="6"/>
</g>
<g>
	<rect x="232.4" y="451.5" class="st4" width="0.8" height="6"/>
</g>
<g>
	<rect x="234.4" y="451.5" class="st4" width="0.8" height="6"/>
</g>
<g>
	<rect x="236.4" y="451.5" class="st4" width="0.8" height="6"/>
</g>
<g>
	<rect x="238.4" y="451.5" class="st4" width="0.8" height="6"/>
</g>
<g>
	<rect x="240.4" y="451.5" class="st4" width="0.8" height="6"/>
</g>
<g>
	<rect x="242.4" y="451.5" class="st4" width="0.8" height="6"/>
</g>
<g>
	<rect x="244.4" y="451.5" class="st4" width="0.8" height="6"/>
</g>
<g>
	<rect x="246.4" y="451.5" class="st4" width="0.8" height="6"/>
</g>
<g>
	<rect x="248.4" y="451.5" class="st4" width="0.8" height="6"/>
</g>
<g>
	<rect x="250.4" y="451.5" class="st4" width="0.8" height="6"/>
</g>
<g>
	<rect x="252.4" y="451.5" class="st4" width="0.8" height="6"/>
</g>
<g>
	<rect x="254.3" y="451.5" class="st4" width="0.8" height="6"/>
</g>
<g>
	<rect x="256.3" y="451.5" class="st4" width="0.8" height="6"/>
</g>
<g>
	<rect x="258.3" y="451.5" class="st4" width="0.8" height="6"/>
</g>
<g>
	<rect x="260.3" y="451.5" class="st4" width="0.8" height="6"/>
</g>
<g>
	<rect x="262.3" y="451.5" class="st4" width="0.8" height="6"/>
</g>
<g>
	<rect x="264.3" y="451.5" class="st4" width="0.8" height="6"/>
</g>
<g>
	<rect x="266.3" y="451.5" class="st4" width="0.8" height="6"/>
</g>
<g>
	<rect x="268.3" y="451.5" class="st4" width="0.8" height="6"/>
</g>
<g>
	<rect x="270.3" y="451.5" class="st4" width="0.8" height="6"/>
</g>
<g>
	<rect x="272.3" y="451.5" class="st4" width="0.8" height="6"/>
</g>
<g>
	<rect x="274.3" y="451.5" class="st4" width="0.8" height="6"/>
</g>
<g>
	<rect x="276.3" y="451.5" class="st4" width="0.8" height="6"/>
</g>
<g>
	<rect x="278.3" y="451.5" class="st4" width="0.8" height="6"/>
</g>
<g>
	<rect x="280.3" y="451.5" class="st4" width="0.8" height="6"/>
</g>
<g>
	<rect x="282.3" y="451.5" class="st4" width="0.8" height="6"/>
</g>
<g>
	<rect x="284.3" y="451.5" class="st4" width="0.8" height="6"/>
</g>
<g>
	<rect x="286.3" y="451.5" class="st4" width="0.8" height="6"/>
</g>
<g>
	<rect x="288.2" y="451.5" class="st4" width="0.8" height="6"/>
</g>
<g>
	<rect x="290.2" y="451.5" class="st4" width="0.8" height="6"/>
</g>
<g>
	<rect x="292.2" y="451.5" class="st4" width="0.8" height="6"/>
</g>
<g>
	<rect x="294.2" y="451.5" class="st4" width="0.8" height="6"/>
</g>
<g>
	<rect x="296.2" y="451.5" class="st4" width="0.8" height="6"/>
</g>
<g>
	<rect x="298.2" y="451.5" class="st4" width="0.8" height="6"/>
</g>
<g>
	<rect x="300.2" y="451.5" class="st4" width="0.8" height="6"/>
</g>
<g>
	<rect x="302.2" y="451.5" class="st4" width="0.8" height="6"/>
</g>
<g>
	<rect x="304.2" y="451.5" class="st4" width="0.8" height="6"/>
</g>
<g>
	<rect x="306.2" y="451.5" class="st4" width="0.8" height="6"/>
</g>
<g>
	<rect x="308.2" y="451.5" class="st4" width="0.8" height="6"/>
</g>
<g>
	<rect x="310.2" y="451.5" class="st4" width="0.8" height="6"/>
</g>
<g>
	<rect x="312.2" y="451.5" class="st4" width="0.8" height="6"/>
</g>
<g>
	<rect x="314.2" y="451.5" class="st4" width="0.8" height="6"/>
</g>
<g>
	<rect x="316.2" y="451.5" class="st4" width="0.8" height="6"/>
</g>
<g>
	<rect x="318.2" y="451.5" class="st4" width="0.8" height="6"/>
</g>
<g>
	<rect x="320.2" y="451.5" class="st4" width="0.8" height="6"/>
</g>
<g>
	<path class="st3" d="M128.6,537h-6.9v-8.7h6.7c2.4,0,3.7,1,3.7,2.4v0.1c0,0.8-0.8,1.6-2.1,1.9c1.4,0.2,2.2,1,2.2,1.8v0.1
		C132.2,536,130.9,537,128.6,537z M128.3,531.5c0-0.5-0.3-0.6-1.1-0.6h-1.6v1.3h1.6C128,532.1,128.3,531.9,128.3,531.5L128.3,531.5z
		 M128.3,533.9c0-0.4-0.3-0.6-1.1-0.6h-1.6v1.3h1.6C128,534.6,128.3,534.4,128.3,533.9L128.3,533.9z"/>
	<path class="st3" d="M139.8,537.3c-3.5,0-5.8-2.1-5.8-4.6v-0.2c0-2.5,2.3-4.6,5.8-4.6c3.5,0,5.8,2,5.8,4.6v0.2
		C145.6,535.2,143.3,537.3,139.8,537.3z M141.6,532.6c0-1.1-0.7-2-1.8-2c-1.2,0-1.8,0.9-1.8,2v0.2c0,1.1,0.6,2,1.8,2
		c1.2,0,1.8-0.9,1.8-2V532.6z"/>
	<path class="st3" d="M154.7,537h-6.9v-8.7h6.7c2.4,0,3.7,1,3.7,2.4v0.1c0,0.8-0.8,1.6-2.1,1.9c1.4,0.2,2.2,1,2.2,1.8v0.1
		C158.3,536,157,537,154.7,537z M154.4,531.5c0-0.5-0.3-0.6-1.1-0.6h-1.6v1.3h1.6C154.1,532.1,154.4,531.9,154.4,531.5L154.4,531.5z
		 M154.4,533.9c0-0.4-0.3-0.6-1.1-0.6h-1.6v1.3h1.6C154.1,534.6,154.4,534.4,154.4,533.9L154.4,533.9z"/>
	<path class="st3" d="M169,537.3c-2.2,0-3.5-0.5-4.6-1.6l1.5-2c0.7,0.6,1.8,1,2.9,1c0.8,0,1.3-0.4,1.3-1.1v-5.3h3.9v5.4
		C174,535.9,172.2,537.3,169,537.3z"/>
	<path class="st3" d="M181.7,537.3c-3.5,0-5.8-2.1-5.8-4.6v-0.2c0-2.5,2.3-4.6,5.8-4.6c3.5,0,5.8,2,5.8,4.6v0.2
		C187.5,535.2,185.2,537.3,181.7,537.3z M183.6,532.6c0-1.1-0.7-2-1.8-2c-1.2,0-1.8,0.9-1.8,2v0.2c0,1.1,0.7,2,1.8,2
		c1.2,0,1.8-0.9,1.8-2V532.6z"/>
	<path class="st3" d="M194.6,537.3c-2.3,0-4.4-0.5-5.8-1.2l1-2c1.3,0.6,3.2,1,4.5,1c1.4,0,1.8-0.3,1.8-0.6c0-1.1-6.9-0.2-6.9-3.6
		c0-1.6,2.3-2.9,5.3-2.9c2.4,0,3.6,0.4,5.3,1.1l-1,2c-1.5-0.6-3.1-1-4.4-1c-1.1,0-1.5,0.3-1.5,0.5c0,1.2,7,0.2,7,3.5
		C199.9,536.1,197.4,537.3,194.6,537.3z"/>
	<path class="st3" d="M202.2,537v-8.7h9.8v2.6h-6v1.1h3.9v1.1H206v1h6v2.8H202.2z"/>
	<path class="st3" d="M221.5,534.2h-3v2.8h-3.9v-8.7h6.9c2.4,0,3.7,1.3,3.7,2.9v0.1C225.1,532.9,223.8,534.2,221.5,534.2z
		 M221.2,531.6c0-0.5-0.3-0.8-1.1-0.8h-1.6v1.7h1.6C220.9,532.5,221.2,532.1,221.2,531.6L221.2,531.6z"/>
	<path class="st3" d="M234.4,537v-3H231v3h-3.9v-8.7h3.9v3.2h3.4v-3.2h3.9v8.7H234.4z"/>
</g>
</svg>
