<svg id="Layer_1" data-name="Layer 1" xmlns="http://www.w3.org/2000/svg" xmlns:xlink="http://www.w3.org/1999/xlink" viewBox="0 0 432 648"><defs><style>.cls-1,.cls-6{fill:none;}.cls-2{fill:#fbe038;}.cls-3{fill:#212120;}.cls-4{fill:#1e8d5b;}.cls-5{fill:#c51b1c;}.cls-6{stroke:#212120;}.cls-7{clip-path:url(#clip-path);}.cls-8{fill:#cbb441;}.cls-9{fill:#fff;}.cls-10{clip-path:url(#clip-path-2);}.cls-11{fill:#aaabac;}.cls-12{fill:#f0c538;}.cls-13{fill:#1b985f;}.cls-14{fill:#707171;}</style><clipPath id="clip-path"><polygon class="cls-1" points="215.15 257.99 208.5 359.44 302.75 365.62 309.53 262.18 245.6 257.99 215.15 257.99"/></clipPath><clipPath id="clip-path-2"><rect class="cls-1" x="206.25" y="257.99" width="126.63" height="122.27"/></clipPath></defs><title>DibbFrontApprovedFINAL</title><rect class="cls-2" width="432" height="648"/><path class="cls-3" d="M38.11,42.48a1.38,1.38,0,0,1,1.46-1.58l0.12,0.49a0.8,0.8,0,0,0-.81.88h0.48v1.31H38.11V42.48Zm2.21,0a1.38,1.38,0,0,1,1.46-1.58l0.12,0.49a0.8,0.8,0,0,0-.81.88h0.48v1.31H40.31V42.48Z"/><path class="cls-3" d="M43.37,40.95H48.3v1H44.54v1.73h3.34v1H44.54v1.79h3.81v1h-5V40.95Z"/><path class="cls-3" d="M48.91,42.58h1.24l1.35,3.69,1.36-3.69h1.21L52,47.64H51Z"/><path class="cls-3" d="M54.58,45.11v0A2.49,2.49,0,0,1,57,42.48a2.43,2.43,0,0,1,2.41,2.7c0,0.1,0,.21,0,0.32H55.73a1.4,1.4,0,0,0,1.44,1.27,1.82,1.82,0,0,0,1.36-.6l0.67,0.6a2.54,2.54,0,0,1-2.05.94A2.5,2.5,0,0,1,54.58,45.11Zm3.72-.37A1.3,1.3,0,0,0,57,43.42a1.36,1.36,0,0,0-1.3,1.32h2.58Z"/><path class="cls-3" d="M60.68,42.58h1.15v1.13a1.78,1.78,0,0,1,1.78-1.23V43.7H63.54a1.7,1.7,0,0,0-1.71,2V47.6H60.68v-5Z"/><path class="cls-3" d="M68.31,42.58h1.2l-2,5.16c-0.4,1-.85,1.41-1.65,1.41a2.37,2.37,0,0,1-1.19-.3L65.06,48a1.41,1.41,0,0,0,.67.19,0.73,0.73,0,0,0,.71-0.57l-2.09-5h1.24L67,46.31Z"/><path class="cls-3" d="M71.66,46.82V47.6H70.51V40.66h1.15v2.76a2,2,0,0,1,1.71-.94,2.4,2.4,0,0,1,2.33,2.6v0a2.4,2.4,0,0,1-2.33,2.6A2.05,2.05,0,0,1,71.66,46.82Zm2.87-1.72v0a1.49,1.49,0,0,0-1.44-1.61,1.51,1.51,0,0,0-1.46,1.61v0a1.51,1.51,0,0,0,1.46,1.61A1.47,1.47,0,0,0,74.53,45.1Z"/><path class="cls-3" d="M76.68,45.12v0a2.68,2.68,0,0,1,5.35,0v0a2.62,2.62,0,0,1-2.69,2.61A2.6,2.6,0,0,1,76.68,45.12Zm4.2,0v0a1.55,1.55,0,0,0-1.54-1.62,1.51,1.51,0,0,0-1.51,1.6v0a1.55,1.55,0,0,0,1.53,1.61A1.51,1.51,0,0,0,80.89,45.12Z"/><path class="cls-3" d="M83,45.1v0a2.4,2.4,0,0,1,2.33-2.6,2.05,2.05,0,0,1,1.71.88v-2.7h1.15V47.6H87.06V46.76a2,2,0,0,1-1.71.94A2.41,2.41,0,0,1,83,45.1Zm4.06,0v0a1.51,1.51,0,0,0-1.45-1.61,1.47,1.47,0,0,0-1.44,1.61v0a1.49,1.49,0,0,0,1.44,1.61A1.51,1.51,0,0,0,87.08,45.1Z"/><path class="cls-3" d="M93.16,42.58h1.2l-2,5.16c-0.4,1-.85,1.41-1.65,1.41a2.37,2.37,0,0,1-1.19-.3L89.91,48a1.41,1.41,0,0,0,.67.19,0.73,0.73,0,0,0,.71-0.57l-2.09-5h1.24l1.42,3.73Z"/><path class="cls-3" d="M98.13,40.66h1.15v4.14l2.08-2.22h1.4l-2,2,2.06,3h-1.35L100,45.42l-0.71.74V47.6H98.13V40.66Z"/><path class="cls-3" d="M103.74,42.58h1.15v0.77a1.82,1.82,0,0,1,1.57-.87,1.72,1.72,0,0,1,1.79,1.92v3.2H107.1V44.75A1.05,1.05,0,0,0,106,43.52a1.12,1.12,0,0,0-1.13,1.25V47.6h-1.15v-5Z"/><path class="cls-3" d="M109.43,45.12v0a2.68,2.68,0,0,1,5.35,0v0a2.62,2.62,0,0,1-2.69,2.61A2.6,2.6,0,0,1,109.43,45.12Zm4.2,0v0a1.55,1.55,0,0,0-1.54-1.62,1.51,1.51,0,0,0-1.51,1.6v0a1.55,1.55,0,0,0,1.53,1.61A1.51,1.51,0,0,0,113.63,45.12Z"/><path class="cls-3" d="M115.4,42.58h1.18l1,3.44,1.11-3.46h1L120.8,46l1-3.44H123l-1.64,5.06h-1l-1.12-3.43L118,47.64h-1Z"/><path class="cls-3" d="M123.52,46.94l0.51-.78a2.84,2.84,0,0,0,1.64.62,0.63,0.63,0,0,0,.78-0.54v0c0-.39-0.53-0.52-1.12-0.7-0.74-.21-1.57-0.51-1.57-1.47v0a1.6,1.6,0,0,1,1.79-1.53,3.48,3.48,0,0,1,1.84.57l-0.46.82a2.91,2.91,0,0,0-1.42-.48,0.58,0.58,0,0,0-.7.49v0c0,0.37.54,0.52,1.13,0.71s1.56,0.56,1.56,1.46v0a1.62,1.62,0,0,1-1.86,1.58A3.53,3.53,0,0,1,123.52,46.94Z"/><path class="cls-3" d="M131.48,42.58h1.15v0.76a1.8,1.8,0,0,1,1.53-.87,1.59,1.59,0,0,1,1.5.88,2,2,0,0,1,1.69-.88,1.69,1.69,0,0,1,1.76,1.92v3.2H138V44.75a1,1,0,0,0-1-1.23,1.08,1.08,0,0,0-1.07,1.25V47.6h-1.15V44.74a1,1,0,0,0-1-1.22,1.1,1.1,0,0,0-1.07,1.25V47.6h-1.15v-5Z"/><path class="cls-3" d="M140.27,46.16v0c0-1.08.85-1.62,2.07-1.62a4.19,4.19,0,0,1,1.35.21V44.61a1.05,1.05,0,0,0-1.25-1.09,3.5,3.5,0,0,0-1.44.31l-0.3-.9a4.28,4.28,0,0,1,1.89-.41,2.25,2.25,0,0,1,1.66.56,2.08,2.08,0,0,1,.54,1.55v3h-1.12V47a2,2,0,0,1-1.63.73A1.6,1.6,0,0,1,140.27,46.16Zm3.44-.36V45.45a3.19,3.19,0,0,0-1.14-.2,1,1,0,0,0-1.18.84v0a0.84,0.84,0,0,0,1,.76A1.19,1.19,0,0,0,143.71,45.79Z"/><path class="cls-3" d="M146.27,42.58h1.15v1.13a1.78,1.78,0,0,1,1.78-1.23V43.7h-0.07a1.7,1.7,0,0,0-1.71,2V47.6h-1.15v-5Z"/><path class="cls-3" d="M150.19,40.66h1.15v4.14l2.08-2.22h1.4l-2,2,2.06,3h-1.35l-1.48-2.18-0.71.74V47.6h-1.15V40.66Z"/><path class="cls-3" d="M155.31,45.11v0a2.49,2.49,0,0,1,2.45-2.61,2.43,2.43,0,0,1,2.41,2.7c0,0.1,0,.21,0,0.32h-3.69a1.4,1.4,0,0,0,1.44,1.27,1.82,1.82,0,0,0,1.36-.6l0.67,0.6a2.54,2.54,0,0,1-2.05.94A2.5,2.5,0,0,1,155.31,45.11Zm3.72-.37a1.3,1.3,0,0,0-1.27-1.32,1.36,1.36,0,0,0-1.3,1.32H159Z"/><path class="cls-3" d="M161.56,46.21V43.57h-0.64v-1h0.64V41.2h1.15v1.38h1.35v1h-1.35V46a0.55,0.55,0,0,0,.62.63,1.55,1.55,0,0,0,.71-0.17v0.94a2,2,0,0,1-1,.26A1.29,1.29,0,0,1,161.56,46.21Z"/><path class="cls-3" d="M165.24,40.72h1.24v1.09h-1.24V40.72Zm0,1.86h1.15v5h-1.15v-5Z"/><path class="cls-3" d="M168,42.58h1.15v0.77a1.82,1.82,0,0,1,1.57-.87,1.72,1.72,0,0,1,1.79,1.92v3.2h-1.15V44.75a1.05,1.05,0,0,0-1.07-1.23,1.12,1.12,0,0,0-1.13,1.25V47.6H168v-5Z"/><path class="cls-3" d="M173.93,48.54l0.43-.86a3.29,3.29,0,0,0,1.79.53,1.4,1.4,0,0,0,1.59-1.54V46.28a2.1,2.1,0,0,1-1.77.92,2.26,2.26,0,0,1-2.28-2.35v0A2.26,2.26,0,0,1,176,42.48a2.17,2.17,0,0,1,1.76.86V42.58h1.15v4a2.57,2.57,0,0,1-.64,1.89,2.83,2.83,0,0,1-2.06.67A4.32,4.32,0,0,1,173.93,48.54Zm3.81-3.7v0a1.4,1.4,0,0,0-1.47-1.38,1.36,1.36,0,0,0-1.43,1.38v0a1.37,1.37,0,0,0,1.43,1.38A1.4,1.4,0,0,0,177.74,44.84Z"/><path class="cls-3" d="M183.12,40.72h1.24v1.09h-1.24V40.72Zm0,1.86h1.15v5h-1.15v-5Z"/><path class="cls-3" d="M185.45,46.94l0.51-.78a2.84,2.84,0,0,0,1.64.62,0.63,0.63,0,0,0,.78-0.54v0c0-.39-0.53-0.52-1.12-0.7-0.74-.21-1.57-0.51-1.57-1.47v0a1.6,1.6,0,0,1,1.79-1.53,3.48,3.48,0,0,1,1.84.57l-0.46.82a2.91,2.91,0,0,0-1.42-.48,0.58,0.58,0,0,0-.7.49v0c0,0.37.54,0.52,1.13,0.71s1.56,0.56,1.56,1.46v0a1.62,1.62,0,0,1-1.86,1.58A3.53,3.53,0,0,1,185.45,46.94Z"/><path class="cls-3" d="M193.4,48.54l0.43-.86a3.29,3.29,0,0,0,1.79.53,1.4,1.4,0,0,0,1.59-1.54V46.28a2.1,2.1,0,0,1-1.77.92,2.26,2.26,0,0,1-2.28-2.35v0a2.26,2.26,0,0,1,2.28-2.36,2.17,2.17,0,0,1,1.76.86V42.58h1.15v4a2.57,2.57,0,0,1-.64,1.89,2.83,2.83,0,0,1-2.06.67A4.32,4.32,0,0,1,193.4,48.54Zm3.81-3.7v0a1.4,1.4,0,0,0-1.47-1.38,1.36,1.36,0,0,0-1.43,1.38v0a1.37,1.37,0,0,0,1.43,1.38A1.4,1.4,0,0,0,197.21,44.84Z"/><path class="cls-3" d="M199.59,45.11v0A2.49,2.49,0,0,1,202,42.48a2.43,2.43,0,0,1,2.41,2.7c0,0.1,0,.21,0,0.32h-3.69a1.4,1.4,0,0,0,1.44,1.27,1.82,1.82,0,0,0,1.36-.6l0.67,0.6a2.54,2.54,0,0,1-2.05.94A2.5,2.5,0,0,1,199.59,45.11Zm3.72-.37A1.3,1.3,0,0,0,202,43.42a1.36,1.36,0,0,0-1.3,1.32h2.58Z"/><path class="cls-3" d="M205.84,46.21V43.57h-0.64v-1h0.64V41.2H207v1.38h1.35v1H207V46a0.55,0.55,0,0,0,.62.63,1.55,1.55,0,0,0,.71-0.17v0.94a2,2,0,0,1-1,.26A1.29,1.29,0,0,1,205.84,46.21Z"/><path class="cls-3" d="M209.86,46.21V43.57h-0.64v-1h0.64V41.2H211v1.38h1.35v1H211V46a0.55,0.55,0,0,0,.62.63,1.55,1.55,0,0,0,.71-0.17v0.94a2,2,0,0,1-1,.26A1.29,1.29,0,0,1,209.86,46.21Z"/><path class="cls-3" d="M213.55,40.72h1.24v1.09h-1.24V40.72Zm0,1.86h1.15v5H213.6v-5Z"/><path class="cls-3" d="M216.29,42.58h1.15v0.77a1.82,1.82,0,0,1,1.57-.87,1.72,1.72,0,0,1,1.79,1.92v3.2h-1.15V44.75a1.05,1.05,0,0,0-1.07-1.23,1.12,1.12,0,0,0-1.13,1.25V47.6h-1.15v-5Z"/><path class="cls-3" d="M222.23,48.54l0.43-.86a3.29,3.29,0,0,0,1.79.53A1.4,1.4,0,0,0,226,46.67V46.28a2.1,2.1,0,0,1-1.77.92A2.26,2.26,0,0,1,222,44.85v0a2.26,2.26,0,0,1,2.28-2.36,2.17,2.17,0,0,1,1.76.86V42.58h1.15v4a2.57,2.57,0,0,1-.64,1.89,2.83,2.83,0,0,1-2.06.67A4.32,4.32,0,0,1,222.23,48.54Zm3.81-3.7v0a1.4,1.4,0,0,0-1.47-1.38,1.36,1.36,0,0,0-1.43,1.38v0a1.37,1.37,0,0,0,1.43,1.38A1.4,1.4,0,0,0,226,44.84Z"/><path class="cls-3" d="M231.65,46.21V43.57H231v-1h0.64V41.2h1.15v1.38h1.35v1H232.8V46a0.55,0.55,0,0,0,.62.63,1.54,1.54,0,0,0,.71-0.17v0.94a2,2,0,0,1-1,.26A1.29,1.29,0,0,1,231.65,46.21Z"/><path class="cls-3" d="M234.94,45.12v0a2.68,2.68,0,0,1,5.35,0v0a2.62,2.62,0,0,1-2.69,2.61A2.6,2.6,0,0,1,234.94,45.12Zm4.2,0v0a1.55,1.55,0,0,0-1.54-1.62,1.51,1.51,0,0,0-1.51,1.6v0a1.55,1.55,0,0,0,1.53,1.61A1.51,1.51,0,0,0,239.14,45.12Z"/><path class="cls-3" d="M241.24,45.12v0a2.68,2.68,0,0,1,5.35,0v0a2.62,2.62,0,0,1-2.69,2.61A2.6,2.6,0,0,1,241.24,45.12Zm4.2,0v0a1.55,1.55,0,0,0-1.54-1.62,1.51,1.51,0,0,0-1.51,1.6v0a1.55,1.55,0,0,0,1.53,1.61A1.51,1.51,0,0,0,245.44,45.12Z"/><path class="cls-3" d="M250.27,45.12v0a2.59,2.59,0,0,1,2.61-2.62,2.53,2.53,0,0,1,2,.87l-0.72.77a1.69,1.69,0,0,0-1.29-.63,1.51,1.51,0,0,0-1.46,1.6v0a1.52,1.52,0,0,0,1.5,1.61,1.76,1.76,0,0,0,1.3-.62l0.69,0.68A2.63,2.63,0,0,1,250.27,45.12Z"/><path class="cls-3" d="M255.63,45.12v0a2.68,2.68,0,0,1,5.35,0v0a2.62,2.62,0,0,1-2.69,2.61A2.6,2.6,0,0,1,255.63,45.12Zm4.2,0v0a1.55,1.55,0,0,0-1.54-1.62,1.51,1.51,0,0,0-1.51,1.6v0a1.55,1.55,0,0,0,1.53,1.61A1.51,1.51,0,0,0,259.83,45.12Z"/><path class="cls-3" d="M262.22,42.58h1.15v0.76a1.8,1.8,0,0,1,1.53-.87,1.59,1.59,0,0,1,1.5.88,2,2,0,0,1,1.69-.88,1.69,1.69,0,0,1,1.76,1.92v3.2H268.7V44.75a1,1,0,0,0-1-1.23,1.08,1.08,0,0,0-1.07,1.25V47.6h-1.15V44.74a1,1,0,0,0-1-1.22,1.1,1.1,0,0,0-1.07,1.25V47.6h-1.15v-5Z"/><path class="cls-3" d="M271.35,42.58h1.15v0.84a2,2,0,0,1,1.71-.94,2.4,2.4,0,0,1,2.33,2.6v0a2.4,2.4,0,0,1-2.33,2.6,2,2,0,0,1-1.71-.88v2.3h-1.15V42.58Zm4,2.52v0a1.49,1.49,0,0,0-1.43-1.61,1.51,1.51,0,0,0-1.46,1.61v0a1.51,1.51,0,0,0,1.46,1.61A1.47,1.47,0,0,0,275.37,45.1Z"/><path class="cls-3" d="M277.83,40.66H279V47.6h-1.15V40.66Z"/><path class="cls-3" d="M280.51,40.72h1.24v1.09h-1.24V40.72Zm0,1.86h1.15v5h-1.15v-5Z"/><path class="cls-3" d="M283,45.12v0a2.59,2.59,0,0,1,2.61-2.62,2.53,2.53,0,0,1,2,.87l-0.72.77a1.69,1.69,0,0,0-1.29-.63,1.51,1.51,0,0,0-1.46,1.6v0a1.52,1.52,0,0,0,1.5,1.61,1.76,1.76,0,0,0,1.3-.62l0.69,0.68A2.63,2.63,0,0,1,283,45.12Z"/><path class="cls-3" d="M288.44,46.16v0c0-1.08.85-1.62,2.07-1.62a4.19,4.19,0,0,1,1.35.21V44.61a1.05,1.05,0,0,0-1.25-1.09,3.5,3.5,0,0,0-1.44.31l-0.3-.9a4.28,4.28,0,0,1,1.89-.41,2.25,2.25,0,0,1,1.66.56,2.08,2.08,0,0,1,.54,1.55v3h-1.12V47a2,2,0,0,1-1.64.73A1.6,1.6,0,0,1,288.44,46.16Zm3.44-.36V45.45a3.19,3.19,0,0,0-1.14-.2,1,1,0,0,0-1.18.84v0a0.84,0.84,0,0,0,1,.76A1.19,1.19,0,0,0,291.88,45.79Z"/><path class="cls-3" d="M294.58,46.21V43.57h-0.64v-1h0.64V41.2h1.15v1.38h1.35v1h-1.35V46a0.55,0.55,0,0,0,.62.63,1.54,1.54,0,0,0,.71-0.17v0.94a2,2,0,0,1-1,.26A1.29,1.29,0,0,1,294.58,46.21Z"/><path class="cls-3" d="M297.91,45.11v0a2.49,2.49,0,0,1,2.45-2.61,2.43,2.43,0,0,1,2.41,2.7c0,0.1,0,.21,0,0.32h-3.69a1.4,1.4,0,0,0,1.45,1.27,1.82,1.82,0,0,0,1.36-.6l0.67,0.6a2.54,2.54,0,0,1-2.05.94A2.5,2.5,0,0,1,297.91,45.11Zm3.72-.37a1.3,1.3,0,0,0-1.27-1.32,1.36,1.36,0,0,0-1.3,1.32h2.58Z"/><path class="cls-3" d="M303.74,45.1v0a2.4,2.4,0,0,1,2.33-2.6,2.05,2.05,0,0,1,1.71.88v-2.7h1.15V47.6h-1.15V46.76a2,2,0,0,1-1.71.94A2.41,2.41,0,0,1,303.74,45.1Zm4.06,0v0a1.51,1.51,0,0,0-1.46-1.61,1.47,1.47,0,0,0-1.44,1.61v0a1.49,1.49,0,0,0,1.44,1.61A1.51,1.51,0,0,0,307.8,45.1Z"/><path class="cls-3" d="M310.47,46.29h1.26V47.6h-1.26V46.29Z"/><path class="cls-3" d="M318.38,40.9h1.08l2.93,6.7h-1.24L320.48,46h-3.15l-0.68,1.61h-1.2ZM320.05,45l-1.15-2.66L317.76,45h2.29Z"/><path class="cls-3" d="M323.5,40.66h1.15V47.6H323.5V40.66Z"/><path class="cls-3" d="M326.23,40.66h1.15V47.6h-1.15V40.66Z"/><path class="cls-3" d="M328.59,46.16v0c0-1.08.85-1.62,2.07-1.62a4.19,4.19,0,0,1,1.35.21V44.61a1.05,1.05,0,0,0-1.25-1.09,3.5,3.5,0,0,0-1.44.31l-0.3-.9a4.28,4.28,0,0,1,1.89-.41,2.25,2.25,0,0,1,1.66.56,2.08,2.08,0,0,1,.54,1.55v3H332V47a2,2,0,0,1-1.64.73A1.6,1.6,0,0,1,328.59,46.16Zm3.44-.36V45.45a3.19,3.19,0,0,0-1.14-.2,1,1,0,0,0-1.18.84v0a0.84,0.84,0,0,0,1,.76A1.19,1.19,0,0,0,332,45.79Z"/><path class="cls-3" d="M334.6,42.58h1.15v0.77a1.82,1.82,0,0,1,1.57-.87,1.72,1.72,0,0,1,1.79,1.92v3.2H338V44.75a1.05,1.05,0,0,0-1.07-1.23,1.12,1.12,0,0,0-1.13,1.25V47.6H334.6v-5Z"/><path class="cls-3" d="M343.4,40.95h2.48a3.32,3.32,0,0,1,3.54,3.31v0a3.33,3.33,0,0,1-3.54,3.33H343.4V40.95ZM344.57,42v4.52h1.31a2.17,2.17,0,0,0,2.31-2.24v0A2.18,2.18,0,0,0,345.88,42h-1.31Z"/><path class="cls-3" d="M350.79,40.72H352v1.09h-1.24V40.72Zm0,1.86H352v5h-1.15v-5Z"/><path class="cls-3" d="M354.68,46.82V47.6h-1.15V40.66h1.15v2.76a2,2,0,0,1,1.71-.94,2.4,2.4,0,0,1,2.33,2.6v0a2.4,2.4,0,0,1-2.33,2.6A2,2,0,0,1,354.68,46.82Zm2.87-1.72v0a1.49,1.49,0,0,0-1.43-1.61,1.51,1.51,0,0,0-1.46,1.61v0a1.51,1.51,0,0,0,1.46,1.61A1.47,1.47,0,0,0,357.55,45.1Z"/><path class="cls-3" d="M362.29,46.94l0.51-.78a2.84,2.84,0,0,0,1.64.62,0.63,0.63,0,0,0,.78-0.54v0c0-.39-0.53-0.52-1.12-0.7-0.74-.21-1.57-0.51-1.57-1.47v0a1.6,1.6,0,0,1,1.79-1.53,3.48,3.48,0,0,1,1.84.57l-0.46.82a2.91,2.91,0,0,0-1.42-.48,0.58,0.58,0,0,0-.7.49v0c0,0.37.54,0.52,1.13,0.71s1.56,0.56,1.56,1.46v0a1.62,1.62,0,0,1-1.86,1.58A3.53,3.53,0,0,1,362.29,46.94Z"/><path class="cls-3" d="M367.19,45.12v0a2.68,2.68,0,0,1,5.35,0v0a2.62,2.62,0,0,1-2.69,2.61A2.6,2.6,0,0,1,367.19,45.12Zm4.2,0v0a1.55,1.55,0,0,0-1.54-1.62,1.51,1.51,0,0,0-1.51,1.6v0a1.55,1.55,0,0,0,1.53,1.61A1.51,1.51,0,0,0,371.39,45.12Z"/><path class="cls-3" d="M373.82,40.66H375V47.6h-1.15V40.66Z"/><path class="cls-3" d="M376,42.58h1.24l1.35,3.69,1.36-3.69h1.21l-2.05,5.06h-1Z"/><path class="cls-3" d="M381.66,45.11v0a2.49,2.49,0,0,1,2.45-2.61,2.43,2.43,0,0,1,2.41,2.7c0,0.1,0,.21,0,0.32h-3.69a1.4,1.4,0,0,0,1.45,1.27,1.82,1.82,0,0,0,1.36-.6l0.67,0.6a2.54,2.54,0,0,1-2.05.94A2.5,2.5,0,0,1,381.66,45.11Zm3.72-.37a1.3,1.3,0,0,0-1.27-1.32,1.36,1.36,0,0,0-1.3,1.32h2.58Z"/><path class="cls-3" d="M387.31,46.94l0.51-.78a2.84,2.84,0,0,0,1.64.62,0.63,0.63,0,0,0,.78-0.54v0c0-.39-0.53-0.52-1.12-0.7-0.74-.21-1.57-0.51-1.57-1.47v0a1.6,1.6,0,0,1,1.79-1.53,3.48,3.48,0,0,1,1.84.57l-0.46.82a2.92,2.92,0,0,0-1.42-.48,0.58,0.58,0,0,0-.7.49v0c0,0.37.54,0.52,1.13,0.71s1.56,0.56,1.56,1.46v0a1.62,1.62,0,0,1-1.86,1.58A3.53,3.53,0,0,1,387.31,46.94Z"/><path class="cls-3" d="M43.24,60.22V57.57H42.6v-1h0.64V55.21h1.15v1.38h1.35v1H44.39V60a0.55,0.55,0,0,0,.62.63,1.55,1.55,0,0,0,.71-0.17v0.94a2,2,0,0,1-1,.26A1.29,1.29,0,0,1,43.24,60.22Z"/><path class="cls-3" d="M47,54.66h1.15v2.69a1.82,1.82,0,0,1,1.57-.87,1.72,1.72,0,0,1,1.79,1.92v3.2H50.32V58.75a1.05,1.05,0,0,0-1.07-1.23,1.12,1.12,0,0,0-1.13,1.25V61.6H47V54.66Z"/><path class="cls-3" d="M52.6,60.16v0c0-1.08.85-1.62,2.07-1.62a4.19,4.19,0,0,1,1.35.21V58.61a1.05,1.05,0,0,0-1.25-1.09,3.5,3.5,0,0,0-1.44.31l-0.3-.9a4.28,4.28,0,0,1,1.89-.41,2.25,2.25,0,0,1,1.66.56,2.08,2.08,0,0,1,.54,1.55v3H56V61a2,2,0,0,1-1.64.73A1.6,1.6,0,0,1,52.6,60.16ZM56,59.8V59.45a3.19,3.19,0,0,0-1.14-.2,1,1,0,0,0-1.18.84v0a0.84,0.84,0,0,0,1,.76A1.19,1.19,0,0,0,56,59.8Z"/><path class="cls-3" d="M58.75,60.22V57.57H58.11v-1h0.64V55.21H59.9v1.38h1.35v1H59.9V60a0.55,0.55,0,0,0,.62.63,1.55,1.55,0,0,0,.71-0.17v0.94a2,2,0,0,1-1,.26A1.29,1.29,0,0,1,58.75,60.22Z"/><path class="cls-3" d="M65.21,56.58h1.15v0.84a2,2,0,0,1,1.71-.94,2.4,2.4,0,0,1,2.33,2.6v0a2.4,2.4,0,0,1-2.33,2.6,2.05,2.05,0,0,1-1.71-.88v2.3H65.21V56.58Zm4,2.52v0a1.49,1.49,0,0,0-1.44-1.61,1.51,1.51,0,0,0-1.46,1.61v0a1.51,1.51,0,0,0,1.46,1.61A1.47,1.47,0,0,0,69.23,59.1Z"/><path class="cls-3" d="M71.67,56.58h1.15v1.13a1.78,1.78,0,0,1,1.78-1.23v1.22H74.53a1.7,1.7,0,0,0-1.71,2V61.6H71.67v-5Z"/><path class="cls-3" d="M75.3,59.12v0a2.68,2.68,0,0,1,5.35,0v0A2.62,2.62,0,0,1,78,61.72,2.6,2.6,0,0,1,75.3,59.12Zm4.2,0v0A1.55,1.55,0,0,0,78,57.49a1.51,1.51,0,0,0-1.51,1.6v0A1.55,1.55,0,0,0,78,60.71,1.51,1.51,0,0,0,79.5,59.12Z"/><path class="cls-3" d="M83,60.82V61.6H81.88V54.66H83v2.76a2,2,0,0,1,1.71-.94,2.4,2.4,0,0,1,2.33,2.6v0a2.4,2.4,0,0,1-2.33,2.6A2.05,2.05,0,0,1,83,60.82ZM85.9,59.1v0a1.49,1.49,0,0,0-1.44-1.61A1.51,1.51,0,0,0,83,59.08v0a1.51,1.51,0,0,0,1.46,1.61A1.47,1.47,0,0,0,85.9,59.1Z"/><path class="cls-3" d="M88.37,54.66h1.15V61.6H88.37V54.66Z"/><path class="cls-3" d="M90.79,59.11v0a2.49,2.49,0,0,1,2.45-2.61,2.43,2.43,0,0,1,2.41,2.7c0,0.1,0,.21,0,0.32H91.94a1.4,1.4,0,0,0,1.44,1.27,1.82,1.82,0,0,0,1.36-.6l0.67,0.6a2.54,2.54,0,0,1-2.05.94A2.5,2.5,0,0,1,90.79,59.11Zm3.72-.37a1.3,1.3,0,0,0-1.27-1.32,1.36,1.36,0,0,0-1.3,1.32h2.58Z"/><path class="cls-3" d="M96.89,56.58H98v0.76a1.8,1.8,0,0,1,1.53-.87,1.59,1.59,0,0,1,1.5.88,2,2,0,0,1,1.69-.88,1.69,1.69,0,0,1,1.76,1.92v3.2h-1.15V58.75a1,1,0,0,0-1-1.23,1.08,1.08,0,0,0-1.07,1.25V61.6h-1.15V58.74a1,1,0,0,0-1-1.22A1.1,1.1,0,0,0,98,58.77V61.6H96.89v-5Z"/><path class="cls-3" d="M108.28,56.58h1.18l1,3.44,1.11-3.46h1L113.68,60l1-3.44h1.16l-1.64,5.06h-1l-1.12-3.43-1.13,3.43h-1Z"/><path class="cls-3" d="M116.88,54.72h1.24v1.09h-1.24V54.72Zm0,1.86h1.15v5h-1.15v-5Z"/><path class="cls-3" d="M119.82,60.22V57.57h-0.64v-1h0.64V55.21H121v1.38h1.35v1H121V60a0.55,0.55,0,0,0,.62.63,1.55,1.55,0,0,0,.71-0.17v0.94a2,2,0,0,1-1,.26A1.29,1.29,0,0,1,119.82,60.22Z"/><path class="cls-3" d="M123.55,54.66h1.15v2.69a1.82,1.82,0,0,1,1.57-.87,1.72,1.72,0,0,1,1.79,1.92v3.2H126.9V58.75a1.05,1.05,0,0,0-1.07-1.23,1.12,1.12,0,0,0-1.13,1.25V61.6h-1.15V54.66Z"/><path class="cls-3" d="M132.23,54.66h1.15v2.69a1.82,1.82,0,0,1,1.57-.87,1.72,1.72,0,0,1,1.79,1.92v3.2h-1.15V58.75a1.05,1.05,0,0,0-1.07-1.23,1.12,1.12,0,0,0-1.13,1.25V61.6h-1.15V54.66Z"/><path class="cls-3" d="M138.19,54.72h1.24v1.09h-1.24V54.72Zm0,1.86h1.15v5h-1.15v-5Z"/><path class="cls-3" d="M140.51,60.95l0.51-.78a2.84,2.84,0,0,0,1.64.62,0.63,0.63,0,0,0,.78-0.54v0c0-.39-0.53-0.52-1.12-0.7-0.74-.21-1.57-0.51-1.57-1.47v0a1.6,1.6,0,0,1,1.79-1.53,3.48,3.48,0,0,1,1.84.57l-0.46.82a2.91,2.91,0,0,0-1.42-.48,0.58,0.58,0,0,0-.7.49v0c0,0.37.54,0.52,1.13,0.71s1.56,0.56,1.56,1.46v0a1.62,1.62,0,0,1-1.86,1.58A3.53,3.53,0,0,1,140.51,60.95Z"/><path class="cls-3" d="M149.63,60.82V61.6h-1.15V54.66h1.15v2.76a2,2,0,0,1,1.71-.94,2.4,2.4,0,0,1,2.33,2.6v0a2.4,2.4,0,0,1-2.33,2.6A2.05,2.05,0,0,1,149.63,60.82Zm2.87-1.72v0a1.49,1.49,0,0,0-1.44-1.61,1.51,1.51,0,0,0-1.46,1.61v0a1.51,1.51,0,0,0,1.46,1.61A1.47,1.47,0,0,0,152.5,59.1Z"/><path class="cls-3" d="M154.94,56.58h1.15v1.13a1.78,1.78,0,0,1,1.78-1.23v1.22H157.8a1.7,1.7,0,0,0-1.71,2V61.6h-1.15v-5Z"/><path class="cls-3" d="M158.86,54.72h1.24v1.09h-1.24V54.72Zm0,1.86h1.15v5h-1.15v-5Z"/><path class="cls-3" d="M161.63,54.66h1.15V61.6h-1.15V54.66Z"/><path class="cls-3" d="M164.36,54.66h1.15V61.6h-1.15V54.66Z"/><path class="cls-3" d="M167,54.72h1.24v1.09H167V54.72Zm0,1.86h1.15v5h-1.15v-5Z"/><path class="cls-3" d="M169.44,60.16v0c0-1.08.85-1.62,2.07-1.62a4.19,4.19,0,0,1,1.35.21V58.61a1.05,1.05,0,0,0-1.25-1.09,3.5,3.5,0,0,0-1.44.31l-0.3-.9a4.28,4.28,0,0,1,1.89-.41,2.25,2.25,0,0,1,1.66.56,2.08,2.08,0,0,1,.54,1.55v3h-1.12V61a2,2,0,0,1-1.63.73A1.6,1.6,0,0,1,169.44,60.16Zm3.44-.36V59.45a3.19,3.19,0,0,0-1.14-.2,1,1,0,0,0-1.18.84v0a0.84,0.84,0,0,0,1,.76A1.19,1.19,0,0,0,172.88,59.8Z"/><path class="cls-3" d="M175.45,56.58h1.15v0.77a1.82,1.82,0,0,1,1.57-.87A1.72,1.72,0,0,1,180,58.4v3.2H178.8V58.75a1.05,1.05,0,0,0-1.07-1.23,1.12,1.12,0,0,0-1.13,1.25V61.6h-1.15v-5Z"/><path class="cls-3" d="M181.58,60.22V57.57h-0.64v-1h0.64V55.21h1.15v1.38h1.35v1h-1.35V60a0.55,0.55,0,0,0,.62.63,1.55,1.55,0,0,0,.71-0.17v0.94a2,2,0,0,1-1,.26A1.29,1.29,0,0,1,181.58,60.22Z"/><path class="cls-3" d="M188,56.58h1.15v0.77a1.82,1.82,0,0,1,1.57-.87,1.72,1.72,0,0,1,1.79,1.92v3.2h-1.15V58.75a1.05,1.05,0,0,0-1.07-1.23,1.12,1.12,0,0,0-1.13,1.25V61.6H188v-5Z"/><path class="cls-3" d="M193.73,59.11v0a2.49,2.49,0,0,1,2.45-2.61,2.43,2.43,0,0,1,2.41,2.7c0,0.1,0,.21,0,0.32h-3.69a1.4,1.4,0,0,0,1.44,1.27,1.82,1.82,0,0,0,1.36-.6l0.67,0.6a2.54,2.54,0,0,1-2.05.94A2.5,2.5,0,0,1,193.73,59.11Zm3.72-.37a1.3,1.3,0,0,0-1.27-1.32,1.36,1.36,0,0,0-1.3,1.32h2.58Z"/><path class="cls-3" d="M199.22,56.58h1.18l1,3.44,1.11-3.46h1L204.62,60l1-3.44h1.16l-1.64,5.06h-1L203,58.21l-1.13,3.43h-1Z"/><path class="cls-3" d="M211.75,60.82V61.6H210.6V54.66h1.15v2.76a2,2,0,0,1,1.71-.94,2.4,2.4,0,0,1,2.33,2.6v0a2.4,2.4,0,0,1-2.33,2.6A2.05,2.05,0,0,1,211.75,60.82Zm2.87-1.72v0a1.49,1.49,0,0,0-1.44-1.61,1.51,1.51,0,0,0-1.46,1.61v0a1.51,1.51,0,0,0,1.46,1.61A1.47,1.47,0,0,0,214.63,59.1Z"/><path class="cls-3" d="M216.78,59.12v0a2.68,2.68,0,0,1,5.35,0v0a2.62,2.62,0,0,1-2.69,2.61A2.6,2.6,0,0,1,216.78,59.12Zm4.2,0v0a1.55,1.55,0,0,0-1.54-1.62,1.51,1.51,0,0,0-1.51,1.6v0a1.55,1.55,0,0,0,1.53,1.61A1.51,1.51,0,0,0,221,59.12Z"/><path class="cls-3" d="M223.08,59.12v0a2.68,2.68,0,0,1,5.35,0v0a2.62,2.62,0,0,1-2.69,2.61A2.6,2.6,0,0,1,223.08,59.12Zm4.2,0v0a1.55,1.55,0,0,0-1.54-1.62,1.51,1.51,0,0,0-1.51,1.6v0a1.55,1.55,0,0,0,1.53,1.61A1.51,1.51,0,0,0,227.28,59.12Z"/><path class="cls-3" d="M229.66,54.66h1.15v4.14l2.08-2.22h1.4l-2,2,2.06,3H233l-1.48-2.18-0.71.74V61.6h-1.15V54.66Z"/><path class="cls-3" d="M235.35,60.29h1.26V61.6h-1.26V60.29Z"/><path class="cls-3" d="M240.91,54.95h3a2.68,2.68,0,0,1,1.92.67,2,2,0,0,1,.55,1.44v0a2,2,0,0,1-1.58,2l1.8,2.52h-1.39l-1.63-2.32h-1.46V61.6h-1.17V54.95Zm2.88,3.3a1.18,1.18,0,0,0,1.37-1.11v0a1.15,1.15,0,0,0-1.38-1.1h-1.7v2.23h1.71Z"/><path class="cls-3" d="M247.37,59.11v0a2.49,2.49,0,0,1,2.45-2.61,2.43,2.43,0,0,1,2.41,2.7c0,0.1,0,.21,0,0.32h-3.69A1.4,1.4,0,0,0,250,60.78a1.82,1.82,0,0,0,1.36-.6l0.67,0.6a2.54,2.54,0,0,1-2.05.94A2.5,2.5,0,0,1,247.37,59.11Zm3.72-.37a1.3,1.3,0,0,0-1.27-1.32,1.36,1.36,0,0,0-1.3,1.32h2.58Z"/><path class="cls-3" d="M253.1,60.16v0c0-1.08.85-1.62,2.07-1.62a4.19,4.19,0,0,1,1.35.21V58.61a1.05,1.05,0,0,0-1.25-1.09,3.5,3.5,0,0,0-1.44.31l-0.3-.9a4.28,4.28,0,0,1,1.89-.41,2.25,2.25,0,0,1,1.66.56,2.08,2.08,0,0,1,.54,1.55v3h-1.12V61a2,2,0,0,1-1.64.73A1.6,1.6,0,0,1,253.1,60.16Zm3.44-.36V59.45a3.19,3.19,0,0,0-1.14-.2,1,1,0,0,0-1.18.84v0a0.84,0.84,0,0,0,1,.76A1.19,1.19,0,0,0,256.54,59.8Z"/><path class="cls-3" d="M258.83,59.1v0a2.4,2.4,0,0,1,2.33-2.6,2.05,2.05,0,0,1,1.71.88v-2.7H264V61.6h-1.15V60.77a2,2,0,0,1-1.71.94A2.41,2.41,0,0,1,258.83,59.1Zm4.06,0v0a1.51,1.51,0,0,0-1.46-1.61A1.47,1.47,0,0,0,260,59.08v0a1.49,1.49,0,0,0,1.44,1.61A1.51,1.51,0,0,0,262.89,59.1Z"/><path class="cls-3" d="M268.28,54.72h1.24v1.09h-1.24V54.72Zm0,1.86h1.15v5h-1.15v-5Z"/><path class="cls-3" d="M271.22,60.22V57.57h-0.64v-1h0.64V55.21h1.15v1.38h1.35v1h-1.35V60a0.55,0.55,0,0,0,.62.63,1.54,1.54,0,0,0,.71-0.17v0.94a2,2,0,0,1-1,.26A1.29,1.29,0,0,1,271.22,60.22Z"/><path class="cls-3" d="M277.34,60.16v0c0-1.08.85-1.62,2.07-1.62a4.19,4.19,0,0,1,1.35.21V58.61a1.05,1.05,0,0,0-1.25-1.09,3.5,3.5,0,0,0-1.44.31l-0.3-.9a4.28,4.28,0,0,1,1.89-.41,2.25,2.25,0,0,1,1.66.56,2.08,2.08,0,0,1,.54,1.55v3h-1.12V61a2,2,0,0,1-1.64.73A1.6,1.6,0,0,1,277.34,60.16Zm3.44-.36V59.45a3.19,3.19,0,0,0-1.14-.2,1,1,0,0,0-1.18.84v0a0.84,0.84,0,0,0,1,.76A1.19,1.19,0,0,0,280.78,59.8Z"/><path class="cls-3" d="M283.34,56.58h1.15v0.77a1.82,1.82,0,0,1,1.57-.87,1.72,1.72,0,0,1,1.79,1.92v3.2H286.7V58.75a1.05,1.05,0,0,0-1.07-1.23,1.12,1.12,0,0,0-1.13,1.25V61.6h-1.15v-5Z"/><path class="cls-3" d="M289.05,59.1v0a2.4,2.4,0,0,1,2.33-2.6,2.05,2.05,0,0,1,1.71.88v-2.7h1.15V61.6h-1.15V60.77a2,2,0,0,1-1.71.94A2.41,2.41,0,0,1,289.05,59.1Zm4.06,0v0a1.51,1.51,0,0,0-1.46-1.61,1.47,1.47,0,0,0-1.44,1.61v0a1.49,1.49,0,0,0,1.44,1.61A1.51,1.51,0,0,0,293.11,59.1Z"/><path class="cls-3" d="M298.07,60.95l0.51-.78a2.84,2.84,0,0,0,1.64.62,0.63,0.63,0,0,0,.78-0.54v0c0-.39-0.53-0.52-1.12-0.7-0.74-.21-1.57-0.51-1.57-1.47v0a1.6,1.6,0,0,1,1.79-1.53,3.48,3.48,0,0,1,1.84.57l-0.46.82a2.92,2.92,0,0,0-1.42-.48,0.58,0.58,0,0,0-.7.49v0c0,0.37.54,0.52,1.13,0.71s1.56,0.56,1.56,1.46v0a1.62,1.62,0,0,1-1.86,1.58A3.53,3.53,0,0,1,298.07,60.95Z"/><path class="cls-3" d="M303.28,54.72h1.24v1.09h-1.24V54.72Zm0,1.86h1.15v5h-1.15v-5Z"/><path class="cls-3" d="M306,56.58h1.15v0.76a1.8,1.8,0,0,1,1.53-.87,1.59,1.59,0,0,1,1.5.88,2,2,0,0,1,1.69-.88,1.69,1.69,0,0,1,1.76,1.92v3.2H312.5V58.75a1,1,0,0,0-1-1.23,1.08,1.08,0,0,0-1.07,1.25V61.6h-1.15V58.74a1,1,0,0,0-1-1.22,1.1,1.1,0,0,0-1.07,1.25V61.6H306v-5Z"/><path class="cls-3" d="M315.15,56.58h1.15v0.84a2,2,0,0,1,1.71-.94,2.4,2.4,0,0,1,2.33,2.6v0a2.4,2.4,0,0,1-2.33,2.6,2,2,0,0,1-1.71-.88v2.3h-1.15V56.58Zm4,2.52v0a1.49,1.49,0,0,0-1.43-1.61,1.51,1.51,0,0,0-1.46,1.61v0a1.51,1.51,0,0,0,1.46,1.61A1.47,1.47,0,0,0,319.17,59.1Z"/><path class="cls-3" d="M321.64,54.66h1.15V61.6h-1.15V54.66Z"/><path class="cls-3" d="M324.32,54.72h1.24v1.09h-1.24V54.72Zm0,1.86h1.15v5h-1.15v-5Z"/><path class="cls-3" d="M327.29,57.57h-0.64v-1h0.64V56.24A1.7,1.7,0,0,1,327.7,55a1.52,1.52,0,0,1,1.13-.4,3.08,3.08,0,0,1,.93.13v1a2,2,0,0,0-.68-0.12,0.63,0.63,0,0,0-.67.76v0.28h1.33v1h-1.31v4h-1.15v-4Z"/><path class="cls-3" d="M334.38,56.58h1.2l-2,5.16c-0.4,1-.85,1.41-1.65,1.41a2.37,2.37,0,0,1-1.19-.3l0.39-.86a1.42,1.42,0,0,0,.68.19,0.73,0.73,0,0,0,.71-0.57l-2.09-5h1.24l1.42,3.73Z"/><path class="cls-3" d="M342.83,56.58H344l-2,5.16c-0.4,1-.85,1.41-1.65,1.41a2.37,2.37,0,0,1-1.19-.3l0.39-.86a1.42,1.42,0,0,0,.68.19,0.73,0.73,0,0,0,.71-0.57l-2.09-5h1.24l1.42,3.73Z"/><path class="cls-3" d="M344.55,59.12v0a2.68,2.68,0,0,1,5.35,0v0a2.62,2.62,0,0,1-2.69,2.61A2.6,2.6,0,0,1,344.55,59.12Zm4.2,0v0a1.55,1.55,0,0,0-1.54-1.62,1.51,1.51,0,0,0-1.51,1.6v0a1.55,1.55,0,0,0,1.53,1.61A1.51,1.51,0,0,0,348.75,59.12Z"/><path class="cls-3" d="M351.09,59.78V56.58h1.15v2.85a1,1,0,0,0,1.07,1.22,1.11,1.11,0,0,0,1.13-1.24V56.58h1.16v5h-1.16V60.82a1.81,1.81,0,0,1-1.57.88A1.72,1.72,0,0,1,351.09,59.78Z"/><path class="cls-3" d="M357.11,56.58h1.15v1.13A1.78,1.78,0,0,1,360,56.49v1.22H360a1.7,1.7,0,0,0-1.71,2V61.6h-1.15v-5Z"/><path class="cls-3" d="M363.88,54.66H365V61.6h-1.15V54.66Z"/><path class="cls-3" d="M366.56,54.72h1.24v1.09h-1.24V54.72Zm0,1.86h1.15v5h-1.15v-5Z"/><path class="cls-3" d="M369.54,57.57H368.9v-1h0.64V56.24a1.7,1.7,0,0,1,.41-1.24,1.52,1.52,0,0,1,1.13-.4,3.08,3.08,0,0,1,.93.13v1a2,2,0,0,0-.68-0.12,0.63,0.63,0,0,0-.67.76v0.28H372v1h-1.31v4h-1.15v-4Z"/><path class="cls-3" d="M372.62,59.11v0a2.49,2.49,0,0,1,2.45-2.61,2.43,2.43,0,0,1,2.41,2.7c0,0.1,0,.21,0,0.32h-3.69a1.4,1.4,0,0,0,1.45,1.27,1.82,1.82,0,0,0,1.36-.6l0.67,0.6a2.54,2.54,0,0,1-2.05.94A2.5,2.5,0,0,1,372.62,59.11Zm3.72-.37a1.3,1.3,0,0,0-1.27-1.32,1.36,1.36,0,0,0-1.3,1.32h2.58Z"/><path class="cls-3" d="M378.61,60.29h1.26V61.6h-1.26V60.29Z"/><path class="cls-3" d="M380.81,57.14a0.81,0.81,0,0,0,.82-0.89h-0.49v-1.3h1.26v1.11a1.38,1.38,0,0,1-1.46,1.58Zm2.21,0a0.8,0.8,0,0,0,.81-0.89h-0.48v-1.3h1.26v1.11a1.38,1.38,0,0,1-1.46,1.58Z"/><path class="cls-4" d="M44.17,70.31h1.07l2.25,5.29H46.28L45.8,74.42H43.58L43.1,75.6H41.92Zm1.22,3.09-0.7-1.7L44,73.4h1.4Z"/><path class="cls-4" d="M48.81,70.34H50v4.2h2.62V75.6H48.81V70.34Z"/><path class="cls-4" d="M56.46,70.34h2.4a2.09,2.09,0,0,1,1.53.53,1.65,1.65,0,0,1,.45,1.2v0a1.63,1.63,0,0,1-1.13,1.63L61,75.6H59.65l-1.13-1.68H57.61V75.6H56.46V70.34Zm2.33,2.55a0.76,0.76,0,0,0,.89-0.74v0a0.76,0.76,0,0,0-.91-0.75H57.61V72.9h1.17Z"/><path class="cls-4" d="M62.47,70.34h4v1H63.62v1.07H66.1v1H63.62v1.1h2.85v1h-4V70.34Z"/><path class="cls-4" d="M68.16,70.34h1.16V75.6H68.16V70.34Z"/><path class="cls-4" d="M70.82,74.83L71.5,74a2.41,2.41,0,0,0,1.57.64c0.47,0,.76-0.19.76-0.5v0c0-.29-0.18-0.44-1.06-0.67C71.71,73.21,71,72.91,71,71.87v0a1.64,1.64,0,0,1,1.84-1.58,3,3,0,0,1,2,.67l-0.6.87a2.47,2.47,0,0,0-1.37-.52,0.56,0.56,0,0,0-.68.46h0c0,0.35.23,0.46,1.13,0.69C74.38,72.73,75,73.12,75,74h0A1.67,1.67,0,0,1,73,75.68,3.35,3.35,0,0,1,70.82,74.83Z"/><path class="cls-4" d="M76.19,76.34a0.67,0.67,0,0,0,.74-0.74H76.46V74.4h1.22v1a1.23,1.23,0,0,1-1.39,1.4Z"/><path class="cls-4" d="M83.57,70.31h1.07l2.25,5.29H85.68L85.2,74.42H83L82.5,75.6H81.32Zm1.22,3.09-0.7-1.7-0.7,1.7h1.4Z"/><path class="cls-4" d="M87.93,73.35v-3h1.16v3a1.11,1.11,0,0,0,1.13,1.3,1.09,1.09,0,0,0,1.13-1.26v-3h1.16v3a2.12,2.12,0,0,1-2.3,2.37A2.09,2.09,0,0,1,87.93,73.35Z"/><path class="cls-4" d="M95.43,71.41h-1.6V70.34h4.35v1.07h-1.6V75.6H95.43V71.41Z"/><path class="cls-4" d="M99.54,70.34h1.16v2.08h2.13V70.34H104V75.6h-1.16V73.49H100.7V75.6H99.54V70.34Z"/><path class="cls-4" d="M105.58,73h0a2.79,2.79,0,0,1,5.59,0v0A2.79,2.79,0,0,1,105.58,73ZM110,73h0a1.6,1.6,0,0,0-1.59-1.65A1.57,1.57,0,0,0,106.79,73v0a1.6,1.6,0,0,0,1.59,1.65A1.57,1.57,0,0,0,110,73Z"/><path class="cls-4" d="M112.75,70.34h2.4a2.09,2.09,0,0,1,1.53.53,1.65,1.65,0,0,1,.45,1.2v0A1.63,1.63,0,0,1,116,73.72l1.28,1.88h-1.35l-1.13-1.68h-0.91V75.6h-1.16V70.34Zm2.33,2.55a0.76,0.76,0,0,0,.89-0.74v0a0.76,0.76,0,0,0-.91-0.75h-1.15V72.9h1.17Z"/><path class="cls-4" d="M120.94,73h0a2.79,2.79,0,0,1,5.59,0v0A2.79,2.79,0,0,1,120.94,73Zm4.38,0h0a1.6,1.6,0,0,0-1.59-1.65A1.57,1.57,0,0,0,122.15,73v0a1.6,1.6,0,0,0,1.59,1.65A1.57,1.57,0,0,0,125.32,73Z"/><path class="cls-4" d="M128.11,70.34h4V71.4h-2.85v1.12h2.51v1.05h-2.51v2h-1.16V70.34Z"/><path class="cls-4" d="M136.94,70.34h1.67a2.17,2.17,0,0,1,1.65.53,1.45,1.45,0,0,1,.41,1.08,1.83,1.83,0,0,1-.53,1.34,2.82,2.82,0,0,1-2,.71h-1l-0.43,1.59h-1.16Zm1.62,1h-0.75L137.38,73h0.79a1.45,1.45,0,0,0,1-.35,0.8,0.8,0,0,0,.24-0.59,0.6,0.6,0,0,0-.17-0.44A1,1,0,0,0,138.56,71.39Z"/><path class="cls-4" d="M147.18,72.58A3.14,3.14,0,0,1,144,75.69a2.27,2.27,0,0,1-2.4-2.33,3.14,3.14,0,0,1,3.16-3.11A2.27,2.27,0,0,1,147.18,72.58Zm-1.81,1.52a2.13,2.13,0,0,0,.61-1.45,1.24,1.24,0,0,0-1.34-1.34,1.71,1.71,0,0,0-1.22.52,2.13,2.13,0,0,0-.61,1.45,1.24,1.24,0,0,0,1.34,1.34A1.71,1.71,0,0,0,145.37,74.11Z"/><path class="cls-4" d="M147.77,74.71l0.87-.74a1.9,1.9,0,0,0,1.47.69,0.68,0.68,0,0,0,.8-0.55c0-.26-0.19-0.41-0.89-0.69A1.62,1.62,0,0,1,148.73,72a1.58,1.58,0,0,1,.47-1.13,2.29,2.29,0,0,1,1.62-.6,2.55,2.55,0,0,1,2,.78l-0.8.8a1.74,1.74,0,0,0-1.26-.56,0.66,0.66,0,0,0-.77.53c0,0.28.21,0.4,0.92,0.69a1.57,1.57,0,0,1,1.26,1.42,1.58,1.58,0,0,1-.47,1.15,2.27,2.27,0,0,1-1.61.6A2.75,2.75,0,0,1,147.77,74.71Z"/><path class="cls-4" d="M154.68,70.34h1.16l-1.41,5.26h-1.16Z"/><path class="cls-4" d="M158.43,71.41h-1.6l0.29-1.07h4.35l-0.29,1.07h-1.6l-1.13,4.19H157.3Z"/><path class="cls-4" d="M162.77,70.34h1.16l-1.41,5.26h-1.16Z"/><path class="cls-4" d="M170.29,72.58a3.14,3.14,0,0,1-3.16,3.11,2.27,2.27,0,0,1-2.4-2.33,3.14,3.14,0,0,1,3.16-3.11A2.27,2.27,0,0,1,170.29,72.58Zm-1.81,1.52a2.13,2.13,0,0,0,.61-1.45,1.24,1.24,0,0,0-1.34-1.34,1.71,1.71,0,0,0-1.22.52,2.13,2.13,0,0,0-.61,1.45,1.24,1.24,0,0,0,1.34,1.34A1.71,1.71,0,0,0,168.48,74.11Z"/><path class="cls-4" d="M172.49,70.34h1.07l1.53,3.34,0.9-3.34h1.14l-1.41,5.26h-1l-1.59-3.45-0.92,3.45h-1.14Z"/><path class="cls-4" d="M179,70.34h1.16l-1.41,5.26h-1.16Z"/><path class="cls-4" d="M182,70.34h1.07l1.53,3.34,0.9-3.34h1.14l-1.41,5.26h-1l-1.59-3.45-0.92,3.45h-1.14Z"/><path class="cls-4" d="M187.39,73.41a3.12,3.12,0,0,1,.93-2.19,3.29,3.29,0,0,1,2.35-1,2.56,2.56,0,0,1,2.15.91l-0.86.76a1.75,1.75,0,0,0-1.38-.61,2,2,0,0,0-1.38.58,2.12,2.12,0,0,0-.61,1.48,1.23,1.23,0,0,0,1.34,1.26,2.2,2.2,0,0,0,.94-0.2l0.25-.86H190l0.27-1h2.28l-0.74,2.62a3.73,3.73,0,0,1-1.91.5A2.28,2.28,0,0,1,187.39,73.41Z"/><path class="cls-4" d="M193.66,74.4h1.22l-0.32,1.2h-1.22Zm0.76-2.82h1.22l-0.32,1.2h-1.22Z"/><path class="cls-4" d="M201,71.41h-1.6l0.29-1.07H204l-0.29,1.07h-1.6L201,75.6h-1.16Z"/><path class="cls-4" d="M205.31,70.34h1.16l-0.56,2.08H208l0.56-2.08h1.16l-1.41,5.26h-1.16l0.57-2.11h-2.1l-0.57,2.11H203.9Z"/><path class="cls-4" d="M211.56,70.34h3.93l-0.28,1h-2.78l-0.29,1.07h2.44l-0.28,1h-2.44l-0.3,1.11h2.82l-0.28,1h-4Z"/><path class="cls-4" d="M219.54,70.34h2c1.24,0,1.78.59,1.78,1.29a1.3,1.3,0,0,1-1.13,1.3A1.12,1.12,0,0,1,223,74c0,0.94-.8,1.6-2.26,1.6h-2.58Zm1.34,4.24a0.77,0.77,0,0,0,.94-0.66c0-.31-0.25-0.5-0.72-0.5h-1.27l-0.31,1.16h1.36Zm0.38-2.12c0.59,0,.95-0.2.95-0.64,0-.27-0.22-0.47-0.73-0.47h-1.09l-0.29,1.11h1.16Z"/><path class="cls-4" d="M227.19,70.31h1.11l0.83,5.29h-1.19l-0.17-1.18h-2.22l-0.8,1.18h-1.25Zm0.46,3.09-0.24-1.73-1.16,1.73h1.4Z"/><path class="cls-4" d="M232,71.41h-1.6l0.29-1.07h4.35l-0.29,1.07h-1.6l-1.13,4.19H230.9Z"/><path class="cls-4" d="M237.38,71.41h-1.6l0.29-1.07h4.35l-0.29,1.07h-1.6l-1.13,4.19h-1.16Z"/><path class="cls-4" d="M241.71,70.34h1.16l-1.13,4.2h2.62l-0.29,1.05h-3.78Z"/><path class="cls-4" d="M246.83,70.34h3.93l-0.28,1H247.7l-0.29,1.07h2.44l-0.28,1h-2.44l-0.3,1.11h2.82l-0.28,1h-4Z"/><path class="cls-4" d="M259.38,72.58a3.14,3.14,0,0,1-3.16,3.11,2.27,2.27,0,0,1-2.4-2.33A3.14,3.14,0,0,1,257,70.25,2.27,2.27,0,0,1,259.38,72.58Zm-1.81,1.52a2.13,2.13,0,0,0,.61-1.45,1.24,1.24,0,0,0-1.34-1.34,1.71,1.71,0,0,0-1.22.52,2.13,2.13,0,0,0-.61,1.45,1.24,1.24,0,0,0,1.34,1.34A1.71,1.71,0,0,0,257.57,74.11Z"/><path class="cls-4" d="M261.58,70.34h4L265.3,71.4h-2.85l-0.3,1.12h2.51l-0.28,1.05h-2.51l-0.55,2h-1.16Z"/><path class="cls-4" d="M269.87,73.53l-1.09-3.18h1.28l0.62,2.18,1.8-2.18h1.4L271,73.63l-0.53,2h-1.16Z"/><path class="cls-4" d="M279.34,72.58a3.14,3.14,0,0,1-3.16,3.11,2.27,2.27,0,0,1-2.4-2.33,3.14,3.14,0,0,1,3.16-3.11A2.27,2.27,0,0,1,279.34,72.58Zm-1.81,1.52a2.13,2.13,0,0,0,.61-1.45,1.24,1.24,0,0,0-1.34-1.34,1.71,1.71,0,0,0-1.22.52,2.13,2.13,0,0,0-.61,1.45,1.24,1.24,0,0,0,1.34,1.34A1.71,1.71,0,0,0,277.53,74.11Z"/><path class="cls-4" d="M280.61,73.91a3.15,3.15,0,0,1,.13-0.84l0.73-2.73h1.16l-0.76,2.83a1.93,1.93,0,0,0-.08.57,0.83,0.83,0,0,0,.92.87,1.18,1.18,0,0,0,.86-0.33,2.1,2.1,0,0,0,.51-1l0.8-3H286l-0.84,3.13a3.39,3.39,0,0,1-.81,1.56,2.39,2.39,0,0,1-1.79.65A1.73,1.73,0,0,1,280.61,73.91Z"/><path class="cls-4" d="M288.86,73.92H288l-0.45,1.68h-1.16l1.41-5.26h1.92a2.24,2.24,0,0,1,1.67.53,1.46,1.46,0,0,1,.41,1.06,1.73,1.73,0,0,1-.48,1.25,2.38,2.38,0,0,1-1.22.63L291,75.6h-1.31Zm0.44-1a1.5,1.5,0,0,0,1.06-.34,0.74,0.74,0,0,0,.22-0.53,0.55,0.55,0,0,0-.17-0.42,1.07,1.07,0,0,0-.77-0.22h-1l-0.41,1.51h1Z"/><path class="cls-4" d="M296.25,70.34h1.16l-1.13,4.2h2.62l-0.29,1.05h-3.78Z"/><path class="cls-4" d="M301.4,70.34h1.16l-1.41,5.26H300Z"/><path class="cls-4" d="M304.41,70.34h4l-0.29,1.05h-2.85L305,72.51h2.51l-0.28,1.05H304.7l-0.55,2H303Z"/><path class="cls-4" d="M309.93,70.34h3.93l-0.28,1H310.8l-0.29,1.07H313l-0.28,1h-2.44l-0.3,1.11h2.82l-0.28,1h-4Z"/><path class="cls-5" d="M46.93,154.66H34.44V144.49H71.07v10.17H58.52v31.72H46.93V154.66Z"/><path class="cls-5" d="M75,144.49H86.6v15.68h14.88V144.49h11.59v41.89H101.48V170.46H86.6v15.92H75V144.49Z"/><path class="cls-5" d="M118.45,144.49h33.64v9.81H129.92v6.4H150v9.16H129.92v6.64h22.47v9.87H118.45V144.49Z"/><path class="cls-3" d="M183.34,155l-7.05,1.68-2.21-9,12.25-3.47h8.43v42.19H183.34V155Z"/><path class="cls-3" d="M202.52,162.68h19.6v9.93h-19.6v-9.93Z"/><path class="cls-3" d="M229.71,144.49h18c10.52,0,17.33,5.45,17.33,14.66v0.12c0,9.93-7.59,15.14-17.93,15.14h-5.8v12H229.71V144.49Zm17.15,20.83c4.06,0,6.63-2.21,6.63-5.51v-0.12c0-3.59-2.57-5.45-6.69-5.45h-5.5v11.07h5.56Z"/><path class="cls-3" d="M279.25,144.19h11.17l17.81,42.19H295.8l-3-7.54H276.62l-3,7.54H261.5ZM289.4,169.8L284.74,158,280,169.8h9.38Z"/><path class="cls-3" d="M307.87,165.55v-0.12c0-12.21,9.56-21.78,22.47-21.78,7.35,0,12.55,2.21,17,6L340.49,158a14.64,14.64,0,0,0-10.1-3.95c-6,0-10.7,5-10.7,11.43v0.12c0,6.82,4.72,11.67,11.35,11.67a11.54,11.54,0,0,0,6.69-1.74V170.4h-8.19v-8.5h19.18v18.79a27.84,27.84,0,0,1-18.17,6.52C317.55,187.22,307.87,178.24,307.87,165.55Z"/><path class="cls-3" d="M355,144.49h33.64v9.81H366.48v6.4h20.08v9.16H366.48v6.64H389v9.87H355V144.49Z"/><path class="cls-5" d="M44.19,208.14H56.34l9.9,16.22,9.9-16.22H88.28V250H76.84V226l-10.61,16.4H66L55.45,226v24H44.19V208.14Z"/><path class="cls-5" d="M107.54,207.84h11.08L136.28,250H124l-3-7.54H104.93L102,250h-12Zm10.08,25.61L113,221.6l-4.68,11.85h9.3Z"/><path class="cls-5" d="M137.82,208.14h19.62c6.34,0,10.73,1.68,13.51,4.49a13.15,13.15,0,0,1,3.67,9.75v0.12a13.27,13.27,0,0,1-8.53,12.93L176,250H162.77l-8.36-12.69h-5.1V250h-11.5V208.14ZM157,228.25c3.85,0,6.16-1.92,6.16-5v-0.12c0-3.35-2.43-5-6.22-5h-7.59v10.11H157Z"/><path class="cls-5" d="M177.4,208.14h11.5v17l14.34-17h13.57l-15.71,18L217.35,250H203.6l-10.49-15.56-4.21,4.67V250H177.4V208.14Z"/><path class="cls-5" d="M219.18,208.14h33.37V218h-22v6.4h19.91v9.16H230.56v6.64h22.28V250H219.18V208.14Z"/><path class="cls-5" d="M267.06,218.31H254.67V208.14H291v10.17H278.56V250h-11.5V218.31Z"/><path class="cls-5" d="M292.54,208.14H304V250h-11.5V208.14Z"/><path class="cls-5" d="M307.42,208.14h10.73l17.07,22.14V208.14h11.38V250h-10l-17.78-23v23H307.42V208.14Z"/><path class="cls-5" d="M348.72,229.2v-0.12c0-12.21,9.48-21.78,22.28-21.78,7.29,0,12.45,2.21,16.83,6l-6.76,8.26a14.45,14.45,0,0,0-10-3.95c-6,0-10.61,5-10.61,11.43v0.12c0,6.82,4.68,11.67,11.26,11.67a11.38,11.38,0,0,0,6.64-1.74v-5.09h-8.12v-8.5h19v18.79a27.48,27.48,0,0,1-18,6.52C358.32,250.87,348.72,241.89,348.72,229.2Z"/><path class="cls-5" d="M44.22,271.79h18c10.53,0,17.35,5.45,17.35,14.66v0.12c0,9.93-7.6,15.14-18,15.14H55.83v12H44.22V271.79ZM61.4,292.61c4.07,0,6.64-2.21,6.64-5.51V287c0-3.59-2.57-5.45-6.7-5.45H55.83v11.07H61.4Z"/><path class="cls-5" d="M81.69,271.79H93.3v31.72h20.29v10.17H81.69V271.79Z"/><path class="cls-5" d="M133.16,271.49h11.19l17.83,42.19H149.74l-3-7.54H130.53l-3,7.54H115.39Zm10.17,25.61-4.67-11.85-4.73,11.85h9.4Z"/><path class="cls-5" d="M164,271.79h10.83l17.24,22.14V271.79h11.49v41.89H193.43l-18-23v23H164V271.79Z"/><path class="cls-3" d="M43.25,385.56V385.5a10.78,10.78,0,0,1,11-10.86,11.53,11.53,0,0,1,8.25,2.88L59.6,381a7.73,7.73,0,0,0-5.49-2.13,6.31,6.31,0,0,0-6,6.54v0.06c0,3.84,2.64,6.66,6.36,6.66a7.37,7.37,0,0,0,4.35-1.26v-3H54.14v-4h9.12V393a13.63,13.63,0,0,1-9,3.33C47.75,396.36,43.25,391.77,43.25,385.56Z"/><path class="cls-3" d="M67.34,375H83.18v4.11H71.93v4.26h9.9v4.11h-9.9v4.41h11.4V396h-16V375Z"/><path class="cls-3" d="M91.76,379.26H85.37V375h17.4v4.26H96.38V396H91.76V379.26Z"/><path class="cls-3" d="M114.14,375h4.26l9.84,12.93V375h4.56v21h-3.93L118.7,382.65V396h-4.56V375Z"/><path class="cls-3" d="M137.39,375h15.84v4.11H142v4.26h9.9v4.11H142v4.41h11.4V396h-16V375Z"/><path class="cls-3" d="M155.36,375h4.95l4.35,14.22,4.71-14.28h4L178,389.22,182.39,375h4.83L180,396.15h-4l-4.74-13.74-4.74,13.74h-4Z"/><path class="cls-3" d="M197.42,385.56V385.5a10.67,10.67,0,0,1,10.95-10.86,10.83,10.83,0,0,1,8.28,3.24l-2.94,3.39a7.75,7.75,0,0,0-5.37-2.37c-3.54,0-6.09,2.94-6.09,6.54v0.06c0,3.6,2.49,6.6,6.09,6.6,2.4,0,3.87-1,5.52-2.46l2.94,3a10.73,10.73,0,0,1-8.61,3.75A10.6,10.6,0,0,1,197.42,385.56Z"/><path class="cls-3" d="M219.2,387V375h4.62v11.88c0,3.42,1.71,5.19,4.53,5.19s4.53-1.71,4.53-5V375h4.62v11.85c0,6.36-3.57,9.48-9.21,9.48S219.2,393.18,219.2,387Z"/><path class="cls-3" d="M240.11,392.94l2.73-3.27a9.63,9.63,0,0,0,6.27,2.55c1.89,0,3-.75,3-2v-0.06c0-1.17-.72-1.77-4.23-2.67-4.23-1.08-7-2.25-7-6.42V381c0-3.81,3.06-6.33,7.35-6.33a12.16,12.16,0,0,1,7.8,2.67l-2.4,3.48a9.85,9.85,0,0,0-5.46-2.07c-1.77,0-2.7.81-2.7,1.83v0.06c0,1.38.9,1.83,4.53,2.76,4.26,1.11,6.66,2.64,6.66,6.3v0.06c0,4.17-3.18,6.51-7.71,6.51A13.36,13.36,0,0,1,240.11,392.94Z"/><path class="cls-3" d="M264.86,379.26h-6.39V375h17.4v4.26h-6.39V396h-4.62V379.26Z"/><path class="cls-3" d="M277.1,385.56V385.5a11.16,11.16,0,0,1,22.32-.06v0.06A11.16,11.16,0,0,1,277.1,385.56Zm17.49,0V385.5a6.38,6.38,0,0,0-6.36-6.6,6.28,6.28,0,0,0-6.3,6.54v0.06a6.38,6.38,0,0,0,6.36,6.6A6.28,6.28,0,0,0,294.59,385.56Z"/><path class="cls-3" d="M302.9,375h5l5.52,8.88,5.52-8.88h5v21h-4.59V382.29l-5.91,9h-0.12l-5.85-8.88V396H302.9V375Z"/><path class="cls-3" d="M328.52,375h15.84v4.11H333.11v4.26H343v4.11h-9.9v4.41h11.4V396h-16V375Z"/><path class="cls-3" d="M348.29,375h9.6a8.37,8.37,0,0,1,6.12,2.13,6.59,6.59,0,0,1,1.8,4.8V382a6.52,6.52,0,0,1-4.5,6.51l5.13,7.5H361l-4.5-6.72h-3.63V396h-4.62V375Zm9.3,10.2c2.25,0,3.54-1.2,3.54-3v-0.06c0-2-1.38-3-3.63-3h-4.59v6h4.68Z"/><path class="cls-3" d="M367.82,392.94l2.73-3.27a9.63,9.63,0,0,0,6.27,2.55c1.89,0,3-.75,3-2v-0.06c0-1.17-.72-1.77-4.23-2.67-4.23-1.08-7-2.25-7-6.42V381c0-3.81,3.06-6.33,7.35-6.33a12.16,12.16,0,0,1,7.8,2.67l-2.4,3.48a9.85,9.85,0,0,0-5.46-2.07c-1.77,0-2.7.81-2.7,1.83v0.06c0,1.38.9,1.83,4.53,2.76,4.26,1.11,6.66,2.64,6.66,6.3v0.06c0,4.17-3.18,6.51-7.71,6.51A13.36,13.36,0,0,1,367.82,392.94Z"/><path class="cls-3" d="M386.48,399c2.07-.21,3.09-1.26,2.94-3h-1.86v-4.8h4.86v4c0,4-2,5.55-5.55,5.61Z"/><path class="cls-3" d="M44.42,413h5l5.52,8.88L60.44,413h5v21H60.83V420.3l-5.91,9H54.8l-5.85-8.88V434H44.42V413Z"/><path class="cls-3" d="M76.85,412.86h4.26l9,21.15H85.28l-1.92-4.71H74.48L72.56,434H67.85Zm4.86,12.36-2.79-6.81-2.79,6.81h5.58Z"/><path class="cls-3" d="M92.54,413h4.62v9.18l8.52-9.18h5.58l-8.55,8.91L111.65,434H106.1l-6.51-8.94-2.43,2.52V434H92.54V413Z"/><path class="cls-3" d="M113.84,413h15.84v4.11H118.43v4.26h9.9v4.11h-9.9v4.41h11.4V434h-16V413Z"/><path class="cls-3" d="M141.8,413h5l5.52,8.88,5.52-8.88h5v21h-4.59V420.3l-5.91,9h-0.12l-5.85-8.88V434H141.8V413Z"/><path class="cls-3" d="M166.31,423.57v-0.06a11.16,11.16,0,0,1,22.32-.06v0.06A11.16,11.16,0,0,1,166.31,423.57Zm17.49,0v-0.06a6.38,6.38,0,0,0-6.36-6.6,6.28,6.28,0,0,0-6.3,6.54v0.06a6.38,6.38,0,0,0,6.36,6.6A6.28,6.28,0,0,0,183.8,423.57Z"/><path class="cls-3" d="M192.11,413h9.6a8.37,8.37,0,0,1,6.12,2.13,6.59,6.59,0,0,1,1.8,4.8V420a6.52,6.52,0,0,1-4.5,6.51l5.13,7.5h-5.4l-4.5-6.72h-3.63V434h-4.62V413Zm9.3,10.2c2.25,0,3.54-1.2,3.54-3v-0.06c0-2-1.38-3-3.63-3h-4.59v6h4.68Z"/><path class="cls-3" d="M213.32,413h15.84v4.11H217.91v4.26h9.9v4.11h-9.9v4.41h11.4V434h-16V413Z"/><path class="cls-3" d="M241.25,413h5l5.52,8.88,5.52-8.88h5v21h-4.59V420.3l-5.91,9h-0.12l-5.85-8.88V434h-4.53V413Z"/><path class="cls-3" d="M265.79,423.57v-0.06a11.16,11.16,0,0,1,22.32-.06v0.06A11.16,11.16,0,0,1,265.79,423.57Zm17.49,0v-0.06a6.38,6.38,0,0,0-6.36-6.6,6.28,6.28,0,0,0-6.3,6.54v0.06a6.38,6.38,0,0,0,6.36,6.6A6.28,6.28,0,0,0,283.28,423.57Z"/><path class="cls-3" d="M291.58,413h4.26l9.84,12.93V413h4.56v21h-3.93l-10.17-13.35V434h-4.56V413Z"/><path class="cls-3" d="M314.83,413h15.84v4.11H319.42v4.26h9.9v4.11h-9.9v4.41h11.4V434h-16V413Z"/><path class="cls-3" d="M340.61,425.73L332.54,413h5.4l5,8.43L348,413h5.25l-8.07,12.63V434h-4.62v-8.28Z"/><path class="cls-3" d="M351.32,437c2.07-.21,3.09-1.26,2.94-3H352.4v-4.8h4.86v4c0,4-2,5.55-5.55,5.61Z"/><path class="cls-3" d="M50.3,450.87h4.26l9,21.15H58.73l-1.92-4.71H47.93L46,472H41.3Zm4.86,12.36-2.79-6.81-2.79,6.81h5.58Z"/><path class="cls-3" d="M66,451h4.26L80.12,464V451h4.56v21H80.75L70.58,458.67V472H66V451Z"/><path class="cls-3" d="M89.27,451h8.19c6.6,0,11.16,4.53,11.16,10.44v0.06c0,5.91-4.56,10.5-11.16,10.5H89.27V451Zm4.62,4.17v12.66h3.57a6,6,0,0,0,6.33-6.27v-0.06a6,6,0,0,0-6.33-6.33H93.89Z"/><path class="cls-3" d="M119.15,469l2.73-3.27a9.63,9.63,0,0,0,6.27,2.55c1.89,0,3-.75,3-2V466.2c0-1.17-.72-1.77-4.23-2.67-4.23-1.08-7-2.25-7-6.42V457c0-3.81,3.06-6.33,7.35-6.33a12.16,12.16,0,0,1,7.8,2.67l-2.4,3.48a9.85,9.85,0,0,0-5.46-2.07c-1.77,0-2.7.81-2.7,1.83v0.06c0,1.38.9,1.83,4.53,2.76,4.26,1.11,6.66,2.64,6.66,6.3v0.06c0,4.17-3.18,6.51-7.71,6.51A13.36,13.36,0,0,1,119.15,469Z"/><path class="cls-3" d="M143.9,455.28h-6.39V451h17.4v4.26h-6.39V472H143.9V455.28Z"/><path class="cls-3" d="M162.29,450.87h4.26l9,21.15h-4.83l-1.92-4.71h-8.88L158,472h-4.71Zm4.86,12.36-2.79-6.81-2.79,6.81h5.58Z"/><path class="cls-3" d="M178,451h4.26L192.11,464V451h4.56v21h-3.93l-10.17-13.35V472H178V451Z"/><path class="cls-3" d="M201.26,451h8.19c6.6,0,11.16,4.53,11.16,10.44v0.06c0,5.91-4.56,10.5-11.16,10.5h-8.19V451Zm4.62,4.17v12.66h3.57a6,6,0,0,0,6.33-6.27v-0.06a6,6,0,0,0-6.33-6.33h-3.57Z"/><path class="cls-3" d="M231.65,461.58v-0.06a11.16,11.16,0,0,1,22.32-.06v0.06A11.16,11.16,0,0,1,231.65,461.58Zm17.49,0v-0.06a6.38,6.38,0,0,0-6.36-6.6,6.28,6.28,0,0,0-6.3,6.54v0.06a6.38,6.38,0,0,0,6.36,6.6A6.28,6.28,0,0,0,249.14,461.58Z"/><path class="cls-3" d="M257.15,463V451h4.62V462.9c0,3.42,1.71,5.19,4.53,5.19s4.53-1.71,4.53-5V451h4.62v11.85c0,6.36-3.57,9.48-9.21,9.48S257.15,469.2,257.15,463Z"/><path class="cls-3" d="M284.27,455.28h-6.39V451h17.4v4.26h-6.39V472h-4.62V455.28Z"/><path class="cls-3" d="M44.42,489h16v4.2H49v4.47h10v4.2H49V510H44.42V489Z"/><path class="cls-3" d="M63.38,489H73a8.37,8.37,0,0,1,6.12,2.13,6.59,6.59,0,0,1,1.8,4.8V496a6.52,6.52,0,0,1-4.5,6.51l5.13,7.5h-5.4l-4.5-6.72H68V510H63.38V489Zm9.3,10.2c2.25,0,3.54-1.2,3.54-3V496.2c0-2-1.38-3-3.63-3H68v6h4.68Z"/><path class="cls-3" d="M83.27,499.59v-0.06a11.16,11.16,0,0,1,22.32-.06v0.06A11.16,11.16,0,0,1,83.27,499.59Zm17.49,0v-0.06a6.38,6.38,0,0,0-6.36-6.6,6.28,6.28,0,0,0-6.3,6.54v0.06a6.38,6.38,0,0,0,6.36,6.6A6.28,6.28,0,0,0,100.76,499.59Z"/><path class="cls-3" d="M109.07,489h5l5.52,8.88,5.52-8.88h5v21h-4.59V496.32l-5.91,9h-0.12l-5.85-8.88V510h-4.53V489Z"/><path class="cls-3" d="M147.86,493.29h-6.39V489h17.4v4.26h-6.39V510h-4.62V493.29Z"/><path class="cls-3" d="M161.45,489h4.62v8.31h8.52V489h4.62v21h-4.62V501.6h-8.52V510h-4.62V489Z"/><path class="cls-3" d="M183.8,489h15.84v4.11H188.39v4.26h9.9v4.11h-9.9v4.41h11.4V510h-16V489Z"/><path class="cls-3" d="M210.8,499.59v-0.06a10.67,10.67,0,0,1,10.95-10.86,10.84,10.84,0,0,1,8.28,3.24l-2.94,3.39a7.75,7.75,0,0,0-5.37-2.37c-3.54,0-6.09,2.94-6.09,6.54v0.06c0,3.6,2.49,6.6,6.09,6.6,2.4,0,3.87-1,5.52-2.46l2.94,3a10.73,10.73,0,0,1-8.61,3.75A10.6,10.6,0,0,1,210.8,499.59Z"/><path class="cls-3" d="M233,489h9.6a8.37,8.37,0,0,1,6.12,2.13,6.59,6.59,0,0,1,1.8,4.8V496a6.52,6.52,0,0,1-4.5,6.51l5.13,7.5h-5.4l-4.5-6.72h-3.63V510H233V489Zm9.3,10.2c2.25,0,3.54-1.2,3.54-3V496.2c0-2-1.38-3-3.63-3h-4.59v6h4.68Z"/><path class="cls-3" d="M252.89,499.59v-0.06a11.16,11.16,0,0,1,22.32-.06v0.06A11.16,11.16,0,0,1,252.89,499.59Zm17.49,0v-0.06a6.38,6.38,0,0,0-6.36-6.6,6.28,6.28,0,0,0-6.3,6.54v0.06a6.38,6.38,0,0,0,6.36,6.6A6.28,6.28,0,0,0,270.38,499.59Z"/><path class="cls-3" d="M276,489h4.95l4.35,14.22L290,489h4l4.71,14.28L303,489h4.83l-7.17,21.15h-4l-4.74-13.74-4.74,13.74h-4Z"/><path class="cls-3" d="M310.39,489h8.19c6.6,0,11.16,4.53,11.16,10.44v0.06c0,5.91-4.56,10.5-11.16,10.5h-8.19V489ZM315,493.2v12.66h3.57a6,6,0,0,0,6.33-6.27v-0.06a6,6,0,0,0-6.33-6.33H315Z"/><path class="cls-4" d="M48.84,561.38h4.67L61,579h-5.2l-1.25-3.15H47.74L46.49,579H41.42Zm4.25,10.7-1.95-4.95-2,4.95h3.92Z"/><path class="cls-4" d="M62.7,561.5h4.85v13.25H76V579H62.7V561.5Z"/><path class="cls-4" d="M77.95,561.5h4.85v13.25h8.47V579H77.95V561.5Z"/><path class="cls-4" d="M99.92,561.38h4.67L112,579h-5.2l-1.25-3.15H98.82L97.57,579H92.5Zm4.25,10.7-1.95-4.95-2,4.95h3.92Z"/><path class="cls-4" d="M113.75,561.5h4.52l7.2,9.25V561.5h4.8V579H126l-7.5-9.6V579h-4.8V561.5Z"/><path class="cls-4" d="M140.29,561.5h6.77c6.22,0,9.85,3.6,9.85,8.65v0c0,5-3.67,8.8-9.95,8.8h-6.67V561.5Zm4.85,4.27v8.92h2c2.92,0,4.85-1.6,4.85-4.42v0c0-2.8-1.92-4.45-4.85-4.45h-2Z"/><path class="cls-4" d="M159.64,561.5h4.85V579h-4.85V561.5Z"/><path class="cls-4" d="M167.94,561.5h9a6.55,6.55,0,0,1,4.77,1.55,3.94,3.94,0,0,1,1.12,2.85v0a4,4,0,0,1-2.7,3.9c2.12,0.7,3.47,1.9,3.47,4.27v0c0,3-2.45,4.82-6.62,4.82h-9V561.5Zm10.1,5.4c0-1-.77-1.5-2.2-1.5h-3.17v3.07h3c1.47,0,2.32-.5,2.32-1.52v0Zm-1.67,5h-3.7v3.22h3.75c1.5,0,2.32-.57,2.32-1.6v0C178.74,572.5,178,571.88,176.37,571.88Z"/><line class="cls-6" x1="42" y1="92.25" x2="389.75" y2="92.25"/><g class="cls-7"><path class="cls-8" d="M303.27,345.41L240.84,361.5a1.16,1.16,0,0,1-1.41-.84l-21-81.33a1.16,1.16,0,0,1,.83-1.41l62.2-11.47c0.62-.16,2.3,5.89,2.46,6.51l20.14,71a1.16,1.16,0,0,1-.83,1.41"/><path class="cls-9" d="M301.43,341.76L282,266.88a79.54,79.54,0,0,1-8.07-4.17c-2.46-1.42-6.16-1.37-7.24-1.53L214.87,274.6A1.18,1.18,0,0,0,214,276l21.52,82.84a1.18,1.18,0,0,0,1.44.85l63.59-16.52a1.18,1.18,0,0,0,.85-1.44"/></g><g class="cls-10"><path class="cls-11" d="M266.64,261.18a8.76,8.76,0,0,1,5.35,3,16,16,0,0,1,2.52,4.25s2.4-2.27,7.46-1.5c-4.3-6.15-11.72-6.25-15.22-5.73h-0.11"/><rect class="cls-5" x="230" y="287.57" width="11.69" height="11.69" transform="translate(-65.97 68.41) rotate(-14.5)"/><rect class="cls-12" x="235.73" y="307.97" width="11.69" height="11.69" transform="translate(-69.91 69.24) rotate(-14.27)"/><rect class="cls-12" x="252.27" y="303.36" width="11.69" height="11.69" transform="translate(-68.26 73.17) rotate(-14.27)"/><rect class="cls-13" x="241.49" y="328.17" width="11.69" height="11.69" transform="translate(-76.6 73.61) rotate(-14.69)"/><rect class="cls-13" x="257.57" y="323.69" width="11.69" height="11.69" transform="translate(-74.94 77.54) rotate(-14.69)"/><rect class="cls-13" x="274.19" y="319.14" width="11.69" height="11.69" transform="matrix(0.97, -0.25, 0.25, 0.97, -73.22, 81.58)"/><rect class="cls-5" x="246.99" y="283.35" width="11.69" height="11.69" transform="translate(-64.37 72.53) rotate(-14.5)"/><rect class="cls-5" x="263.33" y="279.2" width="11.69" height="11.69" transform="translate(-62.81 76.49) rotate(-14.5)"/><rect class="cls-12" x="268.57" y="299.13" width="11.69" height="11.69" transform="translate(-66.71 77.06) rotate(-14.27)"/><path class="cls-14" d="M252.06,272.59a3.33,3.33,0,1,1-3.1-3.54,3.33,3.33,0,0,1,3.1,3.54"/></g></svg>