<?xml version="1.0" encoding="utf-8"?>
<!-- Generator: Adobe Illustrator 21.1.0, SVG Export Plug-In . SVG Version: 6.00 Build 0)  -->
<!DOCTYPE svg PUBLIC "-//W3C//DTD SVG 1.1//EN" "http://www.w3.org/Graphics/SVG/1.1/DTD/svg11.dtd">
<svg version="1.1" id="Layer_1" xmlns="http://www.w3.org/2000/svg" xmlns:xlink="http://www.w3.org/1999/xlink" x="0px" y="0px"
	 viewBox="0 0 369 522" style="enable-background:new 0 0 369 522;" xml:space="preserve">
<style type="text/css">
	.st0{fill:#030708;}
	.st1{fill:#FFFFFF;}
	.st2{fill:#EF6F0F;}
	.st3{fill:#657D8F;}
	.st4{fill:#BCC7D5;}
</style>
<g>
	<rect class="st0" width="369" height="522"/>
</g>
<g>
	<path class="st1" d="M30,212.6V148h37v14.1H47.4v11.3h12.7v12.2H47.4v12H67v14.9H30z"/>
	<path class="st1" d="M98.8,212.6L93,192.7l-7.2,19.9H69.5l13.4-32.4L70.4,148h17.8l5.5,19.9l6.9-19.9h16.5l-13.3,30.7l12.8,34H98.8
		z"/>
	<path class="st1" d="M145.3,212.6l-1.2-9h-10.3l-1.5,9h-15.8l13.1-64.6h20.2l12.8,64.6H145.3z M139.6,169.8l-3.7,21.8h6.6
		L139.6,169.8z"/>
	<path class="st1" d="M186.8,214.2c-13,0-22.5-8-22.5-19.9v-28.1c0-11.9,9.5-19.9,22.5-19.9c12.3,0,20.2,7.6,20.2,18.7v7.3h-15.4
		V165c0-2.5-1.6-4.3-4.8-4.3c-3.1,0-4.8,1.7-4.8,4.3v30.7c0,2.5,1.6,4.3,4.8,4.3c3.1,0,4.8-1.7,4.8-4.3v-7.4H207v7.3
		C207,206.7,199.2,214.2,186.8,214.2z"/>
	<path class="st1" d="M239.7,162.4v50.2h-17.4v-50.2h-12.1V148h41.7v14.4H239.7z"/>
	<path class="st1" d="M255.6,212.6V148H273v50h18.5v14.6H255.6z"/>
	<path class="st1" d="M315.8,185.3v27.3h-17.4v-27.3L283.3,148h17.8l7.1,21.5l6.3-21.5h17.2L315.8,185.3z"/>
</g>
<g>
</g>
<g>
	<path class="st2" d="M80.8,283.6H66l-5.6-29.7l-5.7,29.7H40.2L26.6,219h16.9l5.9,36.3l5.8-36.3h11.9l5.7,36.3L79,219h15.3
		L80.8,283.6z"/>
	<path class="st2" d="M125.2,283.6v-23.7h-10.3v23.7H97.5V219h17.4v26.2h10.3V219h17.4v64.6H125.2z"/>
	<path class="st2" d="M174.5,283.6l-1.2-9h-10.3l-1.5,9h-15.8l13.1-64.6h20.2l12.8,64.6H174.5z M168.8,240.8l-3.7,21.8h6.6
		L168.8,240.8z"/>
	<path class="st2" d="M218.3,233.4v50.2h-17.4v-50.2h-12.1V219h41.7v14.4H218.3z"/>
</g>
<g>
</g>
<g>
	<path class="st2" d="M57.1,304.4v50.2H39.7v-50.2H27.6V290h41.7v14.4H57.1z"/>
	<path class="st2" d="M93,356.3c-12.3,0-21.7-7.6-21.7-18.7v-30.5c0-11.2,9.4-18.6,21.7-18.6c12.2,0,21.6,7.5,21.6,18.6v30.5
		C114.7,348.7,105.3,356.3,93,356.3z M96.9,306.1c0-2.1-1.8-3.4-3.9-3.4c-2,0-4,1.3-4,3.4v32.4c0,2.1,1.9,3.4,4,3.4
		c2,0,3.9-1.3,3.9-3.4V306.1z"/>
	<path class="st2" d="M152.9,356.3c-13.2,0-21.1-6.9-21.1-18.4v-3.5h15.1v3.1c0,3.1,1.9,5.3,5.2,5.3c3.3,0,4.9-1.8,4.9-5.2
		c0-4-4.8-6.8-10.1-10.2c-6.9-4.3-14.6-9.5-14.6-19c0-10.1,7.2-19.9,21.1-19.9c11.4,0,19.3,8.2,19.3,18.3v2.7h-15.1v-3
		c0-2.8-1.8-4.6-4.2-4.6c-2.2,0-4.6,1.6-4.6,4.7c0,4,4.8,6.7,10.1,10.1c6.9,4.4,14.7,9.7,14.7,19.6
		C173.7,346.5,166.3,356.3,152.9,356.3z"/>
	<path class="st2" d="M202.9,354.6l-1.2-9h-10.3l-1.5,9h-15.8l13.1-64.6h20.2l12.8,64.6H202.9z M197.2,311.8l-3.7,21.8h6.6
		L197.2,311.8z"/>
	<path class="st2" d="M247.9,327.3v27.3h-17.4v-27.3L215.4,290h17.8l7.1,21.5l6.3-21.5h17.2L247.9,327.3z"/>
</g>
<g>
	<rect x="33.6" y="465.5" class="st3" width="143.9" height="6"/>
</g>
<g>
	<path class="st1" d="M35.9,386.2l2.8-0.6v-18h-4.7l-1.2,4.4h-1.5l0.3-6.1h17.1l0.3,6.1h-1.5l-1.2-4.4h-4.7v18l2.8,0.6v1.3h-8.8
		V386.2z"/>
	<path class="st1" d="M50.1,386.4l2.3-0.5v-19.2l-2.3-0.5v-1.2l4.8-0.7l0.3,0.2v8.3h0.2c1.6-0.9,3.3-1.6,5.2-1.6
		c2.9,0,4.5,1.1,4.5,4.2v10.4l2.3,0.5v1.1H60v-1.1l2.3-0.5v-9.7c0-2.2-1.1-2.8-3.3-2.8c-1.3,0-2.5,0.3-3.7,0.7v11.8l2.3,0.5v1.1
		h-7.4V386.4z"/>
	<path class="st1" d="M67.8,379.4c0-5.1,3.3-8.1,7.3-8.1c4.6,0,6.5,3.2,6.5,8.2H70.7c0.1,4.2,2.1,6.4,5.4,6.4c2.3,0,3.5-0.4,4.7-0.8
		v1.4c-1,0.6-2.6,1.5-5.2,1.5C70.1,387.9,67.8,384.3,67.8,379.4z M78.3,377.7c0-3.3-1.1-4.7-3.4-4.7c-2.5,0-3.9,1.6-4.2,5
		L78.3,377.7z"/>
	<path class="st1" d="M88.8,386.2l2.7-0.6v-17.8l-2.7-0.6V366H96l5.3,15.8h0.1l5.4-15.8h7.5v1.3l-3,0.6v17.8l3,0.6v1.3h-8.4v-1.3
		l2.4-0.6v-17.4h-0.1l-6.4,18.2h-1.9l-6.2-18.2h-0.1v17.4l2.4,0.6v1.3h-7.3V386.2z"/>
	<path class="st1" d="M115.3,383.6c0-2.8,2-3.7,4.9-4.3l4.1-0.8v-1.7c0-2.5-0.4-3.3-3.6-3.3c-1.3,0-3.1,0.2-4,0.3v-1.3
		c1.2-0.5,3.4-1.1,5.4-1.1c3.4,0,5,1.5,5,4.7v9.1c0,1,0.6,1.2,1.5,1.2h0.8v1.1c-0.4,0.2-1.4,0.5-2.5,0.5c-1.2,0-2.1-0.5-2.3-1.6
		h-0.2c-0.8,0.9-2.2,1.7-4.2,1.7C117.4,387.9,115.3,386.2,115.3,383.6z M124.3,384.8v-4.6l-3.2,0.2c-2.2,0.2-2.9,1.1-2.9,2.7
		c0,1.6,0.9,2.7,2.9,2.7C122.5,386,123.7,385.4,124.3,384.8z"/>
	<path class="st1" d="M129.7,390.1c0-1.6,1.3-2.9,3-3.6v-0.2c-1-0.4-1.7-1.1-1.7-2.1c0-1.2,0.7-2.3,2-3.3c-1.4-0.8-2.2-2.1-2.2-4.1
		c0-3.5,2.8-5.4,6.1-5.4c1.1,0,2.2,0.2,3.1,0.6l4.7-0.7v2.1l-2.9-0.2c0.8,0.8,1.3,1.8,1.3,3.2c0,3.5-2.8,5.4-6.1,5.4
		c-1,0-2-0.1-2.8-0.4c-0.6,0.6-0.9,1.2-0.9,1.8s0.4,1,1.2,1h5.3c2.5,0,4.8,0.9,4.8,3.9c0,3.2-2.9,6-8.3,6
		C131.5,393.9,129.7,391.8,129.7,390.1z M142,388.7c0-1.5-1-2-2.7-2h-5.2c-1.1,0.5-1.7,1.6-1.7,2.8c0,1.5,1.2,2.6,4,2.6
		C140.4,392.1,142,390.5,142,388.7z M140.2,376.5c0-2.6-1.4-3.7-3.3-3.7c-2,0-3.3,1.2-3.3,3.6c0,2.6,1.4,3.7,3.3,3.7
		C138.9,380.1,140.2,378.9,140.2,376.5z"/>
	<path class="st1" d="M145.8,386.4l2.3-0.5v-12.2l-2.5-0.5v-1.2l5-0.7l0.3,0.2v14.4l2.3,0.5v1.1h-7.5V386.4z M147.6,367
		c0-1,0.8-1.7,1.8-1.7c1,0,1.8,0.8,1.8,1.7c0,0.9-0.8,1.7-1.8,1.7C148.4,368.7,147.6,367.9,147.6,367z"/>
	<path class="st1" d="M153.7,379.7c0-6,3.8-8.4,8.3-8.4c1.5,0,3,0.2,4.1,0.6v4h-1.6l-0.6-2.6c-0.5-0.2-1-0.3-2.2-0.3
		c-3.1,0-5.1,2.1-5.1,6.4c0,4.9,2.5,6.5,5.5,6.5c2.1,0,3.5-0.4,4.3-0.8v1.4c-1,0.7-2.6,1.4-5.1,1.4
		C156.4,387.9,153.7,384.7,153.7,379.7z"/>
	<path class="st1" d="M173.3,367.9l-1.9-0.6V366h7.3v1.3l-2.3,0.6l3.9,15.1h0.2l4.7-16.9h1.9l4.8,16.9h0.1l3.8-15.1l-2.3-0.6V366
		h6.7v1.3l-2.2,0.6l-5.3,19.6h-2.5l-4.5-16.2h-0.1l-4.6,16.2h-2.5L173.3,367.9z"/>
	<path class="st1" d="M199,379.6c0-5,3.4-8.4,7.6-8.4c4.6,0,7.7,3.2,7.7,8.2c0,5-3.4,8.4-7.6,8.4C202.1,387.9,199,384.6,199,379.6z
		 M211.2,379.7c0-5.1-2.4-6.8-4.7-6.8c-2.3,0-4.6,1.5-4.6,6.4c0,5,2.3,6.8,4.7,6.8C209,386.2,211.2,384.6,211.2,379.7z"/>
	<path class="st1" d="M214.8,386.4l2.3-0.5v-12.2l-2.3-0.5v-1.2l4.7-0.7l0.3,0.2v2h0.2c0.9-1.1,2.4-2.3,4.1-2.3
		c0.3,0,0.7,0.1,0.9,0.1v2.5c-0.4-0.1-0.9-0.1-1.2-0.1c-1.5,0-2.8,0.4-3.8,1.1v11.1l2.5,0.5v1.1h-7.7V386.4z"/>
	<path class="st1" d="M225.4,379.9c0-5.9,3.3-8.7,8.2-8.7c1.2,0,2.1,0.2,2.9,0.4v-4.9l-2.5-0.5v-1.2l5-0.7l0.4,0.2v21l2.3,0.5v1.1
		l-4.7,0.7l-0.3-0.2V386h-0.2c-0.8,1.1-2.3,1.8-4.4,1.8C229.2,387.9,225.4,386.1,225.4,379.9z M236.5,384.8v-10.9
		c-0.7-0.5-1.4-1-3.3-1c-2.9,0-4.9,1.5-4.9,6.6c0,4.4,1.7,6.1,4.7,6.1C234.5,385.7,235.8,385.2,236.5,384.8z"/>
	<path class="st1" d="M243.1,387l-0.2-4.3h1.5l0.8,2.8c0.6,0.3,1.6,0.7,3.1,0.7c2,0,3.4-0.8,3.4-2.4c0-1.6-0.8-2.1-3-2.9l-1.7-0.6
		c-2.5-0.8-3.9-2.1-3.9-4.5c0-2.5,1.9-4.6,5.7-4.6c1.8,0,3.3,0.3,4.4,0.6v4h-1.4l-0.7-2.4c-0.5-0.3-1.3-0.5-2.5-0.5
		c-1.7,0-3,0.6-3,2.2c0,1.4,0.8,2,3.1,2.7l1.7,0.6c2.9,1,3.9,2.3,3.9,4.5c0,2.7-2.1,4.9-6.2,4.9C246.3,387.9,244.5,387.5,243.1,387z
		"/>
</g>
<g>
</g>
<g>
	<path class="st1" d="M34.2,417.4l2.3-0.5v-12.5h-2.2v-1.1l2.2-0.8v-1.8c0-4,2.4-5.5,5.2-5.5c1.6,0,2.5,0.4,3.1,0.7v1.4
		c-0.6-0.1-1.2-0.2-2.3-0.2c-2,0-3.2,0.8-3.2,3.8v1.6h3.9v1.8h-3.9v12.5l2.7,0.5v1.1h-7.9V417.4z M43.3,410.6c0-5,3.4-8.4,7.6-8.4
		c4.6,0,7.7,3.2,7.7,8.2s-3.4,8.4-7.6,8.4C46.4,418.9,43.3,415.6,43.3,410.6z M55.5,410.7c0-5.1-2.4-6.8-4.7-6.8
		c-2.3,0-4.6,1.6-4.6,6.4c0,5,2.3,6.8,4.7,6.8C53.3,417.2,55.5,415.6,55.5,410.7z M59.1,417.4l2.3-0.5v-12.2l-2.3-0.5v-1.2l4.7-0.7
		l0.3,0.2v2h0.2c0.9-1.1,2.4-2.3,4.1-2.3c0.3,0,0.7,0.1,0.9,0.1v2.5c-0.4-0.1-0.9-0.1-1.2-0.1c-1.5,0-2.8,0.4-3.8,1.1v11.1l2.5,0.5
		v1.1h-7.7V417.4z M76,417.2l2.7-0.6v-17.8l-2.7-0.6V397h8.5v1.3l-2.7,0.6v17.8l2.7,0.6v1.3H76V417.2z M85.7,417.4l2.3-0.5v-12.2
		l-2.3-0.5v-1.2l4.7-0.7l0.3,0.2v1.4h0.2c1.6-0.9,3.4-1.6,5.3-1.6c2.9,0,4.5,1.1,4.5,4.2v10.4l2.3,0.5v1.1h-7.4v-1.1l2.3-0.5v-9.7
		c0-2.2-1.1-2.8-3.3-2.8c-1.3,0-2.5,0.3-3.7,0.7v11.8l2.3,0.5v1.1h-7.4V417.4z M113.5,417.4l2.2-0.5v-19.3c-1-0.3-1.8-0.5-3-0.5
		c-2.2,0-3.4,0.8-3.4,3.6v1.8h3.9v1.8h-3.9v12.5l2.1,0.5v1.1h-7.3v-1.1l2.3-0.5v-12.5h-2.2v-1.1l2.2-0.8v-2.1c0-3.7,2.8-5.1,5.7-5.1
		c1.8,0,3.3,0.6,4.4,1l1.7-1l0.4,0.2v21.4l2.3,0.5v1.1h-7.3V417.4z M123,414.1v-9.6l-2.4-0.5v-1.2l4.8-0.5l0.3,0.2v10.9
		c0,2.2,0.6,3.3,3.1,3.3c2,0,3-0.5,3.9-0.9v-11.3l-2.3-0.5v-1.2l4.8-0.5l0.3,0.2v14l2.3,0.5v1.1l-4.7,0.7l-0.3-0.2v-1.7h-0.2
		c-1.3,1.2-3.1,1.9-5.3,1.9C124.3,418.8,123,417,123,414.1z M138.5,410.4c0-5.1,3.3-8.1,7.3-8.1c4.6,0,6.5,3.2,6.5,8.2h-10.8
		c0.1,4.2,2.1,6.4,5.4,6.4c2.3,0,3.5-0.4,4.7-0.8v1.4c-1,0.6-2.6,1.5-5.2,1.5C140.8,418.9,138.5,415.3,138.5,410.4z M149.1,408.7
		c0-3.3-1.1-4.7-3.4-4.7c-2.5,0-3.9,1.6-4.2,5L149.1,408.7z M153.1,417.4l2.3-0.5v-12.2l-2.3-0.5v-1.2l4.7-0.7l0.3,0.2v1.4h0.2
		c1.6-0.9,3.4-1.6,5.3-1.6c2.9,0,4.5,1.1,4.5,4.2v10.4l2.3,0.5v1.1H163v-1.1l2.3-0.5v-9.7c0-2.2-1.1-2.8-3.3-2.8
		c-1.3,0-2.5,0.3-3.7,0.7v11.8l2.3,0.5v1.1h-7.4V417.4z M170.7,410.7c0-6,3.8-8.4,8.3-8.4c1.5,0,3,0.2,4.1,0.6v4h-1.6l-0.6-2.6
		c-0.5-0.2-1-0.3-2.2-0.3c-3.1,0-5.1,2.1-5.1,6.4c0,4.9,2.5,6.5,5.6,6.5c2.1,0,3.5-0.4,4.3-0.8v1.4c-1,0.7-2.6,1.4-5.1,1.4
		C173.5,418.9,170.7,415.7,170.7,410.7z M184.4,410.4c0-5.1,3.3-8.1,7.3-8.1c4.6,0,6.5,3.2,6.5,8.2h-10.8c0.1,4.2,2.1,6.4,5.4,6.4
		c2.3,0,3.5-0.4,4.7-0.8v1.4c-1,0.6-2.6,1.5-5.2,1.5C186.7,418.9,184.4,415.3,184.4,410.4z M194.9,408.7c0-3.3-1.1-4.7-3.4-4.7
		c-2.5,0-3.9,1.6-4.2,5L194.9,408.7z"/>
</g>
<g>
</g>
<g>
	<path class="st1" d="M34.6,445.6c0-2.8,2-3.7,4.9-4.3l4.1-0.8v-1.7c0-2.5-0.4-3.3-3.6-3.3c-1.3,0-3.1,0.2-4,0.3v-1.3
		c1.2-0.5,3.4-1.1,5.4-1.1c3.4,0,5,1.5,5,4.7v9.1c0,1,0.6,1.2,1.5,1.2h0.8v1.1c-0.4,0.2-1.4,0.5-2.5,0.5c-1.2,0-2.1-0.5-2.3-1.6
		h-0.2c-0.8,0.9-2.2,1.7-4.2,1.7C36.6,449.9,34.6,448.2,34.6,445.6z M43.5,446.8v-4.6l-3.2,0.2c-2.2,0.2-2.9,1.1-2.9,2.7
		c0,1.6,0.9,2.7,2.9,2.7C41.7,448,42.9,447.4,43.5,446.8z"/>
	<path class="st1" d="M49.5,448.4l2.3-0.5v-12.2l-2.3-0.5v-1.2l4.7-0.7l0.3,0.2v1.4h0.2c1.6-0.9,3.4-1.6,5.3-1.6
		c2.9,0,4.5,1.1,4.5,4.2v10.4l2.3,0.5v1.1h-7.4v-1.1l2.3-0.5v-9.7c0-2.2-1.1-2.8-3.3-2.8c-1.3,0-2.5,0.3-3.7,0.7v11.8l2.3,0.5v1.1
		h-7.4V448.4z"/>
	<path class="st1" d="M67.3,441.9c0-5.9,3.3-8.7,8.2-8.7c1.2,0,2.1,0.2,2.9,0.4v-4.9l-2.5-0.5v-1.2l5-0.7l0.4,0.2v21l2.3,0.5v1.1
		l-4.7,0.7l-0.3-0.2V448h-0.2c-0.8,1.1-2.3,1.8-4.4,1.8C71.1,449.9,67.3,448.1,67.3,441.9z M78.4,446.8v-10.9c-0.7-0.5-1.4-1-3.3-1
		c-2.9,0-4.9,1.5-4.9,6.6c0,4.4,1.7,6.1,4.7,6.1C76.4,447.7,77.7,447.2,78.4,446.8z"/>
	<path class="st1" d="M90.5,448.2l2.7-0.6v-17.8l-2.7-0.6V428H99v1.3l-2.7,0.6v17.8l2.7,0.6v1.3h-8.5V448.2z"/>
	<path class="st1" d="M100.2,448.4l2.3-0.5v-12.2l-2.3-0.5v-1.2l4.7-0.7l0.3,0.2v1.4h0.2c1.6-0.9,3.1-1.6,5.3-1.6
		c1.8,0,3,0.6,3.7,1.8h0.2c1.5-1,3.4-1.8,5.5-1.8c2.8,0,4.3,1.4,4.3,4.4v10.3l2.3,0.5v1.1h-7.4v-1.1l2.3-0.5v-9.5c0-2.3-1.1-3-3.3-3
		c-1.2,0-2.4,0.3-3.5,0.7c0.1,0.3,0.1,0.8,0.1,1.5v10.3l2.3,0.5v1.1h-7.4v-1.1l2.3-0.5v-9.5c0-2.3-1.1-3-3.2-3
		c-1.5,0-2.3,0.3-3.5,0.7v11.8l2.3,0.5v1.1h-7.4V448.4z"/>
	<path class="st1" d="M126.5,454.6l2.3-0.4v-18.4l-2.3-0.5v-1.2l4.7-0.7l0.3,0.2v1.5h0.2c1.3-1,2.8-1.7,5-1.7c3,0,6.1,1.5,6.1,7.7
		c0,5.9-3.3,8.9-8.2,8.9c-1.2,0-2.1-0.1-2.9-0.3v4.5l2.7,0.5v1.1h-7.8V454.6z M139.9,441.5c0-4.5-1.7-6-4.7-6
		c-1.5,0-2.8,0.5-3.5,0.8v11.1c0.7,0.4,1.4,0.9,3.3,0.9C137.8,448.2,139.9,446.6,139.9,441.5z"/>
	<path class="st1" d="M143.9,445.6c0-2.8,2-3.7,4.9-4.3l4.1-0.8v-1.7c0-2.5-0.4-3.3-3.6-3.3c-1.3,0-3.1,0.2-4,0.3v-1.3
		c1.2-0.5,3.4-1.1,5.4-1.1c3.4,0,5,1.5,5,4.7v9.1c0,1,0.6,1.2,1.5,1.2h0.8v1.1c-0.4,0.2-1.4,0.5-2.5,0.5c-1.2,0-2.1-0.5-2.3-1.6H153
		c-0.8,0.9-2.2,1.7-4.2,1.7C145.9,449.9,143.9,448.2,143.9,445.6z M152.8,446.8v-4.6l-3.2,0.2c-2.2,0.2-2.9,1.1-2.9,2.7
		c0,1.6,0.9,2.7,2.9,2.7C151,448,152.3,447.4,152.8,446.8z"/>
	<path class="st1" d="M158.2,441.7c0-6,3.8-8.4,8.3-8.4c1.5,0,3,0.2,4.1,0.6v4h-1.6l-0.6-2.6c-0.5-0.2-1-0.3-2.2-0.3
		c-3.1,0-5.1,2.1-5.1,6.4c0,4.9,2.5,6.5,5.6,6.5c2.1,0,3.5-0.4,4.3-0.8v1.4c-1,0.7-2.6,1.4-5.1,1.4
		C161,449.9,158.2,446.7,158.2,441.7z"/>
	<path class="st1" d="M174.1,445.9v-10.5h-2.3v-1.1l2.5-0.7l0.5-3.7h2.1v3.7h4.2v1.8H177v9.9c0,1.8,0.5,2.6,2.5,2.6
		c0.7,0,1.4-0.1,2-0.2v1.1c-0.7,0.5-1.9,0.9-3.3,0.9C175.5,449.8,174.1,448.8,174.1,445.9z"/>
</g>
<g>
	<rect x="177.3" y="98.1" class="st3" width="153.3" height="6"/>
</g>
<g>
	<path class="st2" d="M176.6,134.8l2.7-0.6v-17.5l-2.7-0.5V115h8.1c6,0,8,2.2,8,5.9c0,4.3-3.2,6.1-6.8,6.1c-0.8,0-1.9-0.2-2-0.2
		v-1.3c0.1,0,0.6,0.1,1.5,0.1c2.7,0,4.1-1.6,4.1-4.5c0-3.1-1.3-4.3-4.2-4.3h-2.9v17.5l3.2,0.6v1.3h-8.9V134.8z"/>
	<path class="st2" d="M192.4,135.1l2.3-0.5v-18.9l-2.3-0.5v-1.2l4.8-0.7l0.3,0.2v8.1h0.2c1.5-0.9,3.2-1.6,5.1-1.6
		c2.9,0,4.4,1.1,4.4,4.2v10.2l2.3,0.5v1h-7.3v-1l2.2-0.5v-9.5c0-2.1-1.1-2.8-3.3-2.8c-1.3,0-2.4,0.3-3.6,0.7v11.6l2.2,0.5v1h-7.3
		V135.1z"/>
	<path class="st2" d="M210.5,135.1l2.3-0.5v-12l-2.4-0.5v-1.2l4.9-0.7l0.3,0.2v14.2l2.3,0.5v1h-7.4V135.1z M212.3,115.9
		c0-0.9,0.8-1.7,1.7-1.7c1,0,1.7,0.8,1.7,1.7c0,0.9-0.8,1.7-1.7,1.7C213.1,117.6,212.3,116.8,212.3,115.9z"/>
	<path class="st2" d="M218.8,135.1l2.3-0.5v-18.9l-2.5-0.5v-1.2l4.9-0.7l0.4,0.2v21l2.3,0.5v1h-7.4V135.1z"/>
	<path class="st2" d="M230,134.9l2.7-0.6v-17.5l-2.7-0.5V115h7.1l5.2,15.5h0.1l5.3-15.5h7.4v1.3l-2.9,0.5v17.5l2.9,0.6v1.3h-8.2
		v-1.3l2.3-0.6v-17.1h-0.1l-6.3,17.9H241l-6.1-17.9h-0.1v17.1l2.4,0.6v1.3H230V134.9z"/>
	<path class="st2" d="M260.3,135.6v-1.7c1,0.3,1.7,0.5,3.1,0.5c1.7,0,2.9-0.6,2.9-3.2v-14.4l-2.7-0.6V115h8.4v1.3l-2.7,0.6v14.7
		c0,3.2-2,4.9-5.6,4.9C262.1,136.4,261.1,136,260.3,135.6z"/>
	<path class="st2" d="M272.2,128.4c0-4.9,3.4-8.2,7.4-8.2c4.5,0,7.5,3.2,7.5,8.1c0,4.9-3.4,8.3-7.4,8.3
		C275.2,136.5,272.2,133.3,272.2,128.4z M284.2,128.5c0-5-2.3-6.6-4.6-6.6c-2.3,0-4.5,1.5-4.5,6.3c0,4.9,2.3,6.6,4.6,6.6
		C282.1,134.8,284.2,133.3,284.2,128.5z"/>
	<path class="st2" d="M287.8,135.1l2.3-0.5v-12l-2.3-0.5v-1.2l4.6-0.7l0.3,0.2v1.4h0.2c1.5-0.9,3.4-1.6,5.2-1.6
		c2.9,0,4.4,1.1,4.4,4.2v10.2l2.3,0.5v1h-7.3v-1l2.2-0.5v-9.5c0-2.1-1.1-2.7-3.3-2.7c-1.3,0-2.4,0.3-3.6,0.7v11.6l2.2,0.5v1h-7.3
		V135.1z"/>
	<path class="st2" d="M305.1,128.1c0-5,3.2-8,7.2-8c4.5,0,6.4,3.2,6.4,8.1H308c0.1,4.2,2.1,6.3,5.3,6.3c2.2,0,3.4-0.4,4.6-0.8v1.4
		c-1,0.6-2.6,1.4-5.2,1.4C307.4,136.5,305.1,133,305.1,128.1z M315.5,126.5c0-3.2-1.1-4.7-3.4-4.7c-2.4,0-3.9,1.5-4.1,4.9
		L315.5,126.5z"/>
	<path class="st2" d="M320.2,135.6l-0.2-4.2h1.5l0.8,2.7c0.6,0.3,1.6,0.7,3,0.7c1.9,0,3.3-0.8,3.3-2.4c0-1.6-0.8-2.1-3-2.8l-1.7-0.5
		c-2.4-0.8-3.8-2.1-3.8-4.4c0-2.4,1.9-4.5,5.6-4.5c1.7,0,3.3,0.3,4.3,0.6v4h-1.4l-0.7-2.4c-0.5-0.3-1.3-0.5-2.5-0.5
		c-1.7,0-3,0.6-3,2.2c0,1.3,0.8,2,3,2.7l1.7,0.5c2.8,0.9,3.9,2.2,3.9,4.4c0,2.7-2,4.8-6.1,4.8C323.4,136.5,321.6,136.1,320.2,135.6z
		"/>
</g>
<g>
	<path class="st1" d="M28.2,41.8h-0.8v-0.9c0-0.8,0.3-1.2,0.9-1.4l0.2,0.3c-0.4,0.2-0.6,0.5-0.6,0.9h0.3V41.8z M30,41.8h-0.8v-0.9
		c0-0.8,0.3-1.2,0.9-1.4l0.2,0.3c-0.4,0.2-0.6,0.5-0.6,0.9H30V41.8z"/>
	<path class="st1" d="M33.4,40.2h-2.3v-0.7h5.3v0.7h-2.3v5.6h-0.8V40.2z"/>
	<path class="st1" d="M37.5,39h0.7v2.8c0.4-0.4,0.9-0.7,1.6-0.7c1.1,0,1.5,0.6,1.5,1.6v3.2h-0.7v-3.2c0-0.6-0.2-1-0.9-1
		c-0.6,0-1,0.3-1.4,0.7v3.4h-0.7V39z"/>
	<path class="st1" d="M42.8,39.2h0.7V40h-0.7V39.2z M42.8,41.2h0.7v4.6h-0.7V41.2z"/>
	<path class="st1" d="M45.1,44.9c0.4,0.2,0.9,0.4,1.5,0.4c0.6,0,1-0.3,1-0.7c0-1.2-2.7-0.4-2.7-2.2c0-0.8,0.7-1.4,1.7-1.4
		c0.5,0,1.1,0.1,1.6,0.4L47.8,42c-0.4-0.2-0.9-0.3-1.3-0.3c-0.6,0-0.9,0.3-0.9,0.7c0,1.2,2.7,0.4,2.7,2.2c0,0.9-0.7,1.4-1.8,1.4
		c-0.7,0-1.3-0.2-1.8-0.5L45.1,44.9z"/>
	<path class="st1" d="M51.6,39.2h0.7V40h-0.7V39.2z M51.6,41.2h0.7v4.6h-0.7V41.2z"/>
	<path class="st1" d="M53.9,44.9c0.4,0.2,0.9,0.4,1.5,0.4c0.6,0,1-0.3,1-0.7c0-1.2-2.7-0.4-2.7-2.2c0-0.8,0.7-1.4,1.7-1.4
		c0.5,0,1.1,0.1,1.6,0.4L56.6,42c-0.4-0.2-0.9-0.3-1.3-0.3c-0.6,0-0.9,0.3-0.9,0.7c0,1.2,2.7,0.4,2.7,2.2c0,0.9-0.7,1.4-1.8,1.4
		c-0.7,0-1.3-0.2-1.8-0.5L53.9,44.9z"/>
	<path class="st1" d="M60.8,41.7h-0.8v-0.6h0.8v-1.4h0.7v1.4h1.3v0.6h-1.3v2.8c0,0.5,0.2,0.7,0.6,0.7c0.3,0,0.5-0.1,0.7-0.2l0.3,0.5
		c-0.3,0.2-0.7,0.4-1.1,0.4c-0.9,0-1.3-0.5-1.3-1.4V41.7z"/>
	<path class="st1" d="M64.1,39h0.7v2.8c0.4-0.4,0.9-0.7,1.6-0.7c1.1,0,1.5,0.6,1.5,1.6v3.2h-0.7v-3.2c0-0.6-0.2-1-0.9-1
		c-0.6,0-1,0.3-1.4,0.7v3.4h-0.7V39z"/>
	<path class="st1" d="M71.4,41.1c1.3,0,1.9,0.9,1.9,2.1c0,0.1,0,0.3,0,0.4h-3.4c0,1.1,0.5,1.8,1.5,1.8c0.5,0,1-0.2,1.4-0.4l0.3,0.5
		c-0.5,0.3-1.1,0.6-1.7,0.6c-1.4,0-2.3-0.9-2.3-2.5C69.2,42,70.1,41.1,71.4,41.1z M69.9,43h2.7c0-0.8-0.3-1.4-1.2-1.4
		C70.7,41.6,70.1,42.2,69.9,43z"/>
	<path class="st1" d="M76.5,43.4c0-1.5,0.8-2.4,1.9-2.4c0.6,0,1.1,0.3,1.5,0.7V39h0.7v6.8H80l-0.1-0.6c-0.4,0.4-0.9,0.7-1.5,0.7
		C77.2,45.9,76.5,45,76.5,43.4z M79.9,44.7v-2.3c-0.4-0.4-0.8-0.7-1.3-0.7c-0.8,0-1.3,0.6-1.3,1.8c0,1.2,0.5,1.9,1.3,1.9
		C79.1,45.3,79.5,45.1,79.9,44.7z"/>
	<path class="st1" d="M82.2,39.2h0.7V40h-0.7V39.2z M82.2,41.2h0.7v4.6h-0.7V41.2z"/>
	<path class="st1" d="M86.4,41.1c0.6,0,1.1,0.2,1.5,0.5l-0.4,0.5c-0.3-0.2-0.6-0.4-1.1-0.4c-0.9,0-1.5,0.7-1.5,1.8
		c0,1.2,0.6,1.9,1.5,1.9c0.5,0,0.9-0.2,1.2-0.5l0.4,0.5c-0.5,0.4-0.9,0.6-1.6,0.6c-1.3,0-2.2-0.9-2.2-2.5
		C84.2,42,85.1,41.1,86.4,41.1z"/>
	<path class="st1" d="M89.7,41.7h-0.8v-0.6h0.8v-1.4h0.7v1.4h1.3v0.6h-1.3v2.8c0,0.5,0.2,0.7,0.6,0.7c0.3,0,0.5-0.1,0.7-0.2l0.3,0.5
		c-0.3,0.2-0.7,0.4-1.1,0.4c-0.9,0-1.3-0.5-1.3-1.4V41.7z"/>
	<path class="st1" d="M93,39.2h0.7V40H93V39.2z M93,41.2h0.7v4.6H93V41.2z"/>
	<path class="st1" d="M97.3,41.1c1.3,0,2.2,0.9,2.2,2.4c0,1.5-0.9,2.5-2.2,2.5c-1.4,0-2.3-1-2.3-2.5C95,42,96,41.1,97.3,41.1z
		 M97.3,45.4c0.9,0,1.5-0.8,1.5-1.9c0-1.1-0.6-1.8-1.5-1.8c-0.9,0-1.5,0.7-1.5,1.8C95.8,44.6,96.4,45.4,97.3,45.4z"/>
	<path class="st1" d="M100.8,41.2h0.7l0,0.6c0.4-0.4,0.9-0.7,1.6-0.7c1.1,0,1.5,0.6,1.5,1.6v3.2h-0.7v-3.2c0-0.6-0.2-1-0.9-1
		c-0.6,0-1.1,0.3-1.4,0.7v3.4h-0.7V41.2z"/>
	<path class="st1" d="M108.6,43.2v-0.7c0-0.5-0.3-0.8-0.9-0.8c-0.5,0-1,0.2-1.5,0.4l-0.3-0.6c0.5-0.2,1.2-0.5,1.8-0.5
		c1.2,0,1.6,0.6,1.6,1.4v2.3c0,0.3,0.2,0.5,0.5,0.5v0.5c-0.7,0-1-0.2-1.1-0.6c-0.4,0.4-0.9,0.7-1.5,0.7c-0.8,0-1.4-0.5-1.4-1.2
		C105.8,43.6,107.1,43.2,108.6,43.2z M107.3,45.4c0.6,0,1-0.3,1.3-0.6v-1.1c-0.9,0-2.1,0.2-2.1,1.1
		C106.5,45.1,106.8,45.4,107.3,45.4z"/>
	<path class="st1" d="M110.9,41.2h0.7l0.1,0.8c0.4-0.6,0.8-0.9,1.4-0.9c0.2,0,0.4,0,0.6,0.1l-0.1,0.7c-0.2-0.1-0.3-0.1-0.5-0.1
		c-0.5,0-1,0.3-1.3,1v3.1h-0.7V41.2z"/>
	<path class="st1" d="M115.1,47.1c0.3,0,0.6-0.1,0.7-0.6l0.3-0.7l-1.7-4.6h0.8l1.3,3.7h0l1.3-3.7h0.8l-2,5.4
		c-0.3,0.9-0.8,1.1-1.4,1.1c-0.3,0-0.6-0.1-0.8-0.2l0.2-0.6C114.8,47,115,47.1,115.1,47.1z"/>
	<path class="st1" d="M123.7,41.1c1.3,0,2.2,0.9,2.2,2.4c0,1.5-0.9,2.5-2.2,2.5c-1.4,0-2.3-1-2.3-2.5
		C121.5,42,122.5,41.1,123.7,41.1z M123.7,45.4c0.9,0,1.5-0.8,1.5-1.9c0-1.1-0.6-1.8-1.5-1.8c-0.9,0-1.5,0.7-1.5,1.8
		C122.3,44.6,122.8,45.4,123.7,45.4z"/>
	<path class="st1" d="M127.5,41.8h-0.8v-0.6h0.8v-0.4c0-1.3,0.7-1.8,1.8-1.8c0.3,0,0.6,0.1,0.8,0.1l-0.2,0.5c-0.1,0-0.3-0.1-0.5-0.1
		c-0.7,0-1.1,0.4-1.1,1.2v0.4h1.3v0.6h-1.3v4.1h-0.7V41.8z"/>
</g>
<g>
	<path class="st1" d="M30.8,52h0.7v2.7c0.4-0.4,0.9-0.7,1.5-0.7c1.1,0,1.9,0.9,1.9,2.4c0,1.6-0.7,2.5-1.9,2.5
		c-0.6,0-1.1-0.3-1.5-0.7l-0.1,0.6h-0.6V52z M32.9,58.3c0.9,0,1.3-0.7,1.3-1.9c0-1.1-0.5-1.8-1.3-1.8c-0.5,0-0.9,0.3-1.3,0.7v2.3
		C32,58.1,32.4,58.3,32.9,58.3z"/>
	<path class="st1" d="M36.2,54.2H37v3.2c0,0.6,0.2,1,0.9,1c0.6,0,1.1-0.3,1.4-0.7v-3.4h0.7v4.7h-0.7l-0.1-0.6
		c-0.4,0.4-0.9,0.7-1.6,0.7c-1.1,0-1.5-0.6-1.5-1.6V54.2z"/>
	<path class="st1" d="M41.5,57.9c0.4,0.2,0.9,0.4,1.5,0.4c0.6,0,1-0.3,1-0.7c0-1.2-2.7-0.4-2.7-2.2c0-0.8,0.7-1.4,1.7-1.4
		c0.5,0,1.1,0.1,1.6,0.4L44.3,55c-0.4-0.2-0.9-0.3-1.3-0.3c-0.6,0-0.9,0.3-0.9,0.7c0,1.2,2.7,0.4,2.7,2.2c0,0.9-0.7,1.4-1.8,1.4
		c-0.7,0-1.3-0.2-1.8-0.5L41.5,57.9z"/>
	<path class="st1" d="M45.9,52.1h0.7V53h-0.7V52.1z M45.9,54.2h0.7v4.6h-0.7V54.2z"/>
	<path class="st1" d="M48.2,54.2h0.7l0,0.6c0.4-0.4,0.9-0.7,1.6-0.7c1.1,0,1.5,0.6,1.5,1.6v3.2h-0.7v-3.2c0-0.6-0.2-1-0.9-1
		c-0.6,0-1.1,0.3-1.4,0.7v3.4h-0.7V54.2z"/>
	<path class="st1" d="M55.5,54c1.3,0,1.9,0.9,1.9,2.1c0,0.1,0,0.3,0,0.4H54c0,1.1,0.5,1.8,1.5,1.8c0.5,0,1-0.2,1.4-0.4l0.3,0.5
		c-0.5,0.3-1.1,0.6-1.7,0.6c-1.4,0-2.3-0.9-2.3-2.5C53.2,55,54.2,54,55.5,54z M54,56h2.7c0-0.8-0.3-1.4-1.2-1.4
		C54.7,54.6,54.2,55.2,54,56z"/>
	<path class="st1" d="M58.7,57.9c0.4,0.2,0.9,0.4,1.5,0.4c0.6,0,1-0.3,1-0.7c0-1.2-2.7-0.4-2.7-2.2c0-0.8,0.7-1.4,1.7-1.4
		c0.5,0,1.1,0.1,1.6,0.4L61.4,55c-0.4-0.2-0.9-0.3-1.3-0.3c-0.6,0-0.9,0.3-0.9,0.7c0,1.2,2.7,0.4,2.7,2.2c0,0.9-0.7,1.4-1.8,1.4
		c-0.7,0-1.3-0.2-1.8-0.5L58.7,57.9z"/>
	<path class="st1" d="M63.1,57.9c0.4,0.2,0.9,0.4,1.5,0.4c0.6,0,1-0.3,1-0.7c0-1.2-2.7-0.4-2.7-2.2c0-0.8,0.7-1.4,1.7-1.4
		c0.5,0,1.1,0.1,1.6,0.4L65.8,55c-0.4-0.2-0.9-0.3-1.3-0.3c-0.6,0-0.9,0.3-0.9,0.7c0,1.2,2.7,0.4,2.7,2.2c0,0.9-0.7,1.4-1.8,1.4
		c-0.7,0-1.3-0.2-1.8-0.5L63.1,57.9z"/>
	<path class="st1" d="M69.6,57.9c0.4,0.2,0.9,0.4,1.5,0.4c0.6,0,1-0.3,1-0.7c0-1.2-2.7-0.4-2.7-2.2c0-0.8,0.7-1.4,1.7-1.4
		c0.5,0,1.1,0.1,1.6,0.4L72.3,55c-0.4-0.2-0.9-0.3-1.3-0.3c-0.6,0-0.9,0.3-0.9,0.7c0,1.2,2.7,0.4,2.7,2.2c0,0.9-0.7,1.4-1.8,1.4
		c-0.7,0-1.3-0.2-1.8-0.5L69.6,57.9z"/>
	<path class="st1" d="M73.9,54.2h0.7v3.2c0,0.6,0.2,1,0.9,1c0.6,0,1.1-0.3,1.4-0.7v-3.4h0.7v4.7h-0.7L77,58.2
		c-0.4,0.4-0.9,0.7-1.6,0.7c-1.1,0-1.5-0.6-1.5-1.6V54.2z"/>
	<path class="st1" d="M81.2,54.1c0.6,0,1.1,0.2,1.5,0.5l-0.4,0.5c-0.3-0.2-0.6-0.4-1.1-0.4c-0.9,0-1.5,0.7-1.5,1.8
		c0,1.2,0.6,1.9,1.5,1.9c0.5,0,0.9-0.2,1.2-0.5l0.4,0.5c-0.5,0.4-0.9,0.6-1.6,0.6c-1.3,0-2.2-0.9-2.2-2.5C79,55,79.9,54.1,81.2,54.1
		z"/>
	<path class="st1" d="M85.8,54.1c0.6,0,1.1,0.2,1.5,0.5l-0.4,0.5c-0.3-0.2-0.6-0.4-1.1-0.4c-0.9,0-1.5,0.7-1.5,1.8
		c0,1.2,0.6,1.9,1.5,1.9c0.5,0,0.9-0.2,1.2-0.5l0.4,0.5c-0.5,0.4-0.9,0.6-1.6,0.6c-1.3,0-2.2-0.9-2.2-2.5
		C83.6,55,84.5,54.1,85.8,54.1z"/>
	<path class="st1" d="M90.4,54c1.3,0,1.9,0.9,1.9,2.1c0,0.1,0,0.3,0,0.4h-3.4c0,1.1,0.5,1.8,1.5,1.8c0.5,0,1-0.2,1.4-0.4l0.3,0.5
		c-0.5,0.3-1.1,0.6-1.7,0.6c-1.4,0-2.3-0.9-2.3-2.5C88.2,55,89.1,54,90.4,54z M89,56h2.7c0-0.8-0.3-1.4-1.2-1.4
		C89.7,54.6,89.1,55.2,89,56z"/>
	<path class="st1" d="M93.6,57.9c0.4,0.2,0.9,0.4,1.5,0.4c0.6,0,1-0.3,1-0.7c0-1.2-2.7-0.4-2.7-2.2c0-0.8,0.7-1.4,1.7-1.4
		c0.5,0,1.1,0.1,1.6,0.4L96.3,55c-0.4-0.2-0.9-0.3-1.3-0.3c-0.6,0-0.9,0.3-0.9,0.7c0,1.2,2.7,0.4,2.7,2.2c0,0.9-0.7,1.4-1.8,1.4
		c-0.7,0-1.3-0.2-1.8-0.5L93.6,57.9z"/>
	<path class="st1" d="M98,57.9c0.4,0.2,0.9,0.4,1.5,0.4c0.6,0,1-0.3,1-0.7c0-1.2-2.7-0.4-2.7-2.2c0-0.8,0.7-1.4,1.7-1.4
		c0.5,0,1.1,0.1,1.6,0.4l-0.3,0.6c-0.4-0.2-0.9-0.3-1.3-0.3c-0.6,0-0.9,0.3-0.9,0.7c0,1.2,2.7,0.4,2.7,2.2c0,0.9-0.7,1.4-1.8,1.4
		c-0.7,0-1.3-0.2-1.8-0.5L98,57.9z"/>
	<path class="st1" d="M104.6,52h0.7v6.8h-0.7V52z"/>
	<path class="st1" d="M109.4,56.2v-0.7c0-0.5-0.3-0.8-0.9-0.8c-0.5,0-1,0.2-1.5,0.4l-0.3-0.6c0.5-0.2,1.2-0.5,1.8-0.5
		c1.2,0,1.6,0.6,1.6,1.4v2.3c0,0.3,0.2,0.5,0.5,0.5v0.5c-0.7,0-1-0.2-1.1-0.6c-0.4,0.4-0.9,0.7-1.5,0.7c-0.8,0-1.4-0.5-1.4-1.2
		C106.5,56.6,107.9,56.2,109.4,56.2z M108.1,58.4c0.6,0,1-0.3,1.3-0.6v-1.1c-0.9,0-2.1,0.2-2.1,1.1
		C107.3,58.1,107.6,58.4,108.1,58.4z"/>
	<path class="st1" d="M111.7,54.2h0.7l0,0.6c0.4-0.4,0.9-0.7,1.6-0.7c1.1,0,1.5,0.6,1.5,1.6v3.2h-0.7v-3.2c0-0.6-0.2-1-0.9-1
		c-0.6,0-1.1,0.3-1.4,0.7v3.4h-0.7V54.2z"/>
	<path class="st1" d="M117.3,58.5c-0.2-0.2-0.4-0.4-0.4-0.6c0-0.3,0.2-0.6,0.5-0.7c-0.4-0.3-0.7-0.8-0.7-1.4c0-1,0.8-1.7,1.9-1.7
		c0.5,0,0.9,0.1,1.3,0.4c0.3-0.3,0.7-0.4,1.3-0.4v0.6c-0.4,0-0.7,0-1,0.1c0.2,0.3,0.4,0.6,0.4,1c0,1.1-0.9,1.7-1.9,1.7
		c-0.3,0-0.6,0-0.8-0.1c-0.2,0.1-0.3,0.2-0.3,0.4c0,0.4,0.5,0.5,1.4,0.5c1.2,0.1,2.1,0.4,2.1,1.2c0,0.8-0.8,1.3-2.3,1.3
		c-1.4,0-2.2-0.4-2.2-1.2C116.6,59,116.9,58.7,117.3,58.5z M117.9,58.7c-0.4,0.1-0.6,0.4-0.6,0.7c0,0.5,0.5,0.7,1.5,0.7
		c1,0,1.6-0.2,1.6-0.7c0-0.5-0.5-0.6-1.5-0.7C118.5,58.8,118.2,58.8,117.9,58.7z M119.9,55.8c0-0.7-0.5-1.2-1.2-1.2
		s-1.2,0.5-1.2,1.2c0,0.7,0.5,1.2,1.2,1.2S119.9,56.5,119.9,55.8z"/>
	<path class="st1" d="M122.2,54.2h0.7v3.2c0,0.6,0.2,1,0.9,1c0.6,0,1.1-0.3,1.4-0.7v-3.4h0.7v4.7h-0.7l-0.1-0.6
		c-0.4,0.4-0.9,0.7-1.6,0.7c-1.1,0-1.5-0.6-1.5-1.6V54.2z"/>
	<path class="st1" d="M130.1,56.2v-0.7c0-0.5-0.3-0.8-0.9-0.8c-0.5,0-1,0.2-1.5,0.4l-0.3-0.6c0.5-0.2,1.2-0.5,1.8-0.5
		c1.2,0,1.6,0.6,1.6,1.4v2.3c0,0.3,0.2,0.5,0.5,0.5v0.5c-0.7,0-1-0.2-1.1-0.6c-0.4,0.4-0.9,0.7-1.5,0.7c-0.8,0-1.4-0.5-1.4-1.2
		C127.3,56.6,128.6,56.2,130.1,56.2z M128.8,58.4c0.6,0,1-0.3,1.3-0.6v-1.1c-0.9,0-2.1,0.2-2.1,1.1C128,58.1,128.3,58.4,128.8,58.4z
		"/>
	<path class="st1" d="M132.9,58.5c-0.2-0.2-0.4-0.4-0.4-0.6c0-0.3,0.2-0.6,0.5-0.7c-0.4-0.3-0.7-0.8-0.7-1.4c0-1,0.8-1.7,1.9-1.7
		c0.5,0,0.9,0.1,1.3,0.4c0.3-0.3,0.7-0.4,1.3-0.4v0.6c-0.4,0-0.7,0-1,0.1c0.2,0.3,0.4,0.6,0.4,1c0,1.1-0.9,1.7-1.9,1.7
		c-0.3,0-0.6,0-0.8-0.1c-0.2,0.1-0.3,0.2-0.3,0.4c0,0.4,0.5,0.5,1.4,0.5c1.2,0.1,2.1,0.4,2.1,1.2c0,0.8-0.8,1.3-2.3,1.3
		c-1.4,0-2.2-0.4-2.2-1.2C132.1,59,132.4,58.7,132.9,58.5z M133.5,58.7c-0.4,0.1-0.6,0.4-0.6,0.7c0,0.5,0.5,0.7,1.5,0.7
		c1,0,1.6-0.2,1.6-0.7c0-0.5-0.5-0.6-1.5-0.7C134.1,58.8,133.7,58.8,133.5,58.7z M135.4,55.8c0-0.7-0.5-1.2-1.2-1.2
		s-1.2,0.5-1.2,1.2c0,0.7,0.5,1.2,1.2,1.2S135.4,56.5,135.4,55.8z"/>
	<path class="st1" d="M139.6,54c1.3,0,1.9,0.9,1.9,2.1c0,0.1,0,0.3,0,0.4h-3.4c0,1.1,0.5,1.8,1.5,1.8c0.5,0,1-0.2,1.4-0.4l0.3,0.5
		c-0.5,0.3-1.1,0.6-1.7,0.6c-1.4,0-2.3-0.9-2.3-2.5C137.4,55,138.3,54,139.6,54z M138.2,56h2.7c0-0.8-0.3-1.4-1.2-1.4
		C138.9,54.6,138.3,55.2,138.2,56z"/>
	<path class="st1" d="M142.6,57.8h0.8v1.1h-0.8V57.8z"/>
</g>
<g>
	<path class="st1" d="M30.8,65.5h2.6c1.6,0,2.2,0.9,2.2,1.9c0,0.8-0.4,1.5-1.3,1.8l1.3,2.6h-0.8l-1.2-2.5h-0.1h-1.9v2.5h-0.8V65.5z
		 M33.5,68.7c1,0,1.4-0.6,1.4-1.3c0-0.6-0.4-1.2-1.4-1.2h-1.9v2.5H33.5z"/>
	<path class="st1" d="M37,65.1h0.7V66H37V65.1z M37,67.2h0.7v4.6H37V67.2z"/>
	<path class="st1" d="M39.7,71.5c-0.2-0.2-0.4-0.4-0.4-0.6c0-0.3,0.2-0.6,0.5-0.7c-0.4-0.3-0.7-0.8-0.7-1.4c0-1,0.8-1.7,1.9-1.7
		c0.5,0,0.9,0.1,1.3,0.4c0.3-0.3,0.7-0.4,1.3-0.4v0.6c-0.4,0-0.7,0-1,0.1c0.2,0.3,0.4,0.6,0.4,1c0,1.1-0.9,1.7-1.9,1.7
		c-0.3,0-0.6,0-0.8-0.1c-0.2,0.1-0.3,0.2-0.3,0.4c0,0.4,0.5,0.5,1.4,0.5c1.2,0.1,2.1,0.4,2.1,1.2c0,0.8-0.8,1.3-2.3,1.3
		c-1.4,0-2.2-0.4-2.2-1.2C38.9,72,39.2,71.7,39.7,71.5z M40.2,71.7c-0.4,0.1-0.6,0.4-0.6,0.7c0,0.5,0.5,0.7,1.5,0.7
		c1,0,1.6-0.2,1.6-0.7c0-0.5-0.5-0.6-1.5-0.7C40.8,71.8,40.5,71.8,40.2,71.7z M42.2,68.8c0-0.7-0.5-1.2-1.2-1.2s-1.2,0.5-1.2,1.2
		c0,0.7,0.5,1.2,1.2,1.2S42.2,69.4,42.2,68.8z"/>
	<path class="st1" d="M44.6,65h0.7v2.8c0.4-0.4,0.9-0.7,1.6-0.7c1.1,0,1.5,0.6,1.5,1.6v3.2h-0.7v-3.2c0-0.6-0.2-1-0.9-1
		c-0.6,0-1,0.3-1.4,0.7v3.4h-0.7V65z"/>
	<path class="st1" d="M50.2,67.7h-0.8v-0.6h0.8v-1.4h0.7v1.4h1.3v0.6h-1.3v2.8c0,0.5,0.2,0.7,0.6,0.7c0.3,0,0.5-0.1,0.7-0.2l0.3,0.5
		c-0.3,0.2-0.7,0.4-1.1,0.4c-0.9,0-1.3-0.5-1.3-1.4V67.7z"/>
	<path class="st1" d="M55.9,67.8h-0.8v-0.6h0.8v-0.4c0-1.3,0.7-1.8,1.8-1.8c0.3,0,0.6,0.1,0.8,0.1l-0.2,0.5c-0.1,0-0.3-0.1-0.5-0.1
		c-0.7,0-1.1,0.4-1.1,1.2v0.4H58v0.6h-1.3v4.1h-0.7V67.8z"/>
	<path class="st1" d="M59.1,67.2h0.7l0.1,0.8c0.4-0.6,0.8-0.9,1.4-0.9c0.2,0,0.4,0,0.6,0.1l-0.1,0.7c-0.2-0.1-0.3-0.1-0.5-0.1
		c-0.5,0-1,0.3-1.3,1v3.1h-0.7V67.2z"/>
	<path class="st1" d="M64.7,67.1c1.3,0,2.2,0.9,2.2,2.4c0,1.5-0.9,2.5-2.2,2.5c-1.4,0-2.3-1-2.3-2.5C62.5,68,63.4,67.1,64.7,67.1z
		 M64.7,71.3c0.9,0,1.5-0.8,1.5-1.9c0-1.1-0.6-1.8-1.5-1.8c-0.9,0-1.5,0.7-1.5,1.8C63.2,70.6,63.8,71.3,64.7,71.3z"/>
	<path class="st1" d="M68.2,67.2h0.7l0,0.6c0.4-0.4,0.9-0.7,1.5-0.7c0.7,0,1.1,0.3,1.3,0.8c0.5-0.5,1-0.8,1.7-0.8
		c1,0,1.4,0.6,1.4,1.6v3.2h-0.7v-3.2c0-0.6-0.2-1-0.8-1c-0.5,0-1,0.3-1.4,0.7c0,0.1,0,0.2,0,0.4v3.1h-0.8v-3.2c0-0.6-0.2-1-0.8-1
		c-0.5,0-1,0.3-1.4,0.7v3.5h-0.7V67.2z"/>
	<path class="st1" d="M79.3,73.6h-0.7v-6.5h0.7l0.1,0.6c0.4-0.4,0.9-0.7,1.5-0.7c1.1,0,1.9,0.9,1.9,2.4c0,1.6-0.7,2.5-1.9,2.5
		c-0.6,0-1.1-0.3-1.5-0.7V73.6z M80.6,71.3c0.8,0,1.3-0.7,1.3-1.9c0-1.1-0.5-1.8-1.3-1.8c-0.5,0-0.9,0.3-1.3,0.7v2.3
		C79.6,71.1,80.1,71.3,80.6,71.3z"/>
	<path class="st1" d="M86.4,69.2v-0.7c0-0.5-0.3-0.8-0.9-0.8c-0.5,0-1,0.2-1.5,0.4l-0.3-0.6c0.5-0.2,1.2-0.5,1.8-0.5
		c1.2,0,1.6,0.6,1.6,1.4v2.3c0,0.3,0.2,0.5,0.5,0.5v0.5c-0.7,0-1-0.2-1.1-0.6c-0.4,0.4-0.9,0.7-1.5,0.7c-0.8,0-1.4-0.5-1.4-1.2
		C83.6,69.6,85,69.2,86.4,69.2z M85.2,71.4c0.6,0,1-0.3,1.3-0.6v-1.1c-0.9,0-2.1,0.2-2.1,1.1C84.4,71.1,84.7,71.4,85.2,71.4z"/>
	<path class="st1" d="M89.2,71.5c-0.2-0.2-0.4-0.4-0.4-0.6c0-0.3,0.2-0.6,0.5-0.7c-0.4-0.3-0.7-0.8-0.7-1.4c0-1,0.8-1.7,1.9-1.7
		c0.5,0,0.9,0.1,1.3,0.4c0.3-0.3,0.7-0.4,1.3-0.4v0.6c-0.4,0-0.7,0-1,0.1c0.2,0.3,0.4,0.6,0.4,1c0,1.1-0.9,1.7-1.9,1.7
		c-0.3,0-0.6,0-0.8-0.1c-0.2,0.1-0.3,0.2-0.3,0.4c0,0.4,0.5,0.5,1.4,0.5c1.2,0.1,2.1,0.4,2.1,1.2c0,0.8-0.8,1.3-2.3,1.3
		c-1.4,0-2.2-0.4-2.2-1.2C88.5,72,88.8,71.7,89.2,71.5z M89.8,71.7c-0.4,0.1-0.6,0.4-0.6,0.7c0,0.5,0.5,0.7,1.5,0.7
		c1,0,1.6-0.2,1.6-0.7c0-0.5-0.5-0.6-1.5-0.7C90.4,71.8,90.1,71.8,89.8,71.7z M91.8,68.8c0-0.7-0.5-1.2-1.2-1.2s-1.2,0.5-1.2,1.2
		c0,0.7,0.5,1.2,1.2,1.2S91.8,69.4,91.8,68.8z"/>
	<path class="st1" d="M96,67c1.3,0,1.9,0.9,1.9,2.1c0,0.1,0,0.3,0,0.4h-3.4c0,1.1,0.5,1.8,1.5,1.8c0.5,0,1-0.2,1.4-0.4l0.3,0.5
		c-0.5,0.3-1.1,0.6-1.7,0.6c-1.4,0-2.3-0.9-2.3-2.5C93.7,68,94.7,67,96,67z M94.5,69h2.7c0-0.8-0.3-1.4-1.2-1.4
		C95.2,67.6,94.7,68.1,94.5,69z"/>
	<path class="st1" d="M102.4,71.8v-4.2l-1.1,0.5l-0.3-0.6l1.5-0.6h0.6v5H102.4z"/>
	<path class="st1" d="M104.9,70.8h0.8v0.9c0,0.8-0.3,1.2-0.9,1.4l-0.2-0.3c0.4-0.2,0.6-0.5,0.6-0.9h-0.3V70.8z"/>
	<path class="st1" d="M109.5,73.1c0.3,0,0.6-0.1,0.7-0.6l0.3-0.7l-1.7-4.6h0.8l1.3,3.7h0l1.3-3.7h0.8l-2,5.4
		c-0.3,0.9-0.8,1.1-1.4,1.1c-0.3,0-0.6-0.1-0.8-0.2l0.2-0.6C109.1,73,109.3,73.1,109.5,73.1z"/>
	<path class="st1" d="M115.8,67.1c1.3,0,2.2,0.9,2.2,2.4c0,1.5-0.9,2.5-2.2,2.5c-1.4,0-2.3-1-2.3-2.5
		C113.6,68,114.5,67.1,115.8,67.1z M115.8,71.3c0.9,0,1.5-0.8,1.5-1.9c0-1.1-0.6-1.8-1.5-1.8c-0.9,0-1.5,0.7-1.5,1.8
		C114.3,70.6,114.9,71.3,115.8,71.3z"/>
	<path class="st1" d="M119.3,67.2h0.7v3.2c0,0.6,0.2,1,0.9,1c0.6,0,1.1-0.3,1.4-0.7v-3.4h0.7v4.7h-0.7l-0.1-0.6
		c-0.4,0.4-0.9,0.7-1.6,0.7c-1.1,0-1.5-0.6-1.5-1.6V67.2z"/>
	<path class="st1" d="M124.5,65.5h0.8v0.9c0,0.8-0.3,1.2-0.9,1.4l-0.2-0.3c0.4-0.2,0.6-0.5,0.6-0.9h-0.3V65.5z"/>
	<path class="st1" d="M126.6,67.2h0.7l0.1,0.8c0.4-0.6,0.8-0.9,1.4-0.9c0.2,0,0.4,0,0.6,0.1l-0.1,0.7c-0.2-0.1-0.3-0.1-0.5-0.1
		c-0.5,0-1,0.3-1.3,1v3.1h-0.7V67.2z"/>
	<path class="st1" d="M132.2,67c1.3,0,1.9,0.9,1.9,2.1c0,0.1,0,0.3,0,0.4h-3.4c0,1.1,0.5,1.8,1.5,1.8c0.5,0,1-0.2,1.4-0.4l0.3,0.5
		c-0.5,0.3-1.1,0.6-1.7,0.6c-1.4,0-2.3-0.9-2.3-2.5C130,68,130.9,67,132.2,67z M130.7,69h2.7c0-0.8-0.3-1.4-1.2-1.4
		C131.4,67.6,130.9,68.1,130.7,69z"/>
</g>
<g>
</g>
<g>
	<path class="st1" d="M31.1,84.5c-0.2-0.2-0.4-0.4-0.4-0.6c0-0.3,0.2-0.6,0.5-0.7c-0.4-0.3-0.7-0.8-0.7-1.4c0-1,0.8-1.7,1.9-1.7
		c0.5,0,0.9,0.1,1.3,0.4C34,80.2,34.4,80,35,80v0.6c-0.4,0-0.7,0-1,0.1c0.2,0.3,0.4,0.6,0.4,1c0,1.1-0.9,1.7-1.9,1.7
		c-0.3,0-0.6,0-0.8-0.1c-0.2,0.1-0.3,0.2-0.3,0.4c0,0.4,0.5,0.5,1.4,0.5c1.2,0.1,2.1,0.4,2.1,1.2c0,0.8-0.8,1.3-2.3,1.3
		c-1.4,0-2.2-0.4-2.2-1.2C30.3,85,30.7,84.7,31.1,84.5z M31.7,84.7c-0.4,0.1-0.6,0.4-0.6,0.7c0,0.5,0.5,0.7,1.5,0.7
		c1,0,1.6-0.2,1.6-0.7c0-0.5-0.5-0.6-1.5-0.7C32.3,84.8,32,84.8,31.7,84.7z M33.6,81.7c0-0.7-0.5-1.2-1.2-1.2s-1.2,0.5-1.2,1.2
		c0,0.7,0.5,1.2,1.2,1.2S33.6,82.4,33.6,81.7z"/>
	<path class="st1" d="M36,78.1h0.7V79H36V78.1z M36,80.2h0.7v4.6H36V80.2z"/>
	<path class="st1" d="M37.8,80.2h0.8l1.3,3.9h0l1.3-3.9H42l-1.7,4.7h-0.8L37.8,80.2z"/>
	<path class="st1" d="M44.9,80c1.3,0,1.9,0.9,1.9,2.1c0,0.1,0,0.3,0,0.4h-3.4c0,1.1,0.5,1.8,1.5,1.8c0.5,0,1-0.2,1.4-0.4l0.3,0.5
		c-0.5,0.3-1.1,0.6-1.7,0.6c-1.4,0-2.3-0.9-2.3-2.5C42.6,81,43.6,80,44.9,80z M43.4,82H46c0-0.8-0.3-1.4-1.2-1.4
		C44.1,80.6,43.5,81.1,43.4,82z"/>
	<path class="st1" d="M48,80.2h0.7l0,0.6c0.4-0.4,0.9-0.7,1.6-0.7c1.1,0,1.5,0.6,1.5,1.6v3.2h-0.7v-3.2c0-0.6-0.2-1-0.9-1
		c-0.6,0-1.1,0.3-1.4,0.7v3.4H48V80.2z"/>
	<path class="st1" d="M55.8,80.7H55v-0.6h0.8v-1.4h0.7v1.4h1.3v0.6h-1.3v2.8c0,0.5,0.2,0.7,0.6,0.7c0.3,0,0.5-0.1,0.7-0.2l0.3,0.5
		c-0.3,0.2-0.7,0.4-1.1,0.4c-0.9,0-1.3-0.5-1.3-1.4V80.7z"/>
	<path class="st1" d="M59.2,78h0.7v2.8c0.4-0.4,0.9-0.7,1.6-0.7c1.1,0,1.5,0.6,1.5,1.6v3.2h-0.7v-3.2c0-0.6-0.2-1-0.9-1
		c-0.6,0-1,0.3-1.4,0.7v3.4h-0.7V78z"/>
	<path class="st1" d="M66.5,80c1.3,0,1.9,0.9,1.9,2.1c0,0.1,0,0.3,0,0.4H65c0,1.1,0.5,1.8,1.5,1.8c0.5,0,1-0.2,1.4-0.4l0.3,0.5
		c-0.5,0.3-1.1,0.6-1.7,0.6c-1.4,0-2.3-0.9-2.3-2.5C64.2,81,65.2,80,66.5,80z M65,82h2.7c0-0.8-0.3-1.4-1.2-1.4
		C65.7,80.6,65.1,81.1,65,82z"/>
	<path class="st1" d="M71.8,83.9c0.4,0.2,0.9,0.4,1.5,0.4c0.6,0,1-0.3,1-0.7c0-1.2-2.7-0.4-2.7-2.2c0-0.8,0.7-1.4,1.7-1.4
		c0.5,0,1.1,0.1,1.6,0.4L74.5,81c-0.4-0.2-0.9-0.3-1.3-0.3c-0.6,0-0.9,0.3-0.9,0.7c0,1.2,2.7,0.4,2.7,2.2c0,0.9-0.7,1.4-1.8,1.4
		c-0.7,0-1.3-0.2-1.8-0.5L71.8,83.9z"/>
	<path class="st1" d="M76.6,80.7h-0.8v-0.6h0.8v-1.4h0.7v1.4h1.3v0.6h-1.3v2.8c0,0.5,0.2,0.7,0.6,0.7c0.3,0,0.5-0.1,0.7-0.2l0.3,0.5
		c-0.3,0.2-0.7,0.4-1.1,0.4c-0.9,0-1.3-0.5-1.3-1.4V80.7z"/>
	<path class="st1" d="M79.9,80.2h0.7l0.1,0.8c0.4-0.6,0.8-0.9,1.4-0.9c0.2,0,0.4,0,0.6,0.1l-0.1,0.7c-0.2-0.1-0.3-0.1-0.5-0.1
		c-0.5,0-1,0.3-1.3,1v3.1h-0.7V80.2z"/>
	<path class="st1" d="M86.3,82.2v-0.7c0-0.5-0.3-0.8-0.9-0.8c-0.5,0-1,0.2-1.5,0.4l-0.3-0.6c0.5-0.2,1.2-0.5,1.8-0.5
		c1.2,0,1.6,0.6,1.6,1.4v2.3c0,0.3,0.2,0.5,0.5,0.5v0.5c-0.7,0-1-0.2-1.1-0.6c-0.4,0.4-0.9,0.7-1.5,0.7c-0.8,0-1.4-0.5-1.4-1.2
		C83.5,82.6,84.9,82.2,86.3,82.2z M85,84.4c0.6,0,1-0.3,1.3-0.6v-1.1c-0.9,0-2.1,0.2-2.1,1.1C84.2,84.1,84.5,84.4,85,84.4z"/>
	<path class="st1" d="M88.9,80.7h-0.8v-0.6h0.8v-1.4h0.7v1.4H91v0.6h-1.3v2.8c0,0.5,0.2,0.7,0.6,0.7c0.3,0,0.5-0.1,0.7-0.2l0.3,0.5
		c-0.3,0.2-0.7,0.4-1.1,0.4c-0.9,0-1.3-0.5-1.3-1.4V80.7z"/>
	<path class="st1" d="M94,80c1.3,0,1.9,0.9,1.9,2.1c0,0.1,0,0.3,0,0.4h-3.4c0,1.1,0.5,1.8,1.5,1.8c0.5,0,1-0.2,1.4-0.4l0.3,0.5
		c-0.5,0.3-1.1,0.6-1.7,0.6c-1.4,0-2.3-0.9-2.3-2.5C91.8,81,92.8,80,94,80z M92.6,82h2.7c0-0.8-0.3-1.4-1.2-1.4
		C93.3,80.6,92.7,81.1,92.6,82z"/>
	<path class="st1" d="M97.6,84.5c-0.2-0.2-0.4-0.4-0.4-0.6c0-0.3,0.2-0.6,0.5-0.7c-0.4-0.3-0.7-0.8-0.7-1.4c0-1,0.8-1.7,1.9-1.7
		c0.5,0,0.9,0.1,1.3,0.4c0.3-0.3,0.7-0.4,1.3-0.4v0.6c-0.4,0-0.7,0-1,0.1c0.2,0.3,0.4,0.6,0.4,1c0,1.1-0.9,1.7-1.9,1.7
		c-0.3,0-0.6,0-0.8-0.1c-0.2,0.1-0.3,0.2-0.3,0.4c0,0.4,0.5,0.5,1.4,0.5c1.2,0.1,2.1,0.4,2.1,1.2c0,0.8-0.8,1.3-2.3,1.3
		c-1.4,0-2.2-0.4-2.2-1.2C96.8,85,97.2,84.7,97.6,84.5z M98.2,84.7c-0.4,0.1-0.6,0.4-0.6,0.7c0,0.5,0.5,0.7,1.5,0.7
		c1,0,1.6-0.2,1.6-0.7c0-0.5-0.5-0.6-1.5-0.7C98.8,84.8,98.5,84.8,98.2,84.7z M100.1,81.7c0-0.7-0.5-1.2-1.2-1.2s-1.2,0.5-1.2,1.2
		c0,0.7,0.5,1.2,1.2,1.2S100.1,82.4,100.1,81.7z"/>
	<path class="st1" d="M103,86.1c0.3,0,0.6-0.1,0.7-0.6l0.3-0.7l-1.7-4.6h0.8l1.3,3.7h0l1.3-3.7h0.8l-2,5.4c-0.3,0.9-0.8,1.1-1.4,1.1
		c-0.3,0-0.6-0.1-0.8-0.2l0.2-0.6C102.6,86,102.8,86.1,103,86.1z"/>
	<path class="st1" d="M109.9,80.7h-0.8v-0.6h0.8v-1.4h0.7v1.4h1.3v0.6h-1.3v2.8c0,0.5,0.2,0.7,0.6,0.7c0.3,0,0.5-0.1,0.7-0.2
		l0.3,0.5c-0.3,0.2-0.7,0.4-1.1,0.4c-0.9,0-1.3-0.5-1.3-1.4V80.7z"/>
	<path class="st1" d="M115.1,80c1.3,0,2.2,0.9,2.2,2.4c0,1.5-0.9,2.5-2.2,2.5c-1.4,0-2.3-1-2.3-2.5C112.8,81,113.8,80,115.1,80z
		 M115.1,84.3c0.9,0,1.5-0.8,1.5-1.9c0-1.1-0.6-1.8-1.5-1.8c-0.9,0-1.5,0.7-1.5,1.8C113.6,83.6,114.2,84.3,115.1,84.3z"/>
	<path class="st1" d="M122.7,80c0.6,0,1.1,0.2,1.5,0.5l-0.4,0.5c-0.3-0.2-0.6-0.4-1.1-0.4c-0.9,0-1.5,0.7-1.5,1.8
		c0,1.2,0.6,1.9,1.5,1.9c0.5,0,0.9-0.2,1.2-0.5l0.4,0.5c-0.5,0.4-0.9,0.6-1.6,0.6c-1.3,0-2.2-0.9-2.2-2.5
		C120.5,81,121.4,80,122.7,80z"/>
	<path class="st1" d="M125.4,78h0.7v2.8c0.4-0.4,0.9-0.7,1.6-0.7c1.1,0,1.5,0.6,1.5,1.6v3.2h-0.7v-3.2c0-0.6-0.2-1-0.9-1
		c-0.6,0-1,0.3-1.4,0.7v3.4h-0.7V78z"/>
	<path class="st1" d="M133.2,82.2v-0.7c0-0.5-0.3-0.8-0.9-0.8c-0.5,0-1,0.2-1.5,0.4l-0.3-0.6c0.5-0.2,1.2-0.5,1.8-0.5
		c1.2,0,1.6,0.6,1.6,1.4v2.3c0,0.3,0.2,0.5,0.5,0.5v0.5c-0.7,0-1-0.2-1.1-0.6c-0.4,0.4-0.9,0.7-1.5,0.7c-0.8,0-1.4-0.5-1.4-1.2
		C130.4,82.6,131.8,82.2,133.2,82.2z M131.9,84.4c0.6,0,1-0.3,1.3-0.6v-1.1c-0.9,0-2.1,0.2-2.1,1.1
		C131.2,84.1,131.5,84.4,131.9,84.4z"/>
	<path class="st1" d="M135.6,80.2h0.7l0,0.6c0.4-0.4,0.9-0.7,1.6-0.7c1.1,0,1.5,0.6,1.5,1.6v3.2h-0.7v-3.2c0-0.6-0.2-1-0.9-1
		c-0.6,0-1.1,0.3-1.4,0.7v3.4h-0.7V80.2z"/>
	<path class="st1" d="M141.2,84.5c-0.2-0.2-0.4-0.4-0.4-0.6c0-0.3,0.2-0.6,0.5-0.7c-0.4-0.3-0.7-0.8-0.7-1.4c0-1,0.8-1.7,1.9-1.7
		c0.5,0,0.9,0.1,1.3,0.4c0.3-0.3,0.7-0.4,1.3-0.4v0.6c-0.4,0-0.7,0-1,0.1c0.2,0.3,0.4,0.6,0.4,1c0,1.1-0.9,1.7-1.9,1.7
		c-0.3,0-0.6,0-0.8-0.1c-0.2,0.1-0.3,0.2-0.3,0.4c0,0.4,0.5,0.5,1.4,0.5c1.2,0.1,2.1,0.4,2.1,1.2c0,0.8-0.8,1.3-2.3,1.3
		c-1.4,0-2.2-0.4-2.2-1.2C140.4,85,140.7,84.7,141.2,84.5z M141.8,84.7c-0.4,0.1-0.6,0.4-0.6,0.7c0,0.5,0.5,0.7,1.5,0.7
		c1,0,1.6-0.2,1.6-0.7c0-0.5-0.5-0.6-1.5-0.7C142.4,84.8,142.1,84.8,141.8,84.7z M143.7,81.7c0-0.7-0.5-1.2-1.2-1.2
		s-1.2,0.5-1.2,1.2c0,0.7,0.5,1.2,1.2,1.2S143.7,82.4,143.7,81.7z"/>
	<path class="st1" d="M147.9,80c1.3,0,1.9,0.9,1.9,2.1c0,0.1,0,0.3,0,0.4h-3.4c0,1.1,0.5,1.8,1.5,1.8c0.5,0,1-0.2,1.4-0.4l0.3,0.5
		c-0.5,0.3-1.1,0.6-1.7,0.6c-1.4,0-2.3-0.9-2.3-2.5C145.7,81,146.7,80,147.9,80z M146.5,82h2.7c0-0.8-0.3-1.4-1.2-1.4
		C147.2,80.6,146.6,81.1,146.5,82z"/>
</g>
<g>
	<path class="st1" d="M31,93.7h-0.8v-0.6H31v-1.4h0.7v1.4h1.3v0.6h-1.3v2.8c0,0.5,0.2,0.7,0.6,0.7c0.3,0,0.5-0.1,0.7-0.2l0.3,0.5
		c-0.3,0.2-0.7,0.4-1.1,0.4c-0.9,0-1.3-0.5-1.3-1.4V93.7z M34.4,91h0.7v2.8c0.4-0.4,0.9-0.7,1.6-0.7c1.1,0,1.5,0.6,1.5,1.6v3.2h-0.7
		v-3.2c0-0.6-0.2-1-0.9-1c-0.6,0-1,0.3-1.4,0.7v3.4h-0.7V91z M41.7,93c1.3,0,1.9,0.9,1.9,2.1c0,0.1,0,0.3,0,0.4h-3.4
		c0,1.1,0.5,1.8,1.5,1.8c0.5,0,1-0.2,1.4-0.4l0.3,0.5c-0.5,0.3-1.1,0.6-1.7,0.6c-1.4,0-2.3-0.9-2.3-2.5C39.5,94,40.4,93,41.7,93z
		 M40.2,95h2.7c0-0.8-0.3-1.4-1.2-1.4C40.9,93.6,40.4,94.1,40.2,95z M46.5,93.2h0.8l1.2,3.7h0l1.1-3.7h0.7l1.1,3.7h0l1.2-3.7h0.7
		l-1.6,4.7h-0.7L50,94.2h0l-1.1,3.6h-0.7L46.5,93.2z M57.1,95.2v-0.7c0-0.5-0.3-0.8-0.9-0.8c-0.5,0-1,0.2-1.5,0.4l-0.3-0.6
		c0.5-0.2,1.2-0.5,1.8-0.5c1.2,0,1.6,0.6,1.6,1.4v2.3c0,0.3,0.2,0.5,0.5,0.5v0.5c-0.7,0-1-0.2-1.1-0.6c-0.4,0.4-0.9,0.7-1.5,0.7
		c-0.8,0-1.4-0.5-1.4-1.2C54.3,95.6,55.6,95.2,57.1,95.2z M55.8,97.4c0.6,0,1-0.3,1.3-0.6v-1.1c-0.9,0-2.1,0.2-2.1,1.1
		C55,97.1,55.3,97.4,55.8,97.4z M59.5,99.1c0.3,0,0.6-0.1,0.7-0.6l0.3-0.7l-1.7-4.6h0.8l1.3,3.7h0l1.3-3.7h0.8l-2,5.4
		c-0.3,0.9-0.8,1.1-1.4,1.1c-0.3,0-0.6-0.1-0.8-0.2l0.2-0.6C59.1,99,59.3,99.1,59.5,99.1z M66.3,99.1c0.3,0,0.6-0.1,0.7-0.6l0.3-0.7
		l-1.7-4.6h0.8l1.3,3.7h0l1.3-3.7h0.8l-2,5.4c-0.3,0.9-0.8,1.1-1.4,1.1c-0.3,0-0.6-0.1-0.8-0.2l0.2-0.6C65.9,99,66.1,99.1,66.3,99.1
		z M72.6,93c1.3,0,2.2,0.9,2.2,2.4c0,1.5-0.9,2.5-2.2,2.5c-1.4,0-2.3-1-2.3-2.5C70.4,94,71.4,93,72.6,93z M72.6,97.3
		c0.9,0,1.5-0.8,1.5-1.9c0-1.1-0.6-1.8-1.5-1.8c-0.9,0-1.5,0.7-1.5,1.8C71.1,96.6,71.7,97.3,72.6,97.3z M76.1,93.2h0.7v3.2
		c0,0.6,0.2,1,0.9,1c0.6,0,1.1-0.3,1.4-0.7v-3.4h0.7v4.7h-0.7l-0.1-0.6c-0.4,0.4-0.9,0.7-1.6,0.7c-1.1,0-1.5-0.6-1.5-1.6V93.2z
		 M83.6,91.1h0.7V92h-0.7V91.1z M83.6,93.2h0.7v4.6h-0.7V93.2z M85.9,93.2h0.7l0,0.6c0.4-0.4,0.9-0.7,1.6-0.7c1.1,0,1.5,0.6,1.5,1.6
		v3.2h-0.7v-3.2c0-0.6-0.2-1-0.9-1c-0.6,0-1.1,0.3-1.4,0.7v3.4h-0.7V93.2z M91.5,93.8h-0.8v-0.6h0.8v-0.4c0-1.3,0.8-1.8,1.9-1.8
		c1.2,0,1.9,0.6,1.9,1.8v5h-0.7v-5c0-0.8-0.4-1.2-1.2-1.2c-0.8,0-1.2,0.4-1.2,1.2v0.4h1.3v0.6h-1.3v4.1h-0.7V93.8z M96.8,93.2h0.7
		v3.2c0,0.6,0.2,1,0.9,1c0.6,0,1.1-0.3,1.4-0.7v-3.4h0.7v4.7h-0.7l-0.1-0.6c-0.4,0.4-0.9,0.7-1.6,0.7c-1.1,0-1.5-0.6-1.5-1.6V93.2z
		 M104.1,93c1.3,0,1.9,0.9,1.9,2.1c0,0.1,0,0.3,0,0.4h-3.4c0,1.1,0.5,1.8,1.5,1.8c0.5,0,1-0.2,1.4-0.4l0.3,0.5
		c-0.5,0.3-1.1,0.6-1.7,0.6c-1.4,0-2.3-0.9-2.3-2.5C101.9,94,102.8,93,104.1,93z M102.7,95h2.7c0-0.8-0.3-1.4-1.2-1.4
		C103.4,93.6,102.8,94.1,102.7,95z M107.3,93.2h0.7l0,0.6c0.4-0.4,0.9-0.7,1.6-0.7c1.1,0,1.5,0.6,1.5,1.6v3.2h-0.7v-3.2
		c0-0.6-0.2-1-0.9-1c-0.6,0-1.1,0.3-1.4,0.7v3.4h-0.7V93.2z M114.6,93c0.6,0,1.1,0.2,1.5,0.5l-0.4,0.5c-0.3-0.2-0.6-0.4-1.1-0.4
		c-0.9,0-1.5,0.7-1.5,1.8c0,1.2,0.6,1.9,1.5,1.9c0.5,0,0.9-0.2,1.2-0.5l0.4,0.5c-0.5,0.4-0.9,0.6-1.6,0.6c-1.3,0-2.2-0.9-2.2-2.5
		C112.4,94,113.3,93,114.6,93z M119.2,93c1.3,0,1.9,0.9,1.9,2.1c0,0.1,0,0.3,0,0.4h-3.4c0,1.1,0.5,1.8,1.5,1.8c0.5,0,1-0.2,1.4-0.4
		l0.3,0.5c-0.5,0.3-1.1,0.6-1.7,0.6c-1.4,0-2.3-0.9-2.3-2.5C117,94,117.9,93,119.2,93z M117.7,95h2.7c0-0.8-0.3-1.4-1.2-1.4
		C118.5,93.6,117.9,94.1,117.7,95z M126.6,93c1.3,0,2.2,0.9,2.2,2.4c0,1.5-0.9,2.5-2.2,2.5c-1.4,0-2.3-1-2.3-2.5
		C124.3,94,125.3,93,126.6,93z M126.6,97.3c0.9,0,1.5-0.8,1.5-1.9c0-1.1-0.6-1.8-1.5-1.8c-0.9,0-1.5,0.7-1.5,1.8
		C125.1,96.6,125.6,97.3,126.6,97.3z M130.3,93.7h-0.8v-0.6h0.8v-1.4h0.7v1.4h1.3v0.6h-1.3v2.8c0,0.5,0.2,0.7,0.6,0.7
		c0.3,0,0.5-0.1,0.7-0.2l0.3,0.5c-0.3,0.2-0.7,0.4-1.1,0.4c-0.9,0-1.3-0.5-1.3-1.4V93.7z M133.7,91h0.7v2.8c0.4-0.4,0.9-0.7,1.6-0.7
		c1.1,0,1.5,0.6,1.5,1.6v3.2h-0.7v-3.2c0-0.6-0.2-1-0.9-1c-0.6,0-1,0.3-1.4,0.7v3.4h-0.7V91z M141,93c1.3,0,1.9,0.9,1.9,2.1
		c0,0.1,0,0.3,0,0.4h-3.4c0,1.1,0.5,1.8,1.5,1.8c0.5,0,1-0.2,1.4-0.4l0.3,0.5c-0.5,0.3-1.1,0.6-1.7,0.6c-1.4,0-2.3-0.9-2.3-2.5
		C138.7,94,139.7,93,141,93z M139.5,95h2.7c0-0.8-0.3-1.4-1.2-1.4C140.2,93.6,139.6,94.1,139.5,95z M144.2,93.2h0.7l0.1,0.8
		c0.4-0.6,0.8-0.9,1.4-0.9c0.2,0,0.4,0,0.6,0.1l-0.1,0.7c-0.2-0.1-0.3-0.1-0.5-0.1c-0.5,0-1,0.3-1.3,1v3.1h-0.7V93.2z M148,96.9
		c0.4,0.2,0.9,0.4,1.5,0.4c0.6,0,1-0.3,1-0.7c0-1.2-2.7-0.4-2.7-2.2c0-0.8,0.7-1.4,1.7-1.4c0.5,0,1.1,0.1,1.6,0.4l-0.3,0.6
		c-0.4-0.2-0.9-0.3-1.3-0.3c-0.6,0-0.9,0.3-0.9,0.7c0,1.2,2.7,0.4,2.7,2.2c0,0.9-0.7,1.4-1.8,1.4c-0.7,0-1.3-0.2-1.8-0.5L148,96.9z
		 M152.4,96.8h0.8v1.1h-0.8V96.8z M154.2,91.5h0.8v0.9c0,0.8-0.3,1.2-0.9,1.4l-0.2-0.3c0.4-0.2,0.6-0.5,0.6-0.9h-0.3V91.5z
		 M156,91.5h0.8v0.9c0,0.8-0.3,1.2-0.9,1.4l-0.2-0.3c0.4-0.2,0.6-0.5,0.6-0.9H156V91.5z"/>
</g>
<g>
	<path class="st4" d="M30.7,109.9c0.4,0.2,0.9,0.4,1.3,0.4c0.5,0,0.7-0.2,0.7-0.4c0-0.8-2.4-0.3-2.4-1.8c0-0.8,0.6-1.3,1.8-1.3
		c0.6,0,1.1,0.1,1.6,0.4l-0.4,0.8c-0.4-0.2-0.9-0.3-1.2-0.3c-0.4,0-0.6,0.2-0.6,0.4c0,0.7,2.4,0.2,2.4,1.9c0,0.7-0.6,1.3-1.8,1.3
		c-0.7,0-1.4-0.2-1.8-0.5L30.7,109.9z M37.3,106.8c0.6,0,1.2,0.2,1.7,0.6l-0.6,0.7c-0.3-0.3-0.7-0.4-1.1-0.4c-0.7,0-1.3,0.5-1.3,1.3
		c0,0.8,0.5,1.4,1.3,1.4c0.4,0,0.8-0.2,1.1-0.5l0.6,0.6c-0.5,0.4-1,0.7-1.8,0.7c-1.4,0-2.3-1-2.3-2.2
		C34.9,107.7,35.8,106.8,37.3,106.8z M42.2,106.8c1.3,0,2.3,0.9,2.3,2.2c0,1.4-1,2.2-2.3,2.2c-1.3,0-2.3-0.9-2.3-2.2
		C39.9,107.7,40.9,106.8,42.2,106.8z M42.2,110.3c0.7,0,1.2-0.5,1.2-1.4c0-0.8-0.5-1.3-1.2-1.3c-0.7,0-1.2,0.5-1.2,1.3
		C41,109.8,41.5,110.3,42.2,110.3z M46.9,107.8h-1.5v-0.9h4v0.9H48v3.3h-1.1V107.8z M51.9,107.8h-1.5v-0.9h4v0.9H53v3.3h-1.1V107.8z
		 M58,109.9c0.4,0.2,0.9,0.4,1.3,0.4c0.5,0,0.7-0.2,0.7-0.4c0-0.8-2.4-0.3-2.4-1.8c0-0.8,0.6-1.3,1.8-1.3c0.6,0,1.1,0.1,1.6,0.4
		l-0.4,0.8c-0.4-0.2-0.9-0.3-1.2-0.3c-0.4,0-0.6,0.2-0.6,0.4c0,0.7,2.4,0.2,2.4,1.9c0,0.7-0.6,1.3-1.8,1.3c-0.7,0-1.4-0.2-1.8-0.5
		L58,109.9z M63.6,107.8h-1.5v-0.9h4v0.9h-1.5v3.3h-1.1V107.8z M67.3,106.9h2.1c1.3,0,1.8,0.7,1.8,1.5c0,0.5-0.2,0.9-0.8,1.2
		l0.8,1.6H70l-0.6-1.4h0h-1v1.4h-1.1V106.9z M69.3,108.9c0.5,0,0.7-0.3,0.7-0.6c0-0.3-0.2-0.6-0.7-0.6h-0.9v1.2H69.3z M73.9,106.9
		h1.2l1.7,4.2h-1.2l-0.3-0.7h-1.7l-0.2,0.7h-1.2L73.9,106.9z M73.9,109.6h1.1l-0.6-1.6h0L73.9,109.6z M78.6,107.8h-1.5v-0.9h4v0.9
		h-1.5v3.3h-1.1V107.8z M83.6,107.8h-1.5v-0.9h4v0.9h-1.5v3.3h-1.1V107.8z M87.3,106.9h3.3v0.9h-2.2v0.8h1.9v0.8h-1.9v0.9h2.2v0.9
		h-3.3V106.9z M92,106.9h1l1.9,2.6v-2.6H96v4.2h-1l-1.9-2.6v2.6H92V106.9z"/>
</g>
<g>
	<path class="st4" d="M97.4,109.9h1.1v0.9c0,0.8-0.3,1.2-1,1.4l-0.2-0.4c0.4-0.1,0.5-0.4,0.5-0.7h-0.5V109.9z"/>
	<path class="st4" d="M101.2,105.8h2.2c1.5,0,2,0.8,2,1.7c0,0.8-0.5,1.7-2,1.7h-1.1v1.9h-1.1V105.8z M103.4,108.3
		c0.6,0,0.9-0.3,0.9-0.8c0-0.5-0.3-0.8-0.9-0.8h-1.1v1.6H103.4z"/>
	<path class="st4" d="M106.3,107.1h1l0.1,0.6c0.3-0.5,0.7-0.7,1.1-0.7c0.2,0,0.4,0,0.5,0.1l-0.2,1c-0.1-0.1-0.3-0.1-0.5-0.1
		c-0.4,0-0.7,0.3-0.9,0.7v2.4h-1.1V107.1z"/>
	<path class="st4" d="M111.5,107c1.2,0,1.8,0.8,1.8,1.8c0,0.2,0,0.4,0,0.5h-2.7c0.1,0.7,0.4,1,1,1c0.4,0,0.8-0.1,1.1-0.3l0.5,0.7
		c-0.5,0.3-1.1,0.5-1.7,0.5c-1.2,0-2-0.8-2-2.1C109.4,107.8,110.3,107,111.5,107z M110.6,108.7h1.6c0-0.5-0.2-0.9-0.7-0.9
		C111,107.8,110.7,108.1,110.6,108.7z"/>
	<path class="st4" d="M114.3,110c0.4,0.2,0.8,0.4,1.2,0.4c0.4,0,0.6-0.1,0.6-0.4c0-0.7-2.2-0.2-2.2-1.7c0-0.8,0.7-1.3,1.6-1.3
		c0.4,0,0.9,0.1,1.5,0.4l-0.4,0.8c-0.4-0.2-0.8-0.3-1.1-0.3c-0.3,0-0.5,0.1-0.5,0.4c0,0.7,2.2,0.2,2.2,1.7c0,0.8-0.7,1.3-1.6,1.3
		c-0.6,0-1.2-0.2-1.7-0.4L114.3,110z"/>
	<path class="st4" d="M118.1,105.5h1.1v0.9h-1.1V105.5z M118.1,107.1h1.1v4h-1.1V107.1z"/>
	<path class="st4" d="M120.1,109c0-1.4,0.6-2.1,1.6-2.1c0.4,0,0.9,0.2,1.2,0.5v-2.1h1.1v5.7h-1l-0.1-0.5c-0.3,0.3-0.7,0.6-1.2,0.6
		C120.8,111.2,120.1,110.4,120.1,109z M122.9,109.9v-1.7c-0.2-0.3-0.5-0.4-0.8-0.4c-0.5,0-0.8,0.4-0.8,1.2c0,0.8,0.3,1.3,0.8,1.3
		C122.4,110.3,122.6,110.2,122.9,109.9z"/>
	<path class="st4" d="M126.9,107c1.2,0,1.8,0.8,1.8,1.8c0,0.2,0,0.4,0,0.5H126c0.1,0.7,0.4,1,1,1c0.4,0,0.8-0.1,1.1-0.3l0.5,0.7
		c-0.5,0.3-1.1,0.5-1.7,0.5c-1.2,0-2-0.8-2-2.1C124.9,107.8,125.8,107,126.9,107z M126,108.7h1.6c0-0.5-0.2-0.9-0.7-0.9
		C126.5,107.8,126.1,108.1,126,108.7z"/>
	<path class="st4" d="M129.6,107.1h1l0.1,0.5c0.3-0.3,0.7-0.6,1.2-0.6c0.9,0,1.3,0.6,1.3,1.5v2.7h-1.1v-2.7c0-0.4-0.1-0.6-0.5-0.6
		c-0.3,0-0.6,0.2-0.9,0.5v2.8h-1.1V107.1z"/>
	<path class="st4" d="M134.5,107.8h-0.6v-0.8h0.6v-1h1.1v1h1.1v0.8h-1.1v2c0,0.3,0.1,0.5,0.4,0.5c0.2,0,0.4-0.1,0.5-0.2l0.4,0.7
		c-0.3,0.2-0.7,0.4-1.2,0.4c-0.8,0-1.2-0.4-1.2-1.3V107.8z"/>
	<path class="st4" d="M141.1,107c1.1,0,2,0.8,2,2.1c0,1.3-0.8,2.1-2,2.1c-1.2,0-2-0.8-2-2.1C139.1,107.8,140,107,141.1,107z
		 M141.1,110.4c0.6,0,0.9-0.5,0.9-1.3c0-0.7-0.4-1.2-0.9-1.2c-0.6,0-0.9,0.5-0.9,1.2C140.2,109.8,140.5,110.4,141.1,110.4z"/>
	<path class="st4" d="M144.3,107.9h-0.6v-0.8h0.6v-0.2c0-1.2,0.7-1.6,1.7-1.6c0.3,0,0.7,0.1,0.9,0.2l-0.3,0.8
		c-0.2-0.1-0.3-0.1-0.6-0.1c-0.4,0-0.6,0.2-0.6,0.7v0.2h1v0.8h-1v3.2h-1.1V107.9z"/>
</g>
<g>
	<path class="st4" d="M30.7,118.1h1.1v3.3c0,0.7,0.4,1.1,1.1,1.1c0.6,0,1.1-0.4,1.1-1.1v-3.3h1.1v3.3c0,1.4-0.9,2.1-2.2,2.1
		c-1.3,0-2.2-0.7-2.2-2.1V118.1z"/>
	<path class="st4" d="M36.3,119.3h1l0.1,0.5c0.3-0.3,0.7-0.6,1.2-0.6c0.9,0,1.3,0.6,1.3,1.5v2.7h-1.1v-2.7c0-0.4-0.1-0.6-0.5-0.6
		c-0.3,0-0.6,0.2-0.9,0.5v2.8h-1.1V119.3z"/>
	<path class="st4" d="M41,118.1h1.1l1.6,2.2l1.6-2.2h1.1v5.3h-1.1v-3.6l-1.6,2.3l-1.6-2.3v3.6H41V118.1z"/>
	<path class="st4" d="M49.8,120.9v-0.4c0-0.3-0.2-0.5-0.6-0.5s-0.8,0.2-1.3,0.4l-0.4-0.8c0.5-0.3,1.2-0.5,1.7-0.5
		c1.2,0,1.6,0.6,1.6,1.4v1.7c0,0.2,0.1,0.3,0.3,0.3v0.8c-0.8,0-1.1-0.1-1.3-0.5c-0.3,0.4-0.7,0.6-1.3,0.6c-0.7,0-1.2-0.4-1.2-1.1
		C47.4,121.5,48.3,121,49.8,120.9z M49,122.6c0.3,0,0.6-0.1,0.8-0.3v-0.8c-0.6,0-1.2,0.2-1.2,0.7C48.5,122.5,48.7,122.6,49,122.6z"
		/>
	<path class="st4" d="M52,119.3h1l0.1,0.6c0.3-0.5,0.7-0.7,1.1-0.7c0.2,0,0.4,0,0.5,0.1l-0.2,1c-0.1-0.1-0.3-0.1-0.5-0.1
		c-0.4,0-0.7,0.3-0.9,0.7v2.4H52V119.3z"/>
	<path class="st4" d="M55.5,117.7h1.1v3.4l1.5-1.8h1.2l-1.2,1.4l1.3,2.6h-1.2l-0.8-1.8l-0.7,0.7v1h-1.1V117.7z"/>
	<path class="st4" d="M61.7,119.2c1.2,0,1.8,0.8,1.8,1.8c0,0.2,0,0.4,0,0.5h-2.7c0.1,0.7,0.4,1,1,1c0.4,0,0.8-0.1,1.1-0.3l0.5,0.7
		c-0.5,0.3-1.1,0.5-1.7,0.5c-1.2,0-2-0.8-2-2.1C59.7,120,60.6,119.2,61.7,119.2z M60.8,120.9h1.6c0-0.5-0.2-0.9-0.7-0.9
		C61.3,120,60.9,120.3,60.8,120.9z"/>
	<path class="st4" d="M64.7,120.1H64v-0.8h0.6v-1h1.1v1h1.1v0.8h-1.1v2c0,0.3,0.1,0.5,0.4,0.5c0.2,0,0.4-0.1,0.5-0.2l0.4,0.7
		c-0.3,0.2-0.7,0.4-1.2,0.4c-0.8,0-1.2-0.4-1.2-1.3V120.1z"/>
	<path class="st4" d="M67.8,117.7h1.1v0.9h-1.1V117.7z M67.8,119.4h1.1v4h-1.1V119.4z"/>
	<path class="st4" d="M70,119.3h1l0.1,0.5c0.3-0.3,0.7-0.6,1.2-0.6c0.9,0,1.3,0.6,1.3,1.5v2.7h-1.1v-2.7c0-0.4-0.1-0.6-0.5-0.6
		c-0.3,0-0.6,0.2-0.9,0.5v2.8H70V119.3z"/>
	<path class="st4" d="M74.9,123c-0.2-0.2-0.2-0.3-0.2-0.5c0-0.3,0.2-0.5,0.4-0.7c-0.4-0.2-0.6-0.6-0.6-1.1c0-0.9,0.8-1.5,1.7-1.5
		c0.5,0,0.8,0.1,1.1,0.3c0.3-0.2,0.6-0.3,1.1-0.3v0.7c-0.3,0-0.5,0-0.7,0.1c0.1,0.2,0.2,0.4,0.2,0.7c0,0.9-0.8,1.5-1.7,1.5
		c-0.2,0-0.4,0-0.6-0.1c-0.1,0-0.2,0.1-0.2,0.2c0,0.2,0.2,0.3,1.1,0.3c1.2,0,1.8,0.4,1.8,1.1c0,0.7-0.7,1.2-2.1,1.2
		c-1.3,0-2-0.4-2-1.1C74.3,123.5,74.5,123.2,74.9,123z M75.6,123.4c-0.2,0.1-0.3,0.3-0.3,0.4c0,0.3,0.3,0.4,1,0.4
		c0.7,0,1.1-0.1,1.1-0.4c0-0.3-0.2-0.4-1-0.4C76.1,123.5,75.8,123.4,75.6,123.4z M76.9,120.7c0-0.5-0.3-0.8-0.7-0.8
		c-0.4,0-0.7,0.3-0.7,0.8c0,0.5,0.3,0.7,0.7,0.7C76.6,121.4,76.9,121.1,76.9,120.7z"/>
	<path class="st4" d="M80.9,118.1h1.1v5.3h-1.1V118.1z"/>
	<path class="st4" d="M83.2,119.3h1l0.1,0.5c0.3-0.3,0.7-0.6,1.2-0.6c0.9,0,1.3,0.6,1.3,1.5v2.7h-1.1v-2.7c0-0.4-0.1-0.6-0.5-0.6
		c-0.3,0-0.6,0.2-0.9,0.5v2.8h-1.1V119.3z"/>
	<path class="st4" d="M89.7,119.2c0.5,0,1,0.2,1.4,0.5l-0.6,0.7c-0.2-0.2-0.5-0.3-0.8-0.3c-0.5,0-1,0.4-1,1.2c0,0.8,0.4,1.2,1,1.2
		c0.4,0,0.6-0.1,0.8-0.3l0.6,0.6c-0.4,0.4-0.9,0.6-1.5,0.6c-1.2,0-2-0.8-2-2.1C87.7,120,88.6,119.2,89.7,119.2z"/>
	<path class="st4" d="M92,122.2h1.1v1.1H92V122.2z"/>
	<path class="st4" d="M97.9,120.9v-0.4c0-0.3-0.2-0.5-0.6-0.5s-0.8,0.2-1.3,0.4l-0.4-0.8c0.5-0.3,1.2-0.5,1.7-0.5
		c1.2,0,1.6,0.6,1.6,1.4v1.7c0,0.2,0.1,0.3,0.3,0.3v0.8c-0.8,0-1.1-0.1-1.3-0.5c-0.3,0.4-0.7,0.6-1.3,0.6c-0.7,0-1.2-0.4-1.2-1.1
		C95.6,121.5,96.4,121,97.9,120.9z M97.1,122.6c0.3,0,0.6-0.1,0.8-0.3v-0.8c-0.6,0-1.2,0.2-1.2,0.7
		C96.7,122.5,96.8,122.6,97.1,122.6z"/>
	<path class="st4" d="M100.2,119.3h1l0.1,0.5c0.3-0.3,0.7-0.6,1.2-0.6c0.9,0,1.3,0.6,1.3,1.5v2.7h-1.1v-2.7c0-0.4-0.1-0.6-0.5-0.6
		c-0.3,0-0.6,0.2-0.9,0.5v2.8h-1.1V119.3z"/>
	<path class="st4" d="M104.6,121.3c0-1.4,0.6-2.1,1.6-2.1c0.4,0,0.9,0.2,1.2,0.5v-2.1h1.1v5.7h-1l-0.1-0.5c-0.3,0.3-0.7,0.6-1.2,0.6
		C105.3,123.4,104.6,122.7,104.6,121.3z M107.4,122.2v-1.7c-0.2-0.3-0.5-0.4-0.8-0.4c-0.5,0-0.8,0.4-0.8,1.2c0,0.8,0.3,1.3,0.8,1.3
		C106.9,122.6,107.1,122.5,107.4,122.2z"/>
	<path class="st4" d="M111.2,117.7h1.1v2.1c0.3-0.3,0.7-0.5,1.2-0.5c0.9,0,1.6,0.7,1.6,2.1c0,1.4-0.6,2.2-1.5,2.2
		c-0.5,0-0.9-0.2-1.2-0.6l-0.1,0.5h-1V117.7z M113.1,122.6c0.5,0,0.8-0.5,0.8-1.3c0-0.8-0.3-1.2-0.8-1.2c-0.3,0-0.6,0.2-0.8,0.4v1.7
		C112.5,122.5,112.8,122.6,113.1,122.6z"/>
	<path class="st4" d="M117.7,119.2c1.2,0,1.8,0.8,1.8,1.8c0,0.2,0,0.4,0,0.5h-2.7c0.1,0.7,0.4,1,1,1c0.4,0,0.8-0.1,1.1-0.3l0.5,0.7
		c-0.5,0.3-1.1,0.5-1.7,0.5c-1.2,0-2-0.8-2-2.1C115.7,120,116.6,119.2,117.7,119.2z M116.9,120.9h1.6c0-0.5-0.2-0.9-0.7-0.9
		C117.3,120,117,120.3,116.9,120.9z"/>
	<path class="st4" d="M120.6,122.2c0.4,0.2,0.8,0.4,1.2,0.4c0.4,0,0.6-0.1,0.6-0.4c0-0.7-2.2-0.2-2.2-1.7c0-0.8,0.7-1.3,1.6-1.3
		c0.4,0,0.9,0.1,1.5,0.4l-0.4,0.8c-0.4-0.2-0.8-0.3-1.1-0.3c-0.3,0-0.5,0.1-0.5,0.4c0,0.7,2.2,0.2,2.2,1.7c0,0.8-0.7,1.3-1.6,1.3
		c-0.6,0-1.2-0.2-1.7-0.4L120.6,122.2z"/>
	<path class="st4" d="M124.7,120.1h-0.6v-0.8h0.6v-1h1.1v1h1.1v0.8h-1.1v2c0,0.3,0.1,0.5,0.4,0.5c0.2,0,0.4-0.1,0.5-0.2l0.4,0.7
		c-0.3,0.2-0.7,0.4-1.2,0.4c-0.8,0-1.2-0.4-1.2-1.3V120.1z"/>
	<path class="st4" d="M127.4,120.9h2.3v0.9h-2.3V120.9z"/>
	<path class="st4" d="M130.9,122.2c0.4,0.2,0.8,0.4,1.2,0.4c0.4,0,0.6-0.1,0.6-0.4c0-0.7-2.2-0.2-2.2-1.7c0-0.8,0.7-1.3,1.6-1.3
		c0.4,0,0.9,0.1,1.5,0.4l-0.4,0.8c-0.4-0.2-0.8-0.3-1.1-0.3c-0.3,0-0.5,0.1-0.5,0.4c0,0.7,2.2,0.2,2.2,1.7c0,0.8-0.7,1.3-1.6,1.3
		c-0.6,0-1.2-0.2-1.7-0.4L130.9,122.2z"/>
	<path class="st4" d="M136.4,119.2c1.2,0,1.8,0.8,1.8,1.8c0,0.2,0,0.4,0,0.5h-2.7c0.1,0.7,0.4,1,1,1c0.4,0,0.8-0.1,1.1-0.3l0.5,0.7
		c-0.5,0.3-1.1,0.5-1.7,0.5c-1.2,0-2-0.8-2-2.1C134.4,120,135.3,119.2,136.4,119.2z M135.6,120.9h1.6c0-0.5-0.2-0.9-0.7-0.9
		C136,120,135.7,120.3,135.6,120.9z"/>
	<path class="st4" d="M139.2,117.7h1.1v5.7h-1.1V117.7z"/>
	<path class="st4" d="M141.3,117.7h1.1v5.7h-1.1V117.7z"/>
	<path class="st4" d="M143.5,117.7h1.1v0.9h-1.1V117.7z M143.5,119.4h1.1v4h-1.1V119.4z"/>
	<path class="st4" d="M145.7,119.3h1l0.1,0.5c0.3-0.3,0.7-0.6,1.2-0.6c0.9,0,1.3,0.6,1.3,1.5v2.7h-1.1v-2.7c0-0.4-0.1-0.6-0.5-0.6
		c-0.3,0-0.6,0.2-0.9,0.5v2.8h-1.1V119.3z"/>
	<path class="st4" d="M150.6,123c-0.2-0.2-0.2-0.3-0.2-0.5c0-0.3,0.2-0.5,0.4-0.7c-0.4-0.2-0.6-0.6-0.6-1.1c0-0.9,0.8-1.5,1.7-1.5
		c0.5,0,0.8,0.1,1.1,0.3c0.3-0.2,0.6-0.3,1.1-0.3v0.7c-0.3,0-0.5,0-0.7,0.1c0.1,0.2,0.2,0.4,0.2,0.7c0,0.9-0.8,1.5-1.7,1.5
		c-0.2,0-0.4,0-0.6-0.1c-0.1,0-0.2,0.1-0.2,0.2c0,0.2,0.2,0.3,1.1,0.3c1.2,0,1.8,0.4,1.8,1.1c0,0.7-0.7,1.2-2.1,1.2
		c-1.3,0-2-0.4-2-1.1C150,123.5,150.3,123.2,150.6,123z M151.3,123.4c-0.2,0.1-0.3,0.3-0.3,0.4c0,0.3,0.3,0.4,1,0.4
		c0.7,0,1.1-0.1,1.1-0.4c0-0.3-0.2-0.4-1-0.4C151.8,123.5,151.6,123.4,151.3,123.4z M152.7,120.7c0-0.5-0.3-0.8-0.7-0.8
		c-0.4,0-0.7,0.3-0.7,0.8c0,0.5,0.3,0.7,0.7,0.7C152.4,121.4,152.7,121.1,152.7,120.7z"/>
</g>
<g>
	<path class="st4" d="M32.7,133.2v-0.4c0-0.3-0.2-0.5-0.6-0.5s-0.8,0.2-1.3,0.4l-0.4-0.8c0.5-0.3,1.2-0.5,1.7-0.5
		c1.2,0,1.6,0.6,1.6,1.4v1.7c0,0.2,0.1,0.3,0.3,0.3v0.8c-0.8,0-1.1-0.1-1.3-0.5c-0.3,0.4-0.7,0.6-1.3,0.6c-0.7,0-1.2-0.4-1.2-1.1
		C30.3,133.7,31.2,133.3,32.7,133.2z M31.9,134.9c0.3,0,0.6-0.1,0.8-0.3v-0.8c-0.6,0-1.2,0.2-1.2,0.7
		C31.4,134.7,31.6,134.9,31.9,134.9z"/>
	<path class="st4" d="M34.9,131.6H36v2.7c0,0.4,0.1,0.6,0.5,0.6c0.3,0,0.6-0.2,0.9-0.5v-2.8h1.1v4h-1l-0.1-0.5
		c-0.3,0.3-0.7,0.6-1.2,0.6c-0.9,0-1.3-0.5-1.3-1.5V131.6z"/>
	<path class="st4" d="M39.8,132.3h-0.6v-0.8h0.6v-1h1.1v1H42v0.8h-1.1v2c0,0.3,0.1,0.5,0.4,0.5c0.2,0,0.4-0.1,0.5-0.2l0.4,0.7
		c-0.3,0.2-0.7,0.4-1.2,0.4c-0.8,0-1.2-0.4-1.2-1.3V132.3z"/>
	<path class="st4" d="M42.9,129.9H44v2.1c0.3-0.3,0.7-0.6,1.2-0.6c0.9,0,1.3,0.5,1.3,1.5v2.7h-1.1v-2.7c0-0.4-0.1-0.6-0.5-0.6
		c-0.3,0-0.6,0.2-0.9,0.5v2.8h-1.1V129.9z"/>
	<path class="st4" d="M49.4,131.5c1.1,0,2,0.8,2,2.1c0,1.3-0.8,2.1-2,2.1c-1.2,0-2-0.8-2-2.1C47.4,132.3,48.3,131.5,49.4,131.5z
		 M49.4,134.8c0.6,0,0.9-0.5,0.9-1.3c0-0.7-0.4-1.2-0.9-1.2c-0.6,0-0.9,0.5-0.9,1.2C48.5,134.3,48.8,134.8,49.4,134.8z"/>
	<path class="st4" d="M52.3,131.6h1l0.1,0.6c0.3-0.5,0.7-0.7,1.1-0.7c0.2,0,0.4,0,0.5,0.1l-0.2,1c-0.1-0.1-0.3-0.1-0.5-0.1
		c-0.4,0-0.7,0.3-0.9,0.7v2.4h-1.1V131.6z"/>
	<path class="st4" d="M59.3,131.5c1.1,0,2,0.8,2,2.1c0,1.3-0.8,2.1-2,2.1c-1.2,0-2-0.8-2-2.1C57.3,132.3,58.1,131.5,59.3,131.5z
		 M59.3,134.8c0.6,0,0.9-0.5,0.9-1.3c0-0.7-0.4-1.2-0.9-1.2c-0.6,0-0.9,0.5-0.9,1.2C58.4,134.3,58.7,134.8,59.3,134.8z"/>
	<path class="st4" d="M62.5,132.4h-0.6v-0.8h0.6v-0.2c0-1.2,0.7-1.6,1.7-1.6c0.3,0,0.7,0.1,0.9,0.2l-0.3,0.8
		c-0.2-0.1-0.3-0.1-0.6-0.1c-0.4,0-0.6,0.2-0.6,0.7v0.2h1v0.8h-1v3.2h-1.1V132.4z"/>
	<path class="st4" d="M67.4,132.3h-0.6v-0.8h0.6v-1h1.1v1h1.1v0.8h-1.1v2c0,0.3,0.1,0.5,0.4,0.5c0.2,0,0.4-0.1,0.5-0.2l0.4,0.7
		c-0.3,0.2-0.7,0.4-1.2,0.4c-0.8,0-1.2-0.4-1.2-1.3V132.3z"/>
	<path class="st4" d="M70.5,129.9h1.1v2.1c0.3-0.3,0.7-0.6,1.2-0.6c0.9,0,1.3,0.5,1.3,1.5v2.7H73v-2.7c0-0.4-0.1-0.6-0.5-0.6
		c-0.3,0-0.6,0.2-0.9,0.5v2.8h-1.1V129.9z"/>
	<path class="st4" d="M77,131.5c1.2,0,1.8,0.8,1.8,1.8c0,0.2,0,0.4,0,0.5h-2.7c0.1,0.7,0.4,1,1,1c0.4,0,0.8-0.1,1.1-0.3l0.5,0.7
		c-0.5,0.3-1.1,0.5-1.7,0.5c-1.2,0-2-0.8-2-2.1C75,132.3,75.9,131.5,77,131.5z M76.1,133.2h1.6c0-0.5-0.2-0.9-0.7-0.9
		C76.6,132.3,76.2,132.6,76.1,133.2z"/>
	<path class="st4" d="M81.4,130.3h1.1v3.3c0,0.7,0.4,1.1,1.1,1.1c0.6,0,1.1-0.4,1.1-1.1v-3.3h1.1v3.3c0,1.4-0.9,2.1-2.2,2.1
		c-1.3,0-2.2-0.7-2.2-2.1V130.3z"/>
	<path class="st4" d="M86.9,131.6h1L88,132c0.3-0.3,0.7-0.6,1.2-0.6c0.9,0,1.3,0.6,1.3,1.5v2.7h-1.1v-2.7c0-0.4-0.1-0.6-0.5-0.6
		c-0.3,0-0.6,0.2-0.9,0.5v2.8h-1.1V131.6z"/>
	<path class="st4" d="M91.6,130.3h1.1l1.6,2.2l1.6-2.2h1.1v5.3H96V132l-1.6,2.3l-1.6-2.3v3.6h-1.1V130.3z"/>
	<path class="st4" d="M100.4,133.2v-0.4c0-0.3-0.2-0.5-0.6-0.5s-0.8,0.2-1.3,0.4l-0.4-0.8c0.5-0.3,1.2-0.5,1.7-0.5
		c1.2,0,1.6,0.6,1.6,1.4v1.7c0,0.2,0.1,0.3,0.3,0.3v0.8c-0.8,0-1.1-0.1-1.3-0.5c-0.3,0.4-0.7,0.6-1.3,0.6c-0.7,0-1.2-0.4-1.2-1.1
		C98.1,133.7,98.9,133.3,100.4,133.2z M99.6,134.9c0.3,0,0.6-0.1,0.8-0.3v-0.8c-0.6,0-1.2,0.2-1.2,0.7
		C99.2,134.7,99.4,134.9,99.6,134.9z"/>
	<path class="st4" d="M102.7,131.6h1l0.1,0.6c0.3-0.5,0.7-0.7,1.1-0.7c0.2,0,0.4,0,0.5,0.1l-0.2,1c-0.1-0.1-0.3-0.1-0.5-0.1
		c-0.4,0-0.7,0.3-0.9,0.7v2.4h-1.1V131.6z"/>
	<path class="st4" d="M106.1,129.9h1.1v3.4l1.5-1.8h1.2l-1.2,1.4l1.3,2.6h-1.2l-0.8-1.8l-0.7,0.7v1h-1.1V129.9z"/>
	<path class="st4" d="M112.3,131.5c1.2,0,1.8,0.8,1.8,1.8c0,0.2,0,0.4,0,0.5h-2.7c0.1,0.7,0.4,1,1,1c0.4,0,0.8-0.1,1.1-0.3l0.5,0.7
		c-0.5,0.3-1.1,0.5-1.7,0.5c-1.2,0-2-0.8-2-2.1C110.3,132.3,111.2,131.5,112.3,131.5z M111.4,133.2h1.6c0-0.5-0.2-0.9-0.7-0.9
		C111.9,132.3,111.6,132.6,111.4,133.2z"/>
	<path class="st4" d="M115.3,132.3h-0.6v-0.8h0.6v-1h1.1v1h1.1v0.8h-1.1v2c0,0.3,0.1,0.5,0.4,0.5c0.2,0,0.4-0.1,0.5-0.2l0.4,0.7
		c-0.3,0.2-0.7,0.4-1.2,0.4c-0.8,0-1.2-0.4-1.2-1.3V132.3z"/>
	<path class="st4" d="M118.4,130h1.1v0.9h-1.1V130z M118.4,131.6h1.1v4h-1.1V131.6z"/>
	<path class="st4" d="M120.6,131.6h1l0.1,0.5c0.3-0.3,0.7-0.6,1.2-0.6c0.9,0,1.3,0.6,1.3,1.5v2.7h-1.1v-2.7c0-0.4-0.1-0.6-0.5-0.6
		c-0.3,0-0.6,0.2-0.9,0.5v2.8h-1.1V131.6z"/>
	<path class="st4" d="M125.5,135.3c-0.2-0.2-0.2-0.3-0.2-0.5c0-0.3,0.2-0.5,0.4-0.7c-0.4-0.2-0.6-0.6-0.6-1.1c0-0.9,0.8-1.5,1.7-1.5
		c0.5,0,0.8,0.1,1.1,0.3c0.3-0.2,0.6-0.3,1.1-0.3v0.7c-0.3,0-0.5,0-0.7,0.1c0.1,0.2,0.2,0.4,0.2,0.7c0,0.9-0.8,1.5-1.7,1.5
		c-0.2,0-0.4,0-0.6-0.1c-0.1,0-0.2,0.1-0.2,0.2c0,0.2,0.2,0.3,1.1,0.3c1.2,0,1.8,0.4,1.8,1.1c0,0.7-0.7,1.2-2.1,1.2
		c-1.3,0-2-0.4-2-1.1C124.9,135.7,125.1,135.5,125.5,135.3z M126.2,135.6c-0.2,0.1-0.3,0.3-0.3,0.4c0,0.3,0.3,0.4,1,0.4
		c0.7,0,1.1-0.1,1.1-0.4c0-0.3-0.2-0.4-1-0.4C126.7,135.7,126.4,135.7,126.2,135.6z M127.5,132.9c0-0.5-0.3-0.8-0.7-0.8
		c-0.4,0-0.7,0.3-0.7,0.8c0,0.5,0.3,0.7,0.7,0.7C127.3,133.7,127.5,133.4,127.5,132.9z"/>
	<path class="st4" d="M131.7,134.5c0.4,0.2,0.8,0.4,1.2,0.4c0.4,0,0.6-0.1,0.6-0.4c0-0.7-2.2-0.2-2.2-1.7c0-0.8,0.7-1.3,1.6-1.3
		c0.4,0,0.9,0.1,1.5,0.4l-0.4,0.8c-0.4-0.2-0.8-0.3-1.1-0.3c-0.3,0-0.5,0.1-0.5,0.4c0,0.7,2.2,0.2,2.2,1.7c0,0.8-0.7,1.3-1.6,1.3
		c-0.6,0-1.2-0.2-1.7-0.4L131.7,134.5z"/>
	<path class="st4" d="M137.3,131.5c1.2,0,1.8,0.8,1.8,1.8c0,0.2,0,0.4,0,0.5h-2.7c0.1,0.7,0.4,1,1,1c0.4,0,0.8-0.1,1.1-0.3l0.5,0.7
		c-0.5,0.3-1.1,0.5-1.7,0.5c-1.2,0-2-0.8-2-2.1C135.3,132.3,136.2,131.5,137.3,131.5z M136.4,133.2h1.6c0-0.5-0.2-0.9-0.7-0.9
		C136.9,132.3,136.5,132.6,136.4,133.2z"/>
	<path class="st4" d="M140,131.6h1l0.1,0.6c0.3-0.5,0.7-0.7,1.1-0.7c0.2,0,0.4,0,0.5,0.1l-0.2,1c-0.1-0.1-0.3-0.1-0.5-0.1
		c-0.4,0-0.7,0.3-0.9,0.7v2.4H140V131.6z"/>
	<path class="st4" d="M143.4,130h1.1v0.9h-1.1V130z M143.4,131.6h1.1v4h-1.1V131.6z"/>
	<path class="st4" d="M147.5,131.5c1.2,0,1.8,0.8,1.8,1.8c0,0.2,0,0.4,0,0.5h-2.7c0.1,0.7,0.4,1,1,1c0.4,0,0.8-0.1,1.1-0.3l0.5,0.7
		c-0.5,0.3-1.1,0.5-1.7,0.5c-1.2,0-2-0.8-2-2.1C145.4,132.3,146.3,131.5,147.5,131.5z M146.6,133.2h1.6c0-0.5-0.2-0.9-0.7-0.9
		C147,132.3,146.7,132.6,146.6,133.2z"/>
	<path class="st4" d="M150.3,134.5c0.4,0.2,0.8,0.4,1.2,0.4c0.4,0,0.6-0.1,0.6-0.4c0-0.7-2.2-0.2-2.2-1.7c0-0.8,0.7-1.3,1.6-1.3
		c0.4,0,0.9,0.1,1.5,0.4l-0.4,0.8c-0.4-0.2-0.8-0.3-1.1-0.3c-0.3,0-0.5,0.1-0.5,0.4c0,0.7,2.2,0.2,2.2,1.7c0,0.8-0.7,1.3-1.6,1.3
		c-0.6,0-1.2-0.2-1.7-0.4L150.3,134.5z"/>
</g>
</svg>
