<?xml version="1.0" encoding="utf-8"?>
<!-- Generator: Adobe Illustrator 21.1.0, SVG Export Plug-In . SVG Version: 6.00 Build 0)  -->
<!DOCTYPE svg PUBLIC "-//W3C//DTD SVG 1.1//EN" "http://www.w3.org/Graphics/SVG/1.1/DTD/svg11.dtd">
<svg version="1.1" id="Layer_1" xmlns="http://www.w3.org/2000/svg" xmlns:xlink="http://www.w3.org/1999/xlink" x="0px" y="0px"
	 viewBox="0 0 378 540" style="enable-background:new 0 0 378 540;" xml:space="preserve">
<style type="text/css">
	.st0{clip-path:url(#SVGID_2_);}
	.st1{clip-path:url(#SVGID_4_);}
	.st2{clip-path:url(#SVGID_6_);}
	.st3{fill:#FFE68D;}
	.st4{fill:#EB633F;}
	.st5{fill:#E66B98;}
	.st6{clip-path:url(#SVGID_8_);}
	.st7{fill:#D3D200;}
	.st8{fill:#F6CAD4;}
	.st9{fill:#D3313B;}
	.st10{fill:#1C1B1B;}
	.st11{fill:#009495;}
	.st12{fill:#EFC200;}
	.st13{clip-path:url(#SVGID_10_);}
	.st14{clip-path:url(#SVGID_12_);}
	.st15{fill:#5AA1A1;}
	.st16{clip-path:url(#SVGID_14_);}
	.st17{clip-path:url(#SVGID_16_);}
	.st18{fill:#C8E5DC;}
	.st19{clip-path:url(#SVGID_18_);}
	.st20{clip-path:url(#SVGID_20_);}
	.st21{clip-path:url(#SVGID_22_);}
	.st22{clip-path:url(#SVGID_24_);}
	.st23{clip-path:url(#SVGID_26_);}
	.st24{clip-path:url(#SVGID_28_);}
	.st25{fill:#DF7F9C;}
	.st26{clip-path:url(#SVGID_30_);}
	.st27{clip-path:url(#SVGID_32_);}
	.st28{clip-path:url(#SVGID_34_);}
	.st29{clip-path:url(#SVGID_36_);}
	.st30{clip-path:url(#SVGID_38_);}
	.st31{clip-path:url(#SVGID_40_);}
	.st32{fill:#E62563;}
	.st33{clip-path:url(#SVGID_42_);}
	.st34{fill:#93AAC7;}
	.st35{clip-path:url(#SVGID_44_);}
	.st36{clip-path:url(#SVGID_46_);}
	.st37{clip-path:url(#SVGID_48_);}
	.st38{clip-path:url(#SVGID_50_);}
	.st39{fill:#DC3576;}
	.st40{clip-path:url(#SVGID_52_);}
	.st41{clip-path:url(#SVGID_54_);}
	.st42{clip-path:url(#SVGID_56_);}
	.st43{clip-path:url(#SVGID_58_);}
	.st44{clip-path:url(#SVGID_60_);}
	.st45{clip-path:url(#SVGID_62_);}
	.st46{clip-path:url(#SVGID_64_);}
	.st47{clip-path:url(#SVGID_66_);}
	.st48{clip-path:url(#SVGID_68_);}
	.st49{clip-path:url(#SVGID_70_);}
	.st50{fill:#FBE5EA;}
	.st51{clip-path:url(#SVGID_72_);}
	.st52{fill:#FFF2C6;}
	.st53{clip-path:url(#SVGID_74_);}
</style>
<g>
	<defs>
		<rect id="SVGID_1_" width="378" height="540"/>
	</defs>
	<clipPath id="SVGID_2_">
		<use xlink:href="#SVGID_1_"  style="overflow:visible;"/>
	</clipPath>
	<g class="st0">
		<defs>
			<rect id="SVGID_3_" width="378" height="540"/>
		</defs>
		<clipPath id="SVGID_4_">
			<use xlink:href="#SVGID_3_"  style="overflow:visible;"/>
		</clipPath>
		<g class="st1">
			<g>
				<defs>
					<rect id="SVGID_5_" x="12" y="255.3" width="539.4" height="262.3"/>
				</defs>
				<clipPath id="SVGID_6_">
					<use xlink:href="#SVGID_5_"  style="overflow:visible;"/>
				</clipPath>
				<g class="st2">
					<path class="st3" d="M107.4,394c-5,12.5-18.1,17.7-30.6,19.2c-4.8,0.6-11.5-2-16.1,0c-4.6,2-2.4,11.3-2.6,16.3
						c-0.2,3.4,2,13.7,0,16.7c-2.8,4.4-9.1,2.2-13.1,1.8c-4-0.4-10.3,2.2-12.9-1.4c-2.8-4-0.2-14.3-0.4-19.2
						c-0.4-12.9,0.2-25.8,0.4-38.7c0.4-15.5-0.4-31.3-0.4-46.8c-0.2-6.9-0.2-13.9,0.2-20.6c0.4-7.1,2.8-7.3,9.3-6.9
						c15.9,1.2,31.9-1.6,47.6,2.8c15.3,4.4,22.4,18.5,22.4,34.1C111,365.4,112.6,380.7,107.4,394z M63,341.2
						c-7.5,0.2-4.8,4.4-4.8,10.3c-0.2,6.5-1,13.7-0.8,20.2c0,3.4-1.4,12.5,1.2,14.9c2,1.8,12.5,0,14.5-0.6
						c13.1-3.4,11.3-17.7,11.3-28.4C84.4,344.6,74.3,341.2,63,341.2z"/>
				</g>
				<g class="st2">
					<path class="st4" d="M133.2,409.2c-0.4-9.7-0.2-19.4,0-29c0.2-9.1-0.4-18.3-0.6-28c0-8.1,0-15.7,0.4-23.8
						c0.2-2.6-1.6-10.5-0.2-12.5c1.8-2.6,6.9-0.6,9.5-0.6c11.1,0.8,22.4-0.2,33.5-0.4c5.8-0.2,11.5,0.2,17.1,0.4
						c2.6,0,8.5-1.6,10.5,0c2.8,2.4,1.2,11.5,1.4,14.7c0,4.6,1.8,9.5-3.6,10.5c-4.4,1-10.9-0.2-15.5-0.2c-5.2,0.2-10.5,0.4-15.5,0.2
						c-2.8,0-7.5-2-9.9,0.2c-2.4,2.4-1.2,11.1-1.2,14.1c0,3.2-0.8,10.1,1.2,12.9c1,1.4,10.5,0.2,14.3,0c5.4-0.2,11.3-1,16.7-0.2
						c5.4,1,3.8,4,3.8,9.1c0.2,3.8,2,11.1,0.2,14.3c-2,4-6,2.8-9.9,2.6c-4.6-0.4-8.5,0.4-12.9,0.6c-3.2,0-7.7-1-10.9-0.2
						c-4.4,1.2-1.8,16.3-2.2,21.2c-0.4,4.2,0.8,6.7,1.6,7.9c3.8,1,12.1,0.6,15.9,0.6c6.9-0.2,11.7,0.2,18.5-0.4
						c7.1-0.6,9.3-0.4,9.5,6.7c0,4.6,0.6,10.5-0.2,14.9c-1.2,5.4-5.4,3.4-9.9,3.2c-6.5-0.2-62.1,4.6-62.1,0.4
						C132.8,436,133.8,421.5,133.2,409.2z"/>
				</g>
				<g class="st2">
					<path class="st5" d="M305.6,315.6c5.4,0.6,4.6,2.6,5,8.1c0.6,12.9-0.6,25.6-0.4,38.5c0.4,23.6,1,47.4,0.2,70.8
						c0,3.6,1.4,11.5-0.4,13.9c-2.2,2.8-10.5,2-13.5,2c-5.8,0.4-10.1,1.4-13.3-4c-2.4-4-4.2-8.7-6.3-12.9c-5-10.7-10.1-22-14.5-32.9
						c-0.6-1.4-5.2-18.3-7.7-17.7c-0.6,0.2,0,20.8,0,21.6c0.2,11.5,0.6,23,0.4,34.5c-0.2,4.4,1.4,10.3-4,11.7
						c-3.8,1-10.9-0.4-14.9-0.4c-4.8-0.2-7.3,0-7.9-4.6c-0.6-6,0.6-12.9,0.4-19c-0.6-25.2,0.8-50.6-0.2-76c-0.2-5.8,0.4-11.5,0-17.3
						c-0.2-3.8-2-10.3,0.2-13.9c2.6-4.2,7.7-2.2,11.9-2.2c5,0,11.5-2.4,15.7,1.6c3.4,3.2,3.2,9.1,4.6,13.5c2.2,6.5,6,12.5,8.9,18.8
						c1,2.4,12.1,31.9,13.5,31.5c2-0.4,0-32.7,0-36.1c0-2.4-1.6-29.8,2-29.8C291.9,315,299.1,314.8,305.6,315.6z"/>
				</g>
			</g>
		</g>
		<g class="st1">
			<g>
				<defs>
					<rect id="SVGID_7_" x="15.6" y="134.2" width="545" height="262.3"/>
				</defs>
				<clipPath id="SVGID_8_">
					<use xlink:href="#SVGID_7_"  style="overflow:visible;"/>
				</clipPath>
				<g class="st6">
					<path class="st7" d="M110.4,194.5c2.6,0.2,7.5-1.4,9.9,0.6c3.4,3,0.8,11.9,0.6,15.9c-0.6,13.9,0.2,27.6,0.2,41.3
						c0,13.9,0,27.8,0.2,41.5c0,5.6,0,11.1-0.2,16.7c0,3.2,1.8,11.7,0.4,14.5c-2,3.4-19.2,3.4-23.4,2c-4.4-1.6-3.6-4-3.2-8.3
						c0.4-7.5,0-14.7-0.2-22.2c0-5.6,0-11.3,0.2-16.9c0.2-5,0.8-7.7-4.8-8.5c-3.6-0.4-8.1,0.6-11.9,0.4c-2.8,0-12.5-1.2-14.7,0.2
						c-2.6,1.8-1.6,10.1-1.6,13.5c-0.2,5.8,0,11.5,0,17.3c0,5.6,0.4,11.3,0.4,16.9c0,5-0.4,6.9-5,7.5c-5,0.8-11.5,0.6-16.5-0.2
						c-5.8-0.8-5-3.8-4.8-9.1c1-26.8-1.6-53.8-0.8-80.7c0.4-11.9,0.4-23.8,0.6-35.7c0-3-0.6-5.6,2.4-7.3c3.4-2,14.1-0.6,18.1-0.2
						c6.9,0.8,6.3,4.2,6.3,10.3c-0.2,5.6-0.2,11.1-0.2,16.7c-0.2,6.5,0,13.3-0.4,19.8c-0.2,7.3,4,6.3,10.3,6.3h17.1
						c7.5-0.2,5.2-5.2,4.8-11.1c-0.8-13.3,0.8-26.8,0.8-39.9C94.9,191.1,107.4,194.5,110.4,194.5z"/>
				</g>
				<g class="st6">
					<path class="st8" d="M193.9,193.5c8.9,1,8.3,10.5,10.1,17.5c4.4,16.7,9.1,33.5,13.3,50.2c4.4,16.7,9.1,33.9,13.1,50.8
						c1.2,4.6,6.9,12.3,1.2,14.9c-2.6,1.4-8.9-1-12.1-0.8c-2.6,0-7.5,2-9.9,0.4c-2.8-2-4.6-11.7-5.2-15.1c-1-4.2-0.8-12.3-5.4-14.3
						c-2-0.8-6.7,0.4-8.9,0.2c-4,0-8.1,0-12.1-0.4c-9.3-0.4-8.1,4.8-10.1,12.3c-1,3.8-2,13.5-4.6,16.3c-2.4,2.6-4.4,1.2-7.7,1
						c-4-0.2-8.3,0.2-12.5,0.2c-9.3-0.4-5-6.7-3.2-13.3c2.6-9.5,4.4-19.4,7.3-28.8c4.4-15.5,9.5-31.5,12.7-47c0.8-3,2.4-5.8,3-9.3
						c0.8-5.4,2.4-9.9,4-14.9c0.8-2.6,2.2-19.2,6.3-19.2C180,194.3,187,192.7,193.9,193.5z M190.5,255.4c-0.4-2-2-13.5-5-13.5
						c-0.8,0-7.1,25-7.3,26.6c-1,4.6-0.8,4,4,4c2.2,0,11.9,1,12.5,0C196.1,270.7,190.9,257.6,190.5,255.4z"/>
				</g>
				<g class="st6">
					<path class="st9" d="M326.4,273c-5,12.5-18.1,17.7-30.6,19.2c-4.8,0.6-11.5-2-16.1,0c-4.6,2-2.4,11.3-2.6,16.3
						c-0.2,3.4,2,13.7,0,16.7c-2.8,4.4-9.1,2.2-13.1,1.8c-4-0.4-10.3,2.2-12.9-1.4c-2.8-4-0.2-14.3-0.4-19.2
						c-0.4-12.9,0.2-25.8,0.4-38.7c0.4-15.5-0.4-31.3-0.4-46.8c-0.2-6.9-0.2-13.9,0.2-20.6c0.4-7.1,2.8-7.3,9.3-6.9
						c15.9,1.2,31.9-1.6,47.6,2.8c15.3,4.4,22.4,18.5,22.4,34.1C330,244.3,331.6,259.6,326.4,273z M282,220.1
						c-7.5,0.2-4.8,4.4-4.8,10.3c-0.2,6.5-1,13.7-0.8,20.2c0,3.4-1.4,12.5,1.2,14.9c2,1.8,12.5,0,14.5-0.6
						c13.1-3.4,11.3-17.7,11.3-28.4C303.4,223.6,293.3,220.1,282,220.1z"/>
				</g>
			</g>
		</g>
	</g>
	<g class="st0">
		<path class="st10" d="M46.7,476h-1.5c-0.1,0-0.2,0-0.2,0h0c0,0.3,0,0.6,0,1c0,0.4,0,0.9,0,1.3c0,0.3,0,0.6,0,0.8
			c0,0.1,0,0.2,0,0.4s0,0.3,0,0.4c0,0.5,0,0.9,0,1.4c0,0.5,0,0.9,0,1.4c0,0.2,0,0.4,0,0.6s0,0.4,0,0.6v0.1c0,0.2-0.2,0.6-0.5,0.6
			c-0.5,0-0.5-1-0.5-1.4V483c0-0.3,0-0.7,0-1c0-0.3,0-0.7,0-1v-2.3c0-0.4,0-0.8,0-1.3c0-0.4,0-0.9,0-1.3v-0.1c-0.3,0-0.6,0-0.8,0
			c-0.3,0-0.7,0-1,0c-0.4,0-0.6-0.1-0.6-0.6c0-0.4,0.4-0.4,0.7-0.4c0.8,0,1.5,0,2.3,0h2.3c0.3,0,0.5,0.2,0.5,0.5
			C47.3,475.8,47,476,46.7,476z"/>
		<path class="st10" d="M51.7,475.8v1.3c0,0.2,0,0.4,0,0.7v1.1c0,0.2,0,0.1,0,0.3h2.5c0.5,0,0.7,0,1.2,0v-0.5c0-0.1,0-0.3,0-0.4
			c0-0.1,0-0.3,0-0.5c0-0.4,0-0.7,0-1.1c0-0.3,0-0.8,0-1.1c0-0.3,0-0.6,0.4-0.6c0.4,0,0.5,0.3,0.5,0.6c0,0.2,0,0.4,0,0.6
			s0,0.4,0,0.5c0,0.1,0,0.3,0,0.4c0,0.1,0,0.3,0,0.4c0,0.4,0,0.8,0,1.2c0,0.4,0,0.8,0,1.2v2.3c0,0.1,0,0.2,0,0.3c0,0.1,0,0.2,0,0.3
			c0,0.1,0,0.2,0,0.3c0,0.1,0,0.1,0,0.2s0,0.1,0,0.2c0,0.4,0,1.2-0.5,1.2c-0.4,0-0.4-0.4-0.4-0.7v-2c0-0.9,0-1.6,0-1.7h-0.2
			c-0.1,0-0.3,0-0.4,0h-1.5c-0.1,0-0.2,0-0.3,0c-0.1,0-0.2,0-0.3,0c-0.1,0-0.3,0-0.4,0c-0.3,0-0.6-0.1-0.6,0.1c0,0.1,0,0.3,0,0.4
			c0,0.1,0,0.3,0,0.4c0,0.5,0,1,0,1.5v1.5c0,0.3-0.2,0.6-0.5,0.6c-0.5,0-0.5-0.6-0.4-1c0,0,0-0.1,0-0.2c0-1.1,0-2.2,0-3.3
			c0-1,0-2.3,0-3.3v-1.3c0-0.2,0.1-0.5,0.4-0.5C51.7,475,51.7,475.5,51.7,475.8z"/>
		<path class="st10" d="M61.3,475l1.9,0h1.4c0.4,0,0.6,0,0.6,0.5c0,0.5-0.6,0.5-0.9,0.5c-0.1,0-0.3,0-0.4,0c-0.1,0-0.2,0-0.3,0h-2.1
			c0,0.2,0,0.3,0,0.5c0,0.2,0,0.4,0,0.7c0,0.1,0,0.3,0,0.4c0,0.1,0,0.3,0,0.3c0,0.1,0,0.2,0,0.3c0,0.1,0,0.2,0,0.3
			c0,0.1,0,0.3,0,0.4s0,0.2,0,0.3c0,0,0,0,0,0l0,0h0.8c0.3,0,0.5,0,0.8,0c0.3,0,0.5,0,0.8,0c0.4,0,0.6,0.1,0.6,0.6
			c0,0.4-0.4,0.5-0.8,0.5c-0.2,0-0.4,0-0.5,0c-0.1,0-0.2,0-0.2,0c-0.3,0-0.5,0-0.8,0h-0.7c0,0,0,0.3,0,0.4v0.1c0,0.1,0,0.3,0,0.4
			c0,0.1,0,0.3,0,0.4l0,1.6v0.1c0,0,0,0.1,0,0.1v0c0,0,0,0.1,0,0.2c0.3,0,0.8,0,1.3,0c0.4,0,0.8,0,1.1,0h0.5c0.3,0,0.8,0,0.8,0.5
			c0,0.4-0.3,0.5-0.6,0.5H63c-0.5,0-1,0-1.6,0c-1,0-1-0.3-1-1.1c0-0.1,0-0.2,0-0.4c0-0.3,0-0.6,0-0.8c0-0.3,0-0.5,0-0.8
			c0-0.2,0-0.3,0-0.5c0-0.1,0-0.3,0-0.5c0-0.3,0-0.6,0-0.8c0-0.2,0-0.6,0-0.8c0-0.1,0-0.2,0-0.3c0-0.1,0-0.2,0-0.4
			c0-0.6,0-1.1,0-1.7c0-0.2,0-0.4,0-0.6c0-0.1,0-0.3,0-0.5C60.5,475,61,475,61.3,475z"/>
		<path class="st10" d="M80,477.6c-0.4,0-0.5-0.3-0.6-0.6c-0.1-0.2-0.1-0.5-0.4-0.7c-0.5-0.4-1.2-0.4-1.8-0.4
			c-1.3,0-1.8,0.7-1.8,1.9v1.6c0,0.2,0,0.4,0,0.6c0,0.2,0,0.4,0,0.6c0,1.6,0,3.1,2,3.1c0.7,0,1.3,0,1.8-0.5c0.3-0.2,0.3-0.7,0.4-1
			c0.1-0.5,0.1-0.9,0.6-0.9c0.4,0,0.4,0.5,0.4,0.7c0,0.4-0.2,1.1-0.3,1.4v0c-0.6,1.2-2,1.3-3.2,1.3c-0.3,0-0.7-0.1-1-0.2l0,0
			c-0.3-0.1-0.7-0.3-1-0.5c-0.5-0.4-0.8-1.3-0.8-1.9c0-0.3,0-0.7,0-1.1c0-0.3,0-0.8,0-1c0-0.3,0-0.7,0-1c0-0.3,0-0.7,0-1
			c0-1.8,1-2.8,2.8-2.9h0.2c1.3,0,3.1,0.5,3.1,2.2C80.5,477.4,80.3,477.6,80,477.6z"/>
		<path class="st10" d="M84.5,484.4L84.5,484.4c-0.1-0.1-0.1-0.3-0.1-0.4c0-1.4,0-2.8,0-4.2c0-1.4,0-2.8,0-4.2
			c0-0.4,0.2-0.6,0.6-0.6c0.3,0,0.5,0,0.8,0c0.3,0,0.6,0,0.8,0c0.9,0,1.9,0,2.5,0.9c0.4,0.5,0.4,1.4,0.4,2.2v0.9
			c0,0.8-0.1,1.7-0.8,2.2c-0.2,0.1-0.5,0.3-0.7,0.4l0.1,0.1l0.7,1.3l0.4,0.7c0,0.1,0.1,0.2,0.1,0.3c0,0.2-0.2,0.5-0.4,0.5
			c-0.3,0-0.3-0.1-0.3-0.1c-0.1-0.1-0.2-0.2-0.3-0.4l0-0.1l-0.1-0.3v0l-0.7-1.4v0c-0.1-0.2-0.2-0.4-0.3-0.6c0,0-0.1,0-0.2,0
			c-0.1,0-0.2,0-0.3,0c-0.2,0-0.5,0-0.7,0h-0.6c0,0,0,0,0,0c0,0.2,0,0.6,0,0.9c0,0.1,0,0.3,0,0.3c0,0.1,0,0.1,0,0.1
			c0,0.1,0,0.2,0,0.3v0.1c0,0.4,0,1.1-0.4,1.1C84.8,484.6,84.6,484.5,84.5,484.4z M86.2,476c-0.1,0-0.3,0-0.4,0h-0.1
			c-0.1,0-0.3,0-0.4,0h0c0,0.2,0,0.5,0,0.7c0,0.3,0,0.6,0,0.9c0,0.3,0,0.5,0,0.8v1.3c0,0.4,0,0.6,0,1.1h1.3c1,0,1.9-0.2,1.9-1.4
			c0-0.1,0-0.3,0-0.4c0-0.4,0-1,0-1.1v0c0.1-1.5-0.6-1.8-2-1.8C86.5,476,86.4,476,86.2,476z"/>
		<path class="st10" d="M94.4,475l1.9,0h1.4c0.4,0,0.6,0,0.6,0.5c0,0.5-0.6,0.5-0.9,0.5c-0.1,0-0.3,0-0.4,0c-0.1,0-0.2,0-0.3,0h-2.1
			c0,0.2,0,0.3,0,0.5c0,0.2,0,0.4,0,0.7c0,0.1,0,0.3,0,0.4c0,0.1,0,0.3,0,0.3c0,0.1,0,0.2,0,0.3c0,0.1,0,0.2,0,0.3
			c0,0.1,0,0.3,0,0.4s0,0.2,0,0.3c0,0,0,0,0,0l0,0h0.8c0.3,0,0.5,0,0.8,0c0.3,0,0.5,0,0.8,0c0.4,0,0.6,0.1,0.6,0.6
			c0,0.4-0.4,0.5-0.8,0.5c-0.2,0-0.4,0-0.5,0c-0.1,0-0.2,0-0.2,0c-0.3,0-0.5,0-0.8,0h-0.7c0,0,0,0.3,0,0.4v0.1c0,0.1,0,0.3,0,0.4
			c0,0.1,0,0.3,0,0.4l0,1.6v0.1c0,0,0,0.1,0,0.1v0c0,0,0,0.1,0,0.2c0.3,0,0.8,0,1.3,0c0.4,0,0.8,0,1.1,0h0.5c0.3,0,0.8,0,0.8,0.5
			c0,0.4-0.3,0.5-0.6,0.5H96c-0.5,0-1,0-1.6,0c-1,0-1-0.3-1-1.1c0-0.1,0-0.2,0-0.4c0-0.3,0-0.6,0-0.8c0-0.3,0-0.5,0-0.8
			c0-0.2,0-0.3,0-0.5c0-0.1,0-0.3,0-0.5c0-0.3,0-0.6,0-0.8c0-0.2,0-0.6,0-0.8c0-0.1,0-0.2,0-0.3c0-0.1,0-0.2,0-0.4
			c0-0.6,0-1.1,0-1.7c0-0.2,0-0.4,0-0.6c0-0.1,0-0.3,0-0.5C93.5,475,94.1,475,94.4,475z"/>
		<path class="st10" d="M106,482h-1.5c-0.1,0-0.2,0-0.3,0c-0.1,0-0.2,0-0.3,0c-0.2,0-0.4,0-0.5,0l-0.4,0l-0.2,0.6
			c-0.1,0.2-0.1,0.5-0.3,0.9l0,0c0,0.2-0.1,0.4-0.2,0.5v0.1c0,0.3-0.1,0.5-0.5,0.5c-0.3,0-0.5-0.2-0.5-0.5c0-0.1,0.1-0.4,0.1-0.5
			l0,0c0,0,0-0.1,0-0.2l0.1-0.4c0.1-0.4,0.3-0.8,0.4-1.2l0.2-0.8l0.3-0.8c0.2-0.6,0.4-1.3,0.6-1.9c0-0.2,0.1-0.3,0.1-0.5
			c0.1-0.4,0.2-0.9,0.4-1.3l0.1-0.3c0-0.4,0.3-1.1,0.8-1.1c0.5,0,0.7,0.6,0.7,1c0.2,0.9,0.5,1.9,0.8,2.7c0.2,0.5,1.6,5.3,1.6,5.4
			c0,0.3-0.2,0.5-0.5,0.5c-0.4,0-0.7-1-0.9-1.7c-0.1-0.2-0.1-0.5-0.2-0.5L106,482z M103.5,480c-0.1,0.4-0.2,0.7-0.3,1.1
			c0.4,0,1.1,0,1.7,0c0.5,0,0.7,0,0.7,0c-0.1-0.3-0.2-0.6-0.2-0.8c-0.1-0.3-0.1-0.6-0.2-0.8c-0.2-0.5-0.4-1.1-0.6-1.7l0,0
			c0-0.1-0.1-0.2-0.1-0.3c0-0.1-0.1-0.3-0.1-0.4l0-0.1c-0.1,0.4-0.3,0.8-0.4,1.2h0c-0.2,0.7-0.4,1.4-0.5,1.7c0,0,0,0,0,0L103.5,480z
			"/>
	</g>
	<g class="st0">
		<path class="st10" d="M114.8,476h-1.5c-0.1,0-0.2,0-0.2,0h0c0,0.3,0,0.6,0,1c0,0.4,0,0.9,0,1.3c0,0.3,0,0.6,0,0.8
			c0,0.1,0,0.2,0,0.4s0,0.3,0,0.4c0,0.5,0,0.9,0,1.4c0,0.5,0,0.9,0,1.4c0,0.2,0,0.4,0,0.6s0,0.4,0,0.6v0.1c0,0.2-0.2,0.6-0.5,0.6
			c-0.5,0-0.5-1-0.5-1.4V483c0-0.3,0-0.7,0-1c0-0.3,0-0.7,0-1v-2.3c0-0.4,0-0.8,0-1.3c0-0.4,0-0.9,0-1.3v-0.1c-0.3,0-0.6,0-0.8,0
			c-0.3,0-0.7,0-1,0c-0.4,0-0.6-0.1-0.6-0.6c0-0.4,0.4-0.4,0.7-0.4c0.8,0,1.5,0,2.3,0h2.3c0.3,0,0.5,0.2,0.5,0.5
			C115.4,475.8,115.1,476,114.8,476z"/>
	</g>
	<g class="st0">
		<path class="st10" d="M119.7,475.2c0.1,0.1,0.1,0.2,0.1,0.3c0,0.2,0,0.4,0,0.6c0,0.2,0,0.4,0,0.6c0,0.3,0,0.6,0,0.9
			c0,0.3,0,0.6,0,0.9v5.4c0,0.2-0.1,0.8-0.4,0.8c-0.4,0-0.5-0.4-0.5-0.7c0-0.3,0-0.7,0-1c0-0.3,0-0.6,0-1c0-0.5,0-0.9,0-1.4
			c0-0.4,0-1,0-1.4c0-0.4,0-0.8,0-1.2c0-0.3,0-0.9,0-1.2c0-0.1,0-0.2,0-0.4c0-0.1,0-0.3,0-0.4V476c0-0.3,0-1,0.5-1
			C119.4,475,119.6,475.1,119.7,475.2z"/>
		<path class="st10" d="M126.5,482.3c0.1-0.2,0.1-0.5,0.2-0.7c0.1-0.3,0.2-0.6,0.3-1v0l0.1-0.5h0l0.1-0.4l0.1-0.3l0,0l0-0.2l0.1-0.2
			l0.1-0.1l0,0c0,0,0,0,0-0.1l0.2-0.9c0.1-0.2,0.2-0.5,0.3-0.8c0.1-0.3,0.2-0.7,0.3-1.1c0-0.2,0.3-0.9,0.7-0.9s0.4,0.4,0.4,0.6
			c0,0.1,0,0.2,0,0.3c-0.1,0.2-0.2,0.5-0.3,0.7c0,0.1-0.1,0.2-0.1,0.5c0,0-0.1,0.4-0.2,0.7l-0.1,0.3l0,0l-0.3,1.2
			c-0.2,0.7-0.5,1.8-0.8,2.6c0,0.1,0,0.2-0.1,0.3l-0.1,0.3l-0.1,0.3v0c-0.1,0.2-0.1,0.3-0.2,0.5h0c0,0.3-0.1,0.7-0.3,1v0
			c-0.1,0.2-0.3,0.4-0.5,0.4c0,0-0.1,0-0.2,0c-0.3-0.1-0.4-0.4-0.5-0.6c-0.1-0.3-0.2-0.6-0.3-0.9c-0.1-0.3-0.2-0.6-0.3-0.8l0,0
			l-0.1-0.2c-0.2-0.8-0.5-1.8-0.8-2.5c-0.2-0.4-0.4-1.1-0.4-1.5l0-0.1l0,0l0,0.1l-0.1-0.1v0l0-0.1c-0.2-0.6-0.4-1.3-0.6-1.9
			c0-0.1-0.1-0.2-0.1-0.4c0-0.2,0.1-0.5,0.4-0.5c0.2,0,0.4,0.2,0.6,0.3c0,0.5,0.2,1,0.4,1.5c0.1,0.2,0.2,0.5,0.3,0.7l0.4,1.3
			c0,0.2,0.1,0.3,0.1,0.4l0.2,0.5c0.1,0.3,0.2,0.5,0.3,0.8c0.1,0.3,0.2,0.6,0.3,0.9s0.1,0.5,0.2,0.8c0.1,0.3,0.1,0.1,0.1,0.4
			L126.5,482.3z"/>
		<path class="st10" d="M133.7,475c0.2,0,0.5,0,0.7,0c0.2,0,0.4,0,0.7,0c0.1,0,0.3,0,0.4,0c0.1,0,0.3,0,0.4,0h1.2
			c0.2,0,0.5,0.2,0.5,0.4c0,0.3-0.4,0.6-0.7,0.6c-0.2,0-0.3,0-0.4,0c-0.1,0-0.3,0-0.4,0c-0.1,0-0.3,0-0.5,0c-0.3,0-0.9,0-1.2,0H134
			v0.2c0,0.2,0,0.4,0,0.5c0,0.2,0,0.4,0,0.5c0,0,0,0,0,0.1c0,0.2,0,0.4,0,0.6v0.2c0,0.2,0,0.4,0,0.6c0,0.2,0,0.2,0,0.4
			c0.1,0,0.3,0,0.4,0c0.1,0,0.2,0,0.2,0c0,0,0.1,0,0.2,0c0.2,0,0.4,0,0.6,0c0.1,0,0.2,0,0.3,0c0.1,0,0.2,0,0.3,0c0.1,0,0.2,0,0.4,0
			c0.4,0,0.8,0.1,0.8,0.6c0,0.5-0.7,0.5-1,0.5H136c-0.3,0-0.6,0-0.9,0c-0.2,0-0.6,0-0.8,0c-0.1,0-0.2,0-0.2,0c0,0-0.1,0-0.1,0
			c0.1,0,0.1,0.1,0.1,0.1c0,0.1,0,0.3,0,0.4v0.4c0,0.4,0,0.8,0,1.2c0,0.4,0,0.8,0,1.2v0c0.2,0,0.4,0,0.6,0c0.4,0,0.9,0,1.1,0
			c0.1,0,0.4,0,0.5,0c0.2,0,0.3,0,0.5,0h0.1c0.2,0,0.7,0,0.8,0.1c0.1,0.1,0.3,0.3,0.3,0.5c0,0.4-0.7,0.4-1.1,0.3h-0.1
			c-0.5,0-1,0-1.5,0c-0.5,0-1,0-1.5,0c-0.7,0-0.7-0.4-0.7-0.9v-0.1c0-0.1,0-0.3,0-0.4v-0.4c0-0.7,0-1.3,0-2c0-0.5,0-1.4,0-1.9
			c0-0.1,0-0.2,0-0.4s0-0.3,0-0.4c0-0.2,0-0.5,0-0.7c0-0.2,0-0.6,0-0.8c0-0.4,0-0.7,0-1.1C133,475.1,133.3,475,133.7,475z"/>
	</g>
	<g class="st0">
		<path class="st10" d="M148,475l1.9,0h1.4c0.4,0,0.6,0,0.6,0.5c0,0.5-0.6,0.5-0.9,0.5c-0.1,0-0.3,0-0.4,0c-0.1,0-0.2,0-0.3,0h-2.1
			c0,0.2,0,0.3,0,0.5c0,0.2,0,0.4,0,0.7c0,0.1,0,0.3,0,0.4c0,0.1,0,0.3,0,0.3c0,0.1,0,0.2,0,0.3c0,0.1,0,0.2,0,0.3
			c0,0.1,0,0.3,0,0.4s0,0.2,0,0.3c0,0,0,0,0,0l0,0h0.8c0.3,0,0.5,0,0.8,0c0.3,0,0.5,0,0.8,0c0.4,0,0.6,0.1,0.6,0.6
			c0,0.4-0.4,0.5-0.8,0.5c-0.2,0-0.4,0-0.5,0c-0.1,0-0.2,0-0.2,0c-0.3,0-0.5,0-0.8,0h-0.7c0,0,0,0.3,0,0.4v0.1c0,0.1,0,0.3,0,0.4
			c0,0.1,0,0.3,0,0.4l0,1.6v0.1c0,0,0,0.1,0,0.1v0c0,0,0,0.1,0,0.2c0.3,0,0.8,0,1.3,0c0.4,0,0.8,0,1.1,0h0.5c0.3,0,0.8,0,0.8,0.5
			c0,0.4-0.3,0.5-0.6,0.5h-1.6c-0.5,0-1,0-1.6,0c-1,0-1-0.3-1-1.1c0-0.1,0-0.2,0-0.4c0-0.3,0-0.6,0-0.8c0-0.3,0-0.5,0-0.8
			c0-0.2,0-0.3,0-0.5c0-0.1,0-0.3,0-0.5c0-0.3,0-0.6,0-0.8c0-0.2,0-0.6,0-0.8c0-0.1,0-0.2,0-0.3c0-0.1,0-0.2,0-0.4
			c0-0.6,0-1.1,0-1.7c0-0.2,0-0.4,0-0.6c0-0.1,0-0.3,0-0.5C147.2,475,147.7,475,148,475z"/>
	</g>
	<g class="st0">
		<path class="st10" d="M159.6,483.6C159.6,483.6,159.5,483.6,159.6,483.6c-0.1-0.4-0.4-0.8-0.6-1.2c-0.1-0.1-0.1-0.3-0.2-0.4
			c0-0.1-0.2-0.4-0.3-0.6h0c-0.1-0.1-0.1-0.2-0.1-0.3c-0.2-0.4-0.4-0.7-0.5-1l-0.3-0.6c-0.3-0.5-0.6-1.2-0.9-1.7v0c0,0,0-0.1,0-0.1
			l-0.1-0.1c0,0.6,0,1.2,0,1.8v4.4c0,0.1,0,0.3,0,0.3c0,0.3-0.2,0.7-0.5,0.7c-0.5,0-0.5-0.7-0.5-0.9c0-1.1,0-2.2,0-3.2v-3.2
			c0-0.1,0-0.3,0-0.4c0-0.2,0-0.4,0-0.6v-0.2c0-0.4-0.1-1.1,0.4-1.1c0.4,0,0.6,0.4,0.7,0.8l0.1,0.2l0.3,0.6l0.7,1.3
			c0,0.1,0.1,0.2,0.1,0.3v0l0.1,0.3l0,0c0.2,0.4,0.4,0.9,0.7,1.3s0.4,0.8,0.6,1.2c0.2,0.3,0.3,0.7,0.5,0.9c0,0.1,0.1,0.2,0.1,0.3
			v-0.8c0-0.5,0-1.1,0-1.6c0-0.4,0-1.2,0-1.7v-2c0,0,0,0,0-0.1c0-0.1,0-0.1,0-0.3c0-0.3,0.3-0.6,0.6-0.6c0.4,0,0.4,0.7,0.4,1.1v0.1
			c0,0.9,0,1.7,0,2.6c0,0.9,0,1.7,0,2.6v2.9c0,0.2-0.1,0.5-0.4,0.5C159.9,484.6,159.7,484,159.6,483.6z"/>
	</g>
	<g class="st0">
		<path class="st10" d="M169.6,476H168c-0.1,0-0.2,0-0.2,0h0c0,0.3,0,0.6,0,1c0,0.4,0,0.9,0,1.3c0,0.3,0,0.6,0,0.8
			c0,0.1,0,0.2,0,0.4s0,0.3,0,0.4c0,0.5,0,0.9,0,1.4c0,0.5,0,0.9,0,1.4c0,0.2,0,0.4,0,0.6s0,0.4,0,0.6v0.1c0,0.2-0.2,0.6-0.5,0.6
			c-0.5,0-0.5-1-0.5-1.4V483c0-0.3,0-0.7,0-1c0-0.3,0-0.7,0-1v-2.3c0-0.4,0-0.8,0-1.3c0-0.4,0-0.9,0-1.3v-0.1c-0.3,0-0.6,0-0.8,0
			c-0.3,0-0.7,0-1,0c-0.4,0-0.6-0.1-0.6-0.6c0-0.4,0.4-0.4,0.7-0.4c0.8,0,1.5,0,2.3,0h2.3c0.3,0,0.5,0.2,0.5,0.5
			C170.1,475.8,169.8,476,169.6,476z"/>
	</g>
	<g class="st0">
		<path class="st10" d="M173.6,484.4L173.6,484.4c-0.1-0.1-0.1-0.3-0.1-0.4c0-1.4,0-2.8,0-4.2c0-1.4,0-2.8,0-4.2
			c0-0.4,0.2-0.6,0.6-0.6c0.3,0,0.5,0,0.8,0c0.3,0,0.6,0,0.8,0c0.9,0,1.9,0,2.5,0.9c0.4,0.5,0.4,1.4,0.4,2.2v0.9
			c0,0.8-0.1,1.7-0.8,2.2c-0.2,0.1-0.5,0.3-0.7,0.4l0.1,0.1l0.7,1.3l0.4,0.7c0,0.1,0.1,0.2,0.1,0.3c0,0.2-0.2,0.5-0.4,0.5
			c-0.3,0-0.3-0.1-0.3-0.1c-0.1-0.1-0.2-0.2-0.3-0.4l0-0.1l-0.1-0.3v0l-0.7-1.4v0c-0.1-0.2-0.2-0.4-0.3-0.6c0,0-0.1,0-0.2,0
			c-0.1,0-0.2,0-0.3,0c-0.2,0-0.5,0-0.7,0h-0.6c0,0,0,0,0,0c0,0.2,0,0.6,0,0.9c0,0.1,0,0.3,0,0.3c0,0.1,0,0.1,0,0.1
			c0,0.1,0,0.2,0,0.3v0.1c0,0.4,0,1.1-0.4,1.1C173.9,484.6,173.7,484.5,173.6,484.4z M175.3,476c-0.1,0-0.3,0-0.4,0h-0.1
			c-0.1,0-0.3,0-0.4,0h0c0,0.2,0,0.5,0,0.7c0,0.3,0,0.6,0,0.9c0,0.3,0,0.5,0,0.8v1.3c0,0.4,0,0.6,0,1.1h1.3c1,0,1.9-0.2,1.9-1.4
			c0-0.1,0-0.3,0-0.4c0-0.4,0-1,0-1.1v0c0.1-1.5-0.6-1.8-2-1.8C175.6,476,175.5,476,175.3,476z"/>
		<path class="st10" d="M183.5,475l1.9,0h1.4c0.4,0,0.6,0,0.6,0.5c0,0.5-0.6,0.5-0.9,0.5c-0.1,0-0.3,0-0.4,0c-0.1,0-0.2,0-0.3,0
			h-2.1c0,0.2,0,0.3,0,0.5c0,0.2,0,0.4,0,0.7c0,0.1,0,0.3,0,0.4c0,0.1,0,0.3,0,0.3c0,0.1,0,0.2,0,0.3c0,0.1,0,0.2,0,0.3
			c0,0.1,0,0.3,0,0.4s0,0.2,0,0.3c0,0,0,0,0,0l0,0h0.8c0.3,0,0.5,0,0.8,0c0.3,0,0.5,0,0.8,0c0.4,0,0.6,0.1,0.6,0.6
			c0,0.4-0.4,0.5-0.8,0.5c-0.2,0-0.4,0-0.5,0c-0.1,0-0.2,0-0.2,0c-0.3,0-0.5,0-0.8,0h-0.7c0,0,0,0.3,0,0.4v0.1c0,0.1,0,0.3,0,0.4
			c0,0.1,0,0.3,0,0.4l0,1.6v0.1c0,0,0,0.1,0,0.1v0c0,0,0,0.1,0,0.2c0.3,0,0.8,0,1.3,0c0.4,0,0.8,0,1.1,0h0.5c0.3,0,0.8,0,0.8,0.5
			c0,0.4-0.3,0.5-0.6,0.5h-1.6c-0.5,0-1,0-1.6,0c-1,0-1-0.3-1-1.1c0-0.1,0-0.2,0-0.4c0-0.3,0-0.6,0-0.8c0-0.3,0-0.5,0-0.8
			c0-0.2,0-0.3,0-0.5c0-0.1,0-0.3,0-0.5c0-0.3,0-0.6,0-0.8c0-0.2,0-0.6,0-0.8c0-0.1,0-0.2,0-0.3c0-0.1,0-0.2,0-0.4
			c0-0.6,0-1.1,0-1.7c0-0.2,0-0.4,0-0.6c0-0.1,0-0.3,0-0.5C182.6,475,183.2,475,183.5,475z"/>
		<path class="st10" d="M193.4,481.8c-0.2,0-0.4,0-0.6,0c-0.2,0-0.3,0-0.5,0c-0.1,0-0.2,0-0.3,0h0c0,0,0,0.1,0,0.1v0
			c0,0.4,0,0.7,0,1.1v1.1c0,0.2-0.2,0.5-0.5,0.5c-0.3,0-0.5-0.4-0.5-0.7c0-0.4,0-0.8,0-1.2c0-0.3,0-0.9,0-1.2c0-0.8,0-1.6,0-2.4
			v-2.4c0-0.2,0-0.4,0-0.5c0-0.2,0-0.4,0-0.6c0-0.5,0.2-0.7,0.7-0.7c0.2,0,0.3,0,0.5,0s0.4,0,0.6,0c0.1,0,0.3,0,0.4,0
			c2.2,0,3,0.6,3,2.7v0.5c0,0.2,0,0.4,0,0.6c0,0.8,0,1.9-0.8,2.4C194.9,481.6,194.1,481.8,193.4,481.8z M192,476c0,0.2,0,0.4,0,0.6
			v4.2h0.1c0.3,0,0.5,0,0.8,0c0.3,0,0.5,0,0.8,0c0.2,0,0.6,0,0.7-0.1c0.4-0.2,0.7-0.4,0.7-0.8c0.1-0.7,0.1-1.5,0.1-2.2v-0.3
			c0-1-0.5-1.4-1.6-1.4H192z"/>
		<path class="st10" d="M199.6,484v-6.5c0-0.2,0-0.3,0-0.4c0-0.1,0-0.3,0-0.4c0-0.2,0-0.3,0-0.5c0-0.2,0-0.4,0-0.5
			c0-0.8,0.5-0.7,1.1-0.7h1.2c0.5,0,1,0,1.6,0.2c0.6,0.2,1,0.7,1.2,1.3c0.1,0.4,0.1,0.7,0.1,1.1c0,0.1,0,0.2,0,0.3
			c0,0.2,0,0.3,0,0.5c0,0.2,0,0.4,0,0.6c0,0.9-0.1,2-1.1,2.4l0,0c-0.2,0.1-0.3,0.1-0.4,0.1c0,0.1,0.1,0.2,0.1,0.3
			c0.1,0.1,0.3,0.7,0.3,0.7c0,0,0,0.1,0,0.1c0,0,0.1,0.2,0.1,0.2c0,0,0.1,0.1,0.2,0.3c0.2,0.3,0.4,0.7,0.4,1c0,0.3-0.1,0.4-0.4,0.4
			c-0.1,0-0.1,0-0.2,0l0,0c-0.3-0.1-0.4-0.4-0.5-0.6c0-0.1-0.1-0.3-0.3-0.5c-0.1-0.2-0.2-0.4-0.3-0.7v0l-0.2-0.4l0,0
			c-0.1-0.1-0.1-0.2-0.1-0.3c-0.1-0.2-0.1-0.4-0.3-0.4c-0.3,0-0.6,0-0.9,0h-0.7c0,0.1,0,0.1,0,0.1c0,0.3,0,0.7,0,1
			c0,0.2,0,0.3,0,0.5v0.2c0,0.4,0.1,1.1-0.5,1.1C199.7,484.6,199.6,484.3,199.6,484z M202.4,476c-0.1,0-0.3,0-0.4,0
			c-0.1,0-0.3,0-0.4,0s-0.3,0-0.4,0c-0.1,0-0.3,0-0.4,0h-0.3c0,0,0,0.1,0,0.1c0,0.1,0,0.2,0,0.3c0,0.3,0,0.6,0,0.8v0.8
			c0,0.4,0,0.7,0,1c0,0.3,0,0.7,0,1c0,0.3,0,0.4,0,0.7h0.2c0.3,0,0.6,0,0.9,0h0.4c1.2,0,1.7-0.4,1.7-1.6v-0.9c0-0.3,0-0.6,0-0.9
			C203.8,476.5,203.2,476,202.4,476z"/>
		<path class="st10" d="M209.3,475c0.2,0,0.5,0,0.7,0c0.2,0,0.4,0,0.7,0c0.1,0,0.3,0,0.4,0c0.1,0,0.3,0,0.4,0h1.2
			c0.2,0,0.5,0.2,0.5,0.4c0,0.3-0.4,0.6-0.7,0.6c-0.2,0-0.3,0-0.4,0c-0.1,0-0.3,0-0.4,0c-0.1,0-0.3,0-0.5,0c-0.3,0-0.9,0-1.2,0h-0.5
			v0.2c0,0.2,0,0.4,0,0.5c0,0.2,0,0.4,0,0.5c0,0,0,0,0,0.1c0,0.2,0,0.4,0,0.6v0.2c0,0.2,0,0.4,0,0.6c0,0.2,0,0.2,0,0.4
			c0.1,0,0.3,0,0.4,0c0.1,0,0.2,0,0.2,0c0,0,0.1,0,0.2,0c0.2,0,0.4,0,0.6,0c0.1,0,0.2,0,0.3,0c0.1,0,0.2,0,0.3,0c0.1,0,0.2,0,0.4,0
			c0.4,0,0.8,0.1,0.8,0.6c0,0.5-0.7,0.5-1,0.5h-0.1c-0.3,0-0.6,0-0.9,0c-0.2,0-0.6,0-0.8,0c-0.1,0-0.2,0-0.2,0c0,0-0.1,0-0.1,0
			c0.1,0,0.1,0.1,0.1,0.1c0,0.1,0,0.3,0,0.4v0.4c0,0.4,0,0.8,0,1.2c0,0.4,0,0.8,0,1.2v0c0.2,0,0.4,0,0.6,0c0.4,0,0.9,0,1.1,0
			c0.1,0,0.4,0,0.5,0c0.2,0,0.3,0,0.5,0h0.1c0.2,0,0.7,0,0.8,0.1c0.1,0.1,0.3,0.3,0.3,0.5c0,0.4-0.7,0.4-1.1,0.3h-0.1
			c-0.5,0-1,0-1.5,0c-0.5,0-1,0-1.5,0c-0.7,0-0.7-0.4-0.7-0.9v-0.1c0-0.1,0-0.3,0-0.4v-0.4c0-0.7,0-1.3,0-2c0-0.5,0-1.4,0-1.9
			c0-0.1,0-0.2,0-0.4c0-0.1,0-0.3,0-0.4c0-0.2,0-0.5,0-0.7c0-0.2,0-0.6,0-0.8c0-0.4,0-0.7,0-1.1C208.6,475.1,209,475,209.3,475z"/>
		<path class="st10" d="M221.2,483.8c0,0-0.2-0.4-0.4-0.8l-0.2-0.4h0l-0.3-0.7c-0.2-0.3-0.3-0.6-0.4-0.9c-0.1-0.3-0.3-0.7-0.5-1
			c-0.4-0.8-0.8-1.5-1.1-2.2l-0.1-0.3v0l-0.1-0.1c0,0.5,0,1,0,1.5c0,0.8,0,1.5,0,2.2c0,0.3,0,0.5,0,0.7c0,0.3,0,0.5,0,0.8v0.2
			c0,0.6,0,1.8-0.5,1.8c-0.3,0-0.4-0.4-0.4-0.6v-1.7c0-0.6,0-1.2,0-1.9v-4.9c0-0.2,0.1-0.7,0.4-0.7c0.4,0,0.6,0.4,0.7,0.6v0l0.4,0.8
			c0.4,0.7,0.7,1.4,1,2.1c0.3,0.6,0.5,1.1,0.8,1.7l0,0c0,0,0.1,0.1,0.1,0.2v0l0.2,0.4c0,0.1,0.1,0.2,0.2,0.3l0.1,0.1l0,0.1
			c0.2,0.4,0.3,0.7,0.5,0.9c0-0.2,0-0.4,0-0.5c0-0.3,0-1,0-1.3c0-0.3,0-0.6,0-0.9c0-0.3,0-0.6,0-0.9c0-0.4,0-0.7,0-1.1
			c0-0.3,0-0.8,0-1c0-0.1,0-0.2,0-0.4c0-0.1,0-0.3,0-0.4c0-0.4,0.2-0.6,0.6-0.6c0.4,0,0.4,0.3,0.4,0.5v4.6c0,1,0,2,0,3
			c0,0.4,0,1.6-0.4,1.6C221.8,484.7,221.4,483.9,221.2,483.8z"/>
		<path class="st10" d="M227.2,475c0.2,0,0.5,0,0.7,0c0.2,0,0.4,0,0.7,0c0.1,0,0.3,0,0.4,0c0.1,0,0.3,0,0.4,0h1.2
			c0.2,0,0.5,0.2,0.5,0.4c0,0.3-0.4,0.6-0.7,0.6c-0.2,0-0.3,0-0.4,0c-0.1,0-0.3,0-0.4,0c-0.1,0-0.3,0-0.5,0c-0.3,0-0.9,0-1.2,0h-0.5
			v0.2c0,0.2,0,0.4,0,0.5c0,0.2,0,0.4,0,0.5c0,0,0,0,0,0.1c0,0.2,0,0.4,0,0.6v0.2c0,0.2,0,0.4,0,0.6c0,0.2,0,0.2,0,0.4
			c0.1,0,0.3,0,0.4,0c0.1,0,0.2,0,0.2,0c0,0,0.1,0,0.2,0c0.2,0,0.4,0,0.6,0c0.1,0,0.2,0,0.3,0c0.1,0,0.2,0,0.3,0c0.1,0,0.2,0,0.4,0
			c0.4,0,0.8,0.1,0.8,0.6c0,0.5-0.7,0.5-1,0.5h-0.1c-0.3,0-0.6,0-0.9,0c-0.2,0-0.6,0-0.8,0c-0.1,0-0.2,0-0.2,0c0,0-0.1,0-0.1,0
			c0.1,0,0.1,0.1,0.1,0.1c0,0.1,0,0.3,0,0.4v0.4c0,0.4,0,0.8,0,1.2c0,0.4,0,0.8,0,1.2v0c0.2,0,0.4,0,0.6,0c0.4,0,0.9,0,1.1,0
			c0.1,0,0.4,0,0.5,0c0.2,0,0.3,0,0.5,0h0.1c0.2,0,0.7,0,0.8,0.1c0.1,0.1,0.3,0.3,0.3,0.5c0,0.4-0.7,0.4-1.1,0.3h-0.1
			c-0.5,0-1,0-1.5,0c-0.5,0-1,0-1.5,0c-0.7,0-0.7-0.4-0.7-0.9v-0.1c0-0.1,0-0.3,0-0.4v-0.4c0-0.7,0-1.3,0-2c0-0.5,0-1.4,0-1.9
			c0-0.1,0-0.2,0-0.4c0-0.1,0-0.3,0-0.4c0-0.2,0-0.5,0-0.7c0-0.2,0-0.6,0-0.8c0-0.4,0-0.7,0-1.1C226.6,475.1,226.9,475,227.2,475z"
			/>
		<path class="st10" d="M236,475.5c0,0.9,0,1.7,0,2.6c0,0.9,0,1.7,0,2.6c0,0.1,0,0.1,0,0.2c0,0.1,0,0.2,0,0.3c0,0.1,0,0.2,0,0.3
			c0,0.1,0,0.2,0,0.2c0,0.3,0.2,1,0.4,1.2h0c0.5,0.5,1.1,0.7,1.9,0.7c1,0,1.9-0.5,2-1.6c0-0.3,0-0.5,0-0.8c0-0.2,0-0.3,0-0.5
			c0-0.2,0-0.4,0-0.5c0-0.4,0-0.8,0-1.2v-1.2c0-0.2,0-0.4,0-0.6c0-0.2,0-0.4,0-0.6c0,0,0-0.1,0-0.2c0-0.1,0-0.2,0-0.3v-0.1
			c0-0.4,0-1.1,0.5-1.1c0.4,0,0.5,0.3,0.5,0.7v3.1c0,0.1,0,0.2,0,0.3c0,0.1,0,0.1,0,0.2c0,0.2,0,0.4,0,0.6v1.6
			c0,1.1-0.2,1.8-1.1,2.5c-0.3,0.2-0.6,0.4-0.9,0.5h0l-0.2,0.1l-0.2,0c-0.1,0-0.4,0-0.6,0H238c-1.7,0-3-1.2-3-2.9c0-0.4,0-0.8,0-1.2
			c0-0.3,0-0.9,0-1.2c0-0.3,0-0.6,0-1c0-0.3,0-0.7,0-1c0-0.1,0-0.3,0-0.4c0-0.1,0-0.3,0-0.4v-1.1c0-0.3,0.2-0.4,0.5-0.4
			C235.8,475.1,236,475.2,236,475.5z"/>
		<path class="st10" d="M245.2,484.4L245.2,484.4c-0.1-0.1-0.1-0.3-0.1-0.4c0-1.4,0-2.8,0-4.2c0-1.4,0-2.8,0-4.2
			c0-0.4,0.2-0.6,0.6-0.6c0.3,0,0.5,0,0.8,0c0.3,0,0.6,0,0.8,0c0.9,0,1.9,0,2.5,0.9c0.4,0.5,0.4,1.4,0.4,2.2v0.9
			c0,0.8-0.1,1.7-0.8,2.2c-0.2,0.1-0.5,0.3-0.7,0.4l0.1,0.1l0.7,1.3l0.4,0.7c0,0.1,0.1,0.2,0.1,0.3c0,0.2-0.2,0.5-0.4,0.5
			c-0.3,0-0.3-0.1-0.3-0.1c-0.1-0.1-0.2-0.2-0.3-0.4l0-0.1l-0.1-0.3v0l-0.7-1.4v0c-0.1-0.2-0.2-0.4-0.3-0.6c0,0-0.1,0-0.2,0
			c-0.1,0-0.2,0-0.3,0c-0.2,0-0.5,0-0.7,0h-0.6c0,0,0,0,0,0c0,0.2,0,0.6,0,0.9c0,0.1,0,0.3,0,0.3c0,0.1,0,0.1,0,0.1
			c0,0.1,0,0.2,0,0.3v0.1c0,0.4,0,1.1-0.4,1.1C245.5,484.6,245.3,484.5,245.2,484.4z M247,476c-0.1,0-0.3,0-0.4,0h-0.1
			c-0.1,0-0.3,0-0.4,0h0c0,0.2,0,0.5,0,0.7c0,0.3,0,0.6,0,0.9c0,0.3,0,0.5,0,0.8v1.3c0,0.4,0,0.6,0,1.1h1.3c1,0,1.9-0.2,1.9-1.4
			c0-0.1,0-0.3,0-0.4c0-0.4,0-1,0-1.1v0c0.1-1.5-0.6-1.8-2-1.8C247.2,476,247.1,476,247,476z"/>
		<path class="st10" d="M254.7,475.1c0,0.3-0.2,0.5-0.5,0.5c-0.3,0-0.6-0.2-0.6-0.6c0-0.1,0-0.1,0-0.2c0-0.1,0-0.2,0-0.3
			c0-0.2,0.2-0.6,0.5-0.6C254.8,473.9,254.7,474.7,254.7,475.1L254.7,475.1z M253.7,474.8L253.7,474.8
			C253.7,474.9,253.7,474.9,253.7,474.8C253.7,474.9,253.7,474.9,253.7,474.8z"/>
		<path class="st10" d="M259.2,483.3c0.4,0.2,0.8,0.3,1.2,0.3c1,0,1.7-0.8,1.7-1.8c0-0.4-0.3-0.9-0.7-1.1h0l-0.3-0.2
			c-0.3-0.2-0.7-0.4-1-0.6c-0.2-0.1-0.5-0.2-0.7-0.3l-0.2-0.1c-1-0.5-2-1-2-2.4c0-0.5,0.2-1,0.4-1.3c0.5-0.7,1.5-1,2.3-1
			c0.3,0,0.6,0,0.9,0.1l0,0c0.5,0.1,1.6,0.8,1.6,1.4c0,0.2-0.2,0.5-0.5,0.5c-0.3,0-0.5-0.3-0.7-0.6h0l-0.2-0.2c0,0-0.2-0.1-0.4-0.2
			l0,0l-0.2-0.1c-0.2-0.1-0.4-0.1-0.5-0.1c-0.9,0-1.9,0.4-1.9,1.4c0,0.8,1,1.3,1.7,1.6l0.3,0.2h0c0.5,0.2,0.9,0.4,1.3,0.7h0
			c0.9,0.5,1.4,1.2,1.4,2.3c0,0.2,0,0.4,0,0.5c-0.4,1.3-1.2,2.1-2.7,2.1c-0.2,0-0.5,0-0.7-0.1h0c-0.6-0.1-2.1-0.9-2.1-1.7
			c0-0.2,0.1-0.5,0.4-0.5c0.2,0,0.5,0.3,0.7,0.5C258.8,483,259,483.2,259.2,483.3z"/>
		<path class="st10" d="M275.2,474.9c1.5,0,3.1,0.7,3.1,2.4c0,0.2-0.1,0.5-0.4,0.5c-0.6,0-0.6-0.3-0.6-0.7V477
			c0-0.1-0.1-0.3-0.2-0.4c-0.4-0.6-1.3-0.8-2-0.8c-1.3,0-1.9,0.8-1.9,2c0,0.1,0,0.2,0,0.3c0,0.1,0,0.3,0,0.4c0,0.3,0,0.5,0,0.8
			c0,0.3,0,0.5,0,0.8v0.7c0,0.2,0,0.5,0,0.7c0,0.8,0.1,1.6,0.9,1.9c0.1,0,0.3,0.1,0.5,0.1h1.1c1.4,0,1.7-1.2,1.7-2.4v-0.2
			c0-0.1,0-0.1,0-0.2h0c-0.1,0-0.3,0-0.4,0c-0.2,0-0.5,0-0.7,0H276c-0.3,0-0.8,0-0.8-0.5c0-0.2,0.2-0.3,0.3-0.5
			c0.1,0,0.2-0.1,0.4-0.1c0.4,0,0.7,0,1.1,0h0.6c0.6,0,0.9,0.1,0.9,0.8c0,0.2,0,0.4,0,0.6v0.6c0,0.6-0.4,2-0.9,2.3h0
			c-0.8,0.5-1.3,0.6-2.2,0.6c-1.5,0-2.3-0.3-2.9-1.7c-0.1-0.2-0.1-0.4-0.2-0.6c0-0.2,0-0.5,0-0.8v-0.3c0-0.3,0-0.5,0-0.8
			c0-0.2,0-0.6,0-0.8c0-0.3,0-0.5,0-0.8c0-0.3,0-0.6,0-0.9C272.2,475.9,273.3,474.9,275.2,474.9z"/>
		<path class="st10" d="M283.1,475.3c0,0.3,0,0.6,0,0.9c0,0.2,0,0.4,0,0.5v3c0,0.4,0,0.8,0,1.1v0.3c0,0.3,0,0.7,0,1
			c0.2,1.1,1,1.4,2,1.4c2,0,2.2-1.2,2.2-2.6c0-0.2,0-0.5,0-0.7c0-0.3,0-0.5,0-0.8c0-0.3,0-0.5,0-0.8c0-0.2,0-0.6,0-0.8
			c0-0.4,0-0.7,0-1.1c0-0.3,0-0.8,0-1.1c0-0.2,0-0.4,0.2-0.6c0.1-0.1,0.2-0.2,0.4-0.2c0.4,0,0.4,0.6,0.4,0.8v0.9c0,0.3,0,0.6,0,0.9
			c0,0.2,0,0.3,0,0.5c0,0.1,0,0.3,0,0.4c0,0.4,0,0.8,0,1.2c0,0.4,0,0.8,0,1.2c0,0.7,0,1.6-0.3,2.2c-0.5,1-1.7,1.5-2.8,1.5
			c-0.3,0-0.7,0-0.9-0.1h0c-1.1-0.2-2.1-1.4-2.1-2.5c0-0.2,0-0.4,0-0.6v-0.6c0-0.5,0-0.9,0-1.4c0-0.4,0-1,0-1.4v-1.2
			c0-0.4,0-0.8,0-1.2c0-0.3,0.2-0.4,0.5-0.4C282.8,475,283,475.1,283.1,475.3z"/>
		<path class="st10" d="M293.3,475.6c0,0.1,0,0.2,0,0.3v0.1c0,0.2,0,0.4,0,0.6c0,0.2,0,0.4,0,0.7c0,0.7,0,1.4,0,2c0,0.6,0,1.4,0,2
			v1.8c0,0.1,0,0.2,0,0.4c0,0.1,0,0.2,0,0.4c0,0.3-0.2,0.7-0.6,0.7c-0.5,0-0.4-0.7-0.4-1c0-0.6,0-1.1,0-1.7v-5.5
			c0-0.5,0-1.4,0.4-1.4C293,475,293.3,475.3,293.3,475.6z"/>
		<path class="st10" d="M298.1,475c0.1,0,0.1,0,0.2,0c0.1,0,0.1,0,0.2,0c0.1,0,0.2,0,0.3,0h0.5c2.4,0,4.2,0.1,4.2,3.3v2.3
			c0,0.2,0,0.5,0,0.7c0,0.4,0,0.8-0.1,1.2c-0.3,1.8-2.2,2.1-3.7,2.1c-0.3,0-0.6,0-0.9,0c-0.1,0-0.3,0-0.5,0c-0.1,0-0.2,0-0.4,0
			c-0.2,0-0.4-0.1-0.6-0.3c0-0.2,0-0.4,0-0.6v-3.2c0-1.1,0-2.1,0-3.2c0-0.3,0-0.6,0-0.9c0-0.2,0-0.6,0-0.9c0-0.3,0.2-0.5,0.5-0.5
			C297.9,475,298,475,298.1,475z M298.3,476v0.3c0,0.1,0,0.3,0,0.4c0,0.1,0,0.3,0,0.4v1.6c0,0.5,0,1.1,0,1.6v3.2
			c0,0-0.1,0.2-0.1,0.3h2c1,0,2.3-0.4,2.3-1.6v-0.6c0-0.2,0-0.4,0-0.6V478c0-1.5-0.9-2-2.3-2C299.5,476,299,476,298.3,476z"/>
		<path class="st10" d="M308.3,475l1.9,0h1.4c0.4,0,0.6,0,0.6,0.5c0,0.5-0.6,0.5-0.9,0.5c-0.1,0-0.3,0-0.4,0c-0.1,0-0.2,0-0.3,0
			h-2.1c0,0.2,0,0.3,0,0.5c0,0.2,0,0.4,0,0.7c0,0.1,0,0.3,0,0.4c0,0.1,0,0.3,0,0.3c0,0.1,0,0.2,0,0.3c0,0.1,0,0.2,0,0.3
			c0,0.1,0,0.3,0,0.4c0,0.1,0,0.2,0,0.3c0,0,0,0,0,0l0,0h0.8c0.3,0,0.5,0,0.8,0c0.3,0,0.5,0,0.8,0c0.4,0,0.6,0.1,0.6,0.6
			c0,0.4-0.4,0.5-0.8,0.5c-0.2,0-0.4,0-0.5,0c-0.1,0-0.2,0-0.2,0c-0.3,0-0.5,0-0.8,0h-0.7c0,0,0,0.3,0,0.4v0.1c0,0.1,0,0.3,0,0.4
			c0,0.1,0,0.3,0,0.4l0,1.6v0.1c0,0,0,0.1,0,0.1v0c0,0,0,0.1,0,0.2c0.3,0,0.8,0,1.3,0c0.4,0,0.8,0,1.1,0h0.5c0.3,0,0.8,0,0.8,0.5
			c0,0.4-0.3,0.5-0.6,0.5h-1.6c-0.5,0-1,0-1.6,0c-1,0-1-0.3-1-1.1c0-0.1,0-0.2,0-0.4c0-0.3,0-0.6,0-0.8c0-0.3,0-0.5,0-0.8
			c0-0.2,0-0.3,0-0.5c0-0.1,0-0.3,0-0.5c0-0.3,0-0.6,0-0.8c0-0.2,0-0.6,0-0.8c0-0.1,0-0.2,0-0.3c0-0.1,0-0.2,0-0.4
			c0-0.6,0-1.1,0-1.7c0-0.2,0-0.4,0-0.6c0-0.1,0-0.3,0-0.5C307.4,475,308,475,308.3,475z"/>
	</g>
	<g class="st0">
		<path class="st10" d="M326,476h-1.5c-0.1,0-0.2,0-0.2,0h0c0,0.3,0,0.6,0,1c0,0.4,0,0.9,0,1.3c0,0.3,0,0.6,0,0.8c0,0.1,0,0.2,0,0.4
			c0,0.1,0,0.3,0,0.4c0,0.5,0,0.9,0,1.4c0,0.5,0,0.9,0,1.4c0,0.2,0,0.4,0,0.6c0,0.2,0,0.4,0,0.6v0.1c0,0.2-0.2,0.6-0.5,0.6
			c-0.5,0-0.5-1-0.5-1.4V483c0-0.3,0-0.7,0-1c0-0.3,0-0.7,0-1v-2.3c0-0.4,0-0.8,0-1.3c0-0.4,0-0.9,0-1.3v-0.1c-0.3,0-0.6,0-0.8,0
			c-0.3,0-0.7,0-1,0c-0.4,0-0.6-0.1-0.6-0.6c0-0.4,0.4-0.4,0.7-0.4c0.8,0,1.5,0,2.3,0h2.3c0.3,0,0.5,0.2,0.5,0.5
			C326.6,475.8,326.2,476,326,476z"/>
	</g>
	<g class="st0">
		<path class="st10" d="M331.5,475.2L331.5,475.2c0.4-0.2,0.9-0.3,1.4-0.3c1.2,0,2.4,0.2,2.9,1.5v0c0.2,0.3,0.3,1.1,0.3,1.5
			c0,0.4,0,0.8,0,1.2v2.2c0,1-0.1,2.1-0.9,2.7c-0.6,0.5-1.4,0.7-2.1,0.7c-1,0-2.3-0.2-2.8-1.3l0,0c-0.4-0.6-0.4-1.3-0.4-2v-3.3
			C329.9,476.9,330.2,475.7,331.5,475.2z M335,482.4c0-0.1,0-0.3,0-0.4l0-0.4c0-0.6,0-1.2,0-1.8v-1.9c0-1.4-0.6-2-2.1-2
			c-0.7,0-1.3,0.1-1.8,0.6c-0.4,0.4-0.4,1.1-0.4,1.7v0.4c0,0.3,0,0.6,0,0.8c0,0.3,0,0.5,0,0.8v0.5c0,0.2,0,0.4,0,0.6
			c0,1,0.2,2,1.1,2.4c0.3,0.1,0.8,0.1,1.2,0.1h0.1C334.1,483.7,334.9,483.2,335,482.4z"/>
	</g>
	<g class="st0">
		<path class="st11" d="M32.1,494.4c0-0.2-0.1-0.5,0-0.6c0.2-0.5,1.2-0.2,1.7-0.2c0.7,0,1.4,0,2.1,0.1c0.7,0,1.4-0.1,2.2-0.1
			c0.5,0,1-0.2,1.1,0.4c0,0.3,0.1,1.4-0.2,1.6c-0.1,0.1-0.4,0-0.6,0c-0.3,0-0.6,0-1,0c-0.8,0-0.7,0.2-0.7,0.8c0,1.2-0.1,2.5,0,3.8
			c0,0.6,0,1.2,0,1.9l0.1,1c0,0.2,0.1,0.7,0,0.9c-0.2,0.4-0.8,0.2-1.2,0.2c-0.7,0-1,0-0.9-0.8c0-1.4-0.1-2.9,0-4.3
			c0-0.8,0.1-1.6,0-2.4c0-0.3,0-0.6,0-0.9c0-0.3-0.1-0.3-0.4-0.3c-0.3,0-2,0.3-2-0.1C32,495,32.1,494.7,32.1,494.4z"/>
		<path class="st11" d="M46.8,502.1c0.2,0.5,0.4,1,0.7,1.5c0.3,0.6,0,0.5-0.5,0.5c-0.3,0-0.5,0.1-0.8,0c-0.1,0-0.5,0-0.6-0.1
			c-0.4-0.1-0.5-0.8-0.6-1.1c-0.2-0.4-0.4-1-0.7-1.4c-0.2-0.3-0.8-0.5-1-0.1c-0.1,0.2,0,0.7,0,1c0,0.4,0,0.7,0,1.1
			c0,0.6-0.2,0.5-0.7,0.5c-0.2,0-1.1,0.2-1.3,0c-0.2-0.2,0-0.3,0-0.5c0-0.3,0-0.6,0-0.8c0-0.7,0-1.4,0-2.1c0-1.2,0-2.5,0-3.7
			c0-0.6,0-1.1,0.1-1.6c0-0.4-0.1-1,0-1.4c0.1-0.5,0.8-0.4,1.2-0.4c0.6,0,1.3,0,1.9,0c1.8,0,3,0.8,3.2,2.8c0,0.6,0,1.3,0,1.9
			c0,1.1-0.3,2.3-1.3,2.8c0,0.1,0,0,0,0C46.3,501.3,46.7,501.7,46.8,502.1z M44.9,495.8c-0.4-0.2-0.9-0.3-1.3-0.2
			c-0.5,0.1-0.2,0.8-0.2,1.3c0,0.6,0,1.2,0,1.7c0,0.4-0.1,0.6,0.4,0.6c0.4,0,0.8,0,1.2-0.2c0.4-0.1,0.5-0.4,0.5-0.8
			c0.1-0.4,0.1-0.9,0.1-1.4C45.5,496.4,45.4,496,44.9,495.8z"/>
		<path class="st11" d="M53.6,493.5c0.3,0,0.6-0.1,0.8,0c0.4,0.2,0.4,0.8,0.5,1.2c0.2,1.2,0.6,2.4,1,3.5c0.4,1.2,0.8,2.5,1,3.7
			c0.1,0.6,0.4,1.1,0.5,1.7c0.1,0.6-0.4,0.5-0.9,0.4c-0.3,0-0.7,0.1-0.9,0c-0.3-0.1-0.3-0.2-0.3-0.5c-0.1-0.4-0.2-1.6-0.6-1.8
			c-0.2-0.1-0.6,0-0.8,0c-0.3,0-0.6,0-0.9,0c-0.7,0-0.7,0.4-0.9,1c-0.1,0.4-0.1,1.2-0.5,1.4c-0.2,0.1-0.5,0-0.7,0
			c-0.3,0-0.7,0-0.9,0c-0.5-0.1-0.2-0.7-0.1-1.1c0.2-0.7,0.4-1.4,0.6-2.2c0.4-1.4,0.8-2.8,1.1-4.1c0.2-0.6,0.4-1.3,0.5-1.9
			c0-0.2,0.2-1.3,0.4-1.3C52.8,493.5,53.2,493.5,53.6,493.5z M53.5,497.3c-0.1,0-0.2,0.8-0.2,0.8c-0.1,0.4-0.2,0.8-0.4,1.2
			c-0.1,0.4-0.1,0.4,0.3,0.4c0.2,0,0.8,0.2,0.9,0C54.2,499.6,53.5,497.3,53.5,497.3z"/>
		<path class="st11" d="M65.6,493.5c0.6,0.1,0.4,0.4,0.4,0.8c0,0.7,0,1.3,0,1.9c0.1,1.9,0,3.9,0,5.8c0,0.5,0.2,1.2,0.1,1.7
			c-0.1,0.4-0.5,0.4-0.9,0.4c-0.3,0-1,0.1-1.2-0.1c-0.3-0.2-0.4-1-0.6-1.3c-0.4-0.8-0.8-1.7-1.2-2.5c0-0.1-0.6-1.5-0.7-1.5
			c-0.1,0,0,1.3,0,1.5c0,0.8,0.1,1.6,0,2.3c0,0.4,0,0.7,0,1.1c0,0.5-0.4,0.4-0.9,0.5c-0.3,0-1,0.1-1.2-0.1c-0.1-0.1,0-0.4,0-0.5
			c0-0.3,0-0.6,0-0.9c-0.1-2,0-4,0-6.1c0-0.5,0-1.1,0.1-1.6c0-0.3-0.2-1.2,0-1.4c0.2-0.2,1,0,1.3,0c0.7,0,0.8,0,1,0.7
			c0.4,1,0.8,2,1.3,3c0.1,0.2,0.6,1.6,0.7,1.6c0.2,0-0.1-2.2,0-2.4c0-0.2-0.1-2.9,0.2-2.9C64.5,493.5,65.1,493.4,65.6,493.5z"/>
		<path class="st11" d="M72.9,504.2c-1.5,0.3-3.3-0.3-4.1-1.6c-0.4-0.7,0.3-1,0.8-1.4c0.2-0.1,0.4-0.5,0.6-0.5
			c0.3,0,0.4,0.6,0.6,0.8c0.4,0.5,1.2,0.8,1.9,0.4c0.7-0.4,0.6-1.3,0-1.7c-0.6-0.5-1.5-0.7-2.1-1c-0.7-0.4-1.5-1-1.8-1.7
			c-0.5-1.2,0-2.8,1.1-3.5c1.3-0.8,3.1-1,4.3,0.1c0.4,0.4,1.2,1.2,0.8,1.7c-0.2,0.3-0.6,0.4-0.8,0.6c-0.4,0.2-0.4,0.3-0.8,0
			c-0.6-0.6-1.2-1.1-2-0.8c-1,0.4-0.3,1.3,0.4,1.6c1.5,0.7,3.9,1.6,3.9,3.6C75.5,502.4,74.5,503.8,72.9,504.2z"/>
		<path class="st11" d="M77.9,496.4c0-0.8,0-1.6,0-2.3c0-0.4-0.1-0.5,0.2-0.5c0.4-0.1,0.8,0,1.2,0c0.6,0,1.3,0,1.9,0
			c0.6,0,1.4-0.2,2-0.1c0.6,0.1,0.4,0.8,0.4,1.2c0,0.3,0.1,0.6-0.1,0.8c-0.2,0.2-0.6,0.1-0.9,0c-0.7,0-1.4,0.1-2.1,0
			c-0.2,0-0.5,0-0.5,0c-0.1,0.1,0,0.7,0,0.8c0,0.4,0,1.3,0.1,1.3c1.1,0,1.5,0,2.1,0c0.7,0,0.6,0.2,0.6,0.8c0,0.7,0.1,1.3-0.7,1.2
			c-0.4,0-0.7,0-1.1,0c-0.2,0-0.9,0-0.9,0c-0.1,0,0,0.6,0,0.9c0,0.4,0,0.8,0,1.2c0,0.3,0,0.7,0,1c0,0.3,0.2,0.8,0,1
			c-0.2,0.2-0.5,0.1-0.7,0.1c-0.4,0-0.8,0-1.2,0C77.7,504.1,77.9,497.1,77.9,496.4z"/>
		<path class="st11" d="M93.2,500.2c0,0.9,0,2-0.6,2.8c-0.5,0.8-1.6,1.2-2.5,1.2c-0.9,0-2.1,0-2.9-0.5c-0.9-0.5-1.2-1.5-1.3-2.5
			c-0.1-1.1,0-2.3-0.1-3.4c0-1.1-0.1-2.3,0.5-3.3c0.6-0.9,1.8-1.2,2.8-1.2c0.5,0,1.2,0,1.7,0.2c1.8,0.5,2.3,1.7,2.3,3.4
			C93.2,498,93.2,499.2,93.2,500.2z M90.3,495.7c-0.7-0.3-1.6-0.3-2,0.4c-0.4,0.7-0.2,1.4-0.2,2.1c0,0.8-0.1,1.6,0,2.4
			c0.1,1.3,1.5,2,2.5,1.1c0.5-0.4,0.6-1.1,0.6-1.7c0-0.9,0-1.9,0-2.8C91,496.6,90.9,495.9,90.3,495.7z"/>
		<path class="st11" d="M101.3,502.1c0.2,0.5,0.4,1,0.7,1.5c0.3,0.6,0,0.5-0.5,0.5c-0.3,0-0.5,0.1-0.8,0c-0.1,0-0.5,0-0.6-0.1
			c-0.4-0.1-0.5-0.8-0.6-1.1c-0.2-0.4-0.4-1-0.7-1.4c-0.2-0.3-0.8-0.5-1-0.1c-0.1,0.2,0,0.7,0,1c0,0.4,0,0.7,0,1.1
			c0,0.6-0.2,0.5-0.7,0.5c-0.2,0-1.1,0.2-1.3,0c-0.2-0.2,0-0.3,0-0.5c0-0.3,0-0.6,0-0.8c0-0.7,0-1.4,0-2.1c0-1.2,0-2.5,0-3.7
			c0-0.6,0-1.1,0.1-1.6c0-0.4-0.1-1,0-1.4c0.1-0.5,0.8-0.4,1.2-0.4c0.6,0,1.3,0,1.9,0c1.8,0,3,0.8,3.2,2.8c0,0.6,0,1.3,0,1.9
			c0,1.1-0.3,2.3-1.3,2.8c0,0.1,0,0,0,0C100.8,501.3,101.2,501.7,101.3,502.1z M99.5,495.8c-0.4-0.2-0.9-0.3-1.3-0.2
			c-0.5,0.1-0.2,0.8-0.2,1.3c0,0.6,0,1.2,0,1.7c0,0.4-0.1,0.6,0.4,0.6c0.4,0,0.8,0,1.2-0.2c0.4-0.1,0.5-0.4,0.5-0.8
			c0.1-0.4,0.1-0.9,0.1-1.4C100,496.4,99.9,496,99.5,495.8z"/>
		<path class="st11" d="M113.9,498.3c0.1,1.6-0.1,3.3,0,4.9c0,0.3,0.1,0.6-0.2,0.8c-0.3,0.2-0.7,0-1,0c-0.4,0-0.6,0.2-0.8-0.3
			c-0.1-0.3,0-0.9,0-1.3c0-0.8,0.1-1.6,0-2.4c0-0.4,0-0.9,0-1.3c0,0,0-0.6,0-0.7c-0.1,0.2-1.1,3.7-1.2,4c-0.1,0.5-0.3,1.3-0.5,1.8
			c-0.2,0.3-1.1,0.4-1.5,0.2c-0.4-0.4-1.5-6.1-1.7-6.1c-0.1,0,0,2,0,2.2c0,0.8,0,1.6,0,2.4c0,0.5,0.3,1.5-0.4,1.6
			c-0.3,0-0.6,0-0.9,0c-0.2,0-0.5,0.1-0.7,0c-0.1-0.1,0-0.5,0-0.6l0-1.3c0-1.5,0-2.9,0-4.4c0-0.8,0-1.6,0-2.3c0-0.4,0-0.7,0-1.1
			c0-0.1-0.1-0.7,0-0.8c0.1-0.2,0.7,0,0.9,0c0.2,0,0.5-0.1,0.7-0.1c0.7,0,0.9,0.2,1.1,0.8c0.2,0.7,0.5,1.5,0.7,2.2
			c0.2,0.7,0.4,1.5,0.6,2.2c0.1,0.3,0.3,0.9,0.4,1.2c0.1,0.4,0.2,0.3,0.2,0.1c0.2-0.6,0.2-0.8,0.3-0.9c0.4-1.5,0.9-3,1.4-4.5
			c0.2-0.8,0.4-1,1.3-0.9c0.2,0,1.4-0.1,1.4,0.1C113.8,495.2,113.8,496.8,113.9,498.3z"/>
		<path class="st11" d="M116.9,501.6c0-0.9,0.1-1.8,0-2.6c0-0.8-0.1-1.7,0-2.5c0-0.5,0-0.9,0-1.4c0-0.3-0.2-1.1,0-1.4
			c0.2-0.3,0.6-0.1,0.9-0.1c0.3,0,0.8-0.2,1,0c0.2,0.2,0.2,0.7,0.1,0.9c0,0.4,0,0.8,0,1.2c0.1,1.9,0,3.8,0,5.7c0,0.6-0.1,1.2,0,1.7
			c0,0.2,0.1,0.8,0,0.9c-0.2,0.2-0.9,0-1.2,0c-0.2,0-0.9,0.1-0.9-0.2C116.9,503.2,116.9,502.4,116.9,501.6z"/>
		<path class="st11" d="M128,493.5c0.4,0,0.4,0.2,0.4,0.6c0,1,0,2,0,3.1c0,1.9,0.1,3.8,0,5.6c0,0.3,0.1,0.9,0,1.1
			c-0.2,0.2-0.8,0.2-1.1,0.2c-0.5,0-0.8,0.1-1.1-0.3c-0.2-0.3-0.3-0.7-0.5-1c-0.4-0.8-0.8-1.7-1.2-2.6c0-0.1-0.4-1.5-0.6-1.4
			c0,0,0,1.6,0,1.7c0,0.9,0,1.8,0,2.7c0,0.4,0.1,0.8-0.3,0.9c-0.3,0.1-0.9,0-1.2,0c-0.4,0-0.6,0-0.6-0.4c0-0.5,0-1,0-1.5
			c0-2,0.1-4,0-6c0-0.5,0-0.9,0-1.4c0-0.3-0.2-0.8,0-1.1c0.2-0.3,0.6-0.2,0.9-0.2c0.4,0,0.9-0.2,1.2,0.1c0.3,0.3,0.3,0.7,0.4,1.1
			c0.2,0.5,0.5,1,0.7,1.5c0.1,0.2,1,2.5,1.1,2.5c0.2,0,0-2.6,0-2.9c0-0.2-0.1-2.4,0.2-2.4C126.9,493.5,127.4,493.5,128,493.5z"/>
		<path class="st11" d="M134.6,498.6c0-0.4,0.5-0.4,0.9-0.4c0.5,0,1,0,1.5,0c0.4,0,1.1-0.2,1.4,0c0.4,0.2,0.2,0.9,0.2,1.3
			c0,0.6,0,1.2,0,1.8c-0.1,0.9-0.5,1.9-1.3,2.4c-0.8,0.5-1.9,0.5-2.8,0.5c-0.9,0-1.9-0.3-2.5-1.1c-0.7-0.8-0.6-1.7-0.7-2.7
			c0-0.9-0.1-1.8,0-2.7c0-1-0.1-2.1,0.4-2.9c0.5-0.8,1.2-1.2,2.2-1.4c1.9-0.3,4.4,0.1,4.6,2.4c0,0.2,0,0.4,0,0.7
			c0,0.1,0.1,0.4,0.1,0.5c-0.1,0.3-0.5,0.2-0.8,0.2c-0.3,0-0.6,0-0.9,0c-0.5-0.1-0.4-0.2-0.5-0.6c-0.1-0.9-1.2-1.3-2-1
			c-1.1,0.3-1.1,1.3-1.1,2.3c0,0.5,0,0.9,0,1.4c0,0.4,0.1,0.8,0.1,1.3c0,1.1,0.8,1.8,1.9,1.6c0.5-0.1,0.8-0.4,1-0.9
			c0.1-0.2,0.1-0.4,0.1-0.7c-0.1-0.3,0.1-0.1-0.2-0.2c-0.2,0-1.6,0.3-1.6-0.2C134.6,499.6,134.5,499,134.6,498.6z"/>
	</g>
	<g class="st0">
		<path class="st10" d="M150,502.3v0.2c0,0.1,0,0.2,0,0.3c0,0.3-0.1,0.9-0.5,0.9c-0.5,0-0.4-0.9-0.4-1.4c0-0.1,0-0.1,0-0.2v-0.5
			c0-0.4,0-0.8,0-1.2c0-0.8,0-1.5-0.1-1.7c0-0.1-0.1-0.3-0.2-0.4c-0.2-0.3-0.3-0.6-0.5-1v0l-0.3-0.7l0,0c-0.2-0.4-0.4-0.7-0.5-1
			l-0.1-0.1l-0.3-0.6l0,0c-0.1-0.2-0.2-0.4-0.2-0.5c0-0.2,0.1-0.4,0.3-0.4c0.2,0,0.4,0.2,0.5,0.3c0.2,0.2,0.3,0.3,0.4,0.5
			c0.1,0.3,0.3,0.5,0.4,0.9c0.1,0.1,0.2,0.4,0.2,0.5c0,0.1,0.2,0.4,0.2,0.4c0.1,0.2,0.2,0.4,0.3,0.7l0.2,0.4l0,0l0,0
			c0.4-0.7,0.8-1.6,1.2-2.5c0-0.1,0.1-0.3,0.2-0.3c0-0.1,0.1-0.2,0.2-0.3v0c0.1-0.2,0.1-0.4,0.5-0.4c0.3,0,0.5,0.3,0.5,0.5
			c0,0.2-0.2,0.5-0.3,0.8c-0.1,0.2-0.2,0.3-0.2,0.4v0c-0.3,0.7-0.5,1.2-0.8,1.7v0l-0.1,0.3v0c-0.1,0.2-0.2,0.4-0.2,0.5l-0.2,0.6
			c0,0.5,0,0.6,0,1.1C150.1,500.7,150.1,501.8,150,502.3z"/>
		<path class="st10" d="M157.2,494.2L157.2,494.2c0.4-0.2,0.9-0.3,1.4-0.3c1.2,0,2.4,0.2,2.9,1.5v0c0.2,0.3,0.3,1.1,0.3,1.5
			c0,0.4,0,0.8,0,1.2v2.2c0,1-0.1,2.1-0.9,2.7c-0.6,0.5-1.4,0.7-2.1,0.7c-1,0-2.3-0.2-2.8-1.3l0,0c-0.4-0.6-0.4-1.3-0.4-2v-3.3
			C155.7,495.9,155.9,494.7,157.2,494.2z M160.8,501.4c0-0.1,0-0.3,0-0.4l0-0.4c0-0.6,0-1.2,0-1.8v-1.9c0-1.4-0.6-2-2.1-2
			c-0.7,0-1.3,0.1-1.8,0.6c-0.4,0.4-0.4,1.1-0.4,1.7v0.4c0,0.3,0,0.6,0,0.8c0,0.3,0,0.5,0,0.8v0.5c0,0.2,0,0.4,0,0.6
			c0,1,0.2,2,1.1,2.4c0.3,0.1,0.8,0.1,1.2,0.1h0.1C159.8,502.7,160.6,502.1,160.8,501.4z"/>
		<path class="st10" d="M166.5,494.5c0,0.9,0,1.7,0,2.6c0,0.9,0,1.7,0,2.6c0,0.1,0,0.1,0,0.2c0,0.1,0,0.2,0,0.3c0,0.1,0,0.2,0,0.3
			c0,0.1,0,0.2,0,0.2c0,0.3,0.2,1,0.4,1.2h0c0.5,0.5,1.1,0.7,1.9,0.7c1,0,1.9-0.5,2-1.6c0-0.3,0-0.5,0-0.8c0-0.2,0-0.3,0-0.5
			c0-0.2,0-0.4,0-0.5c0-0.4,0-0.8,0-1.2v-1.2c0-0.2,0-0.4,0-0.6c0-0.2,0-0.4,0-0.6c0,0,0-0.1,0-0.2c0-0.1,0-0.2,0-0.3v-0.1
			c0-0.4,0-1.1,0.5-1.1c0.4,0,0.5,0.3,0.5,0.7v3.1c0,0.1,0,0.2,0,0.3c0,0.1,0,0.1,0,0.2c0,0.2,0,0.4,0,0.6v1.6
			c0,1.1-0.2,1.8-1.1,2.5c-0.3,0.2-0.6,0.4-0.9,0.5h0l-0.2,0.1l-0.2,0c-0.1,0-0.4,0-0.6,0h-0.2c-1.7,0-3-1.2-3-2.9
			c0-0.4,0-0.8,0-1.2c0-0.3,0-0.9,0-1.2c0-0.3,0-0.6,0-1c0-0.3,0-0.7,0-1c0-0.1,0-0.3,0-0.4c0-0.1,0-0.3,0-0.4v-1.1
			c0-0.3,0.2-0.4,0.5-0.4C166.3,494.1,166.5,494.2,166.5,494.5z"/>
		<path class="st10" d="M175.8,503.3L175.8,503.3c-0.1-0.1-0.1-0.3-0.1-0.4c0-1.4,0-2.8,0-4.2c0-1.4,0-2.8,0-4.2
			c0-0.4,0.2-0.6,0.6-0.6c0.3,0,0.5,0,0.8,0c0.3,0,0.6,0,0.8,0c0.9,0,1.9,0,2.5,0.9c0.4,0.5,0.4,1.4,0.4,2.2v0.9
			c0,0.8-0.1,1.7-0.8,2.2c-0.2,0.1-0.5,0.3-0.7,0.4l0.1,0.1l0.7,1.3l0.4,0.7c0,0.1,0.1,0.2,0.1,0.3c0,0.2-0.2,0.5-0.4,0.5
			c-0.3,0-0.3-0.1-0.3-0.1c-0.1-0.1-0.2-0.2-0.3-0.4l0-0.1l-0.1-0.3v0l-0.7-1.4v0c-0.1-0.2-0.2-0.4-0.3-0.6c0,0-0.1,0-0.2,0
			c-0.1,0-0.2,0-0.3,0c-0.2,0-0.5,0-0.7,0h-0.6c0,0,0,0,0,0c0,0.2,0,0.6,0,0.9c0,0.1,0,0.3,0,0.3c0,0.1,0,0.1,0,0.1
			c0,0.1,0,0.2,0,0.3v0.1c0,0.4,0,1.1-0.4,1.1C176.1,503.6,175.9,503.5,175.8,503.3z M177.5,495c-0.1,0-0.3,0-0.4,0h-0.1
			c-0.1,0-0.3,0-0.4,0h0c0,0.2,0,0.5,0,0.7c0,0.3,0,0.6,0,0.9c0,0.3,0,0.5,0,0.8v1.3c0,0.4,0,0.6,0,1.1h1.3c1,0,1.9-0.2,1.9-1.4
			c0-0.1,0-0.3,0-0.4c0-0.4,0-1,0-1.1v0c0.1-1.5-0.6-1.8-2-1.8C177.8,495,177.6,495,177.5,495z"/>
	</g>
	<g class="st0">
		<path class="st12" d="M197.2,500.6c-0.1,1.1-0.1,2.1-1.1,2.9c-0.8,0.6-2,0.6-2.9,0.6c-0.5,0-1,0-1.6,0c-0.4,0-1.4,0.2-1.7,0
			c-0.3-0.3-0.1-1.1,0-1.5c0-0.7,0-1.3,0-2c0-1.2,0.1-2.5,0-3.7c0-0.6,0-1.1,0-1.7c0-0.3,0-0.5,0-0.8c0-0.2-0.1-0.5,0-0.7
			c0.2-0.2,1.1-0.1,1.4-0.1c0.7,0,1.4,0,2.1,0c0.6,0,1.3,0,1.9,0.2c1.7,0.8,1.7,2,1.8,3.6C197.2,498.4,197.3,499.5,197.2,500.6z
			 M195.2,497.2c0-0.7-0.4-1.3-1-1.6c-0.4-0.1-0.8-0.1-1.2-0.1c-0.2,0-0.8,0-1,0c0,0.2,0,0.6,0,0.8c0,0.4,0,0.8,0,1.2
			c0,0.9-0.1,1.9,0,2.8c0,0.4,0,1.6,0.1,1.7c0.1,0.1,0.8,0,1,0c0.4,0,0.8,0,1.1-0.2c0.7-0.4,0.9-1.1,0.9-1.8V497.2z"/>
		<path class="st12" d="M205.6,502.1c0.2,0.5,0.4,1,0.7,1.5c0.3,0.6,0,0.5-0.5,0.5c-0.3,0-0.5,0.1-0.8,0c-0.1,0-0.5,0-0.6-0.1
			c-0.4-0.1-0.5-0.8-0.6-1.1c-0.2-0.4-0.4-1-0.7-1.4c-0.2-0.3-0.8-0.5-1-0.1c-0.1,0.2,0,0.7,0,1c0,0.4,0,0.7,0,1.1
			c0,0.6-0.2,0.5-0.7,0.5c-0.2,0-1.1,0.2-1.3,0c-0.2-0.2,0-0.3,0-0.5c0-0.3,0-0.6,0-0.8c0-0.7,0-1.4,0-2.1c0-1.2,0-2.5,0-3.7
			c0-0.6,0-1.1,0.1-1.6c0-0.4-0.1-1,0-1.4c0.1-0.5,0.8-0.4,1.2-0.4c0.6,0,1.3,0,1.9,0c1.8,0,3,0.8,3.2,2.8c0,0.6,0,1.3,0,1.9
			c0,1.1-0.3,2.3-1.3,2.8c0,0.1,0,0,0,0C205,501.3,205.4,501.7,205.6,502.1z M203.7,495.8c-0.4-0.2-0.9-0.3-1.3-0.2
			c-0.5,0.1-0.2,0.8-0.2,1.3c0,0.6,0,1.2,0,1.7c0,0.4-0.1,0.6,0.4,0.6c0.4,0,0.8,0,1.2-0.2c0.4-0.1,0.5-0.4,0.5-0.8
			c0.1-0.4,0.1-0.9,0.1-1.4C204.2,496.4,204.1,496,203.7,495.8z"/>
		<path class="st12" d="M209.2,499.1c0-0.9,0-1.8,0-2.7c0-0.5,0-1,0-1.5c0-0.4-0.2-1.1,0.1-1.4c0.4-0.3,1.5,0,2,0c0.9,0,1.9,0,2.8,0
			c0.2,0,0.6-0.1,0.8,0.1c0.2,0.2,0.1,0.6,0.1,0.8c0,0.8,0.1,1.2-0.8,1.1c-0.8-0.1-1.5,0-2.3,0c-0.4,0-0.4-0.1-0.5,0.3
			c-0.1,0.5,0,1,0,1.5c0,0.4,0,0.4,0.3,0.4c0.3,0,0.7,0,1,0c0.3,0,0.8-0.2,1.2-0.1c0.4,0.1,0.4,0.5,0.3,0.9c0,0.5,0.2,1.2-0.5,1.2
			c-0.5,0-2.1-0.4-2.4,0.1c-0.1,0.2-0.1,0.9-0.1,1.2c0,0.2,0,0.8,0.1,0.9c0.1,0.1,0.4,0,0.6,0.1c0.6,0,1,0,1.6,0
			c0.3,0,0.8-0.1,1.1,0c0.4,0.2,0.3,0.6,0.3,1c0,0.3,0.1,1-0.2,1.1c-0.2,0.1-0.8,0-1.1,0c-0.3,0-4.5,0.2-4.5-0.1
			C209.1,502.3,209.2,500.7,209.2,499.1z"/>
		<path class="st12" d="M221.3,493.5c0.7,0.1,0.7,0.8,0.8,1.4c0.4,1.3,0.7,2.7,1.1,4c0.4,1.3,0.7,2.7,1,4c0.1,0.4,0.5,1,0.1,1.2
			c-0.2,0.1-0.7-0.1-1-0.1c-0.2,0-0.6,0.2-0.8,0c-0.2-0.2-0.4-0.9-0.4-1.2c-0.1-0.3-0.1-1-0.4-1.1c-0.2-0.1-0.5,0-0.7,0
			c-0.3,0-0.6,0-1,0c-0.7,0-0.6,0.4-0.8,1c-0.1,0.3-0.2,1.1-0.4,1.3c-0.2,0.2-0.4,0.1-0.6,0.1c-0.3,0-0.7,0-1,0
			c-0.7,0-0.4-0.5-0.3-1.1c0.2-0.8,0.4-1.5,0.6-2.3c0.4-1.2,0.8-2.5,1-3.7c0.1-0.2,0.2-0.5,0.2-0.7c0.1-0.4,0.2-0.8,0.3-1.2
			c0.1-0.2,0.2-1.5,0.5-1.5C220.2,493.5,220.7,493.4,221.3,493.5z M221,498.4c0-0.2-0.2-1.1-0.4-1.1c-0.1,0-0.6,2-0.6,2.1
			c-0.1,0.4-0.1,0.3,0.3,0.3c0.2,0,0.9,0.1,1,0C221.5,499.6,221,498.6,221,498.4z"/>
		<path class="st12" d="M235.8,498.3c0.1,1.6-0.1,3.3,0,4.9c0,0.3,0.1,0.6-0.2,0.8c-0.3,0.2-0.7,0-1,0c-0.4,0-0.6,0.2-0.8-0.3
			c-0.1-0.3,0-0.9,0-1.3c0-0.8,0.1-1.6,0-2.4c0-0.4,0-0.9,0-1.3c0,0,0-0.6,0-0.7c-0.1,0.2-1.1,3.7-1.2,4c-0.1,0.5-0.3,1.3-0.5,1.8
			c-0.2,0.3-1.1,0.4-1.5,0.2c-0.4-0.4-1.5-6.1-1.7-6.1c-0.1,0,0,2,0,2.2c0,0.8,0,1.6,0,2.4c0,0.5,0.3,1.5-0.4,1.6
			c-0.3,0-0.6,0-0.9,0c-0.2,0-0.5,0.1-0.7,0c-0.1-0.1,0-0.5,0-0.6l0-1.3c0-1.5,0-2.9,0-4.4c0-0.8,0-1.6,0-2.3c0-0.4,0-0.7,0-1.1
			c0-0.1-0.1-0.7,0-0.8c0.1-0.2,0.7,0,0.9,0c0.2,0,0.5-0.1,0.7-0.1c0.7,0,0.9,0.2,1.1,0.8c0.2,0.7,0.5,1.5,0.7,2.2
			c0.2,0.7,0.4,1.5,0.6,2.2c0.1,0.3,0.3,0.9,0.4,1.2c0.1,0.4,0.2,0.3,0.2,0.1c0.2-0.6,0.2-0.8,0.3-0.9c0.4-1.5,0.9-3,1.4-4.5
			c0.2-0.8,0.4-1,1.3-0.9c0.2,0,1.4-0.1,1.4,0.1C235.7,495.2,235.7,496.8,235.8,498.3z"/>
		<path class="st12" d="M244.6,502.9c-0.5,0.6-1,0.9-1.7,1.2c-1.1,0.4-2.9,0-3.8-0.9c-0.4-0.4-0.9-1-0.5-1.5c0.2-0.3,1.2-1,1.5-0.9
			c0.2,0.1,0.3,0.5,0.4,0.6c0.2,0.3,0.6,0.5,0.9,0.6c0.7,0.2,1.6-0.3,1.5-1c0-0.7-0.9-1.1-1.5-1.4c-0.7-0.3-1.4-0.5-2-1
			c-0.5-0.4-0.9-1-1.1-1.6c-0.3-0.8,0-1.6,0.4-2.3c0.9-1.2,2.7-1.8,4.1-1.3c0.7,0.2,1.2,0.7,1.6,1.2c0.1,0.2,0.4,0.4,0.4,0.6
			c0,0.4-0.4,0.7-0.7,0.8c-0.2,0.1-0.5,0.5-0.7,0.5c-0.3,0-0.6-0.6-0.8-0.8c-0.5-0.5-1.7-0.7-2.1,0c-0.5,0.9,1.5,1.4,2,1.7
			c0.7,0.3,1.4,0.8,1.9,1.3c0.2,0.3,0.4,0.6,0.5,0.9c0.3,0.7,0.2,1.3,0.1,2C245,502.2,244.8,502.6,244.6,502.9z"/>
	</g>
	<g class="st0">
	</g>
	<g class="st0">
		<path class="st10" d="M254.8,494.6c0,0.1,0,0.2,0,0.3v0.1c0,0.2,0,0.4,0,0.6c0,0.2,0,0.4,0,0.7c0,0.7,0,1.4,0,2c0,0.6,0,1.4,0,2
			v1.8c0,0.1,0,0.2,0,0.4c0,0.1,0,0.2,0,0.4c0,0.3-0.2,0.7-0.6,0.7c-0.5,0-0.4-0.7-0.4-1c0-0.6,0-1.1,0-1.7v-5.5
			c0-0.5,0-1.4,0.4-1.4C254.5,494,254.8,494.3,254.8,494.6z"/>
	</g>
	<g class="st0">
		<path class="st10" d="M262.8,502.6C262.8,502.6,262.8,502.5,262.8,502.6c-0.1-0.4-0.4-0.8-0.6-1.2c-0.1-0.1-0.1-0.3-0.2-0.4
			c0-0.1-0.2-0.4-0.3-0.6h0c-0.1-0.1-0.1-0.2-0.1-0.3c-0.2-0.4-0.4-0.7-0.5-1l-0.3-0.6c-0.3-0.5-0.6-1.2-0.9-1.7v0c0,0,0-0.1,0-0.1
			l-0.1-0.1c0,0.6,0,1.2,0,1.8v4.4c0,0.1,0,0.3,0,0.3c0,0.3-0.2,0.7-0.5,0.7c-0.5,0-0.5-0.7-0.5-0.9c0-1.1,0-2.2,0-3.2v-3.2
			c0-0.1,0-0.3,0-0.4c0-0.2,0-0.4,0-0.6v-0.2c0-0.4-0.1-1.1,0.4-1.1c0.4,0,0.6,0.4,0.7,0.8l0.1,0.2l0.3,0.6l0.7,1.3
			c0,0.1,0.1,0.2,0.1,0.3v0l0.1,0.3l0,0c0.2,0.4,0.4,0.9,0.7,1.3s0.4,0.8,0.6,1.2c0.2,0.3,0.3,0.7,0.5,0.9c0,0.1,0.1,0.2,0.1,0.3
			v-0.8c0-0.5,0-1.1,0-1.6c0-0.4,0-1.2,0-1.7v-2c0,0,0,0,0-0.1c0-0.1,0-0.1,0-0.3c0-0.3,0.3-0.6,0.6-0.6c0.4,0,0.4,0.7,0.4,1.1v0.1
			c0,0.9,0,1.7,0,2.6c0,0.9,0,1.7,0,2.6v2.9c0,0.2-0.1,0.5-0.4,0.5C263.2,503.6,262.9,503,262.8,502.6z"/>
	</g>
	<g class="st0">
		<path class="st10" d="M272.8,495h-1.5c-0.1,0-0.2,0-0.2,0h0c0,0.3,0,0.6,0,1c0,0.4,0,0.9,0,1.3c0,0.3,0,0.6,0,0.8
			c0,0.1,0,0.2,0,0.4c0,0.1,0,0.3,0,0.4c0,0.5,0,0.9,0,1.4c0,0.5,0,0.9,0,1.4c0,0.2,0,0.4,0,0.6c0,0.2,0,0.4,0,0.6v0.1
			c0,0.2-0.2,0.6-0.5,0.6c-0.5,0-0.5-1-0.5-1.4V502c0-0.3,0-0.7,0-1c0-0.3,0-0.7,0-1v-2.3c0-0.4,0-0.8,0-1.3c0-0.4,0-0.9,0-1.3v-0.1
			c-0.3,0-0.6,0-0.8,0c-0.3,0-0.7,0-1,0c-0.4,0-0.6-0.1-0.6-0.6c0-0.4,0.4-0.4,0.7-0.4c0.8,0,1.5,0,2.3,0h2.3c0.3,0,0.5,0.2,0.5,0.5
			C273.4,494.8,273.1,495,272.8,495z"/>
	</g>
	<g class="st0">
		<path class="st10" d="M278.3,494.2L278.3,494.2c0.4-0.2,0.9-0.3,1.4-0.3c1.2,0,2.4,0.2,2.9,1.5v0c0.2,0.3,0.3,1.1,0.3,1.5
			c0,0.4,0,0.8,0,1.2v2.2c0,1-0.1,2.1-0.9,2.7c-0.6,0.5-1.4,0.7-2.1,0.7c-1,0-2.3-0.2-2.8-1.3l0,0c-0.4-0.6-0.4-1.3-0.4-2v-3.3
			C276.8,495.9,277,494.7,278.3,494.2z M281.9,501.4c0-0.1,0-0.3,0-0.4l0-0.4c0-0.6,0-1.2,0-1.8v-1.9c0-1.4-0.6-2-2.1-2
			c-0.7,0-1.3,0.1-1.8,0.6c-0.4,0.4-0.4,1.1-0.4,1.7v0.4c0,0.3,0,0.6,0,0.8c0,0.3,0,0.5,0,0.8v0.5c0,0.2,0,0.4,0,0.6
			c0,1,0.2,2,1.1,2.4c0.3,0.1,0.8,0.1,1.2,0.1h0.1C280.9,502.7,281.7,502.1,281.9,501.4z"/>
	</g>
	<g class="st0">
		<path class="st9" d="M297.6,502.6c0.1,0.3,0.7,1.1,0.4,1.4c-0.1,0.1-0.7,0-0.9,0c-0.3,0-0.6,0.1-0.8,0.1c-0.4-0.1-0.6-1-0.8-1.4
			c-0.2-0.4-0.4-1.3-0.8-1.5c-0.7-0.4-0.7,0.6-0.7,1c0,0.4,0.2,1.6-0.2,1.8c-0.2,0.1-0.5,0-0.7,0c-0.3,0-0.7,0.1-0.9,0
			c-0.5-0.1-0.4-0.9-0.3-1.4l0-2.4c0-1.4,0-2.8,0-4.2c0-0.6,0-1.2,0-1.7c0-0.2-0.1-0.6,0-0.7c0.2-0.2,0.5-0.1,0.8-0.1
			c0.7,0,1.4-0.1,2.1,0c0.7,0,1.5,0,2.2,0.4c1.1,0.7,1.3,2.1,1.3,3.4c0,1.4,0.1,3-1.3,3.7c0,0.3,0.3,0.6,0.4,0.8
			C297.3,502,297.4,502.3,297.6,502.6z M294.2,495.6c-0.5,0.1-0.5,0.3-0.5,0.7c0,0.6,0,1.2,0,1.8c0,0.2,0,0.9,0.1,1
			c0.1,0.2,0.8,0,1.1,0c1.2-0.1,1-1.4,1-2.3C296,495.8,295.2,495.4,294.2,495.6z"/>
		<path class="st9" d="M300.9,501c0-0.8,0-1.5,0-2.3c0-0.7,0-1.5,0-2.2c0-0.6,0-1.2,0-1.9c0-0.2-0.1-0.8,0-1c0.1-0.2,0.5,0,0.8,0
			c0.9,0.1,1.8,0,2.7,0c0.5,0,0.9,0,1.4,0c0.2,0,0.7-0.1,0.8,0c0.2,0.2,0.1,0.9,0.1,1.2c0,0.4,0.1,0.8-0.3,0.8c-0.4,0.1-0.9,0-1.2,0
			c-0.4,0-0.8,0-1.2,0c-0.2,0-0.6-0.2-0.8,0c-0.2,0.2-0.1,0.9-0.1,1.1c0,0.3-0.1,0.8,0.1,1c0.1,0.1,0.8,0,1.1,0c0.4,0,0.9-0.1,1.3,0
			c0.4,0.1,0.3,0.3,0.3,0.7c0,0.3,0.2,0.9,0,1.1c-0.2,0.3-0.5,0.2-0.8,0.2c-0.4,0-0.7,0-1,0c-0.3,0-0.6-0.1-0.9,0
			c-0.4,0.1-0.1,1.3-0.2,1.7c0,0.3,0.1,0.5,0.1,0.6c0.3,0.1,1,0,1.3,0c0.5,0,0.9,0,1.5,0c0.6,0,0.7,0,0.8,0.5c0,0.4,0,0.8,0,1.2
			c-0.1,0.4-0.4,0.3-0.8,0.3c-0.5,0-4.9,0.4-4.9,0C300.9,503.1,300.9,502,300.9,501z"/>
		<path class="st9" d="M312.5,493.5c0.3,0,0.6-0.1,0.8,0c0.4,0.2,0.4,0.8,0.5,1.2c0.2,1.2,0.6,2.4,1,3.5c0.4,1.2,0.8,2.5,1,3.7
			c0.1,0.6,0.4,1.1,0.5,1.7c0.1,0.6-0.4,0.5-0.9,0.4c-0.3,0-0.7,0.1-0.9,0c-0.3-0.1-0.3-0.2-0.3-0.5c-0.1-0.4-0.2-1.6-0.6-1.8
			c-0.2-0.1-0.6,0-0.8,0c-0.3,0-0.6,0-0.9,0c-0.7,0-0.7,0.4-0.9,1c-0.1,0.4-0.1,1.2-0.5,1.4c-0.2,0.1-0.5,0-0.7,0
			c-0.3,0-0.7,0-0.9,0c-0.5-0.1-0.2-0.7-0.1-1.1c0.2-0.7,0.4-1.4,0.6-2.2c0.4-1.4,0.8-2.8,1.1-4.1c0.2-0.6,0.4-1.3,0.5-1.9
			c0-0.2,0.2-1.3,0.4-1.3C311.8,493.5,312.2,493.5,312.5,493.5z M312.4,497.3c-0.1,0-0.2,0.8-0.2,0.8c-0.1,0.4-0.2,0.8-0.4,1.2
			c-0.1,0.4-0.1,0.4,0.3,0.4c0.2,0,0.8,0.2,0.9,0C313.2,499.6,312.5,497.3,312.4,497.3z"/>
		<path class="st9" d="M320.7,500.4c0,0.5,0,0.9,0,1.3c0,0.2,0,0.4,0.1,0.4c0.1,0.1,0.4,0,0.6,0c0.6,0,1.1,0,1.6,0
			c0.4,0,1.2-0.1,1.3,0.3c0.1,0.2,0,0.6,0,0.8c0,0.2,0.1,0.6-0.1,0.8c-0.3,0.3-1.2,0.1-1.6,0.1c-1.2,0.1-2.4,0-3.5,0
			c-0.5,0-0.6-0.2-0.6-0.8c0-0.7,0-1.3,0-1.9c0-1.2,0-2.5,0.1-3.7c0-0.7,0-1.4,0-2.1c0-0.4,0-0.7,0-1.1c0-0.2-0.1-0.7,0-0.8
			c0.2-0.3,0.8-0.1,1.1-0.1c0.1,0,1-0.1,1,0.2C320.7,496,320.7,498.2,320.7,500.4z"/>
		<path class="st9" d="M326.5,500c0-1.2-0.1-2.4,0-3.7c0-0.6,0-1.1,0-1.7c0-0.2-0.1-0.6,0-0.8c0.1-0.3,0.1-0.3,0.4-0.3
			c0.4,0,0.9,0,1.3,0c0.5,0,0.5,0.3,0.5,0.7c-0.1,2-0.1,4,0,6c0,0.6,0,1.3,0,1.9c0,0.5,0.1,1,0,1.5c-0.1,0.6-0.6,0.4-1.1,0.4
			c-0.1,0-1,0.1-1-0.1C326.5,502.6,326.5,501.3,326.5,500z"/>
		<path class="st9" d="M330.8,494c0-0.6,0.6-0.5,1.1-0.5c1.3,0.1,2.6,0,3.9,0.1c0.5,0,1.2-0.2,1.6-0.1c0.4,0.1,0.3,0.8,0.3,1.1
			c0,0.6,0,0.9-0.6,0.9c-0.4,0-0.7,0-1.1,0c-0.1,0-0.7-0.1-0.8,0c-0.1,0.1,0,0.4,0,0.5c0,0.3-0.1,0.6-0.1,0.8c0,0.8,0,1.5,0,2.3
			c0,1.3-0.1,2.7,0,4c0,0.3,0.1,0.7-0.1,0.9c-0.1,0.1-0.4,0-0.6,0c-0.3,0-0.7,0.1-1,0c-0.5-0.1-0.4-0.4-0.4-0.8c0-0.6,0-1.2,0-1.8
			c0-1.5,0-3.1,0-4.6c0-0.3,0.1-0.8,0-1.1c-0.1-0.3-0.2-0.3-0.5-0.3c-0.3,0-1.8,0.2-1.8-0.1C330.8,494.9,330.8,494.4,330.8,494z"/>
		<path class="st9" d="M345.1,493.5c0.1,0,0.6-0.1,0.7,0c0.3,0.1,0.1,0.5,0,0.7c-0.5,1.1-1,2.3-1.5,3.4c-0.2,0.5-0.5,0.9-0.6,1.5
			c-0.1,0.6,0,1.1-0.1,1.7c0,0.6,0,1.2,0,1.8c0,0.4,0.2,1.2-0.2,1.4c-0.2,0.1-0.6,0-0.8,0c-0.3,0-0.7,0.1-0.9,0
			c-0.4-0.2-0.3-0.8-0.2-1.2c0-0.6,0.1-1.2,0-1.8s0.2-1.3,0-1.9c-0.4-1.2-1.1-2.3-1.6-3.5c-0.2-0.6-0.6-1.1-0.8-1.6
			c-0.2-0.6,0.3-0.4,0.7-0.4c0.5,0,1.1-0.2,1.4,0.3c0.4,0.5,0.6,1.2,0.9,1.7c0.1,0.1,0.3,0.7,0.4,0.7c0.1,0,0.2-0.5,0.3-0.6
			c0.4-0.7,0.8-1.4,1.1-2.1C344.1,493.3,344.8,493.6,345.1,493.5z"/>
	</g>
	<g class="st0">
		<defs>
			<rect id="SVGID_9_" width="378" height="540"/>
		</defs>
		<clipPath id="SVGID_10_">
			<use xlink:href="#SVGID_9_"  style="overflow:visible;"/>
		</clipPath>
		<g class="st13">
			<g>
				<defs>
					<rect id="SVGID_11_" x="22.2" y="16.7" width="481.3" height="178.4"/>
				</defs>
				<clipPath id="SVGID_12_">
					<use xlink:href="#SVGID_11_"  style="overflow:visible;"/>
				</clipPath>
				<g class="st14">
					<path class="st9" d="M112.6,98.4c0.5,13.9-1.2,28-0.3,42.1c0.1,2.3,0.7,5.3-1.5,7c-2.3,1.6-6.3-0.3-8.9-0.1
						c-3.5,0.1-5.4,1.6-6.9-2.2c-1.1-2.9-0.1-7.9,0-10.8c0.3-6.8,0.5-13.9,0.3-20.8c-0.1-3.8,0.1-7.8-0.1-11.5
						c-0.1-0.4-0.1-5.3,0-6.1c-0.5,1.4-9.5,31.3-10.3,34.3c-1.1,4.5-2.3,11.3-4.6,15.4c-1.8,2.9-9.7,3.7-12.4,1.4
						c-3.4-3-12.8-52.2-14.7-51.9c-0.8,0.3,0,16.8,0.1,18.7c0,6.8-0.1,13.5-0.1,20.4c0,4.4,2.3,12.7-3.4,13.4
						c-2.5,0.4-5.4-0.3-7.9,0c-1.5,0.1-4.6,1.2-5.9,0c-0.8-1.1-0.3-4.2-0.3-5.5l0.3-11.2c0.1-12.6,0.1-24.9-0.3-37.4
						c-0.1-6.6-0.3-13.3,0-19.8c0.1-3.1,0.4-6.1,0.4-9.2c0-1.1-1.1-5.7-0.1-6.7c1.2-1.4,6-0.1,7.5-0.1c2-0.1,3.9-0.7,6-0.8
						c5.6-0.1,7.6,1.5,9,6.7c1.5,6.3,3.9,12.4,6,18.7c1.9,6.3,3.3,12.8,5.3,19.1c1,2.5,2.5,8.1,3,9.8c1.1,3.3,1.4,2.3,1.8,0.7
						c1.4-5.2,2-6.6,2.5-8.1c3.8-12.8,8-25.7,12.1-38.7c2-6.8,3.5-8.3,11-7.8c1.4,0.1,11.8-0.5,11.8,1.2
						C112,71.9,112.1,85.2,112.6,98.4z"/>
				</g>
				<g class="st14">
					<path class="st12" d="M169.6,57.2c6,0.7,5.6,7.1,6.8,11.9c3,11.3,6.1,22.7,9,34c3,11.3,6.1,23,8.9,34.4
						c0.8,3.1,4.6,8.3,0.8,10.1c-1.8,1-6-0.7-8.2-0.5c-1.8,0-5,1.4-6.7,0.3c-1.9-1.4-3.1-7.9-3.5-10.2c-0.7-2.9-0.5-8.3-3.7-9.7
						c-1.4-0.5-4.5,0.3-6,0.1c-2.7,0-5.4,0-8.2-0.3c-6.3-0.3-5.4,3.3-6.8,8.3c-0.7,2.6-1.4,9.2-3.1,11.1c-1.6,1.8-3,0.8-5.2,0.7
						c-2.7-0.1-5.6,0.1-8.4,0.1c-6.3-0.3-3.4-4.5-2.2-9c1.8-6.4,3-13.1,4.9-19.5c3-10.5,6.4-21.3,8.6-31.8c0.5-2,1.6-4,2-6.3
						c0.5-3.7,1.6-6.7,2.7-10.1c0.5-1.8,1.5-13,4.2-13C160.2,57.7,164.9,56.6,169.6,57.2z M167.3,99.1c-0.3-1.4-1.4-9.2-3.4-9.2
						c-0.5,0-4.8,16.9-4.9,18c-0.7,3.1-0.5,2.7,2.7,2.7c1.5,0,8,0.7,8.4,0C171.1,109.5,167.5,100.6,167.3,99.1z"/>
				</g>
				<g class="st14">
					<path class="st15" d="M253.5,89.9c2.3,5.5,4.8,12,6.9,17.6c2.5,6.7,5.2,13,8,19.4c1.5,3.6,2.9,7.2,3.9,10.9
						c0.7,2.3,2.5,4.2,3,6.3c1.5,4.9-8,3.7-11,3.8c-1.8,0.1-6.7,0.4-8.3-0.7c-2.3-1.5-3-7.1-3.7-9.4c-2.2-6.6-4.5-13-6.8-19.4
						c-0.5-1.4-2.9-12.4-5.2-12.4c-1.4,0-2.5,2.6-3,3.4c-1.6,2.7-3,4.2-3.4,7.5c-1,6,0.3,12.8,0.3,18.9c0,2.5,0.4,6.4,0,8.7
						c-0.7,3.6-3.4,2.9-6.3,2.9c-3.3,0-11,1.8-12.1-1.9c-0.5-1.9,0.1-5.3,0.1-7.5c0-4.1,0-8.2,0.1-12.3c0.5-12.6,0.3-25.5,0.4-38
						c0-7.8,0.3-16-0.4-23.8c-0.4-3.6-1-6.1,3.1-6.7c3.3-0.4,7.4-0.1,10.9-0.3c6.7-0.1,3.9,7.4,4.1,12c0.1,2-2.3,16.8,0.3,17.5
						c-0.3-0.1,5.7-7.9,5.7-8.1c3.7-4.8,7.4-9.4,10.8-14.3c3.7-4.9,4.6-6.7,11.3-6.7c3,0,6.4-0.7,9.4-0.4c2.3,0.3,3.8-0.1,2.6,2.2
						c-2.5,4.6-7.5,10.5-11,15.4C260.7,78.2,253,89,253.5,89.9z"/>
				</g>
				<g class="st14">
					<path class="st7" d="M294.9,121.2c-0.3-6.6-0.1-13.1,0-19.7c0.1-6.1-0.3-12.4-0.4-19c0-5.5,0-10.7,0.3-16.1
						c0.1-1.8-1.1-7.1-0.1-8.5c1.2-1.8,4.6-0.4,6.4-0.4c7.5,0.5,15.1-0.1,22.6-0.3c3.9-0.1,7.8,0.1,11.6,0.3c1.8,0,5.7-1.1,7.1,0
						c1.9,1.6,0.8,7.8,1,10c0,3.1,1.2,6.4-2.5,7.1c-3,0.7-7.4-0.1-10.5-0.1c-3.5,0.1-7.1,0.3-10.5,0.1c-1.9,0-5-1.4-6.7,0.1
						c-1.6,1.6-0.8,7.5-0.8,9.6c0,2.2-0.5,6.8,0.8,8.7c0.7,1,7.1,0.1,9.7,0c3.7-0.1,7.6-0.7,11.3-0.1c3.7,0.7,2.6,2.7,2.6,6.1
						c0.1,2.6,1.4,7.5,0.1,9.7c-1.4,2.7-4.1,1.9-6.7,1.8c-3.1-0.3-5.7,0.3-8.7,0.4c-2.2,0-5.2-0.7-7.4-0.1c-3,0.8-1.2,11.1-1.5,14.3
						c-0.3,2.9,0.5,4.5,1.1,5.3c2.6,0.7,8.2,0.4,10.8,0.4c4.6-0.1,7.9,0.1,12.5-0.3c4.8-0.4,6.3-0.3,6.4,4.5c0,3.1,0.4,7.1-0.1,10.1
						c-0.8,3.7-3.7,2.3-6.7,2.2c-4.4-0.1-41.9,3.1-41.9,0.3C294.6,139.4,295.3,129.6,294.9,121.2z"/>
				</g>
			</g>
		</g>
	</g>
	<g class="st0">
		<path class="st10" d="M181.8,172.2c0-0.5,0-1,0-1.4c0-0.5,0-1.1,0-1.5v-3.7c0-0.2,0-0.5,0-0.9c0-0.7,0.1-1.4,0.6-1.4
			c0.2,0,0.5,0.2,0.7,0.3c0.2,0.2,0.2,1.8,0.2,2.5v5.5c0,0.9,0,1.8-0.2,2.7c-0.3,1.8-1.9,3-3.7,3c-1.2,0-2.1-0.7-2.8-1.5
			c-0.2-0.2-0.4-0.5-0.4-0.9c0-0.3,0.4-0.9,0.7-0.9c0.2,0,0.5,0.4,0.8,0.8c0.6,0.8,0.8,1.1,2,1.1
			C181.5,175.7,181.8,173.8,181.8,172.2z"/>
		<path class="st10" d="M189.8,163.2c0.3,0,0.7,0,1,0s0.6,0,1,0c0.2,0,0.4,0,0.6,0c0.2,0,0.4,0,0.6,0h1.7c0.3,0,0.8,0.3,0.8,0.6
			c0,0.5-0.6,0.8-1,0.8c-0.2,0-0.4,0-0.6,0s-0.4,0-0.6,0c-0.1,0-0.4,0-0.8,0c-0.5,0-1.2,0-1.7,0h-0.8v0.3c0,0.3,0,0.5,0,0.8
			c0,0.3,0,0.5,0,0.8c0,0,0,0,0,0.1c0,0.2,0,0.6,0,0.9v0.3c0,0.3,0,0.6,0,0.9c0,0.3,0,0.3,0,0.5c0.2,0,0.4,0,0.5,0
			c0.1,0,0.2,0,0.3,0c0.1,0,0.2,0,0.3,0c0.3,0,0.6,0,0.8,0c0.1,0,0.3,0,0.4,0c0.1,0,0.3,0,0.4,0c0.1,0,0.3,0,0.5,0
			c0.5,0,1.1,0.2,1.1,0.9c0,0.7-0.9,0.7-1.4,0.7h-0.1c-0.4,0-0.9,0-1.3,0c-0.3,0-0.9,0-1.2,0c-0.1,0-0.3,0-0.3,0c-0.1,0-0.1,0-0.2,0
			c0.2,0,0.1,0.1,0.1,0.2c0,0.2,0,0.4,0,0.6v0.6c0,0.6,0,1.2,0,1.8c0,0.6,0,1.2,0,1.7v0c0.2,0,0.5,0,0.8,0c0.6,0,1.3,0,1.5,0
			c0.1,0,0.5,0,0.7,0c0.2,0,0.5,0,0.7,0h0.1c0.3,0,1,0,1.2,0.2c0.2,0.1,0.5,0.4,0.5,0.7c0,0.5-1,0.5-1.5,0.5h-0.1
			c-0.7,0-1.4,0-2.1,0c-0.7,0-1.4,0-2.1,0c-1,0-1-0.6-1-1.3v-0.1c0-0.2,0-0.4,0-0.6v-0.6c0-0.9,0-1.9,0-2.8c0-0.7,0-2,0-2.8
			c0-0.2,0-0.3,0-0.5c0-0.2,0-0.4,0-0.6c0-0.3,0-0.7,0-1c0-0.3,0-0.8,0-1.1c0-0.5,0-1.1,0-1.6C188.9,163.4,189.3,163.2,189.8,163.2z
			"/>
		<path class="st10" d="M207,175.9c0,0-0.3-0.6-0.5-1.1l-0.3-0.6h0l-0.5-0.9c-0.2-0.4-0.4-0.9-0.6-1.3c-0.2-0.5-0.5-1-0.7-1.4
			c-0.6-1.1-1.1-2.2-1.6-3.2l-0.2-0.4v0l-0.1-0.2c0,0.7,0,1.5,0,2.2c0,1.1,0,2.1,0,3.2c0,0.4,0,0.7,0,1.1c0,0.4,0,0.7,0,1.1v0.3
			c0,0.9,0,2.5-0.8,2.5c-0.4,0-0.6-0.6-0.6-0.9V174c0-0.9,0-1.8,0-2.7v-7c0-0.3,0.1-1,0.6-1c0.6,0,0.9,0.6,1,0.9v0l0.6,1.1
			c0.5,1,1.1,2,1.5,3c0.4,0.8,0.8,1.6,1.2,2.4l0,0c0,0.1,0.1,0.1,0.1,0.3v0l0.3,0.6c0.1,0.1,0.1,0.3,0.2,0.4l0.1,0.2l0,0.1
			c0.3,0.5,0.5,1,0.7,1.3c0-0.3,0-0.5,0-0.8c0-0.5,0-1.4,0-1.9c0-0.4,0-0.8,0-1.2c0-0.4,0-0.9,0-1.3c0-0.5,0-1,0-1.5
			c0-0.4,0-1.1,0-1.5c0-0.2,0-0.3,0-0.5c0-0.2,0-0.4,0-0.6c0-0.5,0.3-0.9,0.9-0.9c0.6,0,0.6,0.4,0.6,0.8v6.6c0,1.4,0,2.9,0,4.3
			c0,0.5,0,2.2-0.5,2.2C207.8,177.2,207.1,176.1,207,175.9z"/>
		<path class="st10" d="M220.4,175.7c0,0,0-0.1,0-0.1c-0.2-0.5-0.6-1.1-0.9-1.5c-0.1-0.2-0.2-0.4-0.3-0.6c-0.1-0.2-0.3-0.6-0.4-0.9
			h0c-0.1-0.2-0.2-0.3-0.2-0.4c-0.3-0.5-0.5-1-0.8-1.5l-0.5-0.9c-0.4-0.8-0.9-1.7-1.2-2.5v0c0,0,0-0.1-0.1-0.2l-0.1-0.2
			c0,0.9,0,1.7,0,2.6v6.3c0,0.1,0,0.4,0,0.4c0,0.4-0.3,1-0.8,1c-0.7,0-0.7-1-0.7-1.4c0-1.6,0-3.1,0-4.6v-4.6c0-0.2,0-0.4,0-0.6
			c0-0.3,0-0.6,0-0.9v-0.2c0-0.6-0.1-1.6,0.6-1.6c0.6,0,0.8,0.6,1,1.1l0.1,0.3l0.5,0.9l0.9,1.8c0.1,0.1,0.1,0.3,0.2,0.4v0l0.2,0.4
			l0,0c0.3,0.6,0.6,1.2,0.9,1.9c0.3,0.6,0.6,1.2,0.9,1.8c0.3,0.5,0.5,0.9,0.7,1.3c0,0.1,0.1,0.3,0.2,0.4v-1.2c0-0.8,0-1.6,0-2.4
			c0-0.6,0-1.8,0-2.4v-2.9c0,0,0-0.1,0-0.1c0-0.1,0-0.2,0-0.4c0-0.4,0.5-0.8,0.9-0.8c0.6,0,0.6,1,0.6,1.5v0.1c0,1.2,0,2.5,0,3.7
			c0,1.2,0,2.5,0,3.7v4.1c0,0.3-0.1,0.7-0.6,0.7C221,177.1,220.6,176.2,220.4,175.7z"/>
		<path class="st10" d="M232.3,173.4c-0.4,0-0.8,0-1.2,0h-1.1l-0.3,1c-0.2,0.6-0.4,1.3-0.5,1.9c-0.1,0.3-0.3,0.6-0.7,0.6
			s-0.7-0.3-0.7-0.7c0-0.1,0-0.3,0.1-0.4l0,0.1c0.1-0.4,0.2-0.8,0.3-1.2c0.1-0.4,0.2-0.8,0.3-1.1l0.3-0.9l0,0
			c0.4-1.4,0.8-2.7,1.2-4.1c0.1-0.4,0.3-0.8,0.4-1.2c0.3-0.9,0.7-2.1,0.8-3c0.1-0.4,0.3-1.1,0.9-1.1c0.6,0,0.9,0.7,1,1.1l0.4,1.2
			c0.2,0.8,0.4,1.7,0.7,2.5c0.4,1.1,0.7,2.2,0.9,3.2c0.3,1.1,0.9,3,1.2,3.9c0,0.1,0,0.2,0.1,0.3c0.1,0.2,0.2,0.5,0.2,0.7
			s0,0.8-0.5,0.8c-0.5,0-0.9-0.6-0.9-1c-0.1-0.5-0.2-0.8-0.4-1.1c-0.2-0.5-0.4-1.1-0.5-1.4H232.3z M230.3,172h0.8c0.2,0,0.4,0,0.6,0
			h2.2c0-0.3-0.2-0.6-0.3-0.9v0c-0.2-0.6-0.2-0.4-0.2-0.5c-0.2-0.6-0.3-1.1-0.5-1.7c-0.3-0.8-0.5-1.6-0.7-2.5l-0.1-0.5
			c0-0.1,0,0,0-0.1c-0.3,0.9-0.5,1.7-0.7,2.6l-0.6,1.9c0,0.2-0.1,0.5-0.2,0.7C230.5,171.4,230.4,171.7,230.3,172z"/>
		<path class="st10" d="M249.8,164c0-0.4,0.4-0.6,0.7-0.6c0.5,0,0.7,0.3,0.7,0.8c0,0.5,0,1,0,1.5c0,0.5,0,1,0,1.5c0,0.4,0,0.8,0,1.2
			c0,0.3,0,0.6,0,0.9c0.6,0,1.2,0,1.8,0h0.7c0.3,0,0.7,0,1,0c0.3,0,0.6,0,0.9,0c0.4,0,0.6,0,1,0c0-0.8,0-1.5,0-2.3
			c0-0.8,0-1.7,0-2.5c0-0.4,0-1.3,0.6-1.3c0.7,0,0.7,0.8,0.7,1.3c0,0.2,0,0.4,0,0.6c0,0.2,0,0.5,0,0.6v10.4c0,0.3-0.2,1-0.7,1
			c-0.7,0-0.7-1-0.7-1.5l-0.1-4.9c-0.3,0-0.6,0-0.9,0c-0.5,0-1,0-1.5,0c-0.5,0-1,0-1.4,0c-0.2,0-0.5,0-0.7,0c-0.2,0-0.5,0-0.7,0
			c0,0.2,0,0.5,0,0.7c0,0.1,0,0.3,0,0.4c0,0.2,0,0.3,0,0.5c0,0.2,0,0.4,0,0.6v3.4c0,0.4-0.5,0.9-0.8,0.9c-0.7,0-0.6-2-0.6-2.5V164z"
			/>
		<path class="st10" d="M264.8,163.2c0.3,0,0.7,0,1,0c0.3,0,0.6,0,1,0c0.2,0,0.4,0,0.6,0c0.2,0,0.4,0,0.6,0h1.7
			c0.3,0,0.8,0.3,0.8,0.6c0,0.5-0.6,0.8-1,0.8c-0.2,0-0.4,0-0.6,0c-0.2,0-0.4,0-0.6,0c-0.1,0-0.4,0-0.8,0c-0.5,0-1.2,0-1.7,0h-0.8
			v0.3c0,0.3,0,0.5,0,0.8c0,0.3,0,0.5,0,0.8c0,0,0,0,0,0.1c0,0.2,0,0.6,0,0.9v0.3c0,0.3,0,0.6,0,0.9c0,0.3,0,0.3,0,0.5
			c0.2,0,0.4,0,0.5,0c0.1,0,0.2,0,0.3,0c0.1,0,0.2,0,0.3,0c0.3,0,0.6,0,0.8,0c0.1,0,0.3,0,0.4,0c0.1,0,0.3,0,0.4,0s0.3,0,0.5,0
			c0.5,0,1.1,0.2,1.1,0.9c0,0.7-0.9,0.7-1.4,0.7h-0.1c-0.4,0-0.9,0-1.3,0c-0.3,0-0.9,0-1.2,0c-0.1,0-0.3,0-0.3,0c-0.1,0-0.1,0-0.2,0
			c0.2,0,0.1,0.1,0.1,0.2c0,0.2,0,0.4,0,0.6v0.6c0,0.6,0,1.2,0,1.8c0,0.6,0,1.2,0,1.7v0c0.2,0,0.5,0,0.8,0c0.6,0,1.3,0,1.5,0
			c0.1,0,0.5,0,0.7,0c0.2,0,0.5,0,0.7,0h0.1c0.3,0,1,0,1.2,0.2c0.2,0.1,0.5,0.4,0.5,0.7c0,0.5-1,0.5-1.5,0.5h-0.1
			c-0.7,0-1.4,0-2.1,0c-0.7,0-1.4,0-2.1,0c-1,0-1-0.6-1-1.3v-0.1c0-0.2,0-0.4,0-0.6v-0.6c0-0.9,0-1.9,0-2.8c0-0.7,0-2,0-2.8
			c0-0.2,0-0.3,0-0.5c0-0.2,0-0.4,0-0.6c0-0.3,0-0.7,0-1c0-0.3,0-0.8,0-1.1c0-0.5,0-1.1,0-1.6C263.8,163.4,264.3,163.2,264.8,163.2z
			"/>
		<path class="st10" d="M276,176.2V167c0-0.2,0-0.4,0-0.6c0-0.2,0-0.4,0-0.6c0-0.2,0-0.5,0-0.7c0-0.2,0-0.5,0-0.8c0-1.1,0.8-1,1.5-1
			h1.7c0.7,0,1.5,0,2.2,0.3c0.9,0.3,1.5,1,1.8,1.9c0.2,0.6,0.2,1,0.2,1.5c0,0.2,0,0.3,0,0.5c0,0.3,0,0.5,0,0.7c0,0.2,0,0.6,0,0.8
			c0,1.3-0.2,2.8-1.6,3.5l0,0c-0.3,0.2-0.4,0.2-0.6,0.2c0.1,0.2,0.1,0.3,0.2,0.5c0.1,0.2,0.4,1,0.4,1c0,0,0,0.1,0.1,0.1
			c0,0,0.2,0.3,0.2,0.3c0,0.1,0.1,0.2,0.2,0.4c0.2,0.4,0.5,0.9,0.5,1.4c0,0.4-0.2,0.6-0.6,0.6c-0.1,0-0.1,0-0.3,0l0,0
			c-0.4-0.1-0.6-0.5-0.7-0.9c0-0.2-0.2-0.4-0.4-0.7c-0.1-0.3-0.3-0.6-0.4-1v0l-0.3-0.6l0,0c-0.1-0.1-0.1-0.3-0.2-0.4
			c-0.1-0.3-0.2-0.6-0.4-0.6c-0.4,0-0.9,0-1.3,0h-0.9c0,0.1,0,0.1,0,0.2c0,0.4,0,0.9,0,1.4c0,0.2,0,0.5,0,0.7v0.3
			c0,0.6,0.1,1.5-0.7,1.5C276.2,177.1,276,176.6,276,176.2z M280,164.7c-0.2,0-0.4,0-0.6,0c-0.2,0-0.4,0-0.6,0s-0.4,0-0.6,0
			c-0.1,0-0.4,0-0.5,0h-0.4c0,0,0,0.1,0,0.1c0,0.1,0,0.3,0,0.5c0,0.4,0,0.8,0,1.2v1.2c0,0.5,0,1,0,1.5c0,0.5,0,1,0,1.5
			c0,0.4,0,0.6,0,1h0.3c0.4,0,0.9,0,1.3,0h0.6c1.7,0,2.5-0.6,2.5-2.3v-1.3c0-0.4,0-0.9,0-1.4C282,165.4,281.1,164.7,280,164.7z"/>
		<path class="st10" d="M289.2,164.1c0-0.6,0.6-0.8,1-0.8h1c0.3,0,0.7,0,1,0c2.3,0,4.1,0.3,4.1,3.2c0,0.8-0.2,1.7-0.7,2.3
			c1.3,0.9,1.6,2.5,1.6,4c0,4.2-2.9,4.2-6,4.2h-0.3c-0.1,0-0.2,0-0.3,0h-0.2c-0.7,0-1.2,0-1.2-1c0-0.3,0-0.7,0-1.1c0-0.3,0-0.8,0-1
			c0-0.5,0-0.9,0-1.4c0-0.5,0-1,0-1.5c0-0.3,0-0.6,0-0.9c0-0.3,0-0.6,0-0.9c0-0.1,0-0.2,0-0.4c0-0.1,0-0.3,0-0.5V164.1z
			 M291.3,164.8h-0.8c0,0.3,0,0.5,0,0.8c0,0.3,0,0.7,0,1c0,0.2,0,0.4,0,0.6c0,0.2,0,0.4,0,0.6v0.6c0.3,0,0.8,0,1.1,0h0.7
			c0.8,0,1.6,0,2.1-0.5v0c0.3-0.3,0.4-0.7,0.4-1.2c0-1.8-0.9-2-2.5-2C292,164.7,291.7,164.8,291.3,164.8z M292.9,169.7h-2.3v4.5
			c0,0.2,0,0.3,0,0.5c0,0.3,0,0.7,0,1h0.6c0.2,0,0.3,0,0.4,0c0.1,0,0.2,0,0.3,0c2.2,0,3.8-0.2,3.8-2.9
			C295.7,170.8,295.2,169.7,292.9,169.7z"/>
		<path class="st10" d="M303.7,164.1c0,1.2,0,2.5,0,3.7c0,1.2,0,2.5,0,3.7c0,0.1,0,0.2,0,0.3c0,0.1,0,0.3,0,0.4c0,0.1,0,0.3,0,0.4
			c0,0.1,0,0.3,0,0.3c0,0.4,0.3,1.4,0.6,1.7h0c0.8,0.8,1.6,0.9,2.7,0.9c1.4,0,2.7-0.8,2.9-2.2c0-0.4,0.1-0.8,0.1-1.1
			c0-0.2,0-0.5,0-0.7c0-0.3,0-0.5,0-0.8c0-0.6,0-1.1,0-1.7v-1.8c0-0.3,0-0.6,0-0.8c0-0.3,0-0.6,0-0.8c0-0.1,0-0.2,0-0.3
			c0-0.1,0-0.2,0-0.4v-0.1c0-0.5-0.1-1.6,0.7-1.6c0.6,0,0.8,0.5,0.8,0.9v4.4c0,0.1,0,0.3,0,0.4c0,0.1,0,0.2,0,0.3c0,0.3,0,0.6,0,0.9
			v2.3c0,1.6-0.3,2.6-1.5,3.6c-0.4,0.3-0.9,0.6-1.3,0.7h0L308,177l-0.3,0.1c-0.2,0-0.6,0-0.9,0h-0.3c-2.5,0-4.3-1.7-4.3-4.2
			c0-0.6,0-1.1,0-1.7c0-0.4,0-1.2,0-1.7c0-0.5,0-0.9,0-1.4c0-0.5,0-0.9,0-1.4c0-0.2,0-0.4,0-0.6c0-0.2,0-0.4,0-0.6V164
			c0-0.4,0.3-0.6,0.7-0.6C303.4,163.4,303.7,163.6,303.7,164.1z"/>
		<path class="st10" d="M323.1,164.8c-0.2,0-0.4,0-0.5,0c-0.2,0-0.3,0-0.4,0h-0.9c-0.1,0-0.2,0-0.3,0c-0.1,0-0.2,0-0.3,0v3.5
			c0,1.2,0,2.4,0,3.7c0,1.2,0,2.4,0,3.7c0,0.4,0,1.5-0.6,1.5c-0.9,0-0.9-1-0.9-1.5c0-1.1,0-2.3,0-3.4c0-0.9,0-2.6,0-3.5
			c0-0.5,0-1.1,0-1.6c0-0.5,0-1.1,0-1.6c0-0.3,0-0.6,0-0.8h-2.8c-0.4,0-0.7-0.3-0.7-0.7c0-0.6,0.8-0.7,1.2-0.7h0.1
			c0.2,0,0.5,0,0.7,0s0.4,0,0.7,0c0.2,0,0.5,0,0.7,0h4.2c0.4,0,0.7,0.2,0.7,0.6C324.1,164.5,323.6,164.8,323.1,164.8z"/>
	</g>
	<g class="st0">
		<path class="st10" d="M35.9,40.2v-0.8h1.2v-5.4h-1.2v-0.8h5.8v2.1h-0.9v-1.3h-2.6v2.4h2.3v0.8h-2.3v2.3h1.3v0.8H35.9z M46.3,39.4
			h1.2v0.8h-3.4v-0.8h1.2v-5.4h-1.2v-0.8h3.2c1.7,0,2.7,0.8,2.7,2.1c0,1-0.6,1.7-1.5,2l1.3,2.2H51v0.8h-1.8l-1.6-2.8
			c-0.2,0-0.4,0-0.5,0c-0.2,0-0.6,0-0.8,0V39.4z M46.3,33.9v2.6c0.3,0,0.6,0,1,0c1.1,0,1.8-0.5,1.8-1.4c0-0.8-0.7-1.3-1.8-1.3H46.3z
			 M60.5,36.6c0,2.1-1.5,3.7-3.7,3.7c-2.2,0-3.7-1.6-3.7-3.7c0-2.1,1.5-3.7,3.7-3.7S60.5,34.6,60.5,36.6z M59.5,36.6
			c0-1.7-1.1-2.8-2.7-2.8c-1.6,0-2.7,1.2-2.7,2.8c0,1.7,1.1,2.8,2.6,2.8C58.4,39.4,59.5,38.3,59.5,36.6z M72.1,33.1v0.8h-1.2
			l0.3,5.4h1.2v0.8H69v-0.8h1.2L70,34.7l-2.2,4.4h-0.3l-2.2-4.4l-0.2,4.7h1.2v0.8H63v-0.8h1.2l0.2-5.4h-1.2v-0.8h2.2l2.3,4.5
			l2.3-4.5H72.1z M80.7,39.4h1.2v-5.4h-1.8v1.3h-0.9v-2.2h6.4v2.2h-0.9v-1.3h-1.8v5.4h1.2v0.8h-3.4V39.4z M88.1,39.4h1.2v-5.4h-1.2
			v-0.8h3.4v0.8h-1.2v2.3h3.8v-2.3h-1.2v-0.8h3.4v0.8h-1.2v5.4h1.2v0.8h-3.4v-0.8h1.2V37h-3.8v2.3h1.2v0.8h-3.4V39.4z M98.9,40.2
			v-0.8h1.2v-5.4h-1.2v-0.8h5.8v2.1h-0.9v-1.3h-2.7v2.3h2.3V37h-2.3v2.3h2.7v-1.3h0.9v2.1H98.9z M111.9,40.2v-0.8h1.2v-5.4h-1.2
			v-0.8h5.8v2.1h-0.9v-1.3h-2.6v2.4h2.3v0.8h-2.3v2.3h1.3v0.8H111.9z M127.4,36.6c0,2.1-1.5,3.7-3.7,3.7c-2.2,0-3.7-1.6-3.7-3.7
			c0-2.1,1.5-3.7,3.7-3.7S127.4,34.6,127.4,36.6z M126.4,36.6c0-1.7-1.1-2.8-2.7-2.8c-1.6,0-2.7,1.2-2.7,2.8c0,1.7,1.1,2.8,2.6,2.8
			C125.3,39.4,126.4,38.3,126.4,36.6z M131.9,37.6c0,1.2,0.7,1.9,1.8,1.9c1.1,0,1.8-0.7,1.8-1.9v-3.7h-1.2v-0.8h3.3v0.8h-1.1v3.6
			c0,1.8-1.1,2.8-2.8,2.8c-1.7,0-2.8-1-2.8-2.8v-3.7h-1.1v-0.8h3.3v0.8h-1.2V37.6z M146,38.3v-4.4h-1.2v-0.8h3.3v0.8H147v6.3h-0.6
			l-4.2-5.5v4.7h1.2v0.8H140v-0.8h1.2v-5.4H140v-0.8h2.1L146,38.3z M150.6,40.2v-0.8h1.2v-5.4h-1.2v-0.8h3.1c2.5,0,4.1,1.3,4.1,3.5
			c0,2.2-1.5,3.6-4.1,3.6H150.6z M153.8,39.4c2,0,3-1.1,3-2.8c0-1.7-1.2-2.6-3.1-2.6h-0.9v5.4H153.8z M160.5,40.2v-0.8h1.2v-5.4
			h-1.2v-0.8h5.8v2.1h-0.9v-1.3h-2.7v2.3h2.3V37h-2.3v2.3h2.7v-1.3h0.9v2.1H160.5z M171.2,39.4h1.2v0.8H169v-0.8h1.2v-5.4H169v-0.8
			h3.2c1.7,0,2.7,0.8,2.7,2.1c0,1-0.6,1.7-1.5,2l1.3,2.2h1.1v0.8h-1.8l-1.6-2.8c-0.2,0-0.4,0-0.5,0c-0.2,0-0.6,0-0.8,0V39.4z
			 M171.2,33.9v2.6c0.3,0,0.6,0,1,0c1.1,0,1.8-0.5,1.8-1.4c0-0.8-0.7-1.3-1.8-1.3H171.2z M189.8,36.6c0,2.1-1.5,3.7-3.7,3.7
			c-2.2,0-3.7-1.6-3.7-3.7c0-2.1,1.5-3.7,3.7-3.7S189.8,34.6,189.8,36.6z M188.8,36.6c0-1.7-1.1-2.8-2.7-2.8c-1.6,0-2.7,1.2-2.7,2.8
			c0,1.7,1.1,2.8,2.6,2.8C187.7,39.4,188.8,38.3,188.8,36.6z M192.5,40.2v-0.8h1.2v-5.4h-1.2v-0.8h5.8v2.1h-0.9v-1.3h-2.6v2.4h2.3
			v0.8h-2.3v2.3h1.3v0.8H192.5z"/>
	</g>
	<g class="st0">
		<path class="st10" d="M206.6,38.9h1.1v-4.8h-1.3v1.5H205v-2.7h7v2.7h-1.4v-1.5h-1.3v4.8h1.1v1.3h-3.8V38.9z M214.3,38.9h1.1v-4.8
			h-1.1v-1.3h3.7v1.3h-1.1v1.8h3.1v-1.8h-1.1v-1.3h3.7v1.3h-1.1v4.8h1.1v1.3h-3.7v-1.3h1.1v-1.8h-3.1v1.8h1.1v1.3h-3.7V38.9z
			 M225.1,40.2v-1.3h1.1v-4.8h-1.1v-1.3h6.1v2.6h-1.4v-1.3h-2.1V36h2.1v1.2h-2.1V39h2.1v-1.3h1.4v2.5H225.1z M247.5,32.8v1.3h-1.1
			l0.2,4.8h1.1v1.3H244v-1.3h1l-0.1-3.5l-1.9,3.5h-0.3l-2-3.5l-0.1,3.5h1.1v1.3h-3.7v-1.3h1.1l0.2-4.8h-1.1v-1.3h2.5l2.1,3.7l2-3.7
			H247.5z M256.2,32.8v1.3h-1l1.7,4.8h0.8v1.3h-3.3V39h1l-0.4-1.1h-2.6L252,39h1v1.2h-3.3v-1.3h0.8l1.7-4.8h-1v-1.3H256.2z
			 M252.8,36.7h1.8l-0.9-2.7L252.8,36.7z M264.5,36.2l1.8,2.8h1.1v1.3h-2.1l-2-3.1l-0.9,0.9v0.9h1.1v1.3h-3.7v-1.3h1.1v-4.8h-1.1
			v-1.3h3.5v1.2h-0.9v2.3l2.5-2.3h-0.9v-1.2h3.4v1.3h-0.8L264.5,36.2z M269.8,40.2v-1.3h1.1v-4.8h-1.1v-1.3h6.1v2.6h-1.4v-1.3h-2.1
			V36h2.1v1.2h-2.1V39h2.1v-1.3h1.4v2.5H269.8z M282.9,40.2v-1.3h1.1v-4.8h-1.1v-1.3h3.8v1.3h-1.1v4.8h1.1v1.3H282.9z M290.6,38.9
			h1.1v-4.8h-1.3v1.5H289v-2.7h7v2.7h-1.4v-1.5h-1.3v4.8h1.1v1.3h-3.8V38.9z M306.7,34.2c-0.2-0.1-0.6-0.2-1.1-0.2
			c-0.7,0-1.2,0.3-1.2,0.8c0,0.6,0.8,0.8,1.4,1c1.4,0.5,2.7,0.9,2.7,2.4c0,1.6-1.2,2.3-2.9,2.3c-1.6,0-3-0.8-3-1.9
			c0-0.6,0.3-1,0.9-1c0.6,0,1,0.4,1,0.9c0,0.2,0,0.3-0.1,0.5c0.3,0.2,0.7,0.3,1.2,0.3c0.8,0,1.4-0.2,1.4-0.9c0-0.6-0.8-0.8-1.5-1
			c-1.5-0.5-2.7-0.9-2.7-2.3c0-1.3,1.1-2.2,2.8-2.2c1.6,0,2.8,0.8,2.8,1.8c0,0.6-0.4,1-0.9,1c-0.7,0-1-0.5-1-0.9
			C306.6,34.3,306.6,34.2,306.7,34.2z M311.1,38.9h1.1v-4.8h-1.1v-1.3h3.7v1.3h-1.1v1.8h3.1v-1.8h-1.1v-1.3h3.7v1.3h-1.1v4.8h1.1
			v1.3h-3.7v-1.3h1.1v-1.8h-3.1v1.8h1.1v1.3h-3.7V38.9z M329.6,36.5c0,2.2-1.5,3.9-3.9,3.9s-3.9-1.7-3.9-3.9c0-2.1,1.5-3.9,3.9-3.9
			S329.6,34.4,329.6,36.5z M328,36.5c0-1.5-1-2.5-2.3-2.5s-2.3,1-2.3,2.5c0,1.5,1,2.5,2.3,2.5S328,38,328,36.5z M332.4,34.1h-0.9
			v-1.3h3.6v1.3H334l1.1,3.8l1.6-4.1h0.7l1.6,4.1l1.1-3.7h-1.1v-1.3h3.5v1.3h-0.9l-1.9,6.2h-1.1l-1.6-4l-1.6,4h-1.1L332.4,34.1z"/>
	</g>
	<g class="st0">
		<defs>
			<rect id="SVGID_13_" width="378" height="540"/>
		</defs>
		<clipPath id="SVGID_14_">
			<use xlink:href="#SVGID_13_"  style="overflow:visible;"/>
		</clipPath>
		<g class="st16">
			<path class="st12" d="M337.9,461c-4.1,0-9.4-2.7-9.4-8.2c0-5.3,4.6-9.2,9.6-9.2c5.3,0,9.2,3.6,9.2,8.9
				C347.3,458.2,342.7,461,337.9,461z M343.9,323.2c0.7,1.4,0.7,2.4,0.7,3.9c0,1.9-0.2,3.9-0.5,5.3s-0.2,3.1-0.2,4.1
				c0,2.9,0,5.5,0.2,8.2c0,2.9,0.2,5.8,0.2,8.4c0,1.7-0.2,4.1-0.5,5.8c0,0.7-0.2,1.7-0.2,2.2c-0.2,2.9,0,6.3,0.2,9.4
				c0.2,2.4,0.5,4.6,0.5,7v9.9c0,6.5-0.2,13,0,19.5c0,3.6-3.1,8.9-7.7,8.9c-2.2,0-4.3-1.4-5.5-3.1l0.5,0.2c-1.9-1.9-2.7-4.3-2.7-6.3
				v-10.8c0-3.6,0.2-7.2,0.2-10.8v-29.4c0-9.9,0.2-19.8,0.2-29.6c0-4.1,2.9-7.2,7-7.2C339.3,318.6,342.7,320.5,343.9,323.2z"/>
		</g>
		<g class="st16">
			<g>
				<defs>
					<rect id="SVGID_15_" x="104" y="117.3" width="164.3" height="116.3"/>
				</defs>
				<clipPath id="SVGID_16_">
					<use xlink:href="#SVGID_15_"  style="overflow:visible;"/>
				</clipPath>
				<g class="st17">
					<path class="st18" d="M113.5,180c0.3-6.7-0.4-13.5-0.3-20.3c0.1-3.2-0.1-6.3,0.1-9.5c0-1.2-0.4-3.3-0.1-4.4
						c0.6-1.7,0.5-1.4,2.2-1.8c2-0.3,5,0,7.1,0c2.8,0,2.9,1.8,2.7,4.1c-0.5,11.2-0.4,22.2-0.2,33.4c0,3.5,0.2,7.1,0,10.7
						c0,2.6,0.4,5.7,0,8.2c-0.7,3.2-3.5,2.3-6.1,2.2c-0.5,0-5.7,0.4-5.7-0.8C113.3,194.6,113.2,187.3,113.5,180z"/>
					<path class="st18" d="M128.3,146.7c0-3.5,3.5-2.8,6.3-2.7c7.3,0.4,14.4,0.2,21.7,0.4c2.7,0,6.4-1.2,8.9-0.4
						c2.5,0.8,1.9,4.2,1.8,6.3c-0.1,3.2,0.3,4.8-3.1,4.9c-1.9,0-3.9,0.1-5.8,0.1c-0.8,0.1-3.9-0.4-4.5,0.3c-0.5,0.5,0.1,1.9,0.2,2.7
						c0,1.5-0.4,3.1-0.4,4.6c0,4.2,0.1,8.4,0.2,12.5c0.1,7.3-0.4,14.9,0,22.2c0.1,1.7,0.7,4-0.8,5c-0.8,0.6-2.4,0.2-3.4,0.2
						c-1.9,0-3.8,0.4-5.6,0.2c-2.6-0.4-2.2-2.4-2.1-4.7c0.1-3.3,0-6.6,0.1-10c0.3-8.4,0.2-16.9,0-25.3c0-1.8,0.5-4.3,0.1-6.1
						c-0.4-1.9-1.1-1.5-3-1.4c-1.4,0-10.2,1-10.2-0.8C128.5,152.1,128.3,149.2,128.3,146.7z"/>
				</g>
			</g>
		</g>
		<g class="st16">
			<g>
				<defs>
					<rect id="SVGID_17_" x="-9.6" y="35.7" width="19.3" height="19.3"/>
				</defs>
				<clipPath id="SVGID_18_">
					<use xlink:href="#SVGID_17_"  style="overflow:visible;"/>
				</clipPath>
				<g class="st19">
					<path class="st12" d="M0,54c4.8,0,8.6-3.9,8.6-8.6S4.8,36.7,0,36.7s-8.6,3.9-8.6,8.6S-4.8,54,0,54"/>
				</g>
			</g>
		</g>
		<g class="st16">
			<g>
				<defs>
					<rect id="SVGID_19_" x="42" y="-9.6" width="19.3" height="19.3"/>
				</defs>
				<clipPath id="SVGID_20_">
					<use xlink:href="#SVGID_19_"  style="overflow:visible;"/>
				</clipPath>
				<g class="st20">
					<path class="st11" d="M51.6,8.6c4.8,0,8.6-3.9,8.6-8.6c0-4.8-3.9-8.6-8.6-8.6S43-4.8,43,0C43,4.8,46.9,8.6,51.6,8.6"/>
				</g>
			</g>
		</g>
		<g class="st16">
			<g>
				<defs>
					<rect id="SVGID_21_" x="105" y="78" width="19.3" height="19.3"/>
				</defs>
				<clipPath id="SVGID_22_">
					<use xlink:href="#SVGID_21_"  style="overflow:visible;"/>
				</clipPath>
				<g class="st21">
					<path class="st4" d="M114.6,96.3c4.8,0,8.6-3.9,8.6-8.6s-3.9-8.6-8.6-8.6c-4.8,0-8.6,3.9-8.6,8.6S109.9,96.3,114.6,96.3"/>
				</g>
			</g>
		</g>
		<g class="st16">
			<g>
				<defs>
					<rect id="SVGID_23_" x="189" y="-5" width="19.3" height="19.3"/>
				</defs>
				<clipPath id="SVGID_24_">
					<use xlink:href="#SVGID_23_"  style="overflow:visible;"/>
				</clipPath>
				<g class="st22">
					<path class="st7" d="M198.6,13.3c4.8,0,8.6-3.9,8.6-8.6c0-4.8-3.9-8.6-8.6-8.6c-4.8,0-8.6,3.9-8.6,8.6
						C190,9.4,193.9,13.3,198.6,13.3"/>
				</g>
			</g>
		</g>
		<g class="st16">
			<g>
				<defs>
					<rect id="SVGID_25_" x="112" y="231" width="19.3" height="19.3"/>
				</defs>
				<clipPath id="SVGID_26_">
					<use xlink:href="#SVGID_25_"  style="overflow:visible;"/>
				</clipPath>
				<g class="st23">
					<path class="st3" d="M121.6,249.3c4.8,0,8.6-3.9,8.6-8.6s-3.9-8.6-8.6-8.6c-4.8,0-8.6,3.9-8.6,8.6S116.9,249.3,121.6,249.3"/>
				</g>
			</g>
		</g>
		<g class="st16">
			<g>
				<defs>
					<rect id="SVGID_27_" x="282" y="70" width="19.3" height="19.3"/>
				</defs>
				<clipPath id="SVGID_28_">
					<use xlink:href="#SVGID_27_"  style="overflow:visible;"/>
				</clipPath>
				<g class="st24">
					<path class="st25" d="M291.6,88.3c4.8,0,8.6-3.9,8.6-8.6s-3.9-8.6-8.6-8.6c-4.8,0-8.6,3.9-8.6,8.6S286.9,88.3,291.6,88.3"/>
				</g>
			</g>
		</g>
		<g class="st16">
			<g>
				<defs>
					<rect id="SVGID_29_" x="326.7" y="101.7" width="19.3" height="19.3"/>
				</defs>
				<clipPath id="SVGID_30_">
					<use xlink:href="#SVGID_29_"  style="overflow:visible;"/>
				</clipPath>
				<g class="st26">
					<path class="st12" d="M336.4,120c4.8,0,8.6-3.9,8.6-8.6s-3.9-8.6-8.6-8.6c-4.8,0-8.6,3.9-8.6,8.6S331.6,120,336.4,120"/>
				</g>
			</g>
		</g>
		<g class="st16">
			<g>
				<defs>
					<rect id="SVGID_31_" x="334" y="-5.3" width="19.3" height="19.3"/>
				</defs>
				<clipPath id="SVGID_32_">
					<use xlink:href="#SVGID_31_"  style="overflow:visible;"/>
				</clipPath>
				<g class="st27">
					<path class="st18" d="M343.6,13c4.8,0,8.6-3.9,8.6-8.6c0-4.8-3.9-8.6-8.6-8.6c-4.8,0-8.6,3.9-8.6,8.6
						C335,9.1,338.9,13,343.6,13"/>
				</g>
			</g>
		</g>
		<g class="st16">
			<g>
				<defs>
					<rect id="SVGID_33_" x="137" y="265.8" width="19.3" height="19.3"/>
				</defs>
				<clipPath id="SVGID_34_">
					<use xlink:href="#SVGID_33_"  style="overflow:visible;"/>
				</clipPath>
				<g class="st28">
					<path class="st18" d="M146.6,284c4.8,0,8.6-3.9,8.6-8.6s-3.9-8.6-8.6-8.6c-4.8,0-8.6,3.9-8.6,8.6S141.9,284,146.6,284"/>
				</g>
			</g>
		</g>
		<g class="st16">
			<g>
				<defs>
					<rect id="SVGID_35_" x="5" y="128.5" width="19.3" height="19.3"/>
				</defs>
				<clipPath id="SVGID_36_">
					<use xlink:href="#SVGID_35_"  style="overflow:visible;"/>
				</clipPath>
				<g class="st29">
					<path class="st4" d="M14.6,146.8c4.8,0,8.6-3.9,8.6-8.6s-3.9-8.6-8.6-8.6S6,133.4,6,138.2S9.8,146.8,14.6,146.8"/>
				</g>
			</g>
		</g>
		<g class="st16">
			<g>
				<defs>
					<rect id="SVGID_37_" x="351" y="278" width="19.3" height="19.3"/>
				</defs>
				<clipPath id="SVGID_38_">
					<use xlink:href="#SVGID_37_"  style="overflow:visible;"/>
				</clipPath>
				<g class="st30">
					<path class="st11" d="M360.6,296.3c4.8,0,8.6-3.9,8.6-8.6c0-4.8-3.9-8.6-8.6-8.6c-4.8,0-8.6,3.9-8.6,8.6
						C352,292.4,355.9,296.3,360.6,296.3"/>
				</g>
			</g>
		</g>
		<g class="st16">
			<g>
				<defs>
					<rect id="SVGID_39_" x="63" y="443.7" width="19.3" height="19.3"/>
				</defs>
				<clipPath id="SVGID_40_">
					<use xlink:href="#SVGID_39_"  style="overflow:visible;"/>
				</clipPath>
				<g class="st31">
					<path class="st32" d="M72.6,462c4.8,0,8.6-3.9,8.6-8.6c0-4.8-3.9-8.6-8.6-8.6c-4.8,0-8.6,3.9-8.6,8.6
						C64,458.1,67.9,462,72.6,462"/>
				</g>
			</g>
		</g>
		<g class="st16">
			<g>
				<defs>
					<rect id="SVGID_41_" x="70" y="145" width="19.3" height="19.3"/>
				</defs>
				<clipPath id="SVGID_42_">
					<use xlink:href="#SVGID_41_"  style="overflow:visible;"/>
				</clipPath>
				<g class="st33">
					<path class="st34" d="M79.6,163.3c4.8,0,8.6-3.9,8.6-8.6s-3.9-8.6-8.6-8.6c-4.8,0-8.6,3.9-8.6,8.6S74.9,163.3,79.6,163.3"/>
				</g>
			</g>
		</g>
		<g class="st16">
			<g>
				<defs>
					<rect id="SVGID_43_" x="323" y="233" width="19.3" height="19.3"/>
				</defs>
				<clipPath id="SVGID_44_">
					<use xlink:href="#SVGID_43_"  style="overflow:visible;"/>
				</clipPath>
				<g class="st35">
					<path class="st25" d="M332.6,251.3c4.8,0,8.6-3.9,8.6-8.6s-3.9-8.6-8.6-8.6c-4.8,0-8.6,3.9-8.6,8.6S327.9,251.3,332.6,251.3"/>
				</g>
			</g>
		</g>
		<g class="st16">
			<g>
				<defs>
					<rect id="SVGID_45_" x="207" y="83.7" width="19.3" height="19.3"/>
				</defs>
				<clipPath id="SVGID_46_">
					<use xlink:href="#SVGID_45_"  style="overflow:visible;"/>
				</clipPath>
				<g class="st36">
					<path class="st7" d="M216.6,102c4.8,0,8.6-3.9,8.6-8.6s-3.9-8.6-8.6-8.6c-4.8,0-8.6,3.9-8.6,8.6S211.9,102,216.6,102"/>
				</g>
			</g>
		</g>
		<g class="st16">
			<g>
				<defs>
					<rect id="SVGID_47_" x="339" y="350" width="19.3" height="19.3"/>
				</defs>
				<clipPath id="SVGID_48_">
					<use xlink:href="#SVGID_47_"  style="overflow:visible;"/>
				</clipPath>
				<g class="st37">
					<path class="st25" d="M348.6,368.3c4.8,0,8.6-3.9,8.6-8.6c0-4.8-3.9-8.6-8.6-8.6c-4.8,0-8.6,3.9-8.6,8.6
						C340,364.4,343.9,368.3,348.6,368.3"/>
				</g>
			</g>
		</g>
		<g class="st16">
			<g>
				<defs>
					<rect id="SVGID_49_" x="23.4" y="202" width="19.3" height="19.3"/>
				</defs>
				<clipPath id="SVGID_50_">
					<use xlink:href="#SVGID_49_"  style="overflow:visible;"/>
				</clipPath>
				<g class="st38">
					<path class="st39" d="M33,220.3c4.8,0,8.6-3.9,8.6-8.6S37.8,203,33,203s-8.6,3.9-8.6,8.6S28.2,220.3,33,220.3"/>
				</g>
			</g>
		</g>
		<g class="st16">
			<g>
				<defs>
					<rect id="SVGID_51_" x="238" y="216" width="19.3" height="19.3"/>
				</defs>
				<clipPath id="SVGID_52_">
					<use xlink:href="#SVGID_51_"  style="overflow:visible;"/>
				</clipPath>
				<g class="st40">
					<path class="st34" d="M247.6,234.3c4.8,0,8.6-3.9,8.6-8.6s-3.9-8.6-8.6-8.6c-4.8,0-8.6,3.9-8.6,8.6S242.9,234.3,247.6,234.3"/>
				</g>
			</g>
		</g>
		<g class="st16">
			<g>
				<defs>
					<rect id="SVGID_53_" x="357.7" y="475" width="19.3" height="19.3"/>
				</defs>
				<clipPath id="SVGID_54_">
					<use xlink:href="#SVGID_53_"  style="overflow:visible;"/>
				</clipPath>
				<g class="st41">
					<path class="st34" d="M367.4,493.3c4.8,0,8.6-3.9,8.6-8.6c0-4.8-3.9-8.6-8.6-8.6c-4.8,0-8.6,3.9-8.6,8.6
						C358.7,489.4,362.6,493.3,367.4,493.3"/>
				</g>
			</g>
		</g>
		<g class="st16">
			<g>
				<defs>
					<rect id="SVGID_55_" x="368.7" y="480" width="19.3" height="19.3"/>
				</defs>
				<clipPath id="SVGID_56_">
					<use xlink:href="#SVGID_55_"  style="overflow:visible;"/>
				</clipPath>
				<g class="st42">
					<path class="st32" d="M378.4,498.3c4.8,0,8.6-3.9,8.6-8.6c0-4.8-3.9-8.6-8.6-8.6c-4.8,0-8.6,3.9-8.6,8.6
						C369.7,494.4,373.6,498.3,378.4,498.3"/>
				</g>
			</g>
		</g>
		<g class="st16">
			<g>
				<defs>
					<rect id="SVGID_57_" x="219" y="502" width="19.3" height="19.3"/>
				</defs>
				<clipPath id="SVGID_58_">
					<use xlink:href="#SVGID_57_"  style="overflow:visible;"/>
				</clipPath>
				<g class="st43">
					<path class="st18" d="M228.6,520.3c4.8,0,8.6-3.9,8.6-8.6c0-4.8-3.9-8.6-8.6-8.6c-4.8,0-8.6,3.9-8.6,8.6
						C220,516.4,223.9,520.3,228.6,520.3"/>
				</g>
			</g>
		</g>
		<g class="st16">
			<g>
				<defs>
					<rect id="SVGID_59_" x="368.7" y="167.7" width="19.3" height="19.3"/>
				</defs>
				<clipPath id="SVGID_60_">
					<use xlink:href="#SVGID_59_"  style="overflow:visible;"/>
				</clipPath>
				<g class="st44">
					<path class="st12" d="M378.4,186c4.8,0,8.6-3.9,8.6-8.6s-3.9-8.6-8.6-8.6c-4.8,0-8.6,3.9-8.6,8.6S373.6,186,378.4,186"/>
				</g>
			</g>
		</g>
		<g class="st16">
			<g>
				<defs>
					<rect id="SVGID_61_" x="194" y="415" width="19.3" height="19.3"/>
				</defs>
				<clipPath id="SVGID_62_">
					<use xlink:href="#SVGID_61_"  style="overflow:visible;"/>
				</clipPath>
				<g class="st45">
					<path class="st7" d="M203.6,433.3c4.8,0,8.6-3.9,8.6-8.6c0-4.8-3.9-8.6-8.6-8.6c-4.8,0-8.6,3.9-8.6,8.6
						C195,429.4,198.9,433.3,203.6,433.3"/>
				</g>
			</g>
		</g>
		<g class="st16">
			<g>
				<defs>
					<rect id="SVGID_63_" x="14.7" y="507" width="19.3" height="19.3"/>
				</defs>
				<clipPath id="SVGID_64_">
					<use xlink:href="#SVGID_63_"  style="overflow:visible;"/>
				</clipPath>
				<g class="st46">
					<path class="st4" d="M24.4,525.3c4.8,0,8.6-3.9,8.6-8.6c0-4.8-3.9-8.6-8.6-8.6s-8.6,3.9-8.6,8.6
						C15.7,521.4,19.6,525.3,24.4,525.3"/>
				</g>
			</g>
		</g>
		<g class="st16">
			<g>
				<defs>
					<rect id="SVGID_65_" x="32" y="530.4" width="19.3" height="19.3"/>
				</defs>
				<clipPath id="SVGID_66_">
					<use xlink:href="#SVGID_65_"  style="overflow:visible;"/>
				</clipPath>
				<g class="st47">
					<path class="st12" d="M41.6,548.6c4.8,0,8.6-3.9,8.6-8.6s-3.9-8.6-8.6-8.6S33,535.2,33,540S36.9,548.6,41.6,548.6"/>
				</g>
			</g>
		</g>
		<g class="st16">
			<g>
				<defs>
					<rect id="SVGID_67_" x="19" y="408" width="19.3" height="19.3"/>
				</defs>
				<clipPath id="SVGID_68_">
					<use xlink:href="#SVGID_67_"  style="overflow:visible;"/>
				</clipPath>
				<g class="st48">
					<path class="st34" d="M28.6,426.3c4.8,0,8.6-3.9,8.6-8.6c0-4.8-3.9-8.6-8.6-8.6s-8.6,3.9-8.6,8.6
						C20,422.4,23.9,426.3,28.6,426.3"/>
				</g>
			</g>
		</g>
		<g class="st16">
			<g>
				<defs>
					<rect id="SVGID_69_" x="81.7" y="49" width="19.3" height="19.3"/>
				</defs>
				<clipPath id="SVGID_70_">
					<use xlink:href="#SVGID_69_"  style="overflow:visible;"/>
				</clipPath>
				<g class="st49">
					<path class="st50" d="M91.4,67.3c4.8,0,8.6-3.9,8.6-8.6S96.1,50,91.4,50c-4.8,0-8.6,3.9-8.6,8.6S86.6,67.3,91.4,67.3"/>
				</g>
			</g>
		</g>
		<g class="st16">
			<g>
				<defs>
					<rect id="SVGID_71_" x="198" y="203" width="19.3" height="19.3"/>
				</defs>
				<clipPath id="SVGID_72_">
					<use xlink:href="#SVGID_71_"  style="overflow:visible;"/>
				</clipPath>
				<g class="st51">
					<path class="st52" d="M207.6,221.3c4.8,0,8.6-3.9,8.6-8.6s-3.9-8.6-8.6-8.6c-4.8,0-8.6,3.9-8.6,8.6S202.9,221.3,207.6,221.3"/>
				</g>
			</g>
		</g>
		<g class="st16">
			<g>
				<defs>
					<rect id="SVGID_73_" x="12" y="23.4" width="19.3" height="19.3"/>
				</defs>
				<clipPath id="SVGID_74_">
					<use xlink:href="#SVGID_73_"  style="overflow:visible;"/>
				</clipPath>
				<g class="st53">
					<path class="st25" d="M21.6,41.6c4.8,0,8.6-3.9,8.6-8.6s-3.9-8.6-8.6-8.6S13,28.2,13,33S16.9,41.6,21.6,41.6"/>
				</g>
			</g>
		</g>
		<g class="st16">
			<path class="st10" d="M378,540H0V0h378V540z M0.5,539.5h377V0.5H0.5V539.5z"/>
		</g>
	</g>
</g>
</svg>
